<?xml version="1.0" standalone="no"?>
<!DOCTYPE svg PUBLIC "-//W3C//DTD SVG 20010904//EN"
 "http://www.w3.org/TR/2001/REC-SVG-20010904/DTD/svg10.dtd">
<svg version="1.0" xmlns="http://www.w3.org/2000/svg"
 width="512.000000pt" height="512.000000pt" viewBox="0 0 512.000000 512.000000"
 preserveAspectRatio="xMidYMid meet">
<metadata>
Created by potrace 1.16, written by Peter Selinger 2001-2019
</metadata>
<g transform="translate(0.000000,512.000000) scale(0.100000,-0.100000)"
fill="#000000" stroke="none">
<path d="M0 5044 c0 -47 4 -73 10 -69 15 9 58 86 65 118 7 26 6 27 -34 27
l-41 0 0 -76z"/>
<path d="M201 5073 c0 -36 3 -43 9 -28 12 28 12 75 0 75 -5 0 -10 -21 -9 -47z"/>
<path d="M229 5042 c-61 -181 -98 -254 -165 -322 l-64 -66 0 -89 0 -89 31 30
c41 40 86 134 104 223 8 40 26 99 39 130 13 31 35 83 49 116 28 65 49 145 38
145 -3 0 -18 -35 -32 -78z"/>
<path d="M280 5026 c0 -105 -18 -206 -49 -279 -34 -80 -97 -181 -148 -237 -51
-56 -30 -55 23 2 36 38 115 165 149 241 13 29 28 87 34 130 14 100 14 237 1
237 -6 0 -10 -38 -10 -94z"/>
<path d="M326 5098 c-3 -13 -6 -59 -6 -103 0 -111 -16 -196 -49 -269 -34 -74
-128 -200 -210 -281 l-61 -59 0 -183 0 -183 53 26 c94 48 174 103 220 153 46
49 87 118 87 145 0 9 16 55 36 102 29 72 58 172 108 378 l7 28 22 -43 c32 -62
50 -70 84 -36 26 25 28 34 28 102 0 41 2 69 4 63 2 -7 19 -46 37 -85 58 -123
63 -179 34 -342 -15 -88 -27 -105 -24 -34 2 34 -7 -2 -20 -86 -25 -145 -52
-242 -89 -316 -46 -93 -133 -212 -232 -317 -113 -120 -178 -210 -216 -298 -12
-29 -25 -48 -27 -41 -2 6 16 53 41 104 35 71 66 115 139 195 154 170 186 212
237 312 39 75 112 278 111 309 0 3 -13 -16 -28 -44 -93 -167 -171 -261 -388
-465 -71 -66 -98 -110 -130 -211 -9 -30 -34 -75 -56 -101 -34 -42 -39 -54 -36
-90 l3 -43 23 40 c26 45 25 38 -9 -57 -13 -37 -21 -70 -17 -73 9 -9 89 46 82
56 -3 5 1 7 8 4 17 -7 52 39 117 153 52 90 88 137 221 277 37 39 89 104 117
145 52 77 123 150 231 234 118 93 141 186 97 396 -3 14 4 6 15 -18 35 -77 53
-195 46 -305 -7 -117 -29 -183 -87 -268 -73 -108 -132 -157 -280 -231 -74 -36
-153 -80 -176 -96 -78 -58 -138 -177 -167 -333 -17 -91 -23 -99 -113 -157
l-42 -27 5 -103 c4 -95 3 -108 -20 -158 -14 -30 -32 -57 -41 -60 -10 -4 -15
-20 -15 -51 l0 -45 40 32 c23 18 61 58 86 88 43 53 46 59 42 104 -4 41 -3 46
9 36 24 -19 43 -65 43 -101 0 -49 -33 -91 -133 -171 l-87 -71 0 -138 0 -138
23 12 c48 26 86 62 106 101 l20 40 6 -36 c10 -52 -2 -103 -40 -166 -27 -43
-38 -78 -51 -160 -16 -97 -17 -125 -5 -321 15 -237 10 -286 -35 -369 -21 -39
-25 -56 -22 -120 l3 -75 29 50 c17 28 38 70 48 95 l19 45 -6 -51 c-6 -58 -41
-168 -74 -231 -20 -40 -28 -93 -14 -93 3 0 29 14 56 32 91 58 124 125 152 303
23 143 40 205 97 339 42 101 51 131 55 200 6 108 16 137 76 225 27 41 58 97
68 125 37 107 41 284 10 465 -10 57 -24 217 -15 171 12 -62 49 -160 93 -249
63 -126 98 -223 116 -328 35 -201 6 -398 -77 -528 -77 -119 -118 -225 -89
-225 14 0 179 177 208 223 30 48 58 125 67 187 9 64 -9 233 -34 315 -25 81
-121 281 -180 375 -22 35 -52 101 -67 145 -22 68 -26 98 -27 200 0 75 5 137
14 165 14 45 14 44 26 -110 10 -135 17 -171 53 -280 49 -151 165 -422 176
-412 5 4 5 2 2 -4 -3 -6 3 -39 14 -74 28 -92 52 -274 45 -346 -9 -91 -30 -142
-107 -260 -99 -153 -128 -239 -154 -453 -9 -69 -20 -141 -25 -160 -5 -19 -8
-36 -6 -38 7 -8 80 83 96 121 10 22 23 75 29 117 12 85 40 168 82 244 15 28
55 116 87 197 74 180 111 236 263 394 66 68 126 139 134 157 8 19 16 58 19 88
l5 54 -13 -52 c-17 -65 -25 -87 -31 -82 -2 3 1 22 6 44 6 22 14 108 18 190 8
130 13 163 40 240 17 49 29 90 27 92 -1 2 -26 -22 -55 -52 -66 -70 -114 -172
-139 -296 l-18 -94 -2 134 c-4 208 22 274 163 421 61 63 87 99 102 140 33 87
55 191 51 240 l-3 45 -32 -45 c-17 -25 -79 -97 -137 -159 -230 -245 -296 -438
-221 -641 10 -25 20 -83 24 -130 l6 -85 37 56 c21 31 38 65 38 75 0 10 5 26
11 34 8 11 9 -2 5 -49 -4 -40 -19 -93 -42 -145 -59 -137 -123 -259 -150 -291
l-25 -30 7 30 c4 17 8 102 9 190 3 236 23 531 42 605 34 139 92 232 249 405
180 198 184 204 184 264 0 62 39 185 81 256 16 28 61 92 98 144 38 52 73 108
78 125 5 17 15 30 21 28 15 -3 16 24 2 33 -5 3 -10 22 -10 42 0 33 2 35 25 29
22 -6 28 -1 42 29 19 41 30 44 36 13 2 -13 2 -3 0 21 -6 58 12 46 32 -21 21
-73 19 -149 -10 -253 l-24 -90 24 28 c30 34 46 89 54 192 6 74 7 77 14 40 10
-50 -6 -156 -35 -232 -11 -31 -50 -100 -86 -152 -36 -53 -81 -123 -100 -156
l-33 -60 6 73 c3 40 13 98 21 129 18 70 11 80 -16 22 -11 -24 -40 -67 -64 -95
l-43 -52 -5 -148 c-6 -168 1 -146 -130 -454 -41 -96 -80 -197 -88 -225 -7 -27
-16 -140 -20 -250 -6 -191 -8 -202 -33 -252 -15 -29 -27 -55 -27 -58 0 -15
105 52 126 80 28 37 54 132 54 197 0 26 4 48 9 48 11 0 21 -76 21 -164 0 -154
-49 -270 -169 -404 -98 -110 -148 -183 -205 -302 -41 -86 -54 -103 -140 -183
-118 -109 -170 -186 -290 -430 -112 -229 -156 -352 -196 -547 -16 -80 -36
-163 -45 -185 -8 -22 -13 -29 -9 -15 3 14 9 81 13 150 4 69 11 131 15 138 4 7
5 12 3 12 -3 0 -15 -17 -27 -38 -15 -25 -26 -70 -35 -142 -8 -58 -31 -176 -53
-263 -28 -109 -36 -157 -27 -157 6 0 17 24 24 52 12 54 79 231 80 213 1 -5
-17 -61 -39 -123 -22 -62 -40 -120 -40 -128 0 -26 21 -15 34 18 64 155 79 189
82 185 4 -4 -21 -80 -55 -165 l-21 -52 119 0 118 0 7 62 c10 90 50 200 105
293 55 91 71 135 105 292 14 62 35 131 47 155 29 59 94 125 152 154 45 23 52
33 87 109 22 46 47 107 56 136 19 57 63 113 113 142 42 25 39 14 -3 -12 -19
-12 -42 -33 -52 -48 -16 -26 -15 -26 27 7 74 56 76 57 27 3 l-48 -52 0 -108
c0 -59 -5 -126 -11 -148 -22 -83 -135 -325 -211 -451 -108 -180 -118 -212
-118 -373 0 -71 3 -136 6 -145 3 -9 16 -16 28 -16 20 0 21 4 21 99 0 55 -3
103 -7 107 -13 12 -9 61 6 73 11 9 15 7 19 -11 l6 -23 21 20 c11 11 33 56 49
100 l30 80 1 -70 c0 -64 -3 -74 -35 -119 -32 -45 -47 -106 -27 -106 11 0 57
50 71 77 6 12 11 68 11 125 0 209 29 295 166 498 51 76 106 162 123 192 45 80
90 218 107 333 25 166 73 233 257 361 108 76 213 178 243 236 13 26 33 82 45
124 27 98 50 153 91 212 34 50 220 263 258 297 l23 20 -24 -43 c-13 -23 -57
-86 -97 -140 -73 -98 -125 -192 -137 -247 -4 -16 14 11 38 61 41 84 113 181
125 169 3 -2 12 1 20 7 8 7 0 -16 -17 -50 -58 -114 -89 -227 -101 -362 -11
-134 -37 -239 -76 -309 -13 -24 -24 -60 -24 -81 0 -80 -67 -176 -230 -325 -36
-33 -94 -102 -129 -153 -65 -94 -103 -136 -63 -68 30 50 28 61 -3 12 -13 -22
-22 -43 -19 -47 2 -4 -12 -40 -31 -81 -19 -40 -43 -111 -55 -158 -57 -234 -93
-327 -182 -465 -67 -104 -98 -170 -114 -244 -16 -77 -17 -101 -5 -101 5 0 13
21 19 47 l10 48 1 -47 c1 -43 3 -48 24 -48 20 0 26 9 41 58 25 77 48 121 122
229 70 104 84 140 84 229 0 196 118 413 345 634 115 111 100 85 -38 -69 -116
-129 -148 -183 -153 -263 l-4 -63 13 58 c20 88 32 86 35 -4 4 -115 -11 -187
-49 -224 l-31 -30 26 39 c39 59 34 77 -9 29 -13 -16 -29 -49 -34 -75 -17 -74
-45 -140 -88 -204 -57 -84 -89 -151 -113 -235 -28 -102 -27 -109 13 -109 31 0
33 2 51 67 23 81 68 169 123 244 63 86 81 128 109 266 22 109 25 144 20 233
-4 80 -2 111 8 130 13 22 14 18 9 -42 -3 -40 -1 -80 6 -100 7 -18 14 -80 17
-137 7 -144 -14 -212 -101 -325 -75 -99 -117 -179 -139 -263 -9 -34 -16 -64
-16 -67 0 -3 15 -6 34 -6 34 0 36 2 89 108 30 59 74 144 97 190 l44 83 0 159
c1 87 4 150 8 140 11 -29 27 -161 22 -175 -3 -7 2 -15 10 -18 29 -11 43 41 48
178 6 157 29 223 113 328 58 73 70 101 80 186 8 67 26 104 76 156 47 49 68
107 77 205 6 74 6 74 13 30 9 -54 2 -100 -22 -158 -10 -24 -15 -40 -10 -37 6
3 19 31 31 63 20 51 21 67 14 157 -13 163 -10 215 14 269 12 27 24 47 26 45 2
-2 -1 -33 -7 -67 -10 -55 -9 -71 6 -110 56 -148 70 -208 70 -297 1 -73 -4 -99
-21 -135 l-22 -45 5 53 c7 85 -20 48 -34 -46 -13 -87 -42 -152 -103 -232 -109
-142 -187 -263 -193 -299 -4 -23 -1 -54 9 -81 14 -41 14 -46 -9 -99 -12 -31
-28 -82 -35 -114 -8 -39 -25 -77 -53 -117 -23 -32 -72 -100 -108 -152 -37 -51
-77 -110 -89 -131 l-22 -37 54 0 53 0 37 108 c20 59 57 141 82 182 32 52 50
97 61 147 18 87 133 363 151 363 2 0 0 -8 -5 -18 -5 -10 -28 -71 -50 -136 -29
-83 -41 -135 -41 -175 -1 -91 -18 -189 -45 -244 -13 -29 -56 -90 -95 -137
l-71 -85 102 -3 c87 -2 103 0 116 15 14 17 14 17 9 1 -4 -13 0 -18 14 -18 11
0 20 6 20 14 0 8 5 18 11 22 8 4 9 0 4 -15 -12 -39 21 -23 58 27 18 26 52 69
75 96 39 47 58 86 42 86 -4 0 -14 -8 -21 -17 -19 -23 -129 -93 -146 -93 -8 0
7 16 34 36 84 63 123 114 189 249 46 94 69 156 84 223 10 51 35 141 54 200 19
59 42 148 51 197 9 50 23 124 31 165 17 94 57 175 130 265 31 39 65 89 75 111
28 62 68 239 78 345 5 52 17 114 26 139 9 25 27 80 40 122 36 117 75 193 60
116 l-6 -33 20 23 c24 28 51 111 51 157 0 59 59 209 76 192 3 -2 -3 -37 -12
-76 -10 -39 -14 -74 -11 -77 14 -15 56 28 89 93 48 91 68 163 68 243 0 124 28
171 174 294 84 71 122 154 117 251 -2 39 -4 149 -5 245 l-1 175 31 65 c39 83
78 127 178 203 45 33 87 65 94 70 47 36 -39 -85 -145 -205 -32 -36 -71 -91
-86 -122 -25 -50 -27 -65 -27 -168 0 -74 7 -146 20 -207 24 -112 26 -209 5
-277 -8 -28 -46 -96 -85 -152 -128 -187 -151 -255 -154 -472 -4 -181 -23 -222
-129 -275 -75 -38 -113 -133 -127 -322 l-8 -118 3 140 c4 201 45 333 112 364
67 31 77 37 95 62 15 20 18 39 16 85 l-3 59 -16 -35 c-17 -37 -69 -104 -75
-97 -3 2 9 33 25 68 17 35 37 105 45 154 32 184 72 291 157 415 37 55 75 130
64 130 -2 0 -12 -14 -21 -31 -8 -17 -36 -59 -61 -93 -63 -83 -105 -179 -144
-321 -43 -162 -74 -225 -155 -323 -62 -75 -70 -81 -75 -60 -5 20 -6 19 -13
-12 -5 -19 -21 -72 -36 -116 -16 -45 -33 -114 -39 -154 -20 -126 0 -178 115
-300 87 -93 113 -144 114 -216 0 -73 -42 -149 -152 -275 -168 -193 -226 -323
-229 -513 -1 -98 -17 -48 -18 59 -1 86 14 157 55 264 14 36 31 80 37 96 6 17
40 72 75 124 36 52 71 109 78 127 18 43 17 112 -1 144 -14 25 -14 25 -15 -16
0 -51 -25 -138 -52 -183 -12 -18 -45 -61 -75 -95 -114 -131 -192 -442 -193
-767 0 -175 -17 -256 -82 -380 -23 -46 -44 -87 -46 -91 -2 -5 19 -8 47 -8 51
0 52 0 85 53 75 118 89 156 94 253 3 70 -1 113 -17 181 -15 63 -21 119 -20
184 1 52 4 81 6 64 7 -57 46 -250 53 -263 5 -10 17 -5 46 22 21 20 42 36 46
36 3 0 -7 -24 -22 -52 -21 -40 -30 -74 -35 -137 -9 -99 -30 -166 -84 -267
l-39 -73 101 0 102 0 67 137 c97 197 125 316 110 470 -7 75 -7 74 -13 -68 -7
-156 -23 -226 -81 -348 -36 -76 -47 -77 -18 -1 44 110 60 208 70 424 5 116 12
232 15 260 6 67 52 156 121 235 95 110 106 145 115 350 9 226 40 345 113 435
l25 30 -21 -65 c-24 -77 -29 -210 -10 -256 14 -34 52 -57 77 -48 9 4 27 27 42
52 26 43 27 44 35 21 5 -13 10 -105 11 -204 1 -149 -2 -193 -18 -255 -10 -41
-21 -66 -22 -55 -12 69 -16 68 -29 -9 -9 -46 -35 -128 -66 -200 -91 -216 -99
-250 -108 -506 -7 -202 -11 -233 -34 -305 -14 -44 -26 -83 -26 -87 0 -5 40 -8
90 -8 77 0 91 3 99 19 24 45 61 217 62 290 1 64 2 71 10 41 14 -58 22 -262 11
-307 l-10 -43 74 0 73 0 12 38 c6 20 13 93 16 162 6 154 -11 237 -90 432 -30
73 -61 158 -68 188 -20 82 -15 211 11 305 20 72 23 111 29 405 7 318 8 327 35
410 27 83 102 236 152 309 37 54 29 31 -26 -79 -66 -132 -63 -140 5 -15 77
140 112 256 126 407 25 290 92 443 283 642 51 54 105 124 135 176 47 80 68
104 145 170 24 21 27 22 18 5 -5 -11 -22 -31 -36 -44 -34 -32 -50 -80 -36
-115 8 -22 15 -26 42 -24 38 2 64 17 85 50 12 16 6 14 -18 -9 -41 -39 -59 -43
-31 -8 36 45 92 191 102 266 13 95 33 162 70 241 36 76 39 106 6 58 -20 -30
-55 -63 -151 -139 -10 -9 -4 4 14 29 42 57 161 171 162 156 1 -24 29 83 40
153 23 157 27 126 16 -164 -2 -60 -7 -77 -34 -116 -18 -25 -35 -59 -38 -75 -5
-22 -1 -19 14 14 11 23 35 60 53 82 18 21 38 58 45 82 l13 43 -4 -57 c-2 -47
-9 -66 -41 -113 -39 -56 -39 -57 -40 -158 -1 -81 -6 -114 -24 -159 -37 -95
-95 -170 -193 -254 -117 -98 -177 -160 -240 -249 -101 -142 -149 -261 -199
-493 -40 -190 -54 -225 -156 -393 -105 -175 -147 -261 -174 -364 -19 -75 -20
-96 -14 -325 6 -205 4 -265 -10 -360 -23 -152 -16 -278 24 -430 16 -63 30
-106 30 -95 1 11 -4 37 -10 59 -14 51 2 70 26 30 9 -16 14 -21 11 -11 -12 39
-17 184 -8 222 11 43 12 33 18 -200 1 -38 14 -119 29 -180 21 -85 29 -142 33
-250 l4 -140 29 140 c38 186 69 285 136 424 110 234 134 316 184 651 35 239
70 327 240 612 129 215 164 264 240 338 59 58 223 169 233 159 3 -2 -40 -43
-95 -92 -54 -48 -106 -101 -115 -118 -12 -23 1 -14 44 33 34 35 108 106 165
157 72 63 115 111 140 154 35 59 37 65 37 155 l0 93 -37 -30 c-21 -16 -51 -33
-67 -37 -29 -7 -109 -70 -222 -173 -33 -31 -94 -84 -135 -119 -96 -82 -180
-179 -231 -267 -22 -38 -62 -107 -89 -151 -44 -73 -119 -225 -119 -242 0 -3
14 16 31 44 39 61 110 136 169 177 38 26 32 17 -42 -61 -132 -137 -213 -272
-249 -410 -22 -86 -25 -202 -8 -350 10 -84 9 -111 -6 -183 -19 -94 -57 -174
-95 -198 -20 -13 -18 -8 11 25 54 61 83 177 75 304 -19 322 -19 311 3 430 27
139 53 236 87 321 44 109 233 415 302 490 35 38 60 69 56 69 -10 0 -138 -98
-191 -147 -53 -47 -172 -190 -221 -263 -20 -30 -56 -93 -81 -140 -38 -74 -43
-80 -37 -45 8 46 66 172 127 277 56 95 208 252 310 319 43 28 79 54 79 56 0 3
-10 -1 -22 -9 -13 -8 -56 -34 -96 -57 -73 -43 -133 -95 -186 -161 -27 -34 -27
-33 5 30 24 46 68 100 150 185 185 192 226 268 259 486 11 71 26 145 35 165 8
21 13 39 11 41 -2 2 -32 -30 -67 -72 -47 -57 -88 -93 -162 -141 -123 -81 -179
-139 -222 -229 -42 -88 -59 -174 -53 -270 3 -41 2 -72 -3 -70 -17 11 -31 110
-25 177 13 138 64 234 172 320 36 29 60 54 55 56 -6 2 -38 -10 -71 -26 -33
-17 -60 -27 -60 -22 0 12 71 74 141 120 35 24 77 55 93 69 l28 26 -7 -24 c-5
-15 -4 -21 3 -17 9 6 43 91 48 124 1 7 22 48 45 90 33 59 73 107 170 202 125
124 160 172 189 265 20 65 69 156 111 211 l39 51 -2 198 -3 198 -81 -79 c-56
-54 -92 -100 -115 -144 -31 -60 -34 -63 -37 -36 -7 55 50 147 149 239 l90 84
-3 89 -3 89 -86 -85 c-110 -109 -160 -202 -161 -300 0 -55 -2 -60 -9 -35 -12
39 -3 132 27 274 20 95 31 124 68 183 30 46 48 89 55 126 19 104 31 157 46
211 8 29 12 58 9 62 -3 5 -43 9 -90 9 l-84 0 0 -68 c0 -92 -28 -169 -110 -305
-37 -62 -77 -131 -88 -154 -29 -56 -67 -188 -92 -322 -33 -176 -93 -340 -169
-466 -21 -33 -76 -109 -124 -167 -125 -155 -158 -229 -182 -407 -17 -123 -30
-147 -40 -69 -20 158 51 349 191 514 131 154 201 295 279 564 93 316 107 357
169 470 101 184 143 310 129 382 l-6 31 -24 -29 -23 -29 0 28 c0 22 -4 28 -17
25 -15 -3 -19 -19 -25 -98 -8 -117 -32 -188 -99 -293 -70 -109 -109 -197 -159
-357 -23 -74 -56 -178 -72 -230 -33 -104 -117 -287 -172 -378 -19 -31 -55 -95
-81 -142 -25 -47 -43 -74 -39 -60 4 14 8 32 11 40 2 8 -12 -16 -31 -54 -52
-102 -69 -193 -64 -338 4 -116 4 -119 -11 -82 -10 27 -15 78 -15 164 -1 146
19 225 87 349 22 41 35 71 28 67 -7 -5 15 32 48 82 146 217 208 388 241 662
15 128 22 151 92 303 58 128 89 222 103 320 l7 47 -40 0 c-38 0 -40 -2 -46
-37 -3 -21 -15 -56 -25 -78 l-18 -40 -9 75 c-7 57 -13 76 -26 78 -9 2 -18 -5
-21 -15 -4 -17 -5 -17 -6 0 -1 11 -9 17 -27 17 -22 0 -25 -3 -20 -22 3 -13 9
-61 12 -108 6 -94 -10 -196 -46 -293 -30 -79 -45 -59 -18 23 28 89 30 260 2
340 l-19 55 -64 3 c-36 2 -69 -2 -74 -7 -14 -14 -30 -14 -22 -1 4 6 -6 10 -23
10 l-30 0 -21 -116 c-29 -153 -51 -209 -120 -302 -65 -87 -129 -147 -250 -236
-265 -192 -356 -297 -468 -532 -59 -125 -88 -247 -102 -426 -6 -81 -18 -180
-26 -220 -15 -69 -121 -397 -132 -408 -11 -10 10 108 39 225 36 147 46 318 29
487 -20 190 -16 292 14 410 24 94 83 244 92 234 2 -2 -8 -34 -22 -72 -28 -75
-30 -131 -3 -148 24 -14 53 14 74 73 9 25 25 69 36 96 10 28 23 85 28 128 11
94 47 166 104 211 22 17 68 58 103 92 66 63 80 64 38 2 -32 -48 -32 -62 1 -54
60 15 116 80 183 213 35 68 57 157 67 271 l7 72 -34 0 c-33 0 -37 -4 -66 -64
-42 -85 -132 -179 -259 -271 -56 -42 -117 -92 -134 -113 l-32 -37 16 37 c23
58 73 125 161 218 84 90 140 157 170 203 l17 27 -64 0 -65 0 -31 -44 c-18 -25
-76 -89 -130 -143 -82 -82 -106 -114 -146 -192 -26 -51 -81 -143 -122 -203
-168 -247 -207 -386 -208 -753 -1 -183 1 -214 17 -242 30 -55 60 -39 81 44
l13 48 31 -98 c39 -118 40 -140 7 -165 -20 -16 -25 -29 -25 -64 0 -57 -15
-141 -45 -248 -14 -47 -34 -143 -46 -215 -25 -156 -56 -234 -144 -365 -88
-131 -142 -189 -243 -264 -93 -69 -118 -97 -170 -191 l-33 -60 7 40 c13 84 50
139 170 251 63 59 114 112 114 118 0 6 -5 4 -10 -5 -5 -9 -45 -43 -87 -75
-101 -76 -212 -171 -235 -200 -10 -12 -25 -38 -33 -56 l-14 -33 -1 30 c0 17
14 59 31 95 25 53 56 90 178 210 244 240 346 368 402 499 42 98 35 117 -12 31
-66 -120 -207 -318 -288 -403 -41 -43 -109 -100 -150 -127 -48 -31 -86 -65
-104 -92 -26 -39 -28 -41 -21 -13 13 56 32 81 101 132 38 28 110 98 161 155
255 288 352 455 391 672 15 84 7 80 -14 -6 -22 -88 -55 -172 -102 -256 -41
-73 -53 -77 -23 -8 33 79 22 66 -26 -29 -63 -122 -110 -188 -189 -265 -88 -84
-71 -52 56 105 31 39 67 88 81 110 56 91 110 255 134 410 l8 50 6 -35 7 -35
13 30 c11 25 10 52 -4 165 -9 74 -16 153 -16 175 0 29 -3 36 -10 25 -5 -8 -10
-31 -10 -50 0 -51 -16 -101 -45 -140 -29 -40 -30 -53 -9 -142 14 -57 15 -82 6
-150 -23 -178 -84 -307 -204 -431 -33 -34 -78 -84 -101 -112 -51 -63 -62 -75
-52 -55 14 27 78 104 117 143 145 143 198 357 149 591 -26 124 -26 207 0 316
17 71 22 137 29 410 11 424 21 475 132 710 88 183 110 246 132 368 5 31 5 32
-32 32 -38 0 -38 -1 -51 -51 -25 -95 -86 -200 -191 -324 -116 -138 -171 -238
-200 -365 -11 -47 -18 -65 -15 -40 12 97 58 279 90 353 18 42 31 77 30 77 -2
0 -14 -19 -28 -42 -54 -94 -99 -256 -142 -512 -15 -88 -43 -216 -62 -285 -19
-69 -39 -144 -44 -165 -17 -69 -70 -186 -81 -179 -7 3 -8 1 -4 -5 4 -6 -5 -34
-18 -61 -39 -77 -107 -252 -103 -265 2 -6 -2 -29 -9 -51 l-14 -40 20 24 c27
32 25 6 -3 -43 -25 -44 -70 -71 -137 -81 -39 -6 -43 -5 -29 7 9 7 37 36 62 65
36 41 52 73 82 162 20 61 57 152 81 202 85 175 166 374 190 466 25 101 49 266
59 408 9 129 32 248 66 336 27 70 56 119 182 302 26 38 47 77 47 88 0 17 -8
19 -80 19 l-80 0 -24 -47 c-37 -75 -73 -182 -81 -248 l-8 -60 -8 40 c-17 89
-9 185 25 293 7 21 4 22 -38 22 l-44 0 -21 -62 c-46 -138 -51 -227 -30 -547
14 -219 5 -348 -32 -494 -54 -213 -213 -420 -468 -609 -29 -22 -89 -76 -132
-119 -80 -80 -101 -85 -51 -12 55 82 137 159 207 197 39 20 95 60 125 87 l55
51 -45 -27 c-40 -24 -36 -19 32 44 186 174 263 334 275 576 7 141 -4 235 -49
418 -45 186 -45 359 -1 485 5 13 3 14 -7 5 -7 -6 -20 -40 -30 -75 l-18 -63 5
75 c3 53 1 70 -6 59 -5 -8 -14 -81 -20 -162 -9 -151 -3 -244 24 -361 22 -90
18 -97 -16 -36 -18 30 -33 56 -34 58 -1 1 -22 -4 -46 -12 -58 -21 -62 -20 -93
9 -19 18 -26 34 -26 63 0 52 11 60 30 20 12 -26 22 -34 47 -36 50 -5 64 26 75
171 11 149 24 256 33 280 6 15 1 17 -38 17 -35 0 -47 -4 -51 -18 -4 -10 -25
-36 -48 -58 l-41 -39 30 40 c54 71 52 75 -28 75 -82 0 -76 8 -109 -148 -19
-85 -21 -119 -15 -196 8 -109 -8 -191 -58 -296 -41 -87 -42 -88 -18 -61 29 33
26 21 -11 -41 -65 -110 -122 -190 -157 -221 -24 -21 -42 -48 -50 -77 -37 -131
-214 -363 -486 -640 -176 -179 -231 -250 -274 -353 -41 -99 -55 -196 -48 -337
l5 -115 -20 25 c-27 33 -63 111 -83 180 l-15 55 5 -55 c6 -61 43 -146 128
-292 59 -102 104 -231 113 -320 5 -52 4 -52 -16 22 -11 42 -64 164 -119 275
-173 349 -207 531 -146 780 32 132 72 221 155 349 66 102 99 188 101 264 1 33
4 22 10 -38 10 -101 4 -140 -47 -280 -38 -106 -50 -208 -31 -255 7 -18 10 -17
35 15 15 19 130 139 256 266 125 128 249 260 273 295 65 91 148 271 167 359 9
41 20 129 26 195 26 315 42 438 62 466 7 10 8 1 4 -31 -16 -122 -18 -197 -7
-204 7 -5 11 1 12 16 0 13 3 18 5 11 3 -7 -4 -45 -15 -85 -11 -40 -28 -124
-36 -185 -9 -62 -22 -131 -30 -154 -9 -23 -13 -44 -11 -46 8 -9 46 125 61 217
22 133 68 280 140 450 86 200 83 190 43 190 -31 -1 -36 -7 -83 -87 -42 -72
-50 -82 -53 -61 -2 14 8 53 22 87 l25 61 -49 0 -48 0 5 -64 c5 -54 2 -72 -17
-108 -13 -24 -26 -54 -30 -68 -6 -19 -9 -10 -10 35 -1 33 -5 80 -9 105 -6 42
-7 38 -14 -46 -4 -50 -5 -124 -2 -165 l6 -74 -21 37 c-26 48 -35 136 -21 213
6 33 13 77 17 98 l7 37 -47 0 c-41 0 -48 -3 -57 -27 -6 -16 -13 -52 -16 -81
-3 -29 -10 -51 -16 -49 -18 6 -57 91 -57 124 0 31 -2 33 -35 33 -32 0 -35 -3
-35 -27 0 -42 18 -99 61 -195 22 -48 48 -126 58 -173 14 -64 25 -94 44 -113
37 -37 57 -18 58 57 1 56 1 55 20 -39 19 -99 22 -178 9 -220 l-7 -25 -12 28
c-6 16 -11 32 -11 36 0 4 -23 46 -51 92 -29 46 -74 131 -101 188 -27 57 -69
130 -94 161 -50 64 -84 143 -84 195 l0 35 -80 0 c-94 0 -95 -2 -51 -95 47
-101 183 -205 168 -130 -4 25 -4 25 15 8 31 -28 44 -59 73 -178 23 -91 27
-123 22 -195 -3 -47 -13 -105 -22 -130 -29 -76 -46 -160 -60 -292 -7 -70 -21
-140 -29 -157 -9 -17 -14 -31 -11 -31 13 0 46 86 61 161 9 46 19 86 21 89 3 3
3 -37 1 -87 -2 -51 -3 -91 -2 -90 22 28 78 151 89 198 9 35 23 81 32 102 13
31 14 44 5 76 -7 21 -11 58 -11 82 1 24 3 35 6 24 2 -11 13 -46 24 -77 17 -49
18 -64 8 -100 -6 -24 -17 -71 -24 -104 -23 -108 -118 -263 -199 -327 -52 -40
-114 -126 -136 -188 -11 -30 -19 -45 -20 -34 0 10 23 68 51 127 60 128 79 192
79 274 0 90 -30 174 -141 399 -136 275 -226 497 -250 614 -11 53 -16 61 -36
61 -13 0 -23 -4 -23 -8 0 -35 49 -187 96 -296 56 -129 70 -185 48 -193 -7 -2
-14 15 -17 42 -7 50 -30 99 -106 224 -28 46 -51 95 -51 109 0 17 -4 23 -15 18
-8 -3 -21 4 -31 17 -15 21 -16 18 -11 -48 3 -38 8 -79 12 -90 7 -25 -19 -64
-34 -50 -11 11 -13 112 -4 213 l5 62 -125 0 c-121 0 -125 -1 -131 -22z m4131
-75 c-3 -10 -5 -4 -5 12 0 17 2 24 5 18 2 -7 2 -21 0 -30z m15 -228 c-15 -103
-90 -356 -91 -304 -1 20 17 107 39 194 29 113 40 181 41 239 l2 81 10 -65 c7
-45 6 -89 -1 -145z m-2513 60 c-5 -199 -5 -208 23 -266 17 -33 55 -81 98 -123
82 -79 115 -138 132 -234 21 -126 -26 -286 -126 -426 -52 -72 -195 -215 -321
-318 -49 -41 -105 -92 -124 -113 l-34 -39 8 60 c11 95 39 128 207 253 171 127
230 214 273 406 30 134 39 235 27 295 l-10 45 -1 -50 c-2 -73 -27 -233 -46
-285 -17 -48 -81 -159 -116 -200 -25 -30 -16 -11 24 47 72 107 117 258 117
391 0 66 -2 72 -41 121 -22 28 -44 51 -48 51 -15 0 -31 -79 -31 -156 0 -79
-20 -144 -45 -145 -5 0 -17 39 -24 86 -13 74 -13 94 -1 143 7 31 15 104 17
162 5 201 26 435 36 409 5 -13 8 -64 6 -114z m2192 93 c42 -159 -43 -363 -210
-502 -42 -34 -145 -109 -230 -166 -174 -115 -275 -209 -334 -310 -43 -73 -40
-49 7 50 44 95 132 177 321 302 199 130 258 191 332 339 68 134 93 209 93 276
0 29 2 53 5 53 2 0 9 -19 16 -42z m-3765 -224 c3 -25 2 -60 -4 -77 l-10 -32
-2 30 c-1 23 -4 18 -14 -25 -24 -108 -75 -180 -179 -254 -62 -43 -107 -70
-107 -63 0 2 24 20 54 41 76 52 153 136 181 198 28 61 55 160 55 200 0 45 18
32 26 -18z m2978 -21 c-68 -66 -111 -140 -136 -233 l-18 -65 6 55 c8 85 45
154 124 231 38 38 73 69 76 69 3 0 -20 -26 -52 -57z m-1859 -5 c7 -18 16 -64
19 -103 l5 -70 -20 60 c-35 104 -39 194 -4 113z m2484 -68 c-34 -64 -116 -147
-197 -200 l-47 -31 45 37 c79 67 151 147 188 212 46 79 55 64 11 -18z m333
-230 c2 -178 -50 -307 -204 -500 -96 -121 -164 -246 -194 -355 -11 -39 -18
-125 -23 -250 -8 -245 -12 -253 -191 -439 -174 -181 -200 -235 -185 -391 l7
-75 30 17 c38 23 44 35 53 103 10 78 32 121 121 240 115 153 177 278 193 389
l9 56 1 -53 c1 -69 -36 -165 -140 -357 -87 -161 -122 -235 -115 -242 9 -10 28
10 57 63 17 30 32 54 34 54 9 0 -20 -93 -45 -147 -41 -88 -106 -153 -236 -234
-63 -38 -129 -89 -149 -112 -91 -106 -130 -250 -123 -460 l4 -129 -25 69 c-21
58 -25 85 -25 188 0 178 37 294 131 406 65 79 90 134 117 261 29 138 62 212
153 349 83 123 104 163 143 270 47 127 78 263 100 440 12 90 32 211 45 269 13
58 27 123 30 144 13 76 54 137 170 252 121 119 163 186 200 319 10 33 20 65
24 70 11 18 32 -119 33 -215z m-1733 168 c-7 -12 -27 -68 -45 -123 -34 -104
-46 -115 -18 -17 18 65 65 175 71 168 3 -2 -1 -15 -8 -28z m1588 -21 c-9 -13
-60 -64 -114 -113 -110 -99 -205 -195 -267 -269 -42 -50 -37 -52 24 -5 37 29
132 80 115 62 -5 -6 -66 -53 -134 -106 -173 -133 -232 -205 -283 -346 -16 -45
-27 -65 -27 -50 -1 43 44 154 99 245 61 100 167 238 179 231 4 -3 32 21 62 52
l54 57 -57 -55 c-32 -30 -58 -49 -58 -43 0 7 28 35 63 63 176 142 233 190 289
247 62 62 84 75 55 30z m-970 -169 c-3 -8 -6 -5 -6 6 -1 11 2 17 5 13 3 -3 4
-12 1 -19z m-721 -194 c-26 -150 -66 -327 -85 -374 -16 -41 -12 -17 14 82 21
80 85 411 85 441 0 6 2 8 5 5 3 -3 -6 -72 -19 -154z m2519 84 c-25 -28 -55
-68 -65 -87 -11 -20 -19 -32 -20 -28 -1 19 42 86 79 125 58 59 62 52 6 -10z
m-2351 -174 c-18 -107 -45 -198 -54 -184 -6 9 -60 -59 -60 -75 0 -15 21 -1 39
28 11 17 21 28 21 22 0 -24 -43 -76 -111 -136 -147 -128 -192 -179 -238 -274
-24 -49 -44 -97 -44 -105 0 -20 -46 -82 -57 -75 -5 3 -12 -4 -15 -16 -4 -11
-9 -19 -11 -17 -7 8 93 225 129 279 20 30 69 90 108 134 189 212 237 287 279
432 13 46 25 81 27 80 1 -2 -4 -44 -13 -93z m2263 24 c-3 -8 -6 -5 -6 6 -1 11
2 17 5 13 3 -3 4 -12 1 -19z m-224 -5 c-17 -48 -113 -137 -129 -120 -4 4 125
137 133 137 1 0 0 -8 -4 -17z m-1757 -193 l3 -95 -19 50 c-14 35 -20 74 -20
130 l1 80 15 -35 c10 -21 17 -73 20 -130z m429 116 c-14 -19 -41 -71 -59 -117
-30 -75 -44 -122 -75 -254 -8 -34 -8 -31 -4 25 10 131 51 245 119 334 19 25
37 46 40 46 3 0 -7 -15 -21 -34z m-711 -163 c-8 -102 -45 -211 -100 -299 -62
-100 -97 -128 -53 -43 11 23 18 43 16 46 -8 7 -64 -100 -72 -137 -4 -19 -17
-57 -28 -85 -14 -36 -22 -87 -27 -186 -9 -150 -23 -197 -82 -272 l-33 -41 46
32 c66 45 94 82 152 199 27 57 54 106 60 110 6 4 8 0 4 -8 -3 -8 -25 -61 -48
-118 -51 -124 -97 -179 -232 -278 -158 -115 -226 -189 -311 -335 -15 -27 -25
-48 -22 -48 3 0 32 35 63 78 82 111 155 179 269 249 54 34 121 82 149 107 27
26 51 46 53 46 2 0 -5 -14 -15 -31 -42 -72 -114 -146 -198 -205 -124 -88 -190
-147 -236 -216 -69 -101 -118 -264 -120 -396 -1 -75 -17 -40 -18 38 -1 54 27
198 49 254 10 28 8 27 -37 -15 -26 -24 -57 -55 -69 -69 -20 -24 -103 -176
-167 -305 -17 -33 -38 -71 -49 -84 -36 -47 -17 -44 35 5 101 97 114 94 44 -8
-23 -35 -41 -70 -39 -80 2 -9 -2 -20 -9 -24 -8 -5 -9 -3 -4 6 5 8 -7 0 -26
-17 -19 -17 -89 -79 -156 -137 -182 -159 -407 -406 -489 -535 -73 -117 -75
-118 -54 -21 33 153 65 214 198 371 44 53 119 149 165 213 55 76 141 175 250
284 91 93 163 163 160 158 -26 -45 -80 -116 -153 -201 -126 -148 -210 -258
-280 -370 -35 -55 -72 -109 -82 -121 -10 -11 -18 -24 -18 -30 0 -14 62 59 157
186 47 63 143 187 213 275 125 157 164 213 229 328 39 69 33 76 -10 10 l-31
-48 7 35 c11 51 47 119 92 170 43 49 117 157 178 260 21 36 52 82 68 103 16
20 24 37 18 37 -17 0 -88 -68 -112 -106 -12 -20 -23 -33 -26 -31 -9 9 50 113
117 207 119 167 177 312 225 565 21 110 19 116 -16 65 -37 -54 -35 -46 10 40
46 89 80 137 134 189 78 75 105 81 39 8 -38 -41 -58 -77 -44 -77 4 0 22 17 40
37 29 34 32 35 27 13 -4 -14 -20 -43 -36 -65 -61 -84 -71 -117 -79 -279 -11
-195 -33 -269 -117 -391 l-35 -50 37 40 c41 44 77 110 107 195 15 41 22 94 27
210 6 146 9 159 34 203 15 26 32 47 37 47 18 0 50 69 50 109 0 54 10 73 80
146 38 41 64 78 76 113 10 29 20 52 22 52 1 0 0 -35 -4 -77z m16 -131 c-15
-115 -40 -185 -110 -315 -32 -59 -73 -152 -91 -205 -31 -95 -49 -132 -49 -100
0 8 7 34 15 57 8 22 12 41 9 41 -3 0 -10 -13 -15 -30 -17 -48 -32 -24 -25 39
9 73 41 141 104 219 78 96 147 256 160 372 4 30 8 44 10 32 2 -13 -2 -63 -8
-110z m324 -41 c14 -36 26 -69 26 -75 -1 -18 -60 108 -60 128 0 27 4 20 34
-53z m648 -35 c-12 -42 -4 -81 33 -158 38 -82 51 -175 37 -257 -22 -130 -72
-222 -200 -370 -45 -52 -82 -99 -82 -104 0 -6 -3 -8 -6 -4 -8 8 52 117 123
225 94 143 107 212 73 378 -30 147 -29 241 1 307 25 53 37 43 21 -17z m-3124
-68 c-186 -183 -256 -298 -265 -439 -6 -83 -23 -91 -23 -11 0 117 44 210 170
358 53 62 212 204 229 204 2 0 -48 -51 -111 -112z m3602 72 c-6 -11 -13 -20
-16 -20 -2 0 0 9 6 20 6 11 13 20 16 20 2 0 0 -9 -6 -20z m-2962 -174 c-18
-24 -75 -98 -126 -163 -209 -267 -266 -482 -207 -780 5 -27 5 -27 -5 -4 -6 14
-18 69 -26 124 -13 81 -14 115 -5 195 22 190 91 329 248 502 37 42 85 97 107
123 49 59 59 62 14 3z m2303 -8 c-37 -66 -102 -218 -94 -218 4 0 18 10 31 23
l24 22 -7 -25 c-19 -62 -47 -95 -162 -189 -28 -23 -72 -73 -98 -111 -47 -72
-73 -97 -37 -36 14 23 16 33 7 30 -7 -3 -18 -20 -25 -37 -19 -53 -40 -91 -65
-122 l-24 -30 -1 35 c0 60 31 130 75 166 22 19 52 44 67 56 14 13 29 34 33 48
6 24 5 24 -9 6 -23 -28 -19 -8 7 40 13 25 48 62 86 90 56 43 71 61 111 140 41
81 95 164 106 164 2 0 -9 -24 -25 -52z m-1597 -101 c-116 -119 -162 -191 -184
-285 -11 -47 -10 -56 4 -70 13 -14 24 -14 68 -5 29 6 55 9 57 7 2 -1 -27 -38
-64 -80 -37 -43 -77 -98 -88 -123 -31 -70 -33 -161 -7 -281 26 -121 24 -246
-6 -320 -53 -133 -170 -275 -311 -380 -58 -42 -88 -75 -149 -164 -43 -61 -111
-153 -153 -204 -42 -51 -105 -130 -140 -175 -35 -45 -68 -81 -72 -80 -5 2 -5
-5 -2 -14 4 -10 2 -14 -4 -10 -6 4 -10 1 -9 -6 0 -6 -30 -70 -69 -142 -93
-174 -135 -272 -190 -445 -58 -181 -94 -278 -106 -285 -4 -3 -2 9 5 27 8 18
23 91 35 161 26 159 64 276 140 432 66 134 120 220 193 312 28 34 50 65 50 70
1 4 9 14 19 21 20 14 26 36 8 30 -6 -2 -10 -8 -10 -13 0 -6 -7 -14 -15 -18 -8
-5 -12 -12 -10 -16 3 -4 -1 -8 -9 -8 -8 0 -15 2 -15 3 0 8 100 127 155 184 45
46 76 91 107 155 63 127 87 163 189 276 49 55 100 122 113 148 53 103 74 251
58 396 -12 104 -2 217 29 339 23 88 43 133 99 215 59 87 118 200 91 177 -29
-26 -26 -10 5 32 22 28 281 251 293 252 2 0 -45 -51 -105 -113z m-1763 -10
c-10 -9 -11 -8 -5 6 3 10 9 15 12 12 3 -3 0 -11 -7 -18z m226 -164 c-13 -41
-17 -73 -14 -108 4 -32 2 -43 -3 -30 -15 35 -10 109 10 153 27 59 30 52 7 -15z
m1594 9 c-5 -10 -28 -38 -51 -62 -46 -48 -36 -31 20 38 37 45 46 53 31 24z
m275 -59 c-3 -26 -26 -89 -51 -139 -35 -72 -63 -111 -138 -192 -101 -107 -137
-168 -161 -269 -17 -76 -46 -140 -80 -180 -42 -50 -50 -39 -12 15 25 34 41 75
59 149 31 125 67 195 150 291 35 40 71 86 81 103 15 26 4 20 -81 -40 -92 -65
-167 -135 -221 -206 l-23 -30 6 35 c11 56 50 134 90 179 21 22 72 62 115 87
95 57 235 176 252 215 18 41 22 36 14 -18z m-886 -28 c-6 -20 -43 -73 -81
-118 -83 -97 -143 -213 -164 -316 -20 -94 -30 -105 -21 -23 10 90 39 177 83
250 41 67 185 254 191 247 2 -2 -1 -20 -8 -40z m-1061 -131 c12 -33 41 -94 65
-136 24 -42 52 -97 61 -122 20 -52 35 -60 35 -18 0 15 9 46 20 70 19 42 29 53
27 30 -1 -7 2 -54 7 -104 9 -100 0 -150 -37 -205 -26 -39 -64 -50 -84 -23 -7
10 -13 44 -13 79 0 48 -5 68 -26 98 -39 58 -54 112 -54 197 0 50 -7 101 -20
142 -22 72 -23 76 -12 63 5 -6 19 -37 31 -71z m-142 -46 c-3 -8 -6 -5 -6 6 -1
11 2 17 5 13 3 -3 4 -12 1 -19z m2879 -312 c-4 -33 -11 -101 -16 -151 -6 -61
-21 -127 -48 -205 -22 -63 -47 -150 -57 -192 -9 -43 -19 -78 -22 -78 -3 0 -3
48 0 108 3 76 13 132 31 192 41 131 29 151 -21 33 -22 -54 -44 -106 -47 -116
-3 -10 -15 -121 -26 -247 -23 -261 -32 -311 -70 -395 -29 -64 -76 -128 -66
-90 18 69 56 264 66 340 7 50 19 105 26 124 8 19 19 77 24 130 13 117 22 152
66 249 20 42 56 138 81 212 67 199 62 189 75 166 6 -11 8 -42 4 -80z m1417
-17 c-32 -60 -56 -80 -74 -62 -9 9 2 25 42 65 30 29 56 52 57 51 2 -1 -9 -25
-25 -54z m-4125 -61 c-4 -69 -15 -115 -68 -267 -53 -155 -63 -198 -68 -271 -5
-97 1 -140 21 -140 23 0 57 45 82 106 18 44 25 52 25 33 0 -37 -57 -147 -87
-166 -24 -16 -26 -16 -43 5 -44 54 -32 232 26 390 20 53 47 128 60 165 20 55
41 164 44 220 0 4 3 7 6 7 4 0 5 -37 2 -82z m4585 11 c-20 -34 -133 -142 -141
-134 -4 4 144 159 156 164 2 0 -5 -13 -15 -30z m-983 -169 c0 -5 -30 -42 -67
-82 l-68 -72 49 27 c56 31 56 31 56 15 0 -6 -3 -8 -7 -4 -4 3 -23 -9 -42 -28
-20 -19 -77 -63 -128 -98 -176 -122 -300 -251 -370 -385 l-35 -68 6 46 c7 62
39 145 79 205 52 78 132 153 297 277 85 63 171 129 190 146 40 34 40 34 40 21z
m-1313 -199 c-27 -41 -114 -108 -125 -97 -3 4 23 33 59 66 35 32 69 63 74 68
21 20 17 1 -8 -37z m58 -78 c-15 -26 -45 -72 -67 -101 -113 -152 -136 -313
-62 -426 l27 -40 -6 -156 c-3 -85 -11 -180 -18 -210 l-12 -55 -23 175 c-12 96
-30 218 -39 270 -19 111 -14 177 21 266 27 69 29 78 12 68 -8 -4 -10 -3 -5 2
5 5 11 8 14 6 3 -2 19 19 36 47 59 92 142 209 146 206 2 -2 -9 -26 -24 -52z
m1366 -23 c-22 -43 -27 -70 -12 -70 10 0 84 86 95 110 17 40 -8 -97 -29 -161
-14 -40 -28 -98 -31 -129 -3 -30 -17 -98 -32 -150 -37 -133 -38 -281 -2 -394
17 -57 21 -81 13 -83 -30 -10 -63 -47 -73 -81 -6 -20 -15 -113 -20 -207 -4
-93 -14 -201 -21 -240 -12 -68 -13 -69 -21 -35 -12 53 -28 365 -26 545 1 187
5 173 17 -55 8 -151 9 -137 8 155 -1 256 2 339 15 412 12 65 14 102 7 125 -24
87 1 169 79 253 26 28 49 50 51 48 2 -1 -6 -20 -18 -43z m197 -137 c-46 -76
-85 -165 -114 -263 -16 -55 -19 -97 -19 -274 0 -188 -1 -204 -12 -155 -51 220
-29 406 69 607 26 53 100 152 114 152 2 0 -15 -30 -38 -67z m-2386 -93 c-18
-17 -38 -30 -45 -30 -6 0 2 9 19 19 18 11 35 24 38 30 4 6 10 11 14 11 4 0 -8
-14 -26 -30z m639 3 c-12 -20 -14 -14 -5 12 4 9 9 14 11 11 3 -2 0 -13 -6 -23z
m1127 -170 c-3 -38 -13 -84 -22 -103 l-16 -35 4 70 c5 66 21 135 33 135 3 0 3
-30 1 -67z m-1143 -285 c2 -57 1 -87 -1 -68 -5 35 -42 229 -50 259 -2 9 7 -7
21 -36 21 -43 26 -69 30 -155z m-353 -31 c-16 -34 -49 -84 -73 -111 -48 -55
-139 -129 -147 -122 -3 3 30 42 72 86 74 78 147 178 163 223 6 19 7 20 11 4 2
-10 -10 -46 -26 -80z m348 -235 c-6 -37 -15 -130 -19 -207 -6 -114 -11 -149
-29 -186 -16 -32 -22 -65 -23 -115 -1 -38 -5 -80 -10 -94 -7 -21 -8 -20 -5 10
3 19 -3 93 -11 164 -16 128 -16 129 7 200 12 39 25 78 27 86 7 23 -56 -104
-73 -147 l-14 -38 4 50 5 50 -16 -35 c-9 -20 -19 -87 -24 -160 -4 -73 -16
-155 -29 -196 -11 -39 -24 -104 -29 -145 -5 -41 -9 -62 -10 -47 0 15 -10 85
-22 155 -17 104 -19 138 -10 180 14 74 69 186 146 304 71 108 105 172 126 234
18 56 23 21 9 -63z m1647 21 c-3 -10 -5 -4 -5 12 0 17 2 24 5 18 2 -7 2 -21 0
-30z m-543 -476 c-47 -68 -49 -74 -51 -147 -8 -267 -19 -447 -31 -467 -19 -34
-21 -28 -6 16 10 31 13 96 10 276 -4 263 -8 244 74 352 61 81 64 58 4 -30z
m-2790 -12 c-13 -42 -24 -82 -24 -90 0 -30 -21 -68 -31 -58 -7 7 -7 24 1 54
13 47 66 169 73 169 3 0 -6 -34 -19 -75z m-97 -230 c-3 -19 -21 -78 -41 -132
-19 -54 -42 -124 -51 -157 -9 -32 -18 -56 -20 -54 -3 2 0 41 5 87 7 63 20 106
56 186 26 58 49 105 52 105 2 0 2 -16 -1 -35z m350 3 c-3 -8 -6 -5 -6 6 -1 11
2 17 5 13 3 -3 4 -12 1 -19z m1773 -231 c-12 -36 -112 -208 -117 -203 -2 2 18
46 46 97 27 52 55 114 63 139 10 35 14 40 16 22 2 -13 -1 -37 -8 -55z"/>
<path d="M1932 4605 c0 -11 3 -29 8 -40 11 -25 11 1 0 35 -6 20 -8 21 -8 5z"/>
<path d="M4175 4218 c-16 -28 -68 -85 -113 -127 -109 -99 -127 -132 -25 -48
86 73 120 111 152 176 31 60 22 59 -14 -1z"/>
<path d="M2170 3335 c-13 -14 -21 -27 -18 -31 3 -3 16 9 28 25 26 37 22 40
-10 6z"/>
<path d="M1636 1850 c-53 -57 -60 -73 -15 -39 27 22 78 89 66 89 -2 0 -25 -22
-51 -50z"/>
<path d="M1627 3063 c-31 -61 -61 -152 -53 -160 3 -4 6 0 6 8 0 13 18 56 64
162 23 53 11 46 -17 -10z"/>
<path d="M1142 1728 c-20 -34 -47 -107 -40 -113 1 -1 17 30 34 71 18 41 30 74
29 74 -2 0 -12 -15 -23 -32z"/>
<path d="M344 2587 c-7 -20 13 -67 30 -67 20 0 27 26 14 55 -12 27 -35 33 -44
12z"/>
<path d="M2965 2670 c-4 -28 -5 -54 -2 -56 3 -3 8 18 12 46 4 28 5 54 2 56 -3
3 -8 -18 -12 -46z"/>
<path d="M3720 2250 c-9 -6 -10 -10 -3 -10 6 0 15 5 18 10 8 12 4 12 -15 0z"/>
<path d="M860 5110 c0 -26 40 -121 73 -172 62 -98 67 -112 82 -266 8 -82 24
-183 34 -225 19 -73 74 -214 90 -230 18 -18 62 146 71 267 6 66 11 121 14 123
2 2 7 -34 12 -79 l9 -83 3 59 c5 88 -15 193 -48 262 -25 52 -41 69 -103 112
-120 85 -142 110 -170 192 -12 36 -20 46 -41 48 -14 2 -26 -2 -26 -8z"/>
<path d="M1791 4997 c-57 -157 -58 -163 -22 -97 27 48 91 200 91 215 0 3 -6 5
-12 5 -7 0 -33 -55 -57 -123z"/>
<path d="M2816 5108 c-19 -65 -46 -119 -90 -180 -87 -120 -97 -153 -32 -103
62 47 121 138 157 242 l18 53 -25 0 c-13 0 -26 -6 -28 -12z"/>
<path d="M3114 5098 c4 -13 9 -57 13 -98 10 -135 -25 -238 -123 -363 -81 -102
-122 -198 -138 -317 -6 -43 -3 -40 47 55 28 55 89 152 133 215 116 163 140
218 164 372 6 37 19 87 30 112 l19 46 -76 0 c-73 0 -75 -1 -69 -22z"/>
<path d="M3277 5103 c-25 -92 -13 -100 56 -34 l52 51 -52 0 c-41 0 -53 -4 -56
-17z"/>
<path d="M3975 5058 c9 -86 11 -91 33 -79 28 15 51 54 58 100 l7 41 -52 0 -52
0 6 -62z"/>
<path d="M5092 5094 c-7 -14 -8 -23 -2 -19 15 9 32 45 22 45 -5 0 -14 -12 -20
-26z"/>
<path d="M3832 5050 c0 -19 2 -27 5 -17 2 9 2 25 0 35 -3 9 -5 1 -5 -18z"/>
<path d="M3842 4990 c0 -14 2 -19 5 -12 2 6 2 18 0 25 -3 6 -5 1 -5 -13z"/>
<path d="M3855 4847 c0 -110 -1 -115 -37 -187 -20 -41 -60 -101 -89 -133 -28
-32 -49 -60 -46 -63 11 -11 95 66 125 116 48 81 67 151 65 245 -3 132 -18 150
-18 22z"/>
<path d="M1772 4808 c-43 -105 -75 -205 -117 -358 -20 -74 -53 -169 -73 -212
-20 -42 -34 -74 -29 -71 18 11 77 146 107 243 17 58 57 186 89 285 32 99 57
181 56 183 -2 2 -16 -30 -33 -70z"/>
<path d="M688 4770 c4 -30 7 -85 7 -122 0 -37 3 -62 7 -55 13 20 9 128 -7 182
l-14 50 7 -55z"/>
<path d="M3047 4731 c-24 -42 -21 -52 4 -13 12 18 20 35 17 37 -2 2 -12 -9
-21 -24z"/>
<path d="M577 4595 c4 -69 0 -120 -10 -165 -20 -82 -14 -91 9 -14 19 65 23
212 7 254 -7 18 -9 -4 -6 -75z"/>
<path d="M1231 4404 c0 -11 3 -14 6 -6 3 7 2 16 -1 19 -3 4 -6 -2 -5 -13z"/>
<path d="M298 4186 c-48 -51 -134 -128 -192 -172 -68 -50 -106 -85 -106 -97 0
-16 7 -14 46 15 110 78 238 193 280 251 44 59 68 97 62 97 -2 0 -42 -42 -90
-94z"/>
<path d="M1736 4104 c-3 -9 -6 -25 -6 -36 0 -17 2 -18 15 -4 17 16 20 42 6 50
-5 3 -12 -1 -15 -10z"/>
<path d="M1485 3999 c-32 -50 -89 -130 -128 -178 -87 -107 -101 -127 -59 -82
103 110 155 181 226 304 45 78 22 53 -39 -44z"/>
<path d="M795 4041 c-32 -19 -63 -51 -50 -51 6 0 47 27 84 57 2 2 2 5 0 8 -3
2 -18 -4 -34 -14z"/>
<path d="M3638 3891 c-18 -16 -30 -32 -27 -35 3 -3 21 10 39 29 41 42 33 46
-12 6z"/>
<path d="M1704 3871 c-46 -34 -133 -139 -162 -196 -11 -23 -23 -59 -27 -80 -6
-37 -5 -36 13 12 27 74 85 158 160 231 36 34 63 62 61 62 -3 0 -23 -13 -45
-29z"/>
<path d="M148 3863 c-93 -100 -148 -177 -148 -207 1 -30 1 -30 16 -11 9 11 25
38 36 60 12 22 45 73 75 113 57 77 62 89 21 45z"/>
<path d="M5087 3851 c-23 -34 -24 -40 -9 -32 28 15 44 38 40 57 -2 13 -11 6
-31 -25z"/>
<path d="M2291 3738 c-5 -13 -19 -47 -30 -77 -12 -29 -20 -55 -18 -58 3 -2 9
9 15 24 5 15 19 52 31 81 11 28 18 52 16 52 -3 0 -9 -10 -14 -22z"/>
<path d="M1152 3653 c-21 -31 -57 -121 -51 -127 2 -3 21 31 41 75 20 43 35 79
33 79 -2 0 -12 -12 -23 -27z"/>
<path d="M4989 3513 c-69 -71 -139 -147 -157 -169 -41 -54 -92 -162 -91 -194
l1 -25 7 25 c38 124 167 279 324 390 40 28 47 38 47 67 0 18 -1 33 -3 33 -2 0
-59 -57 -128 -127z"/>
<path d="M33 3561 c-18 -15 -33 -34 -33 -41 0 -15 46 24 61 53 13 22 10 21
-28 -12z"/>
<path d="M714 3517 c-26 -55 -36 -91 -39 -143 l-5 -69 14 70 c7 39 27 103 44
143 16 39 28 72 26 72 -3 0 -21 -33 -40 -73z"/>
<path d="M4960 3343 c-135 -136 -190 -211 -190 -264 0 -16 11 -6 45 38 24 33
103 121 175 195 118 123 150 168 119 168 -6 0 -73 -62 -149 -137z"/>
<path d="M163 3373 c-33 -43 -73 -98 -88 -123 -16 -25 -40 -58 -52 -73 -23
-29 -34 -115 -13 -102 14 9 50 90 50 114 0 11 24 47 53 80 45 53 126 181 113
181 -2 0 -31 -35 -63 -77z"/>
<path d="M4718 3353 c-8 -10 -19 -25 -23 -33 -8 -13 -7 -13 9 -1 16 14 41 51
33 51 -2 0 -11 -8 -19 -17z"/>
<path d="M4288 3234 c-90 -73 -158 -160 -213 -269 -63 -126 -85 -221 -84 -359
l2 -111 7 115 c9 141 28 220 81 329 55 117 116 199 209 281 95 83 93 93 -2 14z"/>
<path d="M2932 3250 c0 -14 2 -19 5 -12 2 6 2 18 0 25 -3 6 -5 1 -5 -13z"/>
<path d="M5000 3229 c-54 -33 -150 -107 -197 -153 -49 -45 -50 -53 -31 -184
18 -133 -8 -237 -86 -337 -26 -33 -19 -29 42 25 40 36 103 83 140 106 71 43
79 57 81 136 1 38 6 50 31 71 16 14 55 33 85 42 l55 16 0 130 c0 120 -1 129
-17 120 -38 -20 -254 -241 -247 -253 4 -6 3 -8 -4 -4 -6 3 -13 -6 -17 -25 -4
-17 -9 -28 -12 -25 -3 3 2 27 13 53 10 27 19 53 20 60 4 21 88 138 137 191 28
28 48 52 46 52 -2 0 -20 -10 -39 -21z"/>
<path d="M4982 3132 c-67 -64 -122 -121 -122 -125 0 -8 260 232 260 240 0 13
-31 -13 -138 -115z"/>
<path d="M2923 3170 c0 -30 2 -43 4 -27 2 15 2 39 0 55 -2 15 -4 2 -4 -28z"/>
<path d="M2912 3090 c0 -14 2 -19 5 -12 2 6 2 18 0 25 -3 6 -5 1 -5 -13z"/>
<path d="M4419 2983 c-13 -16 -12 -17 4 -4 16 13 21 21 13 21 -2 0 -10 -8 -17
-17z"/>
<path d="M5040 2362 c-100 -71 -172 -149 -210 -225 -36 -74 -35 -97 2 -47 12
18 83 84 156 146 114 99 132 119 132 144 0 17 -3 30 -7 29 -5 0 -37 -22 -73
-47z"/>
<path d="M31 2197 c-15 -50 -26 -113 -27 -162 l-3 -80 30 150 c16 83 28 156
27 162 -2 7 -14 -24 -27 -70z"/>
<path d="M5090 2255 c-14 -15 -61 -55 -105 -88 -44 -34 -111 -90 -149 -126
-58 -56 -76 -82 -116 -167 -44 -93 -53 -105 -122 -161 -114 -94 -144 -139
-183 -280 -18 -69 -24 -80 -24 -52 -1 53 32 172 77 277 22 50 39 92 37 92 -2
0 -22 -31 -44 -69 -76 -130 -101 -229 -131 -532 -18 -184 -54 -280 -180 -490
-103 -170 -143 -291 -160 -484 -15 -186 -18 -175 34 -175 l43 0 5 88 c6 103
32 162 111 257 47 56 50 58 44 29 -3 -18 -24 -60 -46 -94 -25 -38 -44 -83 -51
-118 -6 -31 -17 -81 -24 -110 -8 -29 -10 -52 -6 -50 11 4 134 168 181 241 56
86 94 187 123 324 22 108 25 145 25 325 0 112 5 244 10 293 27 231 115 408
258 517 94 72 123 87 64 33 -30 -28 -60 -53 -67 -58 -18 -10 -106 -124 -143
-184 -35 -56 -84 -173 -73 -173 4 1 30 37 57 82 79 128 151 194 285 263 142
74 140 73 111 41 -14 -14 -67 -49 -119 -77 -51 -28 -112 -67 -134 -87 -84 -76
-156 -212 -200 -377 -17 -62 -21 -106 -20 -198 1 -64 6 -125 11 -135 7 -12 10
19 11 107 0 135 15 212 57 295 39 77 136 213 203 286 l61 65 -64 -96 c-35 -52
-72 -120 -82 -150 -10 -30 -36 -92 -57 -139 -57 -122 -88 -206 -88 -238 1 -21
4 -17 19 23 53 149 82 184 214 264 158 95 199 165 251 428 26 133 55 226 100
327 24 53 26 67 24 168 l-3 110 -25 -27z m-31 -131 c-13 -14 -37 -35 -54 -47
-21 -14 -15 -4 19 31 28 28 52 49 55 47 2 -3 -6 -17 -20 -31z m-634 -806 c-5
-35 -11 -128 -16 -208 l-7 -145 4 180 c3 168 9 235 21 235 3 0 2 -28 -2 -62z
m-86 -638 c0 -10 -3 -8 -9 5 -12 27 -12 43 0 25 5 -8 9 -22 9 -30z m9 -120 l7
-55 7 50 c6 46 6 45 4 -15 -3 -85 -78 -281 -100 -260 -3 3 0 25 6 48 9 36 8
49 -7 82 -17 38 -17 40 9 105 19 47 26 84 26 133 l1 67 20 -50 c10 -27 22 -75
27 -105z"/>
<path d="M646 2127 c-35 -160 -53 -214 -101 -303 l-37 -69 6 45 c4 25 8 86 10
135 3 50 2 72 0 50 -12 -104 -29 -158 -85 -273 -33 -68 -67 -154 -76 -190
-117 -497 -125 -513 -305 -638 l-58 -39 0 -76 0 -77 70 70 c39 39 73 68 76 66
11 -12 -20 -66 -66 -114 -58 -62 -67 -89 -52 -164 17 -81 15 -132 -8 -191 -14
-34 -20 -69 -18 -101 l3 -48 63 77 c34 43 73 101 87 129 28 58 49 177 64 349
11 129 54 349 59 303 2 -15 -6 -81 -17 -147 -12 -66 -26 -178 -31 -248 -18
-218 -47 -299 -161 -440 l-69 -85 0 -74 0 -74 36 0 c41 0 40 -1 118 115 68
100 96 183 136 400 17 94 46 229 65 300 58 220 77 316 80 410 4 118 32 183
117 272 42 44 52 59 31 44 -45 -31 -142 -142 -175 -200 -22 -37 -33 -78 -49
-187 -11 -76 -23 -141 -26 -144 -9 -8 7 190 22 265 28 143 56 208 184 425 69
117 94 189 110 309 6 44 16 117 22 162 6 45 9 83 7 85 -2 2 -17 -56 -32 -129z
m-166 -412 c-12 -19 -23 -35 -25 -35 -2 0 6 23 18 51 13 30 23 45 25 35 2 -9
-6 -32 -18 -51z m-69 -126 c-5 -13 -10 -19 -10 -12 -1 15 10 45 15 40 3 -2 0
-15 -5 -28z m-124 -481 c-3 -8 -6 -5 -6 6 -1 11 2 17 5 13 3 -3 4 -12 1 -19z
m-177 -458 c-5 -25 -10 -65 -10 -90 -1 -35 -3 -40 -10 -25 -14 33 -11 95 6
131 21 44 24 40 14 -16z"/>
<path d="M4316 2085 c-9 -14 -13 -25 -8 -25 10 0 42 33 42 43 0 15 -19 5 -34
-18z"/>
<path d="M925 1850 c-9 -28 -15 -54 -12 -56 3 -3 13 18 22 46 9 28 15 54 12
56 -3 3 -13 -18 -22 -46z"/>
<path d="M4596 1853 c-21 -24 -34 -43 -29 -43 13 0 76 67 72 77 -2 4 -21 -11
-43 -34z"/>
<path d="M5092 1855 c-30 -61 -28 -70 4 -17 14 23 24 47 22 53 -2 6 -13 -10
-26 -36z"/>
<path d="M1998 1675 c-9 -147 -58 -216 -237 -332 -143 -94 -192 -140 -302
-283 -49 -63 -120 -155 -159 -205 -89 -114 -155 -244 -177 -350 -13 -67 -14
-93 -5 -161 15 -102 14 -142 -3 -179 -13 -28 -13 -26 -15 55 -2 76 -3 80 -10
40 -12 -65 -27 -99 -70 -155 -21 -27 -42 -62 -45 -78 l-7 -27 85 0 84 0 17 60
c25 87 110 292 163 390 79 145 90 172 113 270 48 203 102 301 275 504 27 32
95 96 150 141 125 103 155 151 162 263 3 42 1 88 -5 102 -7 20 -10 9 -14 -55z"/>
<path d="M5112 1724 c-1 -12 -4 -37 -7 -55 -5 -31 -5 -32 5 -9 6 13 9 38 7 55
-2 18 -4 21 -5 9z"/>
<path d="M10 1577 c-7 -29 -10 -62 -8 -73 2 -10 10 12 17 49 16 81 10 99 -9
24z"/>
<path d="M1720 1607 c-59 -30 -90 -50 -90 -59 0 -9 107 48 130 69 20 18 13 16
-40 -10z"/>
<path d="M2923 1587 c14 -63 -5 -115 -69 -194 -74 -90 -100 -150 -136 -318
-16 -77 -33 -158 -38 -180 -5 -22 -9 -61 -10 -87 0 -27 -4 -48 -8 -48 -4 0
-18 46 -30 103 -12 56 -20 80 -17 53 16 -161 17 -273 1 -339 -28 -119 -75
-204 -162 -298 -87 -92 -127 -146 -168 -226 l-26 -53 99 0 99 0 7 37 c10 58
37 111 93 188 66 91 81 135 92 271 11 131 32 226 94 427 52 165 85 246 122
294 14 18 20 33 15 33 -19 0 -60 -74 -100 -182 -58 -156 -79 -189 -40 -62 30
98 75 191 121 252 51 69 75 123 83 193 7 56 -8 164 -24 174 -5 2 -4 -15 2 -38z
m-318 -1220 c-9 -19 -30 -47 -47 -63 -30 -29 -30 -29 4 18 20 25 39 59 43 75
4 15 9 23 12 16 2 -7 -3 -27 -12 -46z m-142 -150 c-12 -12 -30 -38 -42 -57
-12 -21 -21 -28 -21 -18 0 17 71 108 79 102 3 -2 -5 -14 -16 -27z"/>
<path d="M5081 1574 c0 -11 3 -14 6 -6 3 7 2 16 -1 19 -3 4 -6 -2 -5 -13z"/>
<path d="M5059 1482 c-21 -85 -89 -263 -99 -257 -4 2 -12 -7 -19 -21 -8 -18
-8 -23 0 -18 8 4 8 0 0 -15 -7 -11 -17 -21 -23 -21 -6 0 -9 -3 -5 -6 7 -7 -83
-140 -222 -329 -178 -240 -258 -392 -276 -520 -4 -28 -17 -84 -30 -125 -12
-41 -25 -96 -28 -122 l-7 -48 59 0 59 0 11 50 c20 92 79 188 133 216 24 13 32
13 39 3 12 -20 37 7 49 55 17 68 30 87 23 36 -8 -68 -35 -121 -97 -194 -30
-36 -67 -88 -81 -116 l-25 -50 58 0 58 0 21 42 c11 24 54 99 95 168 79 131
111 205 122 280 11 66 36 141 47 134 5 -3 9 3 9 14 0 10 11 29 25 42 29 27 31
16 9 -41 -14 -33 -15 -56 -8 -127 18 -188 9 -249 -60 -410 -20 -46 -36 -88
-36 -93 0 -5 10 -9 23 -9 19 0 25 8 36 50 7 28 17 50 22 50 5 0 39 60 75 133
49 99 66 146 69 187 l5 55 -19 -65 c-35 -125 -40 -126 -40 -4 -1 123 13 184
61 275 24 46 29 65 26 112 l-3 56 -75 -56 c-77 -57 -75 -54 23 54 75 84 56 94
-22 11 -38 -40 -72 -70 -76 -66 -3 3 10 30 29 58 47 69 48 95 1 50 -19 -19
-35 -31 -35 -27 0 14 80 166 120 228 l40 62 -1 136 -1 136 -17 -65 c-9 -36
-38 -105 -63 -155 -25 -49 -49 -101 -53 -115 l-8 -25 23 20 c26 22 19 3 -11
-30 -10 -11 -44 -65 -74 -120 -31 -55 -54 -89 -50 -75 l6 25 -24 -28 c-30 -35
-78 -132 -129 -257 -21 -52 -48 -108 -59 -125 -11 -16 7 -2 40 32 48 50 64 75
80 125 13 40 20 54 21 38 1 -19 9 -10 36 43 19 37 37 67 40 67 3 0 -15 -39
-40 -87 -24 -49 -60 -122 -79 -163 -42 -93 -97 -166 -163 -219 -62 -49 -94
-95 -140 -197 -34 -75 -35 -77 -29 -34 8 63 47 142 114 235 66 91 96 145 81
145 -5 0 -53 -64 -105 -142 -52 -79 -95 -140 -95 -136 0 17 176 390 217 459
25 43 95 141 155 219 60 78 103 139 96 135 -7 -4 -4 1 7 10 11 9 19 21 17 26
-1 6 2 8 7 5 22 -14 99 159 143 323 16 63 32 122 35 131 4 13 3 13 -5 1 -8
-11 -11 -8 -14 17 -2 27 -6 21 -19 -36z m-59 -495 c0 -2 -12 -14 -27 -28 l-28
-24 24 28 c23 25 31 32 31 24z m-86 -292 c-26 -34 -42 -47 -28 -22 9 15 46 57
51 57 2 0 -8 -16 -23 -35z m-507 -567 c-3 -8 -6 -5 -6 6 -1 11 2 17 5 13 3 -3
4 -12 1 -19z"/>
<path d="M537 1353 c-47 -121 -125 -396 -131 -463 -6 -63 -5 -62 18 35 14 55
51 188 85 295 33 107 58 196 57 197 -2 2 -15 -27 -29 -64z"/>
<path d="M4872 1276 c-93 -143 -146 -203 -238 -271 -98 -73 -124 -122 -135
-257 -9 -100 -32 -182 -92 -328 -19 -47 -45 -111 -58 -144 -20 -51 -71 -131
-156 -243 l-25 -33 69 0 69 0 26 112 c28 127 89 299 172 493 41 97 56 142 56
178 0 57 21 112 57 150 42 43 45 32 8 -24 -34 -50 -55 -105 -55 -145 0 -12 -7
-41 -15 -64 -8 -23 -15 -48 -14 -54 1 -14 59 104 59 120 0 6 25 56 56 110 31
55 72 126 91 159 58 102 58 86 -1 -32 -58 -116 -63 -128 -47 -118 12 7 133
217 181 314 37 75 75 179 68 186 -1 2 -36 -47 -76 -109z"/>
<path d="M4760 1229 c-93 -63 -130 -98 -160 -152 -22 -39 -19 -37 40 27 35 37
89 85 120 106 47 32 92 72 79 69 -2 0 -38 -23 -79 -50z"/>
<path d="M2961 1198 c-10 -30 -9 -31 4 -14 8 11 15 26 15 33 0 22 -8 14 -19
-19z"/>
<path d="M1138 1137 c-14 -28 -38 -101 -52 -162 -26 -112 -54 -176 -167 -383
-34 -62 -59 -115 -57 -118 8 -7 156 257 195 347 19 44 43 121 53 171 11 49 21
92 23 95 3 2 8 -9 12 -26 12 -56 22 -33 21 49 -1 44 -1 80 -1 80 0 0 -12 -24
-27 -53z"/>
<path d="M3407 986 c-67 -191 -90 -322 -105 -606 -9 -162 -22 -223 -77 -362
-6 -15 -2 -18 24 -18 36 0 41 8 72 130 16 58 22 133 30 335 11 304 19 368 60
493 38 114 34 138 -4 28z"/>
<path d="M43 982 c-24 -25 -43 -55 -43 -66 1 -18 6 -15 35 17 18 22 38 52 44
68 5 16 9 29 8 28 -1 0 -21 -21 -44 -47z"/>
<path d="M2016 901 c-55 -66 -61 -75 -70 -111 -5 -19 -2 -16 13 10 11 19 40
59 65 88 38 44 56 74 44 71 -2 0 -25 -26 -52 -58z"/>
<path d="M1475 821 c-9 -28 -15 -59 -13 -68 2 -10 11 11 20 47 20 78 16 90 -7
21z"/>
<path d="M3266 818 c-4 -13 -11 -104 -16 -203 -11 -221 -48 -386 -135 -597 -6
-16 -1 -18 39 -18 43 0 47 2 61 38 41 96 47 151 54 477 4 176 6 321 5 323 -1
1 -4 -8 -8 -20z m-30 -624 c-14 -68 -55 -189 -61 -182 -2 2 9 46 25 99 15 53
32 118 36 145 5 27 10 40 12 28 1 -11 -4 -52 -12 -90z"/>
<path d="M5106 669 c-9 -49 -7 -129 4 -129 6 0 10 33 10 80 0 44 -2 80 -4 80
-2 0 -6 -14 -10 -31z"/>
<path d="M2548 635 c21 -120 2 -196 -72 -284 -49 -59 -45 -66 6 -11 81 90 107
194 73 295 l-14 40 7 -40z"/>
<path d="M2684 575 c0 -49 1 -71 3 -48 2 23 2 64 0 90 -2 26 -3 8 -3 -42z"/>
<path d="M4912 510 c-3 -116 -21 -181 -96 -340 -80 -168 -80 -170 -57 -170 13
0 20 10 24 36 3 20 29 84 56 143 67 141 83 206 78 323 l-3 93 -2 -85z"/>
<path d="M3784 510 c23 -211 16 -338 -24 -456 l-19 -54 28 0 c22 0 31 7 39 27
40 102 41 185 6 382 -26 150 -41 199 -30 101z"/>
<path d="M5071 277 c-24 -45 -63 -112 -87 -148 -37 -56 -64 -109 -64 -125 0
-2 31 -4 69 -4 l68 0 7 50 c4 28 18 89 32 137 14 50 24 105 22 129 l-3 43 -44
-82z"/>
<path d="M750 283 c-27 -74 -47 -152 -55 -226 -6 -57 -6 -57 21 -57 26 0 27 1
21 51 -7 60 6 179 27 240 23 65 11 59 -14 -8z"/>
<path d="M4865 160 c3 -5 8 -10 11 -10 2 0 4 5 4 10 0 6 -5 10 -11 10 -5 0 -7
-4 -4 -10z"/>
<path d="M180 109 c-37 -43 -59 -78 -60 -93 0 -5 15 12 34 38 31 44 34 46 40
24 3 -13 6 -35 6 -50 0 -16 3 -28 8 -28 4 0 7 34 7 75 0 41 0 75 0 75 0 0 -16
-19 -35 -41z"/>
</g>
</svg>