<?xml version="1.0" standalone="no"?>
<!DOCTYPE svg PUBLIC "-//W3C//DTD SVG 20010904//EN"
 "http://www.w3.org/TR/2001/REC-SVG-20010904/DTD/svg10.dtd">
<svg version="1.0" xmlns="http://www.w3.org/2000/svg"
 width="512.000000pt" height="512.000000pt" viewBox="0 0 512.000000 512.000000"
 preserveAspectRatio="xMidYMid meet">
<metadata>
Created by potrace 1.16, written by Peter Selinger 2001-2019
</metadata>
<g transform="translate(0.000000,512.000000) scale(0.100000,-0.100000)"
fill="#000000" stroke="none">
<path d="M206 4987 c8 -161 3 -177 -57 -177 -33 0 -47 -6 -75 -34 -30 -30 -34
-41 -34 -84 0 -36 7 -59 25 -86 l25 -37 -27 -10 c-15 -6 -35 -8 -45 -6 -12 3
-18 0 -18 -10 0 -13 10 -15 68 -9 82 8 148 38 173 80 22 34 22 33 -6 326 -8
85 -14 161 -15 168 0 6 -5 12 -11 12 -7 0 -8 -42 -3 -133z m5 -236 c37 -37 38
-79 3 -120 -66 -78 -179 -1 -139 95 25 61 88 73 136 25z"/>
<path d="M124 4722 c-18 -12 -24 -42 -13 -63 8 -15 19 -19 42 -17 27 2 33 8
35 31 5 45 -30 72 -64 49z"/>
<path d="M275 5078 c16 -120 35 -388 29 -425 -5 -37 -3 -43 20 -58 29 -19 30
-23 16 -45 -8 -12 -13 -11 -33 8 -31 29 -37 28 -76 -12 -18 -18 -50 -38 -71
-45 -49 -15 -54 -23 -40 -67 19 -55 -3 -67 -29 -16 -25 50 -25 52 -4 52 9 0
14 2 11 5 -3 3 -26 1 -52 -6 l-46 -11 1 -112 c0 -61 4 -132 8 -158 4 -26 4
-45 -1 -42 -4 3 -8 -4 -8 -15 0 -15 9 -22 36 -27 49 -9 94 -49 94 -83 0 -51
35 -89 236 -258 38 -32 46 -44 37 -53 -9 -10 -33 4 -110 63 -148 114 -180 148
-198 212 -17 56 -36 75 -74 75 -20 0 -21 -5 -20 -92 l0 -93 107 -81 c94 -71
107 -84 105 -109 -1 -15 -4 -29 -7 -32 -3 -3 -147 37 -193 54 -10 4 -13 -14
-13 -70 l0 -76 35 6 c31 5 36 2 56 -31 12 -20 30 -41 40 -47 21 -11 63 -3 98
20 23 15 24 15 12 -7 -16 -31 -59 -56 -158 -93 -60 -23 -83 -37 -83 -49 0 -15
5 -14 48 7 35 17 56 22 80 17 41 -8 89 -54 101 -97 8 -27 9 -28 10 -8 1 34
-35 89 -72 108 l-31 16 46 23 c56 28 95 73 104 119 8 43 15 49 89 70 156 45
239 119 280 251 18 56 129 612 150 749 l14 90 -3 -115 c-2 -63 -11 -185 -21
-270 -27 -242 -3 -348 100 -444 55 -51 55 -52 71 -141 8 -49 22 -114 30 -145
8 -30 14 -70 14 -88 0 -28 8 -42 43 -73 40 -37 42 -42 41 -93 -1 -41 -8 -62
-27 -88 -30 -39 -34 -59 -46 -201 -7 -85 -15 -120 -36 -163 -35 -71 -59 -86
-155 -94 -69 -6 -87 -12 -142 -48 -35 -22 -90 -47 -123 -56 -105 -27 -296 -56
-322 -50 -19 5 -34 27 -66 93 -30 61 -60 104 -106 151 -35 36 -66 60 -68 55
-2 -6 21 -35 50 -65 30 -32 71 -90 96 -140 62 -121 64 -122 130 -114 31 3 121
19 201 36 120 24 154 35 195 62 83 56 110 66 177 66 83 0 117 21 153 94 22 46
29 77 36 175 10 126 16 149 51 193 14 18 23 46 26 82 6 74 -3 103 -38 121 -25
13 -28 19 -23 49 3 22 -3 61 -20 113 -14 43 -31 107 -38 143 -7 36 -18 77 -25
92 -20 39 -17 103 11 300 27 185 47 291 100 513 41 170 55 270 55 381 0 64 -3
84 -14 84 -10 0 -14 -34 -19 -152 -4 -94 -14 -188 -26 -243 l-20 -90 4 115 c3
63 9 142 15 175 14 87 13 195 -2 195 -10 0 -13 -29 -14 -112 -1 -193 -23 -451
-49 -580 -14 -68 -34 -186 -46 -263 -11 -77 -23 -156 -27 -175 l-8 -34 -24 54
c-23 50 -25 68 -25 185 1 121 4 142 48 315 67 265 62 343 -27 400 l-38 25 7
92 c7 92 7 93 -15 93 -22 0 -22 -2 -16 -82 3 -46 9 -180 12 -298 6 -188 4
-236 -16 -385 -23 -179 -22 -250 5 -339 19 -61 11 -73 -12 -20 -23 50 -24 261
-4 478 28 305 -11 697 -65 643 -3 -3 1 -47 10 -98 18 -105 21 -283 6 -379 -28
-176 -144 -730 -161 -770 -31 -70 -98 -130 -144 -130 -13 0 -9 10 16 45 23 32
39 45 57 45 14 0 22 5 19 13 -2 6 -14 11 -25 9 -30 -4 -31 38 -2 45 24 6 24
12 5 37 -28 38 -16 162 43 426 42 187 56 320 49 475 -10 226 -22 198 -22 -53
l-1 -237 -43 -210 c-34 -161 -45 -235 -46 -318 -2 -64 -7 -113 -14 -120 -6 -6
-11 -26 -11 -43 0 -32 -41 -94 -61 -94 -5 0 -14 10 -20 23 -16 35 40 361 105
617 67 263 82 398 66 580 -5 67 -8 125 -5 130 3 4 -67 9 -156 10 l-160 1 6
-43z m290 -128 c3 -77 3 -84 -4 -40 -14 91 -21 200 -10 165 5 -16 11 -73 14
-125z m-175 -50 c0 -14 -10 -22 -32 -28 -35 -9 -48 -1 -48 31 0 13 9 17 40 17
33 0 40 -3 40 -20z m28 -190 c9 -25 -9 -60 -29 -60 -42 0 -59 18 -59 65 l0 44
42 -19 c24 -10 44 -24 46 -30z m-88 -80 c0 -5 -2 -10 -4 -10 -3 0 -8 5 -11 10
-3 6 -1 10 4 10 6 0 11 -4 11 -10z m-81 -140 c3 -25 3 -25 -18 -6 -26 23 -27
39 -3 34 9 -2 19 -14 21 -28z m61 -12 c32 -34 66 -106 80 -169 14 -62 9 -112
-19 -199 l-18 -55 5 90 c5 104 -13 190 -57 270 -15 27 -25 58 -23 68 5 22 7
22 32 -5z m1 -127 c30 -80 36 -197 14 -318 -9 -54 -21 -103 -26 -109 -5 -6 -6
-13 -3 -17 3 -3 -3 -3 -14 0 -30 7 -132 102 -132 121 1 10 19 25 43 37 79 38
108 121 68 195 -15 29 -30 42 -79 67 -2 1 5 14 16 30 10 15 27 41 36 56 17 27
18 28 37 11 10 -9 28 -42 40 -73z m-99 -68 c39 -40 51 -79 38 -118 -20 -60
-92 -106 -133 -84 -20 11 -18 13 23 25 24 7 52 23 62 36 47 61 -4 165 -77 156
-18 -2 -31 0 -29 4 3 4 24 8 48 8 33 0 48 -6 68 -27z m-38 -14 c31 -24 36 -81
9 -111 -22 -24 -74 -23 -101 2 -36 34 -24 102 21 120 33 13 42 12 71 -11z
m173 -241 c-3 -8 -6 -5 -6 6 -1 11 2 17 5 13 3 -3 4 -12 1 -19z m-49 -160 c18
-15 44 -28 57 -28 20 0 25 -5 25 -25 0 -14 -4 -25 -10 -25 -21 0 -193 149
-212 185 -10 18 22 -7 140 -107z m45 -156 c21 -23 13 -32 -25 -32 -32 0 -33 2
-16 30 16 25 21 25 41 2z m-159 -118 c9 -8 16 -21 16 -27 0 -7 3 -22 6 -33 4
-17 0 -23 -21 -28 -15 -4 -35 -4 -44 -1 -17 5 -41 44 -41 65 0 15 31 40 50 40
10 0 26 -7 34 -16z"/>
<path d="M110 4235 c-20 -24 -8 -50 24 -50 36 0 56 26 37 49 -17 20 -45 21
-61 1z"/>
<path d="M900 5067 c0 -64 11 -77 66 -77 34 0 47 -5 64 -27 l21 -28 -4 44 c-4
39 -18 60 -39 61 -5 0 -8 18 -8 40 0 58 -25 53 -36 -7 -4 -27 -8 -54 -7 -60 1
-17 -2 -16 -21 3 -10 9 -16 33 -16 60 0 24 -4 44 -10 44 -5 0 -10 -24 -10 -53z"/>
<path d="M1151 5000 c-1 -145 -15 -241 -70 -475 -42 -178 -77 -394 -85 -530
-7 -103 4 -51 34 167 12 87 33 206 46 265 64 275 84 392 90 518 4 82 2 139 -4
155 -8 19 -11 -4 -11 -100z"/>
<path d="M1498 4925 c3 -110 6 -202 8 -204 7 -8 2 294 -6 349 -4 30 -5 -35 -2
-145z"/>
<path d="M1525 5043 c4 -43 13 -109 20 -148 l13 -70 1 86 c2 127 -9 209 -26
209 -12 0 -13 -13 -8 -77z"/>
<path d="M1620 4988 c0 -187 -14 -317 -62 -561 -48 -251 -52 -349 -19 -529 11
-64 21 -122 21 -128 0 -11 -74 -49 -96 -50 -6 0 -21 26 -32 58 -62 170 -241
213 -337 81 -54 -72 -52 -162 5 -253 17 -25 33 -58 36 -74 4 -15 18 -40 31
-55 27 -34 27 -31 8 -104 -19 -73 -18 -121 4 -205 l17 -66 -38 -11 c-47 -14
-74 -48 -87 -112 -16 -73 -46 -124 -104 -180 -61 -59 -141 -100 -252 -128 -44
-11 -174 -50 -290 -85 -116 -35 -213 -62 -216 -60 -3 2 -34 51 -70 110 -35 59
-81 125 -101 148 l-37 41 -1 -58 c0 -32 5 -67 10 -77 7 -13 7 -21 0 -25 -6 -4
-10 -81 -10 -199 l0 -193 23 4 c16 3 26 -3 40 -26 19 -33 44 -41 53 -17 7 18
-38 127 -70 169 l-26 34 24 12 c20 11 30 10 67 -9 55 -28 59 -35 48 -74 -5
-17 -9 -50 -9 -74 0 -52 -14 -82 -38 -82 -10 0 -37 -14 -59 -30 l-42 -31 -4
33 c-3 27 -4 24 -5 -13 l-2 -47 81 42 c77 39 86 41 168 41 105 0 158 -18 247
-86 35 -27 67 -49 71 -49 4 0 17 12 30 28 l22 27 37 -37 c34 -34 36 -38 18
-43 -52 -18 -64 -28 -63 -59 0 -17 5 -40 10 -51 7 -15 8 -8 4 24 -6 45 6 71
32 71 11 0 11 -4 3 -21 -7 -11 -9 -27 -6 -35 4 -11 10 -11 36 4 30 16 32 16
46 -3 8 -11 14 -31 12 -45 -2 -20 -10 -26 -36 -30 -57 -9 -40 -26 40 -44 31
-7 56 -42 40 -58 -5 -5 -34 -15 -63 -22 -55 -12 -75 -38 -34 -44 60 -9 65 -12
65 -41 0 -36 -15 -49 -65 -53 -35 -3 -40 -6 -43 -31 -2 -18 2 -29 12 -33 20
-8 21 -28 2 -43 -7 -6 -16 -25 -20 -42 l-6 -30 -29 22 c-35 26 -51 18 -72 -32
-10 -27 -10 -35 6 -61 16 -27 16 -31 1 -46 -14 -14 -17 -14 -35 2 -11 10 -23
27 -26 37 -10 31 -45 24 -51 -10 -8 -38 -29 -46 -54 -21 -36 36 -111 22 -139
-26 -22 -38 -41 -44 -41 -15 0 34 -32 61 -82 67 -44 6 -48 5 -59 -20 -17 -36
-26 -33 -41 17 -12 38 -13 27 -16 -138 l-3 -180 45 -40 44 -40 42 -200 c23
-110 57 -261 75 -335 33 -134 59 -271 71 -383 l7 -57 153 0 c85 0 154 4 154 9
0 5 11 19 25 32 29 28 31 42 10 59 -21 17 -19 53 6 84 22 28 53 33 94 14 33
-15 40 -44 28 -129 -11 -83 1 -93 15 -11 l9 57 2 -57 1 -58 36 0 36 0 -7 37
c-3 21 -9 49 -11 63 l-6 25 21 -25 c12 -14 24 -42 27 -62 6 -32 11 -38 31 -38
22 0 24 3 18 32 -12 58 -57 128 -118 184 -58 53 -58 54 -28 54 16 0 36 3 45 6
20 8 112 -84 133 -134 8 -20 18 -59 22 -86 3 -29 12 -51 20 -54 24 -8 6 101
-28 174 -16 35 -27 64 -24 64 4 0 19 -12 34 -26 17 -16 40 -27 58 -28 l31 -1
0 -92 c0 -76 3 -93 15 -93 12 0 15 17 16 88 2 135 17 157 18 25 1 -93 4 -113
16 -113 12 0 15 20 15 119 0 125 -8 148 -46 135 -16 -5 -16 -4 -4 5 8 6 27 8
42 5 23 -4 27 -1 33 25 19 88 -66 163 -132 116 -43 -30 -37 -110 10 -133 16
-8 18 -11 6 -11 -9 -1 -39 17 -67 39 -55 44 -117 70 -166 70 -80 0 -155 72
-157 150 l-1 35 -12 -40 c-8 -29 -17 -40 -31 -40 -26 0 -23 39 6 79 18 24 21
41 20 127 -2 140 20 176 125 199 27 6 54 16 60 21 15 13 29 98 49 299 27 274
105 649 196 950 23 74 44 144 47 155 5 18 6 18 13 -5 20 -71 9 -186 -35 -366
-87 -351 -127 -565 -175 -924 -23 -167 -33 -183 -118 -195 -87 -13 -111 -46
-94 -130 8 -39 9 -38 10 21 1 36 6 66 14 72 7 6 41 17 76 25 104 24 97 7 146
357 35 248 75 450 143 720 l56 225 -2 164 c-1 93 -7 172 -13 185 -6 11 -59 70
-118 129 -97 99 -104 109 -87 119 34 19 105 89 126 123 11 18 31 64 45 101 24
68 53 104 82 104 16 0 35 -19 117 -117 32 -39 70 -76 84 -82 14 -7 59 -16 101
-21 87 -11 88 -12 138 -120 63 -138 103 -309 89 -386 -5 -25 -22 -50 -57 -83
-54 -51 -49 -37 -84 -261 -14 -93 -98 -468 -125 -560 -25 -85 -4 -150 47 -150
21 0 83 30 83 40 0 3 -22 19 -48 35 -66 42 -67 66 -1 241 60 164 65 180 118
389 23 87 45 163 50 168 10 10 -11 -127 -40 -256 -11 -51 -42 -158 -69 -239
-28 -81 -50 -158 -50 -171 0 -36 36 -75 78 -86 105 -28 253 69 252 166 -1 40
-19 67 -69 103 -33 25 -42 36 -38 53 2 12 27 124 55 249 39 173 59 244 88 302
53 110 49 147 -55 429 -28 76 -21 99 46 148 58 44 84 78 109 149 48 135 74
165 134 155 33 -5 36 -3 65 42 43 69 137 158 230 219 201 130 319 167 743 229
271 40 296 46 375 87 117 63 215 183 263 325 68 198 23 566 -86 697 -26 32
-40 58 -40 77 0 16 2 29 5 29 14 0 75 -47 75 -57 0 -7 15 -30 34 -51 32 -35
34 -41 26 -77 -7 -32 -5 -44 12 -68 18 -24 24 -57 34 -181 l13 -151 -3 198 -4
197 26 7 c14 3 54 32 89 65 51 47 69 58 97 58 40 0 40 -1 56 -115 6 -44 17
-105 25 -135 24 -89 21 -104 -36 -166 -81 -89 -113 -185 -89 -259 7 -21 37
-65 68 -98 l55 -60 -6 -106 c-8 -132 -21 -198 -57 -278 -36 -79 -59 -88 -136
-49 -51 26 -57 27 -108 15 -53 -11 -56 -11 -86 14 -22 19 -39 25 -58 22 -15
-3 -112 -18 -217 -35 -269 -41 -348 -71 -427 -158 -50 -55 -62 -82 -99 -209
-54 -191 -120 -396 -159 -493 -52 -130 -107 -226 -262 -457 -142 -212 -193
-301 -234 -410 -14 -37 -32 -79 -40 -91 -15 -23 -16 -23 -35 -6 -11 10 -19 30
-19 49 0 54 57 240 125 406 77 189 95 251 95 339 0 119 -17 154 -155 328 -29
35 -35 52 -35 90 -1 26 -7 58 -15 72 -19 33 -19 113 0 153 16 31 16 31 -2 11
-10 -12 -33 -42 -50 -68 -32 -45 -34 -46 -72 -40 -34 5 -40 4 -46 -16 -5 -16
0 -29 19 -49 21 -22 24 -33 19 -64 -4 -28 -10 -37 -25 -37 -39 0 -74 -51 -107
-157 -38 -122 -38 -133 -6 -172 16 -19 29 -50 35 -85 15 -94 45 -126 117 -126
44 0 83 -25 83 -53 0 -8 -23 -61 -51 -118 -103 -210 -153 -358 -200 -594 -16
-82 -36 -160 -44 -172 -25 -38 -97 -72 -181 -87 -44 -7 -99 -23 -121 -34 -38
-20 -123 -105 -123 -123 0 -36 -118 43 -141 95 -24 54 -24 76 7 223 14 69 23
127 21 129 -11 11 -59 -252 -55 -301 6 -67 25 -96 93 -141 l53 -36 -13 -38
c-47 -133 -17 -261 86 -361 94 -92 220 -113 341 -57 67 31 150 109 168 159 7
19 26 43 43 54 46 29 59 61 54 127 -8 99 -94 220 -167 235 -52 10 -36 24 73
63 31 12 61 29 66 38 5 9 12 67 15 127 10 169 16 205 38 227 19 19 19 19 49
-7 54 -45 59 -40 110 99 38 106 97 198 244 381 205 256 250 337 371 674 41
113 84 228 95 255 17 40 19 53 9 76 -10 25 -8 35 17 82 41 78 108 140 194 181
92 44 152 61 302 87 152 26 189 26 212 0 17 -18 26 -20 90 -14 61 5 77 3 113
-15 59 -30 85 -27 121 14 49 56 91 230 91 379 0 47 -30 116 -50 116 -15 0 -68
89 -74 126 -5 22 -1 56 9 91 13 45 29 68 81 121 58 59 64 68 64 106 -1 22 -7
68 -15 101 -8 33 -15 64 -15 68 0 12 72 39 80 30 5 -4 20 -46 35 -93 20 -66
25 -96 20 -140 -10 -94 -11 -96 -65 -119 -48 -21 -56 -32 -50 -71 3 -24 22
-30 77 -23 96 11 153 -38 153 -131 0 -73 -34 -122 -117 -167 l-29 -16 -12
-160 c-12 -168 -28 -235 -72 -290 -56 -72 -134 -84 -215 -32 -41 26 -56 30
-94 26 -69 -7 -388 -56 -440 -68 -114 -25 -205 -107 -271 -243 -57 -118 -175
-392 -219 -509 -56 -150 -99 -230 -188 -347 -131 -173 -268 -371 -306 -440
-57 -104 -98 -240 -104 -347 -6 -105 3 -140 49 -178 29 -25 78 -34 78 -15 0 6
9 19 20 30 20 20 20 20 74 -7 l55 -27 48 30 c38 25 48 36 46 56 -1 18 5 29 23
37 13 6 24 18 24 26 0 8 -18 55 -41 103 -22 48 -45 112 -50 142 -6 36 -24 79
-55 128 -54 89 -53 108 11 152 25 17 50 40 56 51 7 13 16 18 27 14 8 -3 66
-16 126 -29 61 -14 120 -27 131 -30 11 -4 7 0 -10 8 -16 8 -58 20 -92 27 -35
7 -63 15 -63 19 0 3 21 23 46 44 50 42 66 72 53 98 -6 12 3 38 32 92 22 42 44
76 48 76 5 0 30 -19 56 -42 58 -51 105 -122 105 -158 0 -25 -51 -194 -62 -205
-3 -4 -21 3 -39 14 -19 12 -38 21 -44 21 -5 -1 7 -10 27 -21 55 -28 67 -61 69
-176 1 -113 -10 -240 -22 -265 -5 -9 -18 -20 -29 -23 -25 -8 -45 -46 -53 -100
-5 -28 -4 -34 3 -20 5 11 9 30 9 43 1 37 53 82 94 82 59 0 81 -27 87 -106 6
-79 25 -101 60 -69 17 15 25 17 39 8 15 -10 23 -7 42 13 20 22 25 23 38 10 12
-13 13 -23 1 -71 -7 -30 -17 -55 -22 -55 -5 0 -30 11 -56 24 -26 13 -85 36
-132 51 -72 24 -103 28 -205 29 -105 1 -131 -3 -205 -26 -107 -34 -194 -86
-280 -165 -66 -61 -68 -62 -85 -43 -9 10 -29 22 -44 25 -34 8 -46 18 -109 93
-54 67 -71 75 -25 13 48 -65 87 -102 131 -121 23 -10 42 -25 42 -33 0 -20 -63
-127 -93 -157 -48 -49 -71 -186 -65 -381 6 -161 25 -239 83 -344 39 -71 112
-165 128 -165 6 0 -3 15 -20 32 -116 123 -183 310 -183 511 1 123 11 160 81
305 54 110 69 132 148 210 96 96 163 140 273 180 66 24 87 26 213 26 132 0
145 -2 234 -32 267 -92 415 -222 491 -430 31 -86 55 -226 44 -267 -5 -22 0
-32 35 -64 46 -42 53 -79 26 -130 -23 -45 -87 -57 -118 -23 -27 30 -22 42 12
29 23 -8 33 -8 45 2 21 18 20 54 -2 74 -25 23 -45 21 -67 -3 -37 -41 -12 -130
37 -130 10 0 18 -7 18 -15 0 -25 -49 -146 -86 -212 -22 -40 -30 -63 -22 -63 7
1 22 15 33 32 24 38 38 44 58 23 9 -8 27 -15 42 -15 22 0 25 -3 20 -20 -9 -27
20 -27 37 0 16 26 28 26 28 0 0 -16 7 -20 36 -20 l37 0 -7 65 c-6 55 -4 67 12
83 11 11 25 21 31 23 8 3 2 75 -19 249 -16 135 -32 269 -35 297 -5 43 -12 56
-36 73 -29 21 -29 22 -30 123 0 56 -6 147 -12 202 l-12 100 -65 35 c-93 50
-226 185 -273 277 -103 200 -103 438 -1 652 28 57 57 97 119 159 89 91 89 93
16 122 -55 22 -136 110 -160 175 -48 127 -11 261 93 345 64 50 134 70 309 86
87 8 171 17 186 20 73 16 269 86 460 166 275 114 304 122 404 115 101 -7 190
-47 195 -88 2 -20 -2 -28 -20 -33 -45 -11 -85 -6 -103 14 -26 29 -138 28 -206
-1 -65 -28 -59 -33 11 -9 65 22 94 18 135 -21 l31 -29 69 15 c39 8 80 15 93
15 21 0 22 3 22 89 l0 90 -57 12 c-45 9 -81 9 -158 0 -145 -16 -150 -16 -194
24 -49 45 -83 122 -89 205 -5 75 9 117 57 172 27 31 31 43 31 90 0 30 2 57 5
60 4 3 16 1 29 -5 35 -17 30 -77 -12 -149 -34 -59 -40 -94 -28 -165 6 -34 5
-43 -7 -43 -8 0 -20 -6 -27 -14 -9 -12 -4 -20 31 -46 54 -39 139 -64 192 -57
22 3 60 19 84 36 50 36 53 36 53 16 0 -12 4 -13 18 -6 11 6 24 6 33 0 32 -20
39 -10 39 57 0 58 -2 65 -15 54 -23 -19 -30 -5 -31 58 -3 107 -17 163 -44 180
-24 16 -25 16 -9 -3 9 -11 18 -27 22 -36 5 -14 1 -15 -31 -3 -50 18 -133 17
-158 -1 -29 -20 -54 -76 -54 -120 0 -29 8 -45 34 -71 44 -44 99 -47 145 -8 44
37 50 82 18 139 -28 50 -28 51 12 30 38 -19 55 -64 48 -126 -7 -59 -34 -101
-81 -123 -128 -61 -274 85 -227 227 27 79 95 126 185 127 32 0 53 5 60 16 10
13 16 10 43 -24 17 -21 42 -61 55 -88 l23 -49 3 38 c3 33 -4 45 -52 104 -66
79 -126 188 -111 201 6 5 24 12 41 15 28 5 33 2 52 -31 11 -20 32 -52 46 -71
l26 -35 0 72 c0 68 -1 72 -27 84 -16 7 -29 23 -31 36 -4 24 9 28 39 11 19 -10
20 -7 17 123 -3 124 -4 133 -23 137 -59 11 -332 206 -493 352 -114 102 -173
183 -193 259 l-13 50 -130 -1 -131 -1 0 -70 c0 -68 -1 -70 -37 -104 -42 -38
-55 -40 -159 -22 -64 11 -72 11 -83 -4 -12 -16 -21 -15 -132 14 -65 17 -134
31 -152 31 -49 1 -89 -43 -102 -112 -16 -79 -37 -142 -58 -169 -15 -20 -20
-21 -49 -10 -25 9 -35 9 -48 -2 -36 -30 4 -98 43 -74 25 16 21 39 -8 41 -14 1
-18 0 -7 -3 9 -3 17 -10 17 -15 0 -6 -8 -9 -17 -7 -11 2 -18 12 -18 27 0 32
16 36 46 12 20 -16 22 -23 14 -46 -6 -16 -22 -37 -36 -47 -22 -17 -29 -17 -53
-7 -25 12 -29 10 -54 -16 l-27 -28 29 17 c16 10 25 13 21 7 -11 -20 -143 -81
-208 -98 -93 -23 -216 -13 -304 26 l-68 30 -28 -44 c-18 -28 -34 -42 -43 -38
-18 7 -18 14 2 63 15 37 15 42 0 64 -23 35 -49 40 -94 17 -35 -18 -42 -18 -52
-6 -10 12 -5 23 24 58 20 24 36 48 36 54 0 5 -14 22 -32 39 -28 26 -29 26 -15
4 24 -35 21 -46 -13 -60 -24 -10 -33 -10 -45 0 -22 18 -19 30 16 66 17 17 36
48 43 68 l13 37 60 -93 c71 -110 133 -170 211 -206 50 -24 69 -27 162 -27 92
0 112 3 161 26 98 46 168 137 176 229 10 117 14 296 8 336 -12 81 -20 45 -15
-68 3 -62 1 -140 -3 -173 -5 -33 -9 -76 -11 -95 -3 -49 -31 -103 -78 -151
-121 -125 -355 -122 -496 6 -23 20 -67 76 -98 123 -76 118 -129 171 -175 178
-25 4 -49 19 -74 46 -21 21 -53 51 -71 65 -36 27 -43 57 -22 96 10 20 10 21
-5 8 -14 -11 -17 -11 -17 0 -1 9 -4 8 -11 -4 -19 -33 1 -71 79 -144 73 -69 76
-73 59 -91 -26 -28 -21 -75 9 -106 15 -14 30 -26 35 -26 4 0 -3 11 -16 25 -14
13 -25 35 -25 49 0 27 23 56 46 56 16 0 19 -16 4 -25 -5 -3 -10 -11 -10 -17 0
-7 4 -7 13 1 8 6 16 8 20 5 3 -3 3 3 0 15 -7 26 8 27 30 3 27 -30 22 -77 -12
-101 -16 -12 -38 -21 -48 -21 -26 0 -68 47 -84 94 -18 52 -70 101 -128 121
-96 34 -96 33 -99 108 l-3 67 -142 0 c-152 -1 -156 -4 -44 -40 37 -12 67 -26
67 -31 0 -5 10 -3 23 6 37 24 40 4 5 -32 -29 -30 -37 -33 -94 -33 -47 0 -67
-5 -88 -21 -123 -97 -22 -286 126 -234 59 20 58 20 58 -26 l0 -41 -62 4 c-35
3 -73 1 -86 -3 -25 -10 -52 -63 -52 -104 0 -22 -4 -25 -34 -25 -22 0 -45 9
-62 23 l-26 23 1 267 c2 263 2 267 -19 267 -19 0 -20 -6 -20 -132z m2607 24
c-10 -10 -17 -28 -17 -40 0 -24 47 -65 67 -58 8 3 13 -2 13 -15 0 -12 -10 -23
-26 -29 -28 -11 -194 -14 -194 -4 0 4 18 26 39 49 24 26 42 58 46 79 6 32 10
35 44 38 46 4 48 2 28 -20z m-2166 -142 c34 0 68 -14 58 -24 -6 -7 -89 12
-117 26 -20 10 -52 55 -52 71 0 3 17 -13 39 -34 29 -30 47 -39 72 -39z m1889
-14 c-5 -15 -10 -38 -10 -52 0 -13 -5 -24 -11 -24 -12 0 -7 90 7 111 13 21 25
-7 14 -35z m-335 15 c3 -5 19 -12 35 -16 25 -6 30 -11 30 -36 0 -31 -3 -32
-57 -12 -7 3 -13 -2 -13 -11 0 -9 -5 -16 -10 -16 -6 0 -15 -11 -22 -25 -14
-30 1 -51 43 -60 45 -10 37 -35 -11 -35 -53 0 -62 -21 -25 -60 15 -16 24 -33
20 -40 -5 -8 -24 5 -56 39 l-49 51 15 38 c8 20 21 66 30 102 9 36 18 71 20 78
5 14 41 16 50 3z m885 -44 c0 -16 -47 -43 -57 -34 -8 9 27 47 44 47 7 0 13 -6
13 -13z m-2350 -43 c6 -14 10 -28 10 -32 -1 -16 -128 -102 -143 -96 -21 8 -13
54 20 112 23 38 28 42 64 42 33 0 41 -4 49 -26z m2199 -61 c1 -12 -66 -39 -75
-30 -3 2 -7 20 -10 39 -5 30 -3 35 28 49 l33 16 12 -31 c6 -17 12 -36 12 -43z
m275 -24 c-7 -11 -61 -12 -68 -1 -3 5 2 19 10 31 l16 22 24 -22 c13 -12 21
-26 18 -30z m-2367 -51 c32 -30 29 -48 -6 -48 -27 0 -61 21 -61 39 0 10 22 31
34 31 5 0 20 -10 33 -22z m-386 -20 c2 -28 2 -29 6 -8 6 32 23 51 23 25 0 -29
-22 -145 -27 -145 -3 0 -20 7 -39 16 -29 14 -34 21 -34 51 0 77 68 135 71 61z
m2634 0 c22 -27 26 -39 22 -71 -5 -36 -2 -44 36 -84 23 -24 94 -81 157 -126
l115 -83 3 -57 c3 -51 1 -57 -16 -57 -30 0 -42 22 -35 63 4 30 2 37 -10 37 -9
0 -19 -5 -22 -10 -10 -16 -24 -2 -18 18 2 10 -3 24 -11 32 -14 11 -19 10 -34
-4 -23 -20 -33 -12 -26 24 7 34 -20 48 -47 24 -10 -9 -25 -14 -35 -10 -15 6
-16 8 0 24 9 10 16 27 16 37 0 15 -6 17 -36 12 -35 -6 -35 -6 -29 24 8 34 -16
50 -46 31 -25 -16 -36 4 -15 27 13 15 14 20 2 36 -8 12 -20 16 -35 12 -25 -6
-28 9 -6 33 24 26 8 53 -26 46 -43 -8 -37 19 9 37 52 22 57 21 87 -15z m-2517
13 c6 0 12 -9 12 -18 0 -10 4 -14 8 -8 10 14 39 17 47 5 4 -6 4 -22 1 -36 -8
-28 -40 -33 -55 -6 -9 14 -10 12 -11 -13 -1 -58 -10 -75 -41 -75 -16 0 -29 5
-29 11 0 5 -4 7 -10 4 -13 -8 -13 18 1 88 11 52 13 55 38 52 14 -1 32 -3 39
-4z m360 -24 c2 -10 -3 -17 -12 -17 -10 0 -16 9 -16 21 0 24 23 21 28 -4z
m2415 -11 c22 -17 15 -36 -35 -83 l-33 -32 -28 22 -28 22 36 53 c38 55 40 56
88 18z m-1182 -68 c12 -21 -5 -68 -25 -68 -8 0 -24 -12 -36 -27 -20 -26 -22
-36 -16 -113 5 -85 -5 -153 -25 -166 -5 -3 -26 2 -45 11 -28 13 -41 14 -67 5
-45 -15 -96 -68 -103 -107 -7 -36 -24 -45 -24 -12 0 11 -4 28 -9 37 -5 9 -11
56 -14 104 l-5 87 35 22 c32 20 36 21 45 6 14 -27 33 -20 55 21 15 26 19 42
12 54 -14 24 7 33 35 14 23 -14 25 -13 55 24 30 38 30 39 14 67 -16 28 -15 31
12 77 l28 47 34 -33 c19 -18 39 -41 44 -50z m152 20 c25 -51 56 -198 63 -304
9 -119 -26 -287 -59 -292 -7 -1 -28 -5 -48 -8 -22 -3 -46 -1 -60 7 -22 11 -23
11 -10 -5 12 -14 9 -21 -27 -55 -67 -64 -114 -81 -225 -81 -58 0 -97 -4 -97
-10 0 -5 -9 -19 -20 -30 -14 -14 -16 -20 -7 -20 8 0 18 10 24 23 9 21 16 22
114 22 118 0 141 8 218 80 30 27 62 46 91 53 24 6 46 10 47 8 9 -9 -80 -116
-122 -148 -102 -78 -171 -91 -545 -108 -135 -6 -314 -15 -397 -21 -134 -9
-156 -8 -175 5 -32 22 -56 20 -95 -10 -49 -37 -92 -48 -115 -28 -17 16 -16 18
6 45 15 17 28 52 35 90 23 130 125 195 218 138 32 -20 41 -21 221 -14 103 4
195 12 205 17 31 16 47 71 47 161 0 53 5 88 12 95 7 7 18 30 23 50 l11 37 28
-60 c24 -51 26 -64 17 -91 -16 -45 -13 -95 7 -127 l19 -27 38 30 c21 16 41 30
45 30 3 0 19 -13 35 -30 15 -16 32 -27 36 -24 4 2 6 -15 4 -38 -3 -39 -2 -40
7 -15 7 18 17 27 32 27 48 0 122 30 153 62 70 72 103 193 103 377 0 156 10
187 63 211 23 10 47 17 52 16 6 -1 18 -18 28 -38z m-1428 -24 c-3 -18 -1 -35
4 -38 6 -4 11 10 13 31 l3 38 28 -28 c30 -30 28 -46 -6 -48 -17 -1 -15 -3 11
-11 33 -11 39 -26 23 -56 -6 -11 -5 -25 3 -40 l12 -23 24 26 c43 46 73 26 57
-37 -9 -35 -8 -43 7 -54 15 -10 16 -18 7 -50 -28 -102 48 -178 167 -167 40 4
55 11 64 27 11 20 10 20 -9 4 -33 -30 -55 -23 -51 15 3 29 6 32 33 30 36 -3
56 11 79 55 12 23 22 32 32 28 9 -3 20 -6 25 -6 5 0 9 -16 9 -35 0 -19 4 -35
9 -35 5 0 12 16 15 35 6 30 11 35 36 35 15 0 35 3 44 6 14 5 16 -6 16 -90 0
-133 -24 -176 -99 -176 -24 0 -33 7 -48 38 -25 51 -65 57 -91 13 -32 -57 -97
-64 -153 -17 -22 18 -43 24 -113 29 -102 7 -116 14 -156 72 -23 34 -39 46 -66
51 -19 3 -49 18 -65 31 -42 35 -39 76 12 169 23 41 43 74 44 72 2 -2 15 -38
29 -80 26 -75 26 -78 9 -115 -26 -58 -26 -60 1 -30 32 34 33 72 6 150 -11 31
-20 70 -20 87 0 32 0 32 75 13 15 -4 17 -2 9 7 -6 6 -30 14 -53 17 -40 6 -68
23 -37 23 11 0 16 10 16 33 0 41 17 62 38 45 9 -8 12 -22 7 -44z m-94 24 c47
-14 52 -38 8 -38 -23 0 -30 -4 -26 -15 9 -21 -11 -29 -29 -11 -8 9 -26 16 -39
16 -38 0 -55 11 -55 34 0 13 3 26 8 30 8 9 78 1 133 -16z m1084 -78 c32 -62
10 -88 -31 -35 -22 29 -24 38 -14 50 18 22 28 19 45 -15z m1330 -1 c15 -15 17
-21 7 -31 -10 -10 -20 -4 -50 25 l-37 38 30 -7 c17 -3 39 -15 50 -25z m-2149
-17 c-4 -3 -14 2 -24 12 -16 18 -16 18 6 6 13 -6 21 -14 18 -18z m969 17 c11
-17 0 -20 -21 -4 -17 13 -17 14 -2 15 9 0 20 -5 23 -11z m1508 0 c12 -7 23
-13 25 -14 4 -3 -39 -75 -45 -75 -2 0 -13 5 -24 10 -14 8 -18 17 -13 38 13 58
17 62 57 41z m-1760 -52 c14 -43 -7 -58 -27 -19 -20 40 -20 54 1 50 9 -2 21
-16 26 -31z m235 24 c10 -6 10 -11 -3 -21 -14 -12 -18 -11 -25 0 -15 24 2 38
28 21z m-1579 -17 c3 -3 -3 -20 -12 -39 -9 -19 -12 -35 -7 -35 6 0 10 -9 10
-20 0 -23 -19 -26 -40 -7 -8 6 1 -6 20 -27 19 -22 44 -48 55 -57 16 -14 18
-20 8 -30 -17 -17 -16 -44 2 -59 22 -18 18 -30 -8 -30 -15 0 -28 -9 -35 -24
-12 -26 -90 -76 -121 -76 -11 0 -23 5 -26 10 -4 6 -24 19 -45 30 -28 14 -43
31 -56 65 -12 29 -25 45 -36 45 -10 0 -18 5 -18 10 0 6 9 10 20 10 12 0 20 7
20 16 0 9 9 28 19 43 20 27 20 27 -1 27 -12 -1 -23 5 -26 12 -3 10 4 13 24 11
41 -4 72 16 76 48 2 22 9 29 30 31 22 3 30 -2 40 -22 6 -14 18 -26 25 -26 8 0
12 4 9 9 -3 5 2 29 10 55 14 40 19 46 38 40 11 -4 23 -8 25 -10z m2912 -44
c38 -26 82 -53 98 -60 27 -11 29 -14 19 -36 -7 -14 -17 -23 -23 -20 -7 2 -55
35 -106 72 -52 37 -96 69 -98 71 -8 6 22 32 31 27 5 -3 40 -27 79 -54z m-1647
-11 c11 -79 -11 -81 -37 -5 -16 47 -16 47 24 55 4 0 9 -22 13 -50z m-274 37
c0 -2 -6 -19 -14 -37 -7 -19 -16 -43 -20 -53 -13 -37 -28 -1 -21 48 6 40 10
46 31 46 13 0 24 -2 24 -4z m-721 -67 c-35 -68 -59 -148 -59 -196 0 -17 -4
-35 -10 -38 -13 -8 -13 118 0 170 17 65 41 114 59 118 39 11 40 5 10 -54z
m861 53 c0 -20 -33 -102 -41 -102 -5 0 -9 25 -9 55 0 52 1 55 25 55 14 0 25
-4 25 -8z m350 -44 c0 -7 -4 -19 -9 -27 -7 -11 -11 -10 -20 6 -5 11 -7 23 -4
27 11 11 33 7 33 -6z m1159 -38 l33 -28 -40 -44 -41 -43 -43 42 c-41 41 -42
43 -23 57 11 8 29 21 40 30 27 21 35 20 74 -14z m-1896 -7 c-1 -5 -5 -32 -8
-59 -7 -49 -7 -49 30 -67 33 -16 36 -21 30 -45 -14 -60 -58 -67 -108 -16 -49
49 -45 121 9 179 23 25 51 29 47 8z m-667 -26 c36 -55 47 -104 40 -174 -6 -59
-5 -65 18 -88 14 -14 32 -25 40 -25 8 0 21 -3 30 -6 11 -4 16 -1 16 10 0 10
-9 16 -24 16 -35 0 -56 10 -56 27 0 10 7 12 20 9 11 -3 28 -8 38 -11 10 -3 40
6 66 20 46 24 50 25 73 10 33 -22 38 -41 20 -69 -48 -72 -183 -72 -255 0 l-34
34 7 74 c8 86 -4 136 -41 165 -23 18 -34 39 -15 26 5 -3 12 -1 16 5 10 16 19
12 41 -23z m3075 -16 c74 -75 3 -165 -91 -116 -25 13 -30 22 -30 54 0 48 31
91 66 91 15 0 38 -12 55 -29z m-1813 -3 c1 -13 3 -32 4 -43 4 -30 -37 -33 -46
-3 -10 38 -7 48 17 58 12 5 23 9 23 9 1 1 2 -9 2 -21z m-444 -1 c19 -14 13
-47 -9 -47 -26 0 -45 12 -45 29 0 33 23 40 54 18z m380 -66 c-7 -7 -34 28 -34
43 1 6 10 0 21 -13 11 -13 17 -27 13 -30z m1253 24 l28 -25 -29 10 c-15 6 -50
7 -77 4 -40 -5 -49 -4 -49 8 0 11 7 14 24 11 13 -3 32 0 43 6 25 15 28 14 60
-14z m242 -84 c11 -27 21 -53 21 -58 0 -5 -17 -17 -37 -28 -21 -11 -56 -34
-79 -51 -51 -39 -68 -33 -53 20 6 21 8 49 5 62 -5 19 3 29 51 63 31 23 59 41
63 41 4 0 17 -22 29 -49z m-1422 23 c3 -8 -2 -23 -11 -32 -20 -20 -49 -6 -54
27 -3 18 2 21 28 21 19 0 33 -6 37 -16z m248 -19 c29 -29 33 -79 8 -107 -25
-28 -77 -24 -102 8 -60 76 27 167 94 99z m-232 -70 c9 -26 6 -32 -26 -62 -20
-18 -41 -33 -45 -33 -12 0 -32 46 -32 74 0 25 23 51 38 43 4 -3 14 -2 22 3 22
14 33 7 43 -25z m1577 -59 c0 -26 -9 -15 -32 36 l-18 43 25 -30 c14 -16 25
-39 25 -49z m-145 24 c-3 -5 -14 -10 -23 -9 -14 0 -13 2 3 9 27 11 27 11 20 0z
m-1391 -26 c18 -17 22 -39 6 -29 -11 7 -33 45 -26 45 2 0 12 -7 20 -16z m1722
-8 c11 -45 2 -61 -39 -64 -31 -3 -37 0 -37 16 0 24 37 72 56 72 7 0 16 -11 20
-24z m-3189 -50 c11 -48 11 -61 1 -68 -22 -13 -27 -9 -37 30 -17 59 -14 104 6
100 11 -2 21 -22 30 -62z m988 54 c4 -6 4 -18 1 -27 -5 -12 -9 -13 -21 -3 -8
7 -15 19 -15 26 0 16 26 19 35 4z m1889 -25 c22 -33 20 -78 -3 -99 -28 -25
-128 -37 -168 -20 -38 15 -41 24 -13 49 11 10 20 26 20 35 0 19 56 47 105 53
17 2 33 5 36 6 4 0 14 -10 23 -24z m-2740 -31 c7 -24 -54 -100 -108 -133 -35
-22 -116 -29 -116 -11 0 6 12 10 26 10 21 0 25 4 22 18 -4 15 4 21 41 31 53
14 101 55 101 86 0 42 21 41 34 -1z m616 26 c0 -5 -13 -10 -29 -10 -17 0 -33
5 -36 10 -4 6 8 10 29 10 20 0 36 -4 36 -10z m2266 -56 c-4 -13 -11 -24 -16
-24 -14 0 -12 34 3 67 12 27 12 27 15 4 2 -13 1 -34 -2 -47z m-1386 36 c-8 -5
-22 -9 -30 -9 -10 0 -8 3 5 9 27 12 43 12 25 0z m-1698 -24 c3 -15 0 -27 -8
-30 -10 -4 -14 3 -14 24 0 36 16 40 22 6z m138 10 c0 -19 -29 -48 -41 -41 -13
9 -11 43 4 48 23 10 37 7 37 -7z m528 7 c-10 -2 -26 -2 -35 0 -10 3 -2 5 17 5
19 0 27 -2 18 -5z m2079 -10 c6 -16 -55 -53 -74 -46 -11 4 -8 12 14 35 28 29
53 33 60 11z m-2173 -101 c2 -4 -3 -23 -11 -42 l-15 -35 -10 28 c-5 15 -7 34
-4 42 6 16 32 20 40 7z m-339 -117 c34 -30 42 -44 35 -55 -7 -12 -15 -9 -47
16 -21 17 -53 50 -71 74 -32 41 -33 45 -16 57 15 11 20 9 36 -20 11 -17 39
-50 63 -72z m-711 69 c46 -47 32 -114 -30 -134 -93 -31 -154 80 -77 140 36 28
75 25 107 -6z m64 11 c40 -12 52 -20 52 -36 0 -24 -27 -66 -49 -78 -14 -8 -16
-3 -13 39 3 42 0 50 -23 69 -33 25 -33 25 33 6z m3245 -54 c4 -5 5 -20 1 -35
-6 -26 -7 -26 -96 -26 l-90 0 16 25 c18 27 20 58 7 84 -9 15 2 14 72 -11 45
-16 86 -33 90 -37z m-163 13 c0 -5 -6 -18 -13 -28 -11 -15 -12 -11 -9 25 3 28
7 37 13 28 5 -8 9 -19 9 -25z m558 8 c34 -44 1 -102 -59 -102 -45 0 -69 21
-69 59 0 60 90 90 128 43z m52 -54 c0 -9 -12 -30 -26 -47 -22 -27 -32 -31 -72
-30 l-47 2 44 7 c52 8 81 38 81 84 0 24 3 27 10 16 5 -8 10 -23 10 -32z
m-3500 -40 c0 -17 7 -39 16 -49 15 -17 13 -18 -27 -29 -64 -17 -113 -45 -142
-80 -14 -16 -30 -30 -35 -30 -6 0 -22 14 -36 31 -14 17 -26 27 -26 22 0 -5 13
-24 28 -43 l29 -34 -19 -60 c-15 -45 -19 -81 -16 -136 7 -121 56 -202 152
-252 88 -46 251 -18 311 54 62 74 60 227 -6 319 -30 43 -113 82 -176 83 -65 1
-77 -9 -61 -51 l12 -31 18 23 c25 32 62 39 103 19 60 -28 87 -96 61 -157 -46
-112 -203 -64 -194 60 4 51 -5 47 -22 -11 -14 -51 -9 -74 27 -116 18 -22 21
-30 10 -30 -19 0 -65 54 -73 86 -4 14 -4 41 -1 60 5 29 4 34 -8 24 -32 -26
-25 -179 8 -177 7 1 33 -5 59 -13 36 -11 48 -20 53 -38 4 -15 1 -28 -5 -32 -7
-5 -3 -10 12 -13 43 -12 75 -7 111 17 l35 24 4 -30 c6 -36 -15 -53 -88 -69
-181 -41 -340 118 -320 319 16 149 112 242 262 250 57 3 81 0 119 -17 98 -43
168 -121 212 -236 17 -42 22 -50 17 -25 -23 138 -161 275 -299 296 l-50 7 34
9 c107 29 265 -72 330 -211 22 -47 26 -70 26 -141 0 -78 -3 -90 -35 -150 -72
-132 -201 -226 -329 -237 -48 -5 -61 -3 -61 8 0 26 15 36 72 47 116 23 199 86
253 193 40 77 37 138 -8 215 -74 125 -163 179 -286 172 -58 -3 -77 -9 -113
-34 -42 -29 -88 -86 -88 -108 0 -6 8 3 19 19 10 17 31 42 47 57 118 110 321
55 403 -109 27 -55 28 -151 2 -209 -42 -92 -138 -163 -241 -178 -36 -5 -48
-12 -62 -36 -24 -41 -53 -50 -105 -33 -48 17 -50 19 -27 44 17 19 12 39 -10
39 -23 0 -106 99 -133 158 -35 75 -43 188 -18 277 l17 63 -25 38 c-29 45 -34
61 -24 90 9 26 47 44 92 44 19 0 37 5 40 10 3 6 14 10 23 10 10 0 37 11 62 25
25 13 55 24 68 25 18 0 22 -5 22 -32z m705 15 c19 -9 37 -24 40 -32 3 -9 14
-27 25 -39 18 -22 23 -23 55 -12 49 16 65 2 26 -22 -17 -11 -34 -31 -37 -44
-5 -19 -28 -36 -54 -39 -3 0 -19 -10 -37 -23 -40 -29 -101 -29 -137 -1 -26 21
-34 53 -16 64 6 3 10 1 10 -5 0 -22 49 -60 78 -60 61 0 108 71 81 122 -18 35
-40 47 -81 48 -28 0 -41 -6 -57 -26 -12 -15 -21 -32 -21 -39 0 -8 -18 -14 -50
-17 -49 -3 -67 14 -22 20 26 4 27 10 7 36 -18 24 -20 49 -2 43 6 -2 23 4 37
13 47 33 103 38 155 13z m-7 -79 c41 -29 19 -114 -30 -114 -23 0 -68 43 -68
65 0 19 44 65 62 65 8 0 24 -7 36 -16z m490 -31 c-10 -2 -26 -2 -35 0 -10 3
-2 5 17 5 19 0 27 -2 18 -5z m-70 -10 c-10 -2 -28 -2 -40 0 -13 2 -5 4 17 4
22 1 32 -1 23 -4z m1802 -60 c11 -25 20 -54 20 -65 0 -10 9 -36 20 -58 28 -56
25 -68 -10 -35 -20 19 -37 52 -50 96 -35 115 -22 156 20 62z m-2396 -62 c22
-23 24 -30 13 -39 -24 -20 -69 37 -73 95 l-4 48 18 -38 c11 -21 31 -50 46 -66z
m2348 -36 c40 -94 46 -119 26 -113 -7 3 -27 40 -44 84 -45 111 -49 127 -33
122 8 -3 31 -44 51 -93z m202 86 c3 -4 -5 -6 -18 -4 -45 9 -76 -58 -41 -87 21
-17 64 -4 75 23 5 14 9 16 9 6 1 -8 -5 -27 -11 -42 -16 -33 -58 -37 -88 -7
-26 26 -30 80 -8 108 12 14 74 17 82 3z m-2304 -35 c0 -18 -17 -39 -40 -51
-24 -13 -30 -13 -40 0 -10 12 -9 15 4 15 9 0 24 9 33 20 15 17 43 28 43 16z
m2049 -81 c17 -44 31 -85 31 -92 0 -11 -87 -50 -94 -42 -3 3 18 199 23 218 2
9 10 -7 40 -84z m246 65 c0 -7 -6 -15 -12 -17 -8 -3 -13 4 -13 17 0 13 5 20
13 18 6 -3 12 -11 12 -18z m-2395 -40 c0 -16 -21 -22 -56 -16 -52 10 -43 32
11 28 25 -2 45 -8 45 -12z m2070 -88 c-6 -37 -15 -73 -19 -80 -12 -21 -164
-82 -176 -72 -16 13 -57 1 -77 -24 l-18 -21 0 24 c0 14 10 36 23 49 12 14 17
22 10 18 -7 -3 -24 -4 -38 0 -22 5 -26 11 -22 31 4 20 1 24 -14 20 -11 -3 -17
-1 -14 4 3 4 48 6 100 2 88 -6 96 -4 137 20 24 14 59 47 78 73 18 26 36 42 38
36 2 -7 -1 -43 -8 -80z m-2494 -2 c20 -46 19 -158 -2 -207 -14 -33 -17 -36
-24 -18 -18 48 -21 125 -5 154 20 39 19 59 -5 106 -11 22 -20 42 -20 45 1 11
41 -47 56 -80z m403 30 c29 0 41 -13 23 -24 -9 -5 -92 30 -92 39 0 3 9 1 19
-5 11 -5 33 -10 50 -10z m-149 -41 c12 -43 6 -64 -10 -39 -10 15 -14 80 -5 80
2 0 9 -18 15 -41z m1786 -96 c3 -16 10 -44 15 -63 13 -50 13 -50 -33 -50 l-43
0 3 57 c4 74 7 83 31 83 14 0 23 -9 27 -27z m531 11 c-3 -3 -12 -4 -19 -1 -8
3 -5 6 6 6 11 1 17 -2 13 -5z m-403 -22 c16 -19 13 -76 -5 -88 -5 -3 -6 3 -2
12 5 13 3 15 -7 9 -7 -5 -11 -4 -8 1 8 13 -9 54 -22 54 -5 0 -10 -9 -10 -19 0
-11 -4 -23 -10 -26 -17 -10 -11 37 7 57 20 23 36 23 57 0z m-2259 -18 c48 -31
22 -87 -44 -96 -19 -2 -30 5 -48 31 l-23 33 23 18 c21 17 44 28 60 29 4 1 19
-6 32 -15z m2014 -29 c17 -20 31 -40 31 -45 0 -20 -18 -9 -54 30 -38 42 -56
50 -56 25 0 -8 -6 -15 -14 -15 -11 0 -12 -8 -6 -37 9 -40 3 -63 -11 -42 -15
23 -7 99 10 109 34 20 68 11 100 -25z m-165 -39 c41 -62 52 -86 39 -86 -5 0
-23 -13 -41 -30 -37 -33 -49 -36 -87 -18 -38 17 -30 31 14 24 22 -3 42 -2 45
2 3 5 -9 36 -25 71 -24 49 -27 66 -18 77 20 24 36 16 73 -40z m526 35 c0 -11
-26 -22 -34 -14 -12 12 -5 23 14 23 11 0 20 -4 20 -9z m-2075 -88 c-32 -112
-113 -206 -224 -262 -69 -35 -71 -36 -71 -18 0 8 23 24 51 37 73 35 158 130
211 237 46 95 59 97 33 6z m1420 39 c-3 -3 -16 5 -28 17 l-22 23 28 -17 c15
-10 25 -20 22 -23z m-10 -102 c-4 -13 0 -31 10 -46 9 -14 15 -35 13 -47 -3
-19 -8 -21 -53 -18 -34 2 -57 9 -72 24 -27 24 -28 38 -8 77 14 27 20 30 66 30
46 0 50 -2 44 -20z m65 -55 c0 -21 -17 -18 -30 4 -15 28 -13 33 10 21 11 -6
20 -17 20 -25z m-154 -62 c27 -17 31 -38 9 -47 -9 -3 -15 -18 -15 -35 0 -36
-6 -40 -71 -48 -51 -6 -51 -6 -44 18 4 13 21 54 37 91 27 60 32 66 46 52 8 -9
25 -22 38 -31z m-1066 0 c0 -36 26 -78 105 -168 135 -155 137 -237 10 -505
-110 -233 -177 -486 -190 -720 -4 -69 -11 -132 -16 -142 -5 -9 -32 -24 -61
-33 -29 -10 -65 -25 -81 -34 -21 -12 -32 -13 -45 -5 -10 7 -32 15 -50 18 -46
11 -46 20 -2 40 73 32 95 69 119 202 46 250 93 399 190 607 28 59 51 116 51
126 0 10 -9 30 -21 45 -17 22 -28 26 -70 26 -76 0 -102 30 -117 138 -11 76
-10 89 9 145 12 34 24 88 27 120 4 50 9 60 29 70 16 7 27 7 31 1 4 -6 42 -56
85 -112 95 -125 110 -157 110 -247 l1 -70 9 49 c15 75 -5 143 -70 239 -30 45
-63 99 -74 119 -22 42 -25 104 -6 111 23 10 27 7 27 -20z m1160 -72 c0 -38 -9
-47 -46 -43 -65 8 -60 62 6 62 33 0 40 -3 40 -19z m-257 -125 c23 -51 53 -79
125 -115 43 -22 52 -40 29 -60 -10 -8 -39 6 -120 59 -59 39 -107 73 -107 76 0
3 7 12 16 21 10 10 13 25 9 44 -4 16 -3 39 1 51 l7 23 10 -25 c5 -14 19 -47
30 -74z m-1283 74 c0 -5 -2 -10 -4 -10 -3 0 -8 5 -11 10 -3 6 -1 10 4 10 6 0
11 -4 11 -10z m1530 -32 c0 -7 3 -23 6 -35 7 -27 -12 -30 -65 -12 -55 19 -30
51 47 58 6 0 12 -5 12 -11z m-1580 -22 c0 -12 -47 -36 -71 -36 -21 0 -6 22 24
35 41 18 47 18 47 1z m45 -86 c7 -11 -24 -25 -79 -35 -28 -6 -36 -4 -36 8 0
23 102 47 115 27z m1211 -4 c14 -36 -71 -224 -140 -310 -30 -38 -55 -27 -27
12 27 39 83 155 116 240 28 71 40 86 51 58z m365 -37 c11 -28 11 -33 -7 -46
-26 -19 -46 -13 -64 20 -14 26 -14 29 4 43 31 22 52 17 67 -17z m-2697 -41
c16 -75 16 -98 4 -98 -7 0 -23 -3 -35 -6 -23 -6 -27 1 -38 66 -6 32 -4 37 22
47 40 16 42 15 47 -9z m1156 3 c18 -34 11 -50 -26 -66 -20 -8 -38 -15 -39 -15
-3 0 11 59 20 88 7 19 33 14 45 -7z m-998 -93 c-3 -31 39 -73 64 -64 15 6 15
8 2 24 -28 33 -31 47 -4 22 29 -26 96 -152 96 -180 0 -10 -10 -40 -21 -69 -19
-45 -25 -51 -50 -51 -28 0 -29 1 -29 55 0 63 -26 138 -74 215 -31 49 -33 55
-18 67 24 17 37 10 34 -19z m-332 -25 c-17 -58 -21 -63 -56 -63 -24 0 -37 -6
-45 -21 -7 -14 -14 -18 -21 -11 -15 15 9 83 26 76 8 -3 30 6 51 20 48 33 56
33 45 -1z m2639 -17 c36 -24 78 -50 94 -57 26 -12 36 -33 19 -43 -6 -3 -153
102 -186 135 -24 22 12 5 73 -35z m-13 -35 c74 -52 124 -100 92 -88 -22 8
-176 115 -183 128 -15 23 28 5 91 -40z m259 29 c20 -22 17 -30 -12 -34 -20 -4
-58 13 -49 21 3 3 12 1 19 -6 12 -9 13 -7 9 14 -5 30 8 32 33 5z m-3083 -72
c-55 -81 -69 -83 -91 -19 -18 56 -16 59 45 60 31 0 59 3 62 6 3 3 7 3 10 1 2
-3 -10 -24 -26 -48z m397 -19 c-6 -17 -30 -42 -52 -56 l-40 -25 -29 29 c-26
27 -28 32 -17 56 11 23 18 27 58 28 25 0 55 4 66 8 26 11 30 -2 14 -40z m1131
-11 c0 -5 -9 -8 -20 -8 -16 0 -20 7 -20 33 l0 32 20 -25 c11 -14 20 -28 20
-32z m-1642 -23 l32 -45 -24 0 c-14 0 -31 -3 -40 -6 -13 -5 -16 2 -16 45 0 28
4 51 8 51 5 0 22 -20 40 -45z m182 -4 c0 -53 -8 -65 -35 -55 -17 7 -16 24 5
79 15 41 30 29 30 -24z m-60 -10 c-11 -23 -25 -39 -31 -36 -5 4 1 19 16 37 14
16 25 34 25 40 0 6 3 9 6 6 3 -3 -4 -25 -16 -47z m420 -23 c27 -20 30 -27 30
-79 0 -53 -3 -59 -31 -79 -16 -12 -31 -21 -32 -19 -1 2 -18 37 -38 77 l-37 73
37 24 c19 14 37 25 39 25 1 0 16 -10 32 -22z m1083 0 c15 -22 -6 -68 -31 -68
-40 0 -54 40 -25 72 19 22 41 20 56 -4z m1475 2 c19 -16 21 -22 11 -44 l-12
-25 -39 20 c-38 19 -39 25 -15 57 13 17 28 15 55 -8z m-2692 -25 c7 -18 -30
-87 -55 -103 -18 -10 -25 -10 -46 4 l-24 16 40 59 c35 53 42 58 60 48 11 -5
22 -16 25 -24z m-126 0 c10 -12 10 -21 2 -41 -11 -24 -13 -24 -41 -9 -41 21
-45 31 -19 49 28 20 42 20 58 1z m2349 -9 c20 -22 21 -25 6 -40 -23 -22 -37
-20 -58 10 -15 20 -16 28 -7 39 17 21 33 19 59 -9z m44 -108 c-34 -38 -133
-76 -133 -51 0 11 53 63 65 63 6 0 26 11 45 24 34 23 35 23 38 4 2 -11 -5 -29
-15 -40z m-1923 13 c0 -10 -50 -25 -57 -17 -3 2 -2 9 2 15 8 13 55 15 55 2z
m-141 -267 c-10 -28 -11 -27 -39 56 -16 46 -28 86 -27 87 2 1 18 13 37 26 l35
23 3 -81 c1 -45 -2 -95 -9 -111z m2403 184 c31 -9 38 -16 36 -32 -3 -18 -9
-21 -43 -18 -48 4 -59 13 -50 41 7 25 6 24 57 9z m-1498 -71 c-3 -70 -5 -75
-24 -80 -11 -3 -20 -4 -20 -2 0 30 25 105 33 102 7 -2 12 -11 11 -20z m1511
-9 c7 -7 -3 -8 -30 -3 -22 3 -44 11 -50 17 -7 6 3 7 30 3 22 -4 45 -12 50 -17z
m-4 -206 c-70 -7 -78 25 -13 51 l37 15 5 -32 c5 -29 3 -31 -29 -34z m-2361
-27 c-37 -110 -68 -258 -81 -393 -6 -59 -15 -125 -21 -147 -29 -115 -126 -219
-263 -285 -47 -22 -124 -59 -172 -81 l-87 -42 -18 23 c-10 12 -18 28 -18 36 0
17 23 31 28 16 3 -11 17 -9 57 8 11 5 68 28 127 50 237 91 299 165 324 389 20
178 57 331 104 429 21 45 41 82 44 82 3 0 -8 -38 -24 -85z m1686 -96 c19 -39
33 -77 30 -85 -3 -7 -17 -16 -31 -20 -32 -8 -60 15 -75 62 -10 28 -8 39 12 73
13 23 24 41 25 41 2 0 19 -32 39 -71z m-57 -103 c20 -18 53 -19 92 -2 11 5 19
1 22 -8 5 -11 -5 -22 -31 -35 -44 -23 -73 -53 -98 -103 l-19 -38 -33 31 c-41
38 -42 84 -5 170 l27 63 12 -30 c7 -16 21 -38 33 -48z m831 45 c16 -32 12 -38
-31 -49 -34 -9 -41 -8 -46 5 -4 10 4 25 21 40 33 28 42 29 56 4z m-2646 -46
c-4 -8 -11 -15 -16 -15 -6 0 -5 6 2 15 7 8 14 15 16 15 2 0 1 -7 -2 -15z
m2034 -117 c24 -30 18 -53 -20 -71 -21 -10 -42 -16 -48 -12 -13 8 -13 51 0 76
12 21 52 26 68 7z m-809 -138 c23 -11 41 -27 41 -35 0 -9 6 -12 15 -9 21 8 65
-22 65 -44 0 -10 -6 -27 -14 -37 -12 -17 -11 -25 13 -67 21 -38 24 -51 14 -66
-8 -14 -8 -29 0 -58 13 -52 6 -80 -39 -137 -54 -69 -145 -112 -239 -112 -113
0 -195 56 -254 172 -47 94 -36 212 30 302 75 105 255 149 368 91z m-1348 -67
c14 -43 6 -134 -14 -164 -14 -19 -16 -12 -22 84 -7 102 -3 133 15 122 5 -3 14
-22 21 -42z m-426 12 c30 -29 32 -64 7 -96 -39 -48 -122 -16 -122 48 0 29 42
73 70 73 12 0 32 -11 45 -25z m379 -198 l4 -39 -64 -29 c-35 -16 -68 -29 -73
-29 -5 0 -14 14 -20 30 -5 17 -24 43 -40 58 l-31 28 34 53 c19 29 37 63 40 77
4 16 13 24 29 24 12 0 40 11 62 23 l40 23 7 -91 c4 -49 9 -107 12 -128z m-270
167 c10 -27 -3 -30 -27 -6 l-21 22 21 0 c11 0 24 -7 27 -16z m87 -43 c-20 -37
-38 -57 -46 -49 -2 1 -6 15 -10 31 -6 23 -4 27 14 27 11 0 28 12 38 26 25 39
28 13 4 -35z m3264 49 c3 -5 -6 -30 -21 -55 l-27 -46 -24 23 -25 23 39 32 c41
35 49 38 58 23z m-1522 -53 c8 -18 23 -41 33 -51 13 -13 19 -38 22 -82 4 -58
2 -65 -24 -91 l-28 -28 -8 40 c-4 22 -5 58 -2 80 4 28 -1 51 -15 79 -20 38
-20 86 0 86 5 0 15 -15 22 -33z m-1944 -88 c-20 -12 -52 -11 -44 2 10 16 49
28 54 17 2 -6 -3 -14 -10 -19z m134 -4 c1 -5 -16 -11 -37 -13 -36 -3 -38 -2
-26 13 14 17 59 17 63 0z m46 -61 c37 -31 43 -79 11 -87 -11 -3 -20 -1 -20 3
0 20 -54 70 -83 78 -52 13 -45 32 11 32 40 0 57 -6 81 -26z m-123 -142 c4 -20
2 -43 -6 -57 -15 -28 -7 -54 25 -89 18 -20 31 -25 48 -21 16 4 26 2 30 -8 4
-10 -7 -18 -36 -27 -23 -6 -47 -16 -53 -21 -8 -6 -20 38 -43 150 -17 87 -31
162 -31 167 1 21 60 -64 66 -94z m34 73 c10 -12 10 -18 0 -30 -11 -13 -15 -13
-21 -3 -11 17 -11 48 0 48 5 0 14 -7 21 -15z m3542 -66 c7 -17 4 -28 -11 -43
l-20 -20 -15 35 c-7 19 -17 44 -20 56 -7 22 -6 22 25 9 18 -8 37 -24 41 -37z
m-1467 -29 c-25 -68 -33 -64 -14 5 10 38 28 69 35 62 2 -1 -8 -32 -21 -67z
m-1680 -30 c-12 -23 -16 -51 -13 -93 l3 -61 -120 -48 -120 -47 -6 36 c-4 23
-17 45 -34 59 -21 16 -28 31 -29 60 l-1 39 105 37 c58 20 111 36 119 35 17 -2
50 -81 51 -122 0 -26 2 -28 11 -12 6 10 8 28 5 40 -7 30 27 127 41 114 2 -3
-3 -20 -12 -37z m-291 -186 c9 -8 16 -28 16 -43 0 -23 -9 -32 -50 -55 -28 -15
-56 -26 -63 -23 -6 2 3 11 21 21 17 9 32 23 32 32 0 13 -3 13 -30 -1 -42 -22
-50 -19 -50 19 0 28 5 36 33 50 41 20 71 20 91 0z m143 -55 c-26 -15 -51 -68
-57 -119 l-5 -45 -76 -27 -77 -27 -11 44 c-21 85 -24 82 144 151 79 33 117 43
82 23z m3251 -141 c-4 -30 -48 -39 -48 -10 0 24 8 32 32 32 14 0 19 -6 16 -22z
m-3150 -80 c-3 -9 -262 -96 -290 -98 -15 0 -8 19 10 29 27 14 243 80 265 81
10 0 17 -5 15 -12z m6 -108 c28 -27 15 -85 -24 -105 -27 -14 -30 -14 -56 10
-15 14 -42 35 -61 46 -18 11 -33 24 -33 28 0 15 104 50 130 45 14 -3 33 -14
44 -24z m3205 -11 c63 -45 55 -68 -30 -89 -36 -10 -71 -20 -76 -23 -6 -4 0 19
12 51 12 31 25 65 28 75 9 23 17 22 66 -14z m-3179 -121 c-1 -14 -38 -63 -44
-57 -2 2 -9 15 -16 28 -10 19 -10 25 1 32 21 13 59 11 59 -3z"/>
<path d="M1821 4584 c0 -11 3 -14 6 -6 3 7 2 16 -1 19 -3 4 -6 -2 -5 -13z"/>
<path d="M1861 4544 c0 -11 3 -14 6 -6 3 7 2 16 -1 19 -3 4 -6 -2 -5 -13z"/>
<path d="M1932 4605 c0 -16 2 -22 5 -12 2 9 2 23 0 30 -3 6 -5 -1 -5 -18z"/>
<path d="M1922 4545 c0 -16 2 -22 5 -12 2 9 2 23 0 30 -3 6 -5 -1 -5 -18z"/>
<path d="M3490 4533 c0 -4 5 -15 10 -23 7 -11 14 -12 26 -5 9 6 16 15 16 20
-2 12 -52 20 -52 8z"/>
<path d="M3622 4048 c-7 -7 -12 -21 -12 -32 0 -17 2 -18 10 -6 8 12 10 11 10
-8 0 -27 24 -39 45 -22 30 25 12 80 -25 80 -9 0 -21 -5 -28 -12z"/>
<path d="M3055 3754 c-16 -2 -142 -10 -279 -19 -181 -10 -253 -11 -263 -4 -9
8 -13 8 -13 0 0 -22 34 -24 239 -11 223 14 477 37 396 37 -27 0 -63 -2 -80 -3z"/>
<path d="M2352 4164 c-39 -27 -23 -84 23 -84 12 0 26 5 33 12 19 19 15 66 -7
78 -25 13 -22 13 -49 -6z m43 -35 c0 -15 -7 -25 -18 -27 -22 -4 -33 24 -17 43
18 21 35 13 35 -16z"/>
<path d="M1642 4276 c-32 -30 -37 -40 -37 -79 0 -55 26 -94 78 -120 33 -17 42
-17 79 -5 52 16 81 54 81 105 0 79 -52 133 -128 133 -26 0 -45 -9 -73 -34z
m141 -6 c14 -11 31 -36 37 -55 16 -50 -11 -104 -61 -123 -33 -12 -41 -12 -74
4 -69 33 -81 120 -23 169 36 31 86 33 121 5z"/>
<path d="M1687 4184 c-4 -4 -7 -16 -7 -26 0 -13 -4 -17 -12 -12 -7 4 -4 -2 6
-14 11 -12 27 -22 36 -22 46 0 54 73 10 78 -14 2 -29 0 -33 -4z m27 -55 c-3
-5 -10 -7 -15 -3 -5 3 -7 10 -3 15 3 5 10 7 15 3 5 -3 7 -10 3 -15z"/>
<path d="M4933 4224 c-3 -8 -1 -20 6 -27 14 -14 47 15 37 32 -10 16 -36 13
-43 -5z"/>
<path d="M3367 4132 c-22 -24 -21 -35 3 -57 22 -20 67 -14 77 11 10 27 -8 29
-28 4 l-20 -25 3 30 c2 24 7 29 23 27 20 -3 20 -2 1 13 -26 20 -39 19 -59 -3z"/>
<path d="M2120 2600 c-30 -30 -27 -83 6 -109 35 -28 69 -26 99 4 30 30 32 64
4 99 -26 33 -79 36 -109 6z"/>
<path d="M1810 2214 c0 -8 5 -12 10 -9 6 3 10 10 10 16 0 5 -4 9 -10 9 -5 0
-10 -7 -10 -16z"/>
<path d="M1757 1222 c-8 -9 -20 -29 -26 -44 -8 -20 -21 -30 -53 -38 -64 -18
-98 -41 -119 -82 -39 -77 -16 -184 55 -246 50 -44 98 -62 164 -62 82 0 131 19
184 70 l48 46 0 77 c0 104 -16 138 -106 225 -79 77 -115 90 -147 54z m68 -3
c9 -14 4 -18 -34 -25 -32 -7 -33 -6 -22 15 12 22 45 28 56 10z m71 -68 c21
-15 47 -37 57 -49 62 -69 62 -262 1 -262 -8 0 -14 -5 -14 -10 0 -6 -14 -17
-31 -24 -30 -12 -37 -11 -103 21 -111 55 -146 96 -146 173 0 65 43 127 115
164 44 23 77 20 121 -13z"/>
<path d="M1772 1094 c-73 -51 -65 -167 14 -200 83 -35 174 40 157 130 -3 15
-19 40 -35 56 -23 24 -38 30 -72 30 -23 0 -52 -7 -64 -16z m136 -29 c24 -28
29 -82 12 -116 -14 -25 -62 -49 -98 -49 -18 0 -38 10 -55 28 -46 48 -31 138
27 163 35 14 89 2 114 -26z"/>
<path d="M72 1191 c-8 -4 -12 -21 -10 -37 2 -25 7 -29 32 -29 36 0 56 27 40
53 -13 19 -43 26 -62 13z"/>
<path d="M320 460 c-11 -11 -20 -26 -20 -33 0 -18 21 -43 41 -50 22 -7 59 20
59 44 0 20 -33 59 -50 59 -5 0 -19 -9 -30 -20z"/>
<path d="M2301 5102 c7 -11 9 -27 6 -36 -7 -19 -38 -22 -34 -3 1 6 -5 12 -13
12 -8 0 -16 -8 -18 -17 -5 -27 44 -35 69 -12 25 22 22 67 -4 72 -16 3 -17 1
-6 -16z"/>
<path d="M2745 5092 c92 -67 128 -141 105 -222 -7 -25 -15 -62 -18 -83 -4 -36
0 -42 47 -88 56 -54 78 -59 139 -33 109 45 172 188 151 342 -12 88 -24 112
-54 112 -22 0 -25 -4 -20 -20 5 -16 2 -20 -17 -20 -13 0 -36 9 -53 20 -25 16
-47 20 -126 20 -91 0 -97 -1 -102 -22 -6 -21 -22 -18 -22 5 0 6 -16 12 -35 15
l-35 4 40 -30z m307 -112 c44 0 68 -21 68 -60 0 -20 -8 -35 -25 -46 -23 -15
-27 -15 -62 3 -29 15 -40 29 -49 60 -7 22 -19 54 -28 71 -24 47 -20 50 22 9
30 -29 46 -37 74 -37z m-151 -47 c8 -25 8 -38 0 -46 -14 -14 -15 -13 -33 56
-15 56 -15 57 3 41 10 -9 23 -32 30 -51z m111 -63 c18 -11 48 -20 66 -20 20 0
31 -4 27 -10 -8 -13 -71 -13 -95 0 -18 10 -47 50 -36 50 3 0 20 -9 38 -20z
m-43 -94 l22 -23 -39 -32 c-22 -17 -42 -31 -45 -31 -3 0 -18 16 -33 35 -26 34
-26 36 -9 55 25 28 76 26 104 -4z"/>
<path d="M3407 5098 c4 -20 -3 -25 -44 -38 -62 -19 -81 -52 -59 -103 7 -19 12
-45 9 -59 -4 -18 2 -30 20 -45 14 -11 33 -35 41 -54 l16 -34 -6 33 c-4 23 -1
39 11 52 20 22 17 70 -5 80 -8 5 -27 13 -42 19 -56 21 -24 101 39 101 20 0 23
-5 23 -40 l0 -40 -20 20 c-12 12 -18 26 -14 32 4 6 1 9 -7 6 -23 -8 -16 -41
10 -55 31 -15 41 -9 41 26 0 33 11 44 64 61 60 19 130 15 284 -19 230 -51 280
-39 273 62 -1 14 -11 17 -62 17 l-61 0 14 -22 c10 -16 27 -24 52 -26 40 -4 46
-16 17 -32 -50 -26 -109 -4 -131 50 -12 29 -14 30 -81 30 -58 0 -70 -3 -83
-21 -12 -18 -21 -20 -50 -15 -22 4 -36 13 -36 21 0 9 -9 15 -21 15 -17 0 -19
-3 -10 -14 9 -11 1 -14 -46 -18 -32 -3 -66 -9 -75 -13 -13 -5 -21 0 -29 19
-15 32 -38 35 -32 4z m33 -38 c0 -5 -7 -10 -15 -10 -8 0 -15 5 -15 10 0 6 7
10 15 10 8 0 15 -4 15 -10z m-50 -149 c15 -30 2 -53 -29 -49 -32 4 -41 36 -15
55 24 18 31 16 44 -6z"/>
<path d="M4460 5105 c0 -8 2 -15 4 -15 2 0 6 7 10 15 3 8 1 15 -4 15 -6 0 -10
-7 -10 -15z"/>
<path d="M4535 5078 c21 -140 92 -234 280 -373 195 -144 305 -202 305 -161 0
11 -9 16 -28 16 -48 0 -360 223 -437 312 -52 61 -86 132 -92 194 -4 38 -10 54
-20 54 -12 0 -13 -9 -8 -42z"/>
<path d="M592 5090 c0 -8 4 -26 8 -40 6 -20 8 -21 8 -5 0 11 -3 29 -8 40 -5
12 -8 14 -8 5z"/>
<path d="M1487 4628 c-4 -40 -18 -131 -32 -203 -14 -71 -25 -139 -24 -150 0
-11 14 45 29 125 28 140 48 300 38 300 -3 0 -8 -33 -11 -72z"/>
<path d="M2 4610 c0 -14 2 -19 5 -12 2 6 2 18 0 25 -3 6 -5 1 -5 -13z"/>
<path d="M1424 4125 c0 -71 1 -99 3 -62 2 37 2 96 0 130 -2 34 -3 4 -3 -68z"/>
<path d="M4236 4139 c-21 -16 -26 -29 -26 -64 0 -35 5 -48 26 -64 53 -42 126
-18 139 44 7 30 7 30 -12 -5 -29 -55 -108 -67 -133 -20 -10 18 -9 19 14 9 47
-22 106 37 85 85 -10 20 -34 35 -60 36 -4 0 -18 -9 -33 -21z"/>
<path d="M1432 3970 c0 -14 2 -19 5 -12 2 6 2 18 0 25 -3 6 -5 1 -5 -13z"/>
<path d="M270 3425 c-6 -8 -9 -23 -5 -35 8 -25 51 -27 64 -2 20 38 -31 71 -59
37z"/>
<path d="M48 3320 c-18 -11 -48 -65 -48 -87 0 -49 78 -95 122 -72 35 19 47 40
48 82 0 66 -67 108 -122 77z m74 -55 c8 -19 8 -28 -2 -40 -25 -30 -80 -12 -80
25 0 44 63 55 82 15z"/>
<path d="M2795 3308 c-31 -18 -44 -40 -45 -76 -1 -85 117 -115 156 -40 38 74
-40 156 -111 116z"/>
<path d="M2348 3186 c-10 -7 -25 -30 -33 -50 -19 -45 -6 -107 28 -131 36 -25
41 -17 8 14 -61 57 -29 161 49 161 48 0 80 -38 80 -96 0 -30 -6 -54 -17 -66
-9 -10 -11 -18 -5 -18 6 0 18 10 26 23 33 53 27 108 -16 155 -25 25 -91 30
-120 8z"/>
<path d="M4460 3168 c-41 -17 -156 -61 -255 -99 -179 -68 -224 -91 -87 -45 93
32 432 167 432 172 0 7 -13 3 -90 -28z"/>
<path d="M4767 3152 c-21 -23 -21 -41 -1 -70 40 -58 118 5 84 69 -14 25 -61
25 -83 1z"/>
<path d="M6 3129 c6 -10 72 -31 83 -27 5 2 -12 10 -39 19 -27 8 -47 12 -44 8z"/>
<path d="M2398 3128 c-31 -24 -27 -71 8 -87 22 -10 30 -9 45 5 48 44 -3 121
-53 82z"/>
<path d="M4905 3049 c-27 -10 -79 -24 -115 -30 -36 -5 -89 -21 -119 -35 -47
-21 -55 -22 -65 -9 -14 19 -57 8 -119 -29 -43 -25 -108 -86 -92 -86 5 0 39 20
76 45 58 39 129 68 129 52 0 -2 -33 -30 -72 -60 -105 -81 -248 -220 -248 -241
0 -13 38 18 119 96 65 64 139 128 165 143 69 40 196 82 274 90 76 7 140 -11
226 -65 48 -31 70 -34 47 -7 -6 8 -44 31 -84 51 -58 30 -85 37 -128 37 -63 0
-163 -21 -239 -51 -29 -11 -54 -19 -56 -17 -8 7 150 65 196 72 25 4 76 16 113
27 68 20 147 21 191 3 14 -6 18 -5 14 6 -11 33 -138 38 -213 8z"/>
<path d="M3733 2983 c9 -2 23 -2 30 0 6 3 -1 5 -18 5 -16 0 -22 -2 -12 -5z"/>
<path d="M795 2955 c-34 -33 -34 -87 0 -120 13 -14 34 -25 45 -25 29 0 77 27
90 49 44 84 -68 164 -135 96z m108 -13 c10 -9 16 -28 16 -46 -2 -30 -2 -30 -6
-4 -8 51 -71 70 -92 29 -11 -20 2 -56 26 -70 17 -10 17 -10 -1 -11 -28 0 -56
29 -56 59 1 63 63 87 113 43z m-3 -58 c0 -22 -29 -29 -47 -11 -13 13 -14 19
-4 31 16 19 51 5 51 -20z"/>
<path d="M3678 2973 c7 -3 16 -2 19 1 4 3 -2 6 -13 5 -11 0 -14 -3 -6 -6z"/>
<path d="M3811 2971 c14 -5 36 -14 50 -22 14 -8 68 -16 137 -19 109 -5 115 -6
138 -33 13 -15 24 -23 24 -17 0 6 -11 22 -25 35 -22 23 -31 25 -127 25 -81 0
-112 5 -147 20 -24 11 -51 20 -60 19 -9 0 -4 -4 10 -8z"/>
<path d="M3599 2940 c-67 -45 -93 -90 -97 -172 -3 -48 1 -82 12 -112 19 -50
73 -109 119 -131 32 -15 32 -15 7 2 -96 69 -130 127 -130 222 0 92 42 161 125
204 17 9 25 16 19 17 -6 0 -30 -13 -55 -30z"/>
<path d="M3660 2898 c-51 -35 -70 -69 -77 -131 -10 -100 34 -174 126 -213 27
-12 54 -14 113 -9 l78 6 11 -28 c6 -15 13 -49 16 -75 l6 -48 -54 -2 -54 -1 55
-6 c57 -6 52 -12 -20 -26 -66 -14 -164 -69 -220 -125 -131 -131 -191 -347
-145 -525 23 -88 53 -133 125 -192 150 -122 270 -154 427 -114 133 34 154 29
241 -63 29 -31 61 -56 72 -56 26 0 60 34 60 60 0 13 10 24 28 30 28 10 41 17
79 41 17 10 25 11 34 2 9 -9 6 -21 -12 -50 -18 -30 -19 -35 -5 -23 10 8 29 39
43 69 31 71 27 97 -41 237 l-53 109 24 44 c26 49 28 85 12 163 -16 72 -50 146
-105 230 l-47 70 5 126 c5 145 16 177 55 159 29 -13 29 -22 -2 -59 -16 -18
-23 -38 -21 -51 3 -12 8 -40 11 -61 4 -26 20 -55 46 -84 116 -132 159 -245
188 -492 6 -47 15 -121 21 -165 15 -113 12 -202 -8 -257 -37 -101 -125 -190
-201 -203 -72 -12 -118 9 -198 92 l-74 76 -77 -7 c-99 -7 -231 -31 -213 -37 8
-3 37 -1 65 3 28 4 85 11 128 14 68 6 80 4 112 -15 19 -12 54 -44 76 -71 l42
-50 -27 -31 c-36 -44 -57 -88 -95 -204 -35 -107 -48 -128 -95 -153 -63 -32
-65 -52 -35 -326 11 -99 19 -198 19 -220 -1 -36 -3 -33 -15 29 -8 39 -27 168
-44 288 -16 119 -34 225 -39 235 -15 25 -14 21 24 -264 52 -392 68 -456 128
-522 20 -21 28 -22 174 -22 l153 0 0 28 c0 118 24 642 31 660 18 47 28 21 24
-60 -10 -176 -14 -628 -6 -628 4 0 11 150 15 332 8 414 17 502 55 584 77 164
253 237 386 160 28 -16 69 -44 93 -63 l42 -34 0 25 c0 48 -139 139 -232 152
-63 9 -168 -24 -233 -74 -85 -65 -136 -139 -212 -310 l-70 -157 -37 1 c-20 1
-39 4 -42 7 -9 8 20 89 82 235 30 69 54 132 54 140 0 7 -9 30 -20 51 -19 38
-19 38 2 60 13 14 26 20 37 16 9 -4 33 -9 53 -12 49 -7 71 10 63 49 -8 33 0
36 24 7 19 -24 43 -21 85 12 23 18 25 25 19 65 -6 44 -6 44 25 44 24 0 35 -7
48 -30 17 -28 19 -28 36 -13 12 11 18 30 18 60 0 57 23 58 42 1 13 -37 19 -43
46 -46 27 -3 32 1 38 23 l7 27 36 -36 c28 -27 102 -66 127 -66 2 0 4 76 4 170
0 168 0 170 -29 227 -42 82 -54 141 -49 233 4 67 11 92 41 153 38 75 50 151
25 160 -10 3 -10 8 1 21 11 14 12 21 1 40 -9 18 -9 29 -1 44 6 11 11 46 11 76
0 52 -1 55 -18 45 -20 -12 -42 -44 -88 -124 -34 -60 -43 -42 -20 39 21 70 75
142 104 139 25 -3 30 22 7 31 -19 7 -20 26 -2 26 9 0 14 14 15 43 l1 42 -33
-39 c-90 -105 -130 -205 -144 -358 -7 -69 -16 -115 -27 -132 -11 -16 -15 -35
-11 -50 8 -33 -3 -35 -138 -29 -88 5 -116 9 -116 19 0 11 19 14 78 14 80 0
115 13 147 56 25 34 17 61 -36 120 -59 65 -59 73 -9 195 42 101 85 173 125
208 53 46 123 84 145 78 19 -5 20 0 20 73 0 76 -1 79 -34 107 -66 58 -122 78
-222 78 -84 0 -95 -3 -165 -37 -63 -31 -96 -59 -226 -191 l-153 -153 2 -65 1
-64 6 65 6 65 8 -49 c4 -27 6 -88 5 -135 -1 -81 -2 -83 -8 -31 l-7 55 -1 -50
c0 -27 2 -58 6 -67 4 -10 3 -84 -1 -165 -11 -197 6 -253 74 -253 39 0 56 38
40 92 -9 29 -19 40 -47 50 l-37 13 7 74 c3 41 6 86 6 100 0 24 3 22 34 -22 43
-61 75 -153 83 -237 5 -55 2 -73 -16 -109 -23 -44 -22 -51 16 -156 2 -6 -24
-10 -65 -10 l-67 0 9 67 c9 73 1 98 -34 98 -30 0 -76 46 -94 94 -14 37 -28 52
-76 81 -96 58 -94 53 -100 330 -7 313 -4 307 -152 319 -80 6 -122 26 -148 69
-31 50 -26 100 11 131 28 24 37 26 132 26 120 0 179 8 174 24 -3 7 -43 11
-118 11 -90 0 -121 4 -146 18 -46 25 -122 22 -163 -5z m1325 -118 c24 -6 20
-8 -25 -8 -30 0 -68 4 -85 8 -24 6 -20 8 25 8 30 0 69 -4 85 -8z m-125 -69 c0
-9 -4 -22 -9 -30 -11 -17 -41 23 -41 56 0 23 1 23 25 7 14 -9 25 -24 25 -33z
m-173 -35 c42 -11 203 -99 203 -111 0 -2 -20 -41 -45 -86 -47 -88 -63 -94 -19
-8 25 49 25 52 7 71 -10 11 -34 28 -54 39 -20 10 -39 25 -42 34 -4 8 -12 15
-19 15 -7 0 -33 14 -58 30 -51 34 -47 36 27 16z m263 2 c0 -6 -11 -31 -25 -55
-22 -37 -29 -42 -45 -33 -32 17 -33 29 -5 65 26 34 75 50 75 23z m-426 -103
c-7 -39 -43 -88 -77 -107 -18 -9 -17 -6 6 21 15 18 27 40 27 48 0 18 40 86 47
80 2 -3 1 -21 -3 -42z m166 -107 c49 -24 89 -47 90 -53 0 -24 -51 -116 -62
-113 -7 2 -29 35 -48 72 -19 37 -47 77 -62 88 -28 19 -38 48 -18 48 6 0 51
-19 100 -42z m-66 -41 c39 -50 34 -73 -26 -128 -29 -27 -56 -49 -60 -49 -12 0
-88 103 -88 120 0 10 16 24 40 35 22 10 47 26 56 36 25 28 50 23 78 -14z
m-680 -204 c4 -38 9 -91 11 -119 l5 -52 -47 -23 c-69 -34 -106 -92 -111 -172
-11 -182 143 -318 280 -249 l36 19 5 -26 c2 -14 7 -34 11 -43 9 -20 -38 -47
-128 -73 -195 -57 -415 99 -456 322 -30 167 64 363 209 438 57 29 104 44 143
44 l36 1 6 -67z m826 18 c0 -12 -9 -21 -26 -25 -36 -9 -41 0 -13 23 30 26 39
26 39 2z m300 -76 c22 -14 40 -28 40 -31 0 -2 -18 -28 -40 -57 -21 -29 -52
-80 -67 -112 -24 -54 -27 -72 -28 -167 l0 -108 -37 0 c-27 0 -40 6 -48 19 -8
16 -5 23 20 41 37 27 37 34 0 57 -38 22 -38 38 -1 58 42 21 47 35 20 55 -20
16 -21 20 -10 34 7 9 22 16 32 16 23 0 24 8 2 32 -24 27 -1 65 49 78 21 6 38
14 38 19 0 4 -13 20 -30 36 -23 22 -27 32 -19 42 16 19 34 16 79 -12z m-417
-76 l-7 -54 -13 45 c-12 40 -11 46 4 57 9 7 18 11 20 10 1 -2 0 -28 -4 -58z
m105 39 c-2 -17 -11 -24 -32 -26 -34 -4 -49 8 -40 31 4 11 18 17 41 17 30 0
34 -3 31 -22z m-13 -88 c13 0 27 -4 30 -10 4 -6 -15 -10 -49 -10 -49 0 -56 2
-56 20 0 17 3 18 26 10 14 -6 36 -10 49 -10z m-745 -50 c12 -8 11 -10 -8 -10
-31 0 -78 -25 -86 -45 -26 -68 19 -145 84 -145 52 0 110 52 110 99 l0 31 39
-20 c48 -24 49 -26 60 -87 10 -51 -3 -98 -37 -137 -50 -56 -173 -74 -232 -33
-62 41 -74 68 -78 170 -4 84 -2 95 20 127 36 52 91 74 128 50z m44 -43 c27
-20 25 -81 -4 -112 -40 -43 -99 -30 -119 26 -14 42 -14 42 10 73 16 20 29 26
58 26 20 0 45 -6 55 -13z m786 -58 c0 -42 -5 -43 -42 -11 -32 27 -20 46 30 51
8 1 12 -13 12 -40z m0 -84 c0 -9 -9 -15 -24 -15 -28 0 -43 16 -24 23 26 11 48
7 48 -8z m-597 -65 c-3 -11 -10 -23 -16 -27 -7 -4 -8 0 -4 11 4 10 7 22 7 27
0 5 4 9 9 9 5 0 7 -9 4 -20z m602 -81 c1 -60 6 -83 24 -112 22 -35 34 -42 74
-39 10 1 17 -5 17 -16 0 -10 14 -31 30 -47 23 -22 30 -35 25 -53 -3 -13 -2
-21 3 -18 19 11 40 -21 45 -66 6 -61 -14 -64 -60 -11 l-32 38 -24 -29 c-29
-36 -43 -29 -52 26 -4 24 -21 67 -37 98 -28 55 -68 215 -68 278 0 30 2 33 27
30 27 -3 28 -4 28 -79z m153 -42 c-13 -4 -26 -2 -36 5 -13 11 -11 14 14 18 34
7 52 -11 22 -23z m-477 -16 c64 -64 21 -181 -66 -181 -92 0 -152 85 -111 159
18 33 53 50 104 51 35 0 49 -6 73 -29z m279 -118 c0 -14 -56 -18 -63 -5 -3 4
-8 25 -11 47 -7 38 -5 41 21 51 27 9 28 8 40 -36 7 -25 13 -51 13 -57z m274
52 c3 -10 -5 -20 -25 -31 -40 -20 -49 -11 -19 21 27 29 36 31 44 10z m-914
-25 c0 -5 -8 -10 -17 -10 -15 0 -16 2 -3 10 19 12 20 12 20 0z m648 -78 c3
-10 -4 -13 -24 -10 -15 2 -29 9 -32 16 -3 10 4 13 24 10 15 -2 29 -9 32 -16z
m-8 -42 c0 -5 -4 -10 -9 -10 -6 0 -13 5 -16 10 -3 6 1 10 9 10 9 0 16 -4 16
-10z m290 -94 c0 -3 -4 -8 -10 -11 -5 -3 -10 -1 -10 4 0 6 5 11 10 11 6 0 10
-2 10 -4z m-692 -307 l4 -24 -26 24 c-14 14 -26 31 -26 39 0 25 44 -11 48 -39z
m-222 -243 c24 -18 18 -23 -34 -32 -34 -5 -42 -4 -42 9 0 16 25 36 46 37 5 0
19 -6 30 -14z m54 -76 l0 -40 -55 0 c-30 0 -58 -1 -62 -2 -5 -2 -9 11 -11 28
-3 29 0 32 40 41 82 20 88 18 88 -27z m133 -106 c26 -9 49 -19 51 -23 6 -9
-40 -111 -50 -111 -7 0 -104 72 -104 77 0 2 7 19 14 38 17 40 24 41 89 19z
m-42 -173 c40 -40 41 -100 3 -130 -37 -29 -70 -26 -105 8 -22 22 -29 39 -29
67 0 79 75 111 131 55z m-20 -231 c52 0 53 -25 2 -34 -60 -9 -90 -7 -103 9
-18 22 -2 38 32 31 17 -3 48 -6 69 -6z m-61 -94 c0 -17 -34 -31 -50 -21 -16
10 8 35 31 35 11 0 19 -6 19 -14z"/>
<path d="M3967 1912 c-21 -23 -22 -55 -2 -72 17 -14 20 -3 6 19 -15 23 6 51
37 51 l27 0 -24 -13 c-14 -6 -26 -18 -29 -24 -5 -18 30 -16 54 1 15 12 17 18
8 33 -15 25 -56 28 -77 5z"/>
<path d="M4396 1565 c-22 -22 -20 -61 4 -85 50 -50 128 4 98 68 -16 33 -75 43
-102 17z m90 -20 c11 -16 11 -25 1 -44 -7 -14 -18 -26 -25 -29 -11 -3 -10 2 2
20 30 47 -15 88 -56 51 -21 -18 -21 -18 -9 5 15 29 67 27 87 -3z"/>
<path d="M4320 520 c14 -11 30 -20 35 -20 6 0 -1 9 -15 20 -14 11 -29 20 -35
20 -5 0 1 -9 15 -20z"/>
<path d="M4222 368 c-16 -16 -15 -53 2 -67 8 -7 27 -11 43 -9 51 6 41 88 -11
88 -12 0 -27 -5 -34 -12z"/>
<path d="M3825 2777 c-18 -14 -12 -42 10 -51 8 -3 21 2 29 10 28 28 -6 64 -39
41z"/>
<path d="M1525 2687 c49 -100 85 -222 85 -287 0 -38 -6 -49 -48 -94 -53 -56
-77 -110 -118 -261 -35 -131 -28 -138 11 -10 58 190 64 204 121 261 49 48 54
57 54 97 0 88 -69 285 -124 352 -18 22 -12 6 19 -58z"/>
<path d="M1904 2746 c-11 -28 4 -48 33 -44 22 2 28 8 28 28 0 20 -6 26 -28 28
-18 2 -29 -2 -33 -12z"/>
<path d="M4129 2745 c-81 -44 -44 -175 49 -175 39 0 82 43 82 82 0 40 -24 82
-55 96 -33 15 -44 15 -76 -3z m88 -27 c32 -29 32 -91 1 -112 -49 -35 -118 0
-118 59 0 34 37 75 68 75 14 0 36 -10 49 -22z"/>
<path d="M271 2721 c-13 -24 8 -55 34 -50 28 6 42 34 26 53 -18 22 -48 20 -60
-3z"/>
<path d="M3670 2507 c0 -2 15 -14 33 -27 20 -15 27 -17 18 -6 -13 16 -51 41
-51 33z"/>
<path d="M1251 2474 c0 -11 3 -14 6 -6 3 7 2 16 -1 19 -3 4 -6 -2 -5 -13z"/>
<path d="M1261 2423 c-1 -17 3 -43 9 -58 9 -23 3 -100 -15 -194 -5 -22 -4 -23
4 -6 23 52 31 160 17 225 -10 45 -15 55 -15 33z"/>
<path d="M4183 2370 c-31 -28 -37 -57 -19 -85 20 -30 49 -39 76 -25 18 9 20
17 14 43 -7 34 -34 87 -44 87 -4 0 -16 -9 -27 -20z"/>
<path d="M3731 2357 c-49 -24 -149 -112 -183 -160 -12 -16 14 6 58 49 49 49
100 90 134 106 30 15 51 27 45 27 -5 1 -30 -9 -54 -22z"/>
<path d="M4147 2159 c-20 -15 -27 -29 -26 -52 l2 -32 4 30 c6 41 20 55 53 55
35 0 52 -21 61 -73 l6 -42 2 41 c2 72 -53 112 -102 73z"/>
<path d="M3489 2096 c-16 -35 -32 -81 -35 -102 -4 -33 -2 -31 11 13 8 29 26
75 40 103 14 27 23 50 20 50 -3 0 -20 -29 -36 -64z"/>
<path d="M137 2125 c-52 -20 -137 -83 -137 -102 0 -10 11 -6 35 16 69 61 111
76 210 76 107 0 158 -20 231 -91 68 -66 99 -141 97 -235 -1 -95 -31 -167 -96
-233 -36 -36 -112 -86 -130 -86 -2 0 -2 14 1 30 2 18 0 30 -7 30 -6 0 -8 -7
-5 -15 3 -8 1 -28 -4 -45 -6 -16 -9 -30 -6 -30 2 0 28 12 56 26 71 36 143 107
175 173 25 50 28 67 28 161 0 98 -2 109 -30 159 -34 61 -97 120 -163 153 -59
29 -196 36 -255 13z"/>
<path d="M300 2064 c69 -18 155 -76 189 -128 22 -33 26 -51 26 -105 -1 -161
-136 -282 -299 -268 -33 3 -70 8 -81 12 -19 6 -19 6 -1 -9 27 -22 118 -30 174
-17 101 26 166 83 203 181 39 103 18 192 -65 268 -56 52 -118 82 -166 81 -31
0 -29 -2 20 -15z"/>
<path d="M4139 2056 c17 -20 52 -18 59 4 4 13 3 13 -11 2 -13 -11 -20 -11 -39
-1 -21 11 -22 11 -9 -5z"/>
<path d="M1886 2039 c-23 -33 -6 -64 34 -64 40 0 57 31 34 64 -19 27 -49 27
-68 0z"/>
<path d="M150 2023 c-8 -3 -28 -15 -43 -26 -21 -14 -31 -17 -40 -8 -6 6 -18
11 -27 11 -12 -1 -12 -3 3 -11 12 -7 16 -17 12 -30 -9 -27 1 -24 48 13 36 29
50 33 116 37 69 4 72 5 36 12 -47 9 -84 10 -105 2z"/>
<path d="M561 2017 c-1 -4 8 -35 20 -69 25 -77 28 -212 5 -276 -33 -93 -117
-181 -208 -222 -37 -16 -62 -19 -134 -17 -91 4 -139 19 -211 67 l-33 22 0 -25
c0 -20 12 -31 63 -58 60 -33 65 -34 177 -34 106 0 119 2 166 27 77 40 150 117
187 195 29 62 32 76 32 168 0 92 -3 105 -32 165 -17 36 -32 61 -32 57z"/>
<path d="M1 1973 c0 -25 1 -26 9 -8 12 27 12 35 0 35 -5 0 -10 -12 -9 -27z"/>
<path d="M380 1965 c0 -9 62 -36 68 -30 9 9 -28 35 -50 35 -10 0 -18 -2 -18
-5z"/>
<path d="M306 1934 c47 -23 71 -53 85 -106 14 -50 4 -103 -26 -143 -13 -16
-19 -18 -35 -7 -28 17 -33 15 -26 -12 4 -17 1 -26 -10 -30 -76 -29 -198 41
-219 127 -7 27 -19 35 -29 19 -10 -16 53 -109 94 -137 155 -108 342 51 259
221 -21 44 -71 84 -105 84 -13 0 -10 -5 12 -16z"/>
<path d="M2688 1939 c-26 -15 -22 -44 14 -104 32 -54 32 -54 74 -48 72 10 269
-65 242 -92 -2 -2 -33 4 -69 15 -85 26 -115 25 -144 -5 -39 -38 -33 -78 27
-176 28 -46 60 -106 69 -134 16 -44 18 -46 13 -13 -6 36 -5 37 33 47 46 13 86
53 101 101 16 51 36 271 28 303 -9 36 -42 51 -188 87 -130 32 -172 36 -200 19z
m180 -93 c121 -36 126 -39 137 -73 8 -29 0 -29 -98 2 -43 14 -98 25 -122 25
-39 0 -46 4 -60 30 -32 62 -16 64 143 16z m130 -193 c-2 -16 -10 -29 -19 -31
-12 -2 -15 4 -11 28 6 39 35 42 30 3z m-114 -18 c16 -24 15 -25 -3 -25 -10 0
-33 -3 -50 -6 -28 -6 -31 -4 -31 18 0 31 7 38 41 38 17 0 32 -8 43 -25z m127
-45 c40 -22 17 -30 -85 -30 -81 0 -105 3 -109 14 -4 10 3 16 21 19 56 8 154 7
173 -3z"/>
<path d="M3442 1920 c0 -19 2 -27 5 -17 2 9 2 25 0 35 -3 9 -5 1 -5 -18z"/>
<path d="M178 1924 c-78 -42 -76 -168 3 -210 49 -25 93 -18 135 21 34 32 36
38 31 81 -5 48 -32 85 -79 110 -34 18 -56 17 -90 -2z"/>
<path d="M5108 1843 c-3 -27 -2 -70 2 -98 6 -43 8 -36 9 48 0 53 -1 97 -3 97
-2 0 -6 -21 -8 -47z"/>
<path d="M3443 1765 c0 -22 2 -30 4 -17 2 12 2 30 0 40 -3 9 -5 -1 -4 -23z"/>
<path d="M3451 1713 c-1 -16 40 -126 44 -121 2 2 -7 33 -20 68 -13 36 -24 60
-24 53z"/>
<path d="M1401 1664 c0 -11 3 -14 6 -6 3 7 2 16 -1 19 -3 4 -6 -2 -5 -13z"/>
<path d="M0 1628 c0 -27 88 -97 143 -113 53 -16 129 -19 160 -7 10 4 -15 8
-55 8 -91 1 -155 27 -209 86 -26 29 -39 37 -39 26z"/>
<path d="M1391 1624 c0 -11 3 -14 6 -6 3 7 2 16 -1 19 -3 4 -6 -2 -5 -13z"/>
<path d="M2232 1613 c-4 -10 -7 -67 -7 -128 l0 -110 48 -73 c55 -85 93 -108
161 -97 49 9 76 22 76 37 0 6 -8 4 -18 -5 -13 -12 -37 -17 -79 -17 -57 0 -63
2 -92 35 -17 20 -42 58 -56 85 -22 43 -25 62 -25 150 0 56 5 110 10 121 8 13
7 19 0 19 -6 0 -14 -8 -18 -17z"/>
<path d="M3510 1560 c6 -11 13 -20 16 -20 2 0 0 9 -6 20 -6 11 -13 20 -16 20
-2 0 0 -9 6 -20z"/>
<path d="M3545 1510 c10 -11 20 -20 23 -20 3 0 -3 9 -13 20 -10 11 -20 20 -23
20 -3 0 3 -9 13 -20z"/>
<path d="M3630 1416 c36 -38 96 -88 133 -113 38 -25 72 -54 78 -66 5 -12 13
-62 18 -112 l10 -90 -5 99 c-2 54 -9 107 -14 116 -6 10 -34 32 -63 49 -29 16
-91 65 -137 107 l-85 78 65 -68z"/>
<path d="M3104 1406 c-10 -26 4 -48 28 -44 17 2 23 10 23 28 0 18 -6 26 -23
28 -13 2 -25 -3 -28 -12z"/>
<path d="M4158 1249 c-34 -19 -13 -99 25 -99 27 0 57 32 57 60 0 42 -43 62
-82 39z"/>
<path d="M2858 1131 c-31 -10 -85 -34 -121 -54 -61 -33 -64 -34 -75 -16 -14
22 -61 26 -80 7 -7 -7 -12 -24 -12 -38 0 -30 16 -50 41 -50 10 0 41 20 70 45
82 70 181 107 314 115 l110 7 -95 1 c-67 1 -112 -5 -152 -17z m-212 -86 c7
-18 -13 -45 -33 -45 -17 0 -27 24 -19 45 7 20 45 19 52 0z"/>
<path d="M3154 1125 c81 -23 174 -75 229 -129 70 -67 142 -170 173 -246 32
-80 50 -215 36 -271 -8 -31 -8 -39 1 -30 18 18 20 130 3 211 -25 120 -75 208
-174 309 -69 70 -102 96 -162 124 -41 20 -93 38 -115 41 -37 5 -36 5 9 -9z"/>
<path d="M4863 1083 c9 -2 23 -2 30 0 6 3 -1 5 -18 5 -16 0 -22 -2 -12 -5z"/>
<path d="M4935 1068 c17 -6 47 -22 68 -35 20 -13 37 -21 37 -18 0 10 -79 54
-107 60 l-28 5 30 -12z"/>
<path d="M4775 1060 c-3 -6 1 -7 9 -4 18 7 21 14 7 14 -6 0 -13 -4 -16 -10z"/>
<path d="M2915 1048 c-117 -22 -263 -125 -334 -236 -80 -125 -110 -292 -76
-427 35 -140 131 -281 242 -354 l46 -31 159 0 c176 0 204 7 262 69 24 25 27
33 16 46 -9 11 -24 13 -54 10 -37 -5 -38 -4 -16 6 245 113 274 156 291 432 11
171 8 195 -38 274 -32 55 -122 137 -186 169 -91 47 -207 62 -312 42z m143
-173 c3 -3 -11 -5 -31 -5 -83 0 -202 -66 -257 -142 -45 -62 -36 -66 13 -6 32
39 63 63 121 93 73 37 84 40 160 40 106 -1 152 -24 214 -106 10 -14 6 -15 -41
-11 -44 3 -63 -1 -108 -24 -33 -17 -66 -27 -87 -25 -44 3 -92 -29 -122 -80
-32 -58 -31 -114 3 -172 33 -55 34 -79 6 -124 -20 -32 -20 -35 -4 -53 44 -49
275 -51 368 -3 27 13 51 22 53 20 9 -9 -63 -61 -124 -90 -120 -56 -274 -47
-370 23 -92 66 -175 228 -175 336 1 120 81 236 205 299 84 42 70 48 -17 6
-105 -49 -191 -166 -202 -276 -6 -57 15 -152 48 -217 21 -42 21 -43 1 -25 -64
58 -86 220 -43 329 36 92 127 182 218 213 32 11 160 11 171 0z m222 -155 c108
-30 161 -178 106 -295 -30 -65 -136 -165 -174 -165 -24 1 -23 3 18 24 25 13
63 41 86 62 22 22 31 31 20 22 -56 -45 -139 -60 -199 -34 -43 18 -95 78 -101
118 -3 18 -7 44 -9 58 -3 14 -5 7 -6 -17 -2 -69 -31 -50 -45 29 -10 54 13 101
60 123 22 9 54 29 72 42 55 41 107 51 172 33z m-254 -63 c-47 -30 -66 -55 -80
-107 -12 -48 -14 -51 -15 -22 -1 47 26 101 63 123 17 10 36 19 41 18 6 0 1 -6
-9 -12z m-366 -412 c0 -9 -7 -18 -16 -22 -18 -7 -39 11 -30 26 11 17 46 13 46
-4z m90 -146 c47 -25 64 -38 45 -34 -32 7 -110 49 -120 65 -9 15 -6 14 75 -31z"/>
<path d="M2822 398 c-16 -16 -15 -33 2 -47 22 -18 48 -2 44 28 -3 28 -27 38
-46 19z m38 -18 c0 -11 -7 -20 -15 -20 -8 0 -15 9 -15 20 0 11 7 20 15 20 8 0
15 -9 15 -20z"/>
<path d="M3163 608 c-46 -50 -54 -97 -28 -148 28 -55 80 -65 136 -27 60 40 68
120 17 174 -30 32 -96 32 -125 1z m12 -107 c-4 -20 -1 -34 11 -45 26 -27 7
-32 -21 -6 -35 33 -33 80 2 80 11 0 13 -8 8 -29z"/>
<path d="M4005 1048 c-22 -13 -44 -38 -45 -52 0 -5 9 3 20 17 27 34 67 41 120
23 39 -13 41 -13 28 1 -20 20 -97 27 -123 11z"/>
<path d="M0 1014 c0 -11 11 -31 24 -43 14 -13 26 -39 30 -64 8 -49 66 -325
102 -482 29 -126 54 -295 54 -373 0 -37 4 -52 12 -50 26 9 2 237 -47 448 -19
80 -51 228 -71 330 -35 173 -39 187 -71 220 -29 30 -33 32 -33 14z"/>
<path d="M3872 1000 c0 -19 2 -27 5 -17 2 9 2 25 0 35 -3 9 -5 1 -5 -18z"/>
<path d="M5050 1007 c0 -3 17 -17 37 -33 20 -15 33 -23 29 -16 -8 13 -66 56
-66 49z"/>
<path d="M4038 979 c-25 -14 -23 -65 2 -79 48 -26 91 30 55 70 -20 22 -32 24
-57 9z"/>
<path d="M4775 925 c-36 -35 -35 -96 1 -124 57 -45 138 -8 138 64 0 74 -88
112 -139 60z"/>
<path d="M3390 896 c0 -2 8 -10 18 -17 15 -13 16 -12 3 4 -13 16 -21 21 -21
13z"/>
<path d="M3455 791 c45 -90 67 -187 63 -273 -1 -37 1 -70 5 -74 13 -13 7 161
-7 217 -16 59 -73 186 -88 195 -5 3 7 -26 27 -65z"/>
<path d="M2456 775 c-9 -26 -7 -32 5 -12 6 10 9 21 6 23 -2 3 -7 -2 -11 -11z"/>
<path d="M2305 705 c-29 -28 -31 -42 -9 -73 20 -29 59 -28 89 2 27 27 24 58
-8 81 -30 21 -44 19 -72 -10z m81 -20 c11 -43 -34 -73 -64 -43 -27 27 -6 68
35 68 16 0 24 -7 29 -25z"/>
<path d="M2421 666 c-16 -64 -23 -212 -14 -271 7 -40 9 -24 10 80 0 72 6 152
12 179 6 27 10 50 8 53 -3 2 -10 -17 -16 -41z"/>
<path d="M957 694 c-25 -25 8 -70 43 -59 32 10 24 59 -10 63 -14 2 -29 0 -33
-4z"/>
<path d="M2070 641 c-8 -6 -37 -13 -65 -17 -63 -8 -161 -45 -242 -90 -35 -19
-63 -37 -63 -39 0 -2 47 19 105 46 63 30 135 56 182 66 43 8 85 21 93 29 16
16 12 18 -10 5z"/>
<path d="M4572 590 c0 -14 2 -19 5 -12 2 6 2 18 0 25 -3 6 -5 1 -5 -13z"/>
<path d="M747 552 c-23 -25 -21 -68 3 -92 41 -41 100 -13 100 47 0 55 -67 85
-103 45z"/>
<path d="M2035 479 c-33 -11 -132 -55 -220 -99 -239 -118 -306 -186 -329 -337
-4 -27 -2 -43 4 -43 5 0 10 13 10 30 0 37 9 38 44 1 36 -37 68 -37 91 1 13 22
14 33 6 41 -15 15 -14 27 4 27 11 0 12 5 5 26 -15 39 -2 47 32 19 36 -30 35
-30 76 -5 35 21 35 23 36 90 1 61 23 59 44 -5 14 -41 22 -51 43 -53 17 -2 37
6 57 23 l31 26 13 -28 c7 -15 20 -29 28 -31 9 -1 41 20 72 48 31 27 58 50 61
50 3 0 10 -13 15 -30 10 -28 8 -32 -24 -57 -49 -39 -67 -75 -53 -107 10 -21
15 -23 36 -15 37 14 41 11 13 -10 l-24 -19 -39 35 c-48 43 -111 72 -155 73
-65 0 -138 -44 -168 -102 -21 -41 0 -34 25 7 29 50 75 75 140 75 60 0 121 -28
147 -68 24 -37 9 -37 -36 -1 -73 59 -203 49 -248 -19 l-14 -22 272 0 c226 0
271 2 261 13 -16 20 -86 242 -111 354 -23 99 -40 133 -69 133 -9 -1 -43 -10
-76 -21z"/>
<path d="M4564 380 c0 -52 1 -74 3 -47 2 26 2 68 0 95 -2 26 -3 4 -3 -48z"/>
<path d="M1361 409 c-54 -54 -39 -141 28 -169 89 -36 179 56 137 139 -36 69
-113 83 -165 30z"/>
<path d="M3558 385 c-3 -14 -1 -25 3 -25 5 0 9 11 9 25 0 14 -2 25 -4 25 -2 0
-6 -11 -8 -25z"/>
<path d="M2432 380 c0 -14 2 -19 5 -12 2 6 2 18 0 25 -3 6 -5 1 -5 -13z"/>
<path d="M3505 273 c-41 -81 -149 -205 -212 -244 -19 -12 -32 -24 -29 -26 10
-11 76 40 142 110 64 67 150 204 142 227 -2 5 -21 -25 -43 -67z"/>
<path d="M3550 182 c-14 -20 -54 -67 -89 -104 -35 -38 -60 -72 -56 -76 9 -9
120 111 152 166 32 53 26 64 -7 14z"/>
<path d="M2505 161 c30 -54 109 -154 127 -160 7 -2 -7 18 -30 44 -24 27 -59
75 -78 107 -43 70 -55 77 -19 9z"/>
<path d="M4554 120 c0 -52 1 -74 3 -47 2 26 2 68 0 95 -2 26 -3 4 -3 -48z"/>
<path d="M3980 97 c-25 -19 -50 -60 -50 -79 0 -15 9 -18 54 -18 57 0 66 7 66
55 0 25 -24 55 -43 55 -7 0 -19 -6 -27 -13z"/>
</g>
</svg>