<?xml version="1.0" standalone="no"?>
<!DOCTYPE svg PUBLIC "-//W3C//DTD SVG 20010904//EN"
 "http://www.w3.org/TR/2001/REC-SVG-20010904/DTD/svg10.dtd">
<svg version="1.0" xmlns="http://www.w3.org/2000/svg"
 width="512.000000pt" height="512.000000pt" viewBox="0 0 512.000000 512.000000"
 preserveAspectRatio="xMidYMid meet">
<metadata>
Created by potrace 1.16, written by Peter Selinger 2001-2019
</metadata>
<g transform="translate(0.000000,512.000000) scale(0.100000,-0.100000)"
fill="#000000" stroke="none">
<path d="M0 4655 c0 -365 3 -465 13 -466 6 -1 19 -2 27 -3 8 0 19 4 23 9 6 6
10 6 14 -2 2 -7 9 -13 14 -13 6 0 7 5 4 10 -3 6 1 10 9 10 9 0 16 -4 16 -9 0
-6 13 -5 33 1 17 6 59 16 92 23 33 7 53 14 45 15 -8 1 21 12 65 24 48 14 85
20 91 14 7 -5 14 -3 17 6 5 13 40 22 122 30 16 2 31 8 33 14 2 6 9 9 17 6 7
-3 16 -1 20 5 3 6 16 11 28 11 21 -1 21 -1 -3 -15 -38 -22 -1 -18 44 4 21 11
45 20 54 20 56 0 183 15 188 22 2 4 11 6 19 3 8 -4 12 -10 9 -15 -8 -14 13
-11 28 4 7 7 31 13 53 13 22 0 49 3 60 8 15 6 17 5 5 -3 -19 -13 -10 -22 18
-14 12 3 19 10 15 16 -4 6 -1 7 7 2 18 -11 102 -7 114 5 13 13 116 13 116 0 0
-5 15 -10 33 -10 24 0 28 3 17 10 -13 8 -12 10 3 10 9 0 17 -5 17 -11 0 -6 10
-9 23 -7 13 2 28 0 34 -6 28 -28 52 -44 55 -36 2 6 9 6 17 1 23 -14 2 -75 -27
-79 -19 -3 -22 -10 -22 -48 0 -32 -4 -44 -15 -44 -8 0 -16 -1 -17 -2 -1 -2 -5
-165 -8 -363 l-5 -359 -25 -6 c-23 -5 -25 -11 -28 -67 -3 -60 -2 -62 28 -78
28 -15 30 -19 30 -73 0 -51 3 -60 29 -82 29 -25 29 -27 35 -163 l7 -137 -26
-10 c-22 -9 -25 -15 -25 -63 0 -47 -4 -59 -35 -94 -25 -29 -35 -51 -35 -75 0
-18 -3 -57 -6 -85 -6 -47 -10 -53 -30 -53 -28 0 -42 19 -23 31 10 6 4 12 -23
24 -21 8 -42 15 -48 15 -5 0 -10 19 -10 43 0 50 -14 80 -23 48 -3 -12 -1 -21
4 -21 5 0 9 -4 9 -10 0 -5 -7 -10 -15 -10 -8 0 -15 5 -15 10 0 6 -4 10 -10 10
-5 0 -10 -7 -10 -15 0 -9 -6 -18 -14 -21 -7 -3 -133 56 -280 132 -147 75 -270
134 -273 130 -3 -3 8 -12 26 -19 17 -7 28 -17 24 -21 -4 -4 1 -4 11 0 13 5 17
4 12 -4 -5 -8 -1 -10 11 -5 14 5 16 3 6 -7 -10 -11 -20 -8 -53 15 -22 16 -44
33 -48 40 -11 17 -98 65 -119 65 -11 0 -24 -5 -31 -12 -15 -15 -16 -58 -2 -58
6 0 11 -54 12 -137 l2 -138 6 130 c4 111 7 127 17 108 8 -13 13 -60 13 -124 0
-56 3 -99 8 -95 4 4 6 49 4 99 l-3 92 58 -65 c100 -113 237 -252 266 -270 16
-10 78 -66 138 -126 90 -89 109 -112 109 -137 l0 -30 61 7 c34 3 77 6 95 6
l34 0 0 50 c0 30 4 50 11 50 7 0 10 -17 7 -46 l-3 -47 106 7 c71 5 109 3 114
-4 3 -5 3 -10 -2 -10 -4 0 -91 -7 -193 -15 -102 -8 -197 -15 -212 -15 -16 0
-28 -4 -28 -10 0 -5 34 -50 75 -99 41 -50 75 -93 75 -96 0 -3 -25 -5 -56 -5
l-55 0 3 -42 c3 -39 6 -43 35 -49 43 -8 85 -41 193 -152 l90 -91 -2 -280 -3
-281 -757 -3 c-494 -1 -758 -6 -758 -12 0 -6 135 -11 378 -12 207 -1 345 -4
305 -7 -39 -3 -74 -9 -78 -13 -10 -10 305 2 339 13 16 5 141 9 277 9 200 0
249 -3 249 -13 0 -9 12 -13 40 -11 22 1 38 -2 35 -6 -3 -5 -13 -9 -23 -8 -9 0
-37 -8 -62 -18 -50 -20 -213 -23 -303 -5 -27 5 -45 5 -40 2 16 -15 170 -41
238 -41 39 0 111 7 160 15 51 9 112 13 141 9 39 -4 70 0 135 20 98 31 198 42
254 28 22 -6 76 -19 120 -31 107 -28 145 -26 261 10 59 18 111 28 129 25 17
-2 48 -7 71 -11 35 -6 50 -2 109 29 37 20 72 33 78 29 6 -3 36 -5 68 -4 62 2
92 -9 164 -60 l40 -29 114 11 c150 14 339 -1 517 -41 148 -33 201 -37 218 -16
6 7 60 20 126 30 63 9 142 21 174 27 33 5 67 7 75 4 12 -5 13 -3 4 5 -11 12
-70 9 -141 -5 -18 -4 -38 -3 -45 3 -6 5 -32 13 -56 17 -41 7 -43 9 -26 21 15
12 114 14 547 14 345 0 528 3 528 10 0 7 -193 10 -560 10 l-560 0 0 53 c-1 70
-16 90 -60 77 -19 -5 -36 -7 -39 -5 -5 6 52 270 77 352 l18 58 87 8 c49 5 95
6 103 3 10 -4 14 -24 16 -73 1 -50 2 -56 5 -23 9 119 18 77 23 -100 l6 -195 2
193 c1 125 6 192 12 192 7 0 10 -63 8 -190 -2 -105 0 -190 5 -190 4 0 7 89 7
198 l0 198 85 42 c146 72 146 72 -337 73 -233 1 -407 4 -388 8 19 4 178 6 354
4 262 -2 316 0 307 11 -13 15 -5 26 21 26 11 0 18 -7 18 -20 0 -17 7 -20 45
-20 41 0 45 2 45 25 0 22 -4 25 -37 25 -31 0 -43 6 -66 35 -15 19 -23 35 -18
35 6 0 21 15 33 34 32 49 107 77 242 90 67 7 106 15 98 20 -7 4 -25 5 -40 1
-14 -3 -118 -3 -229 1 l-203 7 0 48 c0 39 -3 49 -17 49 -13 0 -14 -3 -5 -12
16 -16 15 -58 -2 -58 -8 0 -12 8 -9 23 4 18 -2 26 -29 37 -27 12 -33 20 -31
43 1 15 -2 27 -8 27 -5 0 -12 0 -16 1 -5 1 -7 -13 -5 -30 3 -25 0 -31 -17 -31
-26 0 -30 15 -35 139 -3 57 -10 109 -16 115 -7 7 -10 3 -10 -12 0 -12 -4 -22
-9 -22 -5 0 -7 -9 -4 -20 6 -24 -13 -197 -29 -258 -10 -41 -11 -42 -54 -42
-24 0 -44 -4 -44 -10 0 -5 21 -10 46 -10 44 0 45 -1 42 -27 -3 -26 -7 -28 -49
-31 -45 -3 -46 -2 -42 22 5 25 5 25 -53 20 -33 -3 -69 -6 -81 -8 -23 -3 -23
-2 -23 105 0 90 -3 109 -15 109 -10 0 -15 -10 -15 -29 0 -35 -7 -38 -92 -33
-48 3 -68 8 -68 17 0 20 58 65 84 65 12 0 35 13 50 29 23 24 27 35 24 77 l-3
49 -57 3 c-56 3 -58 4 -58 31 0 15 8 35 18 43 21 19 113 66 162 83 l35 12 0
67 c0 62 -1 66 -22 66 -13 0 -23 4 -23 8 0 23 68 98 161 176 249 210 248 209
248 244 1 17 -1 32 -4 32 -3 0 -38 -9 -78 -20 -41 -11 -134 -34 -207 -50 -132
-29 -134 -29 -147 -10 -8 11 -25 20 -39 20 -20 0 -24 -5 -24 -29 0 -20 -6 -30
-20 -34 -24 -6 -33 5 -23 29 6 16 7 16 14 -2 6 -15 8 -12 8 14 1 28 -2 32 -24
32 -23 0 -25 -4 -25 -44 l0 -43 -122 -5 -122 -5 -38 -41 c-29 -31 -38 -50 -38
-76 0 -19 -6 -36 -12 -38 -10 -4 -8 -13 6 -39 19 -36 19 -70 0 -76 -24 -8 -41
43 -47 143 l-6 101 73 96 c40 53 80 111 89 129 31 64 105 159 298 378 107 122
204 234 216 248 l23 27 0 -121 c0 -91 3 -124 14 -133 20 -17 24 10 27 178 3
126 1 146 -14 155 -12 8 -20 7 -29 -2 -9 -9 -8 -12 5 -12 9 0 17 -4 17 -10 0
-5 -12 -10 -26 -10 -15 0 -23 4 -19 11 4 5 -19 -3 -52 -19 -32 -17 -168 -78
-303 -137 -135 -59 -266 -118 -291 -131 l-46 -23 -7 307 c-3 169 -9 343 -12
388 l-6 81 -47 9 c-42 8 -142 -3 -169 -20 -5 -3 -12 -99 -16 -213 -28 -877
-36 -1135 -36 -1250 0 -126 -1 -133 -20 -133 -19 0 -20 7 -20 95 0 57 4 95 10
95 6 0 10 7 10 15 0 22 -30 78 -38 71 -3 -4 -6 -84 -6 -178 -1 -119 -4 -172
-12 -175 -24 -8 -30 384 -7 443 3 8 -2 14 -11 14 -13 0 -16 13 -16 79 0 61 -3
80 -15 85 -8 3 -15 12 -15 20 0 17 -31 29 -54 20 -13 -5 -16 1 -16 40 0 34 -4
46 -15 46 -12 0 -14 -8 -9 -40 6 -36 5 -40 -15 -40 -12 0 -21 6 -21 15 0 19
-16 20 -27 1 -4 -7 -32 -16 -61 -19 -29 -3 -57 -9 -62 -12 -6 -3 -10 -46 -10
-96 0 -49 -3 -89 -7 -89 -27 1 -43 30 -43 79 0 28 -5 51 -10 51 -6 0 -10 -10
-9 -22 5 -61 -1 -88 -20 -88 -34 0 -51 38 -51 113 0 66 2 72 40 119 34 43 40
58 40 98 0 50 -1 51 -72 74 -15 4 -18 17 -18 65 0 58 1 61 40 93 38 30 41 35
38 78 -3 43 -5 45 -40 54 l-38 10 0 120 c0 108 2 122 21 142 16 17 19 29 14
54 -4 17 -14 34 -22 37 -12 5 -14 24 -12 96 3 88 3 89 -24 103 -15 8 -27 23
-27 32 0 10 -6 24 -12 31 -8 9 -8 11 -2 8 7 -4 14 0 18 8 3 8 10 15 16 15 14
0 50 37 43 44 -4 3 5 6 18 6 19 0 21 -2 9 -10 -11 -8 -4 -9 25 -6 22 3 65 5
95 5 39 1 51 4 40 11 -13 9 -13 10 0 10 12 0 12 2 2 9 -16 10 356 15 382 5 12
-5 14 -9 6 -14 -8 -5 -7 -9 4 -13 10 -4 16 -1 16 8 0 10 11 15 34 15 19 0 43
3 53 6 15 5 15 4 3 -5 -13 -9 -13 -11 2 -11 9 0 18 6 21 13 3 9 7 9 20 -2 11
-9 17 -10 17 -2 0 6 5 11 10 11 6 0 9 -6 8 -12 -2 -9 11 -13 37 -14 22 -1 58
-5 79 -9 23 -5 37 -4 33 1 -8 14 249 5 321 -12 35 -8 78 -14 96 -14 17 0 36
-4 41 -9 6 -6 30 -11 55 -13 25 -2 50 -7 56 -10 17 -11 54 3 55 21 0 10 3 8
10 -7 5 -13 13 -20 19 -17 5 3 10 1 10 -4 0 -6 5 -11 11 -11 5 0 7 5 4 10 -12
19 20 10 38 -10 18 -21 43 -28 31 -8 -5 8 5 9 39 5 27 -4 49 -2 52 3 4 6 16 8
28 5 12 -2 38 -7 57 -9 19 -3 36 -10 38 -15 2 -6 16 -11 30 -11 40 0 73 -11
66 -21 -3 -5 12 -10 33 -10 92 0 113 -3 101 -12 -8 -5 0 -7 22 -4 44 6 92 -2
84 -14 -3 -5 -2 -9 3 -10 4 0 39 -2 78 -4 79 -5 165 -24 165 -38 0 -5 6 -5 13
1 10 8 22 5 48 -11 18 -12 50 -22 69 -23 19 -1 36 -6 38 -12 2 -6 10 -8 18 -5
8 3 21 0 29 -7 8 -7 15 -9 15 -4 0 5 7 0 15 -11 12 -14 25 -19 55 -16 32 2 39
0 34 -12 -3 -8 -1 -18 4 -21 16 -10 19 72 21 537 l1 437 -2560 0 -2560 0 0
-465z m1785 -21 c18 -64 15 -72 -39 -81 -32 -5 -36 -3 -30 12 6 15 5 15 -14 4
-32 -20 -35 -7 -12 47 38 91 72 97 95 18z m-125 -109 c0 -14 -4 -25 -9 -25 -4
0 -6 11 -3 25 2 14 6 25 8 25 2 0 4 -11 4 -25z m33 -6 c-3 -10 0 -19 6 -19 6
0 11 6 11 14 0 8 8 17 18 20 9 2 27 7 40 11 14 4 22 2 22 -6 0 -6 8 -18 17
-25 25 -17 10 -28 -16 -12 -14 8 -24 9 -29 3 -4 -5 -16 -11 -27 -12 -11 -1
-48 -9 -82 -17 l-63 -14 1 26 c0 24 1 25 9 7 8 -21 12 -16 24 30 3 11 4 6 3
-10 -3 -29 -1 -31 26 -27 26 4 28 8 23 33 -4 21 -2 27 8 23 8 -3 12 -14 9 -25z
m214 -41 c-2 -13 -4 -5 -4 17 -1 22 1 32 4 23 2 -10 2 -28 0 -40z m-20 10 c-3
-7 -5 -2 -5 12 0 14 2 19 5 13 2 -7 2 -19 0 -25z m-20 0 c-3 -8 -6 -5 -6 6 -1
11 2 17 5 13 3 -3 4 -12 1 -19z m281 -58 c0 -20 -1 -21 -5 -5 -3 11 -9 24 -13
29 -5 5 -6 15 -2 24 5 13 7 12 13 -4 4 -10 7 -30 7 -44z m-378 41 c0 -15 -109
-36 -121 -24 -8 8 4 14 42 21 73 13 79 13 79 3z m357 -53 c-3 -8 -6 -5 -6 6
-1 11 2 17 5 13 3 -3 4 -12 1 -19z m-347 -54 c0 -59 -2 -65 -17 -59 -10 4 -27
8 -38 10 -30 4 -32 6 -10 15 15 6 8 9 -27 9 -43 1 -48 3 -48 24 0 12 4 28 9
35 9 15 58 29 104 31 27 1 27 1 27 -65z m70 52 c-7 -7 -14 -6 -21 1 -9 9 -7
12 9 10 14 -1 18 -5 12 -11z m60 -23 c0 -7 7 -16 15 -19 8 -4 15 -12 15 -20 0
-8 8 -14 18 -14 14 0 15 -2 2 -10 -12 -8 -10 -10 10 -10 14 0 36 -3 49 -7 14
-3 22 -2 19 3 -4 5 6 9 20 10 15 0 43 4 62 8 52 12 111 15 105 6 -3 -5 -34
-12 -70 -15 l-65 -7 0 -105 0 -105 28 6 c56 11 98 8 140 -9 24 -10 41 -19 39
-21 -2 -3 -21 3 -41 11 -33 14 -45 14 -127 0 -50 -9 -99 -13 -110 -10 -14 5
-17 2 -13 -8 8 -21 83 -48 103 -38 9 5 33 11 54 15 l37 7 0 -100 0 -100 -32
-3 c-31 -3 -33 -6 -36 -45 -2 -24 -8 -43 -15 -44 -7 0 -19 -2 -27 -4 -8 -2
-42 -9 -75 -15 -33 -7 -67 -16 -76 -21 -15 -8 -17 11 -24 196 -4 112 -5 219
-2 237 3 19 -1 39 -8 48 -7 8 -15 56 -18 106 -6 76 -4 91 8 91 8 0 15 -6 15
-14z m-280 -9 c0 -8 -5 -12 -10 -9 -6 4 -8 11 -5 16 9 14 15 11 15 -7z m500
-9 c0 -14 -4 -25 -9 -25 -5 0 -11 11 -13 25 -4 17 -1 25 8 25 8 0 14 -11 14
-25z m17 -12 c-3 -10 -5 -4 -5 12 0 17 2 24 5 18 2 -7 2 -21 0 -30z m43 17 c0
-11 -6 -20 -13 -20 -7 0 -13 9 -13 20 0 11 6 20 13 20 7 0 13 -9 13 -20z m30
-1 c0 -11 -4 -17 -10 -14 -5 3 -10 13 -10 21 0 8 5 14 10 14 6 0 10 -9 10 -21z
m-350 -28 c0 -21 -13 -4 -17 22 -2 17 -1 19 7 7 5 -8 10 -21 10 -29z m-40 -25
c0 -2 -7 -9 -15 -16 -13 -11 -14 -10 -9 4 5 14 24 23 24 12z m38 -31 c-3 -30
-11 -23 -13 9 0 14 3 22 7 20 4 -3 7 -16 6 -29z m-182 11 c23 -17 19 -21 -23
-29 -30 -6 -33 -4 -33 18 0 29 25 33 56 11z m59 -6 c3 -5 -1 -10 -10 -10 -9 0
-13 5 -10 10 3 6 8 10 10 10 2 0 7 -4 10 -10z m446 -12 l2 -23 4 23 c8 42 23
22 23 -32 0 -39 -4 -55 -15 -60 -10 -4 -15 1 -15 16 0 25 -14 16 -15 -10 -1
-9 -2 -30 -4 -47 l-2 -30 -30 35 c-25 27 -28 29 -15 8 20 -34 20 -35 -3 -41
-17 -4 -19 2 -19 85 0 81 1 88 16 76 10 -8 13 -9 9 -1 -7 11 10 19 46 22 11 1
17 -7 18 -21z m-361 2 c0 -5 -5 -10 -11 -10 -5 0 -7 5 -4 10 3 6 8 10 11 10 2
0 4 -4 4 -10z m-41 -16 c23 -5 31 -12 31 -29 0 -19 -9 -24 -75 -38 -87 -19
-139 -22 -115 -7 8 5 10 10 4 10 -6 0 -17 -7 -24 -15 -22 -27 -42 -18 -38 17
3 31 5 32 78 49 91 20 99 21 139 13z m1216 -4 c-3 -5 -16 -10 -28 -10 -17 0
-19 -2 -8 -9 10 -6 25 -4 43 5 26 13 28 13 28 -5 0 -18 -42 -35 -56 -22 -3 3
-11 6 -17 6 -7 0 -13 8 -15 17 -2 12 5 18 25 21 15 2 29 5 31 6 2 0 0 -3 -3
-9z m-1129 -28 c-4 -3 -14 2 -24 12 -16 18 -16 18 6 6 13 -6 21 -14 18 -18z
m1233 24 c-2 -2 -13 -8 -25 -14 -16 -9 -21 -8 -21 4 0 8 10 14 25 14 14 0 23
-2 21 -4z m21 -38 c-1 -26 -3 -30 -10 -16 -6 9 -7 23 -4 32 9 25 14 19 14 -16z
m-1234 -36 c-5 -5 -66 33 -66 41 0 4 15 -3 34 -15 19 -13 33 -24 32 -26z
m1046 19 c2 -17 1 -28 -4 -25 -8 5 -12 54 -4 54 2 0 6 -13 8 -29z m130 -3 c-7
-7 -12 -8 -12 -2 0 6 3 14 7 17 3 4 9 5 12 2 2 -3 -1 -11 -7 -17z m-47 3 c-4
5 -1 9 4 9 6 0 11 -13 11 -30 0 -39 -22 -39 -50 -1 l-20 30 30 -9 c19 -5 28
-5 25 1z m90 -59 c-9 -9 -25 19 -24 43 0 16 2 15 15 -8 9 -16 13 -32 9 -35z
m-1295 -67 c0 -70 -4 -115 -10 -115 -6 0 -10 45 -10 115 0 70 4 115 10 115 6
0 10 -45 10 -115z m1157 63 c-43 -12 -52 -10 -34 10 10 10 17 25 17 33 0 8 8
4 20 -11 19 -25 19 -25 -3 -32z m-1187 4 c0 -22 -3 -73 -6 -114 l-7 -75 -118
-20 -119 -20 0 113 0 112 98 17 c53 9 102 18 107 20 35 12 45 4 45 -33z m430
13 c0 -18 -5 -25 -20 -25 -23 0 -24 4 -10 31 15 27 30 24 30 -6z m857 3 c-3
-8 -6 -5 -6 6 -1 11 2 17 5 13 3 -3 4 -12 1 -19z m28 -58 c-10 -11 -22 -20
-27 -20 -4 0 -8 9 -8 20 0 15 7 20 27 20 25 0 26 0 8 -20z m-115 0 c0 -5 -2
-10 -4 -10 -3 0 -8 5 -11 10 -3 6 -1 10 4 10 6 0 11 -4 11 -10z m54 -6 c11
-30 6 -51 -19 -74 -21 -20 -25 -21 -25 -6 0 9 5 14 10 11 6 -3 10 -2 10 4 0 5
-4 13 -10 16 -14 8 -13 38 2 53 16 16 25 15 32 -4z m-85 -19 c5 2 7 -12 6 -33
-3 -51 -4 -54 -13 -48 -5 3 -9 26 -10 53 0 26 1 42 4 35 3 -6 9 -10 13 -7z
m160 -46 c-10 -6 -9 -13 4 -32 15 -23 15 -25 -1 -23 -20 3 -29 43 -13 59 6 6
12 22 12 37 2 23 2 23 6 -4 3 -17 -1 -32 -8 -37z m-12 29 c-3 -8 -6 -5 -6 6
-1 11 2 17 5 13 3 -3 4 -12 1 -19z m-120 -20 c-3 -8 -6 -5 -6 6 -1 11 2 17 5
13 3 -3 4 -12 1 -19z m103 -23 c0 -38 -16 -37 -18 1 -2 23 1 33 8 29 5 -3 10
-17 10 -30z m-71 -33 c8 -2 18 3 22 10 7 10 9 9 9 -4 0 -15 -9 -18 -45 -18
-44 0 -45 1 -34 22 10 18 13 19 23 7 6 -8 17 -15 25 -17z m-92 -4 c-3 -8 -6
-5 -6 6 -1 11 2 17 5 13 3 -3 4 -12 1 -19z m-1047 -33 c14 -8 21 -14 15 -14
-5 0 -21 6 -35 14 -14 8 -20 14 -15 14 6 0 21 -6 35 -14z m-56 -77 c4 -46 9
-109 12 -141 6 -57 6 -59 -17 -55 -21 3 -25 10 -30 53 l-6 50 -1 -51 -2 -51
-104 -17 c-58 -9 -112 -16 -120 -16 -14 0 -16 19 -16 130 0 72 1 130 3 130 1
0 54 9 117 20 63 11 118 20 122 20 4 0 9 -19 11 -42 l4 -43 1 48 c3 76 19 54
26 -35z m1199 75 c-7 -2 -19 -2 -25 0 -7 3 -2 5 12 5 14 0 19 -2 13 -5z m-102
-73 c-9 -24 -10 -24 -10 7 -1 17 2 40 7 50 6 15 7 14 10 -7 2 -14 -2 -37 -7
-50z m213 54 c3 -9 6 -27 6 -42 0 -34 -17 -17 -26 26 -7 33 9 46 20 16z
m-1238 -38 c1 -10 -4 -13 -14 -9 -14 5 -13 2 3 -16 l20 -23 -28 13 c-27 12
-37 29 -17 29 6 0 9 3 9 8 -1 4 -1 14 0 22 1 11 4 11 13 2 6 -6 13 -18 14 -26z
m1207 5 c2 -10 1 -24 -3 -30 -10 -17 -32 12 -24 33 8 22 21 20 27 -3z m-137
-38 c-3 -4 -6 -1 -6 6 0 7 -4 9 -10 6 -11 -7 -14 8 -3 19 4 3 11 -1 16 -9 5
-9 6 -19 3 -22z m71 20 c0 -7 -4 -13 -8 -13 -4 0 -9 6 -12 13 -3 8 0 14 7 14
7 0 13 -6 13 -14z m-52 -35 c-6 -22 -6 -22 9 -4 9 11 16 15 16 9 0 -5 -9 -18
-20 -28 -11 -10 -20 -23 -20 -29 0 -6 5 -5 12 2 14 14 32 16 24 4 -3 -5 1 -9
9 -9 11 0 12 3 3 14 -9 11 -7 18 5 31 16 15 17 14 17 -22 0 -36 -2 -38 -25
-34 -14 3 -28 1 -31 -4 -9 -14 -24 12 -24 40 0 13 6 29 13 37 17 20 19 18 12
-7z m103 -28 c1 -22 -3 -40 -8 -40 -6 0 -10 21 -10 46 0 55 16 51 18 -6z
m-1188 9 c0 -5 -11 -3 -25 3 -14 6 -25 15 -25 19 0 5 11 3 25 -3 14 -6 25 -15
25 -19z m1047 -36 c-2 -16 -4 -5 -4 22 0 28 2 40 4 28 2 -13 2 -35 0 -50z
m190 0 c-2 -16 -4 -5 -4 22 0 28 2 40 4 28 2 -13 2 -35 0 -50z m-207 13 c0
-25 -4 -48 -10 -51 -6 -4 -10 13 -10 44 0 28 5 51 10 51 6 0 10 -20 10 -44z
m189 -13 c1 -13 -3 -23 -9 -23 -5 0 -10 19 -9 43 0 32 2 37 9 22 5 -11 9 -30
9 -42z m-910 25 c0 -21 -1 -22 -8 -4 -7 18 -8 18 -14 -5 -4 -13 -7 -41 -7 -61
0 -33 -3 -38 -22 -38 -13 0 -33 -3 -45 -6 -17 -5 -23 -2 -23 11 0 13 6 16 23
11 19 -4 23 -1 23 17 1 95 2 97 39 97 30 0 35 -3 34 -22z m-302 -24 c-7 -7
-57 18 -57 28 0 5 14 1 31 -7 17 -9 29 -19 26 -21z m343 16 c0 -5 -4 -10 -10
-10 -5 0 -10 5 -10 10 0 6 5 10 10 10 6 0 10 -4 10 -10z m1580 -15 c0 -2 -10
-9 -22 -15 -22 -11 -22 -10 -4 4 21 17 26 19 26 11z m-1934 -20 c14 -11 15
-14 4 -15 -13 0 -13 -1 0 -10 8 -5 10 -10 4 -10 -5 0 -19 7 -30 15 -19 15 -19
15 1 9 20 -6 20 -5 1 10 -25 20 -7 21 20 1z m317 -15 c-3 -11 -9 -20 -14 -20
-7 0 -7 18 0 48 1 2 5 1 10 -2 5 -3 7 -15 4 -26z m1632 12 c-12 -9 -24 -24
-27 -32 -3 -9 -32 -36 -64 -60 -33 -24 -76 -56 -96 -72 -21 -16 -38 -25 -38
-20 0 16 157 160 197 181 47 25 54 26 28 3z m-1595 -2 c0 -5 -2 -10 -4 -10 -3
0 -8 5 -11 10 -3 6 -1 10 4 10 6 0 11 -4 11 -10z m30 0 c0 -5 -4 -10 -10 -10
-5 0 -10 5 -10 10 0 6 5 10 10 10 6 0 10 -4 10 -10z m38 -21 c1 -38 -22 -34
-26 4 -2 18 1 27 11 27 9 0 14 -11 15 -31z m1579 -156 c-2 -37 -3 -9 -3 62 0
72 1 102 3 68 2 -34 2 -93 0 -130z m-1545 152 c3 -13 2 -22 -3 -20 -4 3 -9 -1
-11 -7 -3 -7 -5 2 -5 20 0 38 13 43 19 7z m1398 -3 c-19 -15 -57 -51 -85 -81
-46 -51 -195 -196 -391 -384 l-80 -77 -12 63 c-14 71 -15 197 -1 176 7 -11 9
-11 9 2 0 9 -7 22 -15 29 -9 7 -14 17 -13 21 6 16 185 97 185 84 0 -8 -7 -11
-15 -7 -10 3 -13 1 -8 -6 5 -8 1 -10 -10 -5 -12 4 -15 3 -10 -5 5 -8 1 -10
-10 -5 -12 4 -15 3 -10 -5 7 -12 -5 -16 -33 -13 -7 2 -10 -2 -6 -8 4 -7 0 -8
-10 -5 -10 4 -15 2 -13 -7 2 -9 -5 -13 -22 -12 -14 1 -19 -1 -11 -4 11 -5 11
-7 0 -14 -8 -5 -9 -9 -4 -8 6 0 141 67 300 148 160 81 292 149 295 149 3 1
-11 -11 -30 -26z m-1678 -22 c-2 -16 -10 -30 -17 -30 -7 0 -20 -3 -28 -6 -11
-4 -15 0 -13 12 2 10 14 22 27 25 l24 7 -25 2 -25 2 25 8 c14 4 28 8 31 9 3 1
4 -12 1 -29z m45 24 c-3 -3 -12 -4 -19 -1 -8 3 -5 6 6 6 11 1 17 -2 13 -5z
m133 -9 c0 -8 -4 -15 -8 -15 -5 0 -9 7 -9 15 0 8 4 15 9 15 4 0 8 -7 8 -15z
m30 5 c0 -5 -2 -10 -4 -10 -3 0 -8 5 -11 10 -3 6 -1 10 4 10 6 0 11 -4 11 -10z
m-284 -15 c-11 -8 -14 -15 -8 -15 7 0 12 -8 12 -17 0 -15 -2 -16 -10 -3 -8 12
-10 10 -10 -9 0 -18 4 -22 18 -16 34 13 154 35 190 35 79 0 61 -17 -25 -23
-75 -6 -119 -14 -213 -38 -11 -3 -15 5 -15 35 0 36 3 40 35 52 46 16 49 16 26
-1z m-115 -17 c1 -17 2 -19 6 -5 7 28 23 19 23 -13 0 -32 -11 -39 -27 -17 -15
18 -23 57 -12 57 5 0 10 -10 10 -22z m1147 15 c-16 -2 -40 -2 -55 0 -16 2 -3
4 27 4 30 0 43 -2 28 -4z m-94 -58 c6 -37 5 -39 -9 -21 -8 11 -15 33 -15 50 0
41 16 21 24 -29z m202 28 c-10 -10 -19 5 -10 18 6 11 8 11 12 0 2 -7 1 -15 -2
-18z m-141 -73 c-8 -15 -25 -35 -39 -44 -25 -16 -26 -16 -26 4 0 18 4 20 22
14 19 -6 21 -4 12 7 -6 8 -9 31 -6 52 l4 38 24 -22 c21 -20 22 -24 9 -49z
m594 66 c-2 -2 -15 -9 -29 -15 -24 -11 -24 -11 -6 3 16 13 49 24 35 12z m-549
-22 c0 -14 -3 -14 -15 -4 -8 7 -15 14 -15 16 0 2 7 4 15 4 8 0 15 -7 15 -16z
m62 -4 c-22 -18 -23 -21 -8 -62 14 -42 8 -68 -16 -68 -7 0 -6 116 1 148 1 1
11 2 24 2 l22 -1 -23 -19z m-1252 -140 c0 -83 -3 -151 -7 -151 -5 -1 -17 -3
-28 -4 -100 -13 -277 -37 -307 -42 -23 -3 -38 -2 -38 4 0 6 44 16 98 22 139
17 132 13 134 79 l2 57 3 -57 4 -58 39 0 40 0 -2 128 -2 127 -6 -120 c-4 -106
-6 -114 -13 -69 -9 62 -26 81 -56 62 -17 -10 -21 -23 -21 -64 0 -56 -7 -64
-61 -64 -20 0 -29 5 -30 18 -2 25 -2 25 5 47 5 19 2 21 -29 17 l-35 -4 0 91
c0 50 1 91 3 92 52 11 225 36 260 37 l47 2 0 -150z m1285 51 c-5 -12 -11 -7
-22 22 -14 35 -14 39 3 59 19 20 19 20 22 -22 2 -23 0 -50 -3 -59z m612 64
c-19 -19 -43 -35 -53 -35 -12 0 -15 -3 -7 -8 8 -5 3 -18 -17 -42 -25 -31 -30
-33 -46 -20 -18 14 -18 14 -5 -3 18 -23 5 -35 -16 -14 -21 20 -6 41 42 59 19
6 32 15 29 19 -4 6 92 79 104 79 2 0 -12 -16 -31 -35z m-1831 -6 c4 -8 1 -8
-14 0 -12 6 -24 16 -28 22 -4 8 -1 8 14 0 12 -6 24 -16 28 -22z m281 -39 c1
-25 4 -53 7 -63 4 -15 0 -17 -29 -11 -36 6 -47 -3 -49 -45 -1 -20 -7 -27 -27
-29 -26 -3 -26 -3 -25 70 l1 73 55 5 c45 4 51 7 32 14 -13 4 -39 5 -58 1 -22
-4 -34 -2 -34 5 0 16 41 29 85 27 l40 -2 2 -45z m853 15 c0 -7 -11 -20 -25
-29 -29 -19 -33 -8 -15 39 9 23 13 25 25 15 8 -7 15 -18 15 -25z m-1051 1 c59
-44 82 -96 42 -96 -11 0 -26 -3 -35 -6 -12 -5 -16 5 -22 44 -5 39 -11 52 -26
55 -11 3 -17 10 -13 16 9 16 17 14 54 -13z m924 -24 c-9 -56 -18 -58 -15 -2 2
28 8 48 12 45 5 -3 6 -22 3 -43z m461 9 c3 -5 0 -11 -7 -14 -8 -3 -14 1 -14 9
0 16 13 19 21 5z m-399 -57 c-5 -50 -11 -64 -27 -64 -21 0 8 106 29 110 2 0 1
-20 -2 -46z m68 -35 c-6 -6 -19 1 -32 15 l-22 24 28 22 28 22 3 -37 c2 -21 -1
-42 -5 -46z m-803 48 c0 -2 -9 -3 -20 -3 -11 0 -20 6 -20 13 0 11 5 11 20 3
11 -6 20 -12 20 -13z m691 -44 l-4 -48 -8 35 c-4 21 -3 40 3 47 6 7 11 13 12
13 1 0 -1 -21 -3 -47z m-674 5 c-3 -7 -5 -2 -5 12 0 14 2 19 5 13 2 -7 2 -19
0 -25z m877 -13 c6 -28 5 -29 -9 -11 -8 11 -15 29 -15 40 0 28 16 8 24 -29z
m-118 -14 c-11 -18 -39 -13 -32 5 3 9 6 21 6 27 0 6 7 4 16 -5 9 -9 13 -21 10
-27z m81 33 c-3 -4 -2 -15 4 -25 7 -15 6 -19 -5 -19 -21 0 -30 19 -16 35 7 8
15 15 18 15 3 0 2 -3 -1 -6z m488 -14 c20 -22 20 -22 -12 -39 -22 -11 -23 -10
-23 24 0 40 9 44 35 15z m-1425 0 c0 -5 -4 -10 -9 -10 -6 0 -13 5 -16 10 -3 6
1 10 9 10 9 0 16 -4 16 -10z m750 -14 c0 -36 -15 -40 -18 -5 -1 16 2 29 8 29
5 0 10 -11 10 -24z m630 -12 c0 -21 -4 -33 -10 -29 -5 3 -10 2 -10 -3 0 -6
-14 -15 -31 -21 -39 -13 -39 -13 -39 -1 0 9 79 89 88 90 1 0 2 -16 2 -36z
m-1510 0 c0 -17 -4 -24 -12 -21 -50 18 -54 18 -56 -11 -2 -26 0 -28 28 -24 16
2 28 7 26 11 -2 3 44 5 102 5 107 -2 214 -24 228 -46 5 -8 1 -9 -12 -3 -86 36
-177 42 -306 21 l-78 -12 0 43 c0 39 2 43 24 43 14 0 28 5 31 10 12 19 25 10
25 -16z m210 -2 c0 -8 -1 -13 -3 -11 -1 2 -9 12 -16 22 -12 15 -12 17 3 11 9
-3 16 -13 16 -22z m-80 -8 c0 -8 -7 -14 -15 -14 -8 0 -15 9 -15 20 0 13 5 18
15 14 8 -4 15 -12 15 -20z m-420 -24 c0 -22 0 -43 1 -47 0 -4 -4 -9 -10 -11
-7 -2 -11 15 -11 47 0 28 5 51 10 51 6 0 10 -18 10 -40z m450 20 c0 -11 -4
-20 -10 -20 -5 0 -10 9 -10 20 0 11 5 20 10 20 6 0 10 -9 10 -20z m107 -2 c-3
-8 -6 -5 -6 6 -1 11 2 17 5 13 3 -3 4 -12 1 -19z m41 -19 c-1 -39 -22 -32 -26
9 -3 25 0 31 12 26 9 -3 14 -18 14 -35z m19 -26 c-3 -10 -5 -2 -5 17 0 19 2
27 5 18 2 -10 2 -26 0 -35z m-357 27 c0 -5 -2 -10 -4 -10 -3 0 -8 5 -11 10 -3
6 -1 10 4 10 6 0 11 -4 11 -10z m1040 -5 c0 -10 -11 -15 -35 -15 -33 0 -43 8
-28 23 13 14 63 7 63 -8z m477 -50 c-60 -63 -84 -75 -68 -32 5 12 8 26 7 31 0
4 17 15 39 24 22 8 49 21 60 29 11 7 20 13 21 13 1 0 -25 -29 -59 -65z m-1942
18 c0 -22 -6 -38 -14 -41 -17 -6 -31 16 -31 51 0 21 5 27 23 27 19 0 22 -5 22
-37z m1365 -43 l-8 -65 1 56 c0 30 -2 60 -6 66 -8 13 4 26 14 16 4 -5 3 -37
-1 -73z m168 73 c-10 -2 -26 -2 -35 0 -10 3 -2 5 17 5 19 0 27 -2 18 -5z
m-1603 -13 c-3 -5 -1 -10 4 -10 6 0 11 -12 11 -26 0 -20 -4 -25 -16 -20 -8 3
-12 2 -9 -4 3 -6 2 -10 -3 -10 -6 0 -12 18 -14 40 -3 34 -1 40 15 40 10 0 15
-4 12 -10z m1405 -78 c0 -101 -16 -107 -18 -7 -1 55 2 84 8 80 6 -3 10 -36 10
-73z m130 50 c0 -15 -6 -18 -30 -14 -16 2 -35 10 -41 18 -9 12 -4 14 30 14 33
0 41 -4 41 -18z m80 9 c0 -5 -13 -19 -30 -31 l-30 -21 0 30 c0 28 3 31 30 31
17 0 30 -4 30 -9z m320 -18 c0 -34 -14 -45 -36 -27 -18 15 -18 15 4 11 18 -4
21 -3 13 7 -6 7 -8 16 -4 19 12 12 23 7 23 -10z m-1973 -25 c-3 -8 -6 -5 -6 6
-1 11 2 17 5 13 3 -3 4 -12 1 -19z m1663 -43 l0 -65 -35 0 c-34 0 -35 1 -35
38 0 26 7 45 20 57 20 18 20 17 21 -11 2 -27 2 -27 6 -4 12 73 23 65 23 -15z
m-140 30 c19 -21 21 -27 10 -40 -7 -9 -22 -21 -32 -26 -16 -9 -18 -5 -18 41 0
27 4 50 8 50 5 0 19 -11 32 -25z m41 15 c5 0 9 -9 9 -20 0 -20 -1 -20 -25 -3
-27 20 -33 38 -9 29 9 -3 20 -6 25 -6z m-831 -74 l0 -73 -46 -7 c-98 -13 -94
-16 -94 68 0 50 4 76 13 79 6 3 38 6 70 6 l57 1 0 -74z m953 -11 c3 -48 2 -70
-3 -55 -8 24 -14 148 -6 139 2 -2 6 -40 9 -84z m266 58 c21 -18 20 -18 -29
-40 l-50 -22 0 28 c0 50 39 66 79 34z m-1409 -76 c0 -51 -9 -57 -58 -36 l-43
19 22 39 c22 39 22 40 51 25 22 -11 28 -21 28 -47z m1320 29 c0 -30 -4 -35
-31 -41 -17 -4 -33 -4 -36 -1 -10 10 29 46 41 39 6 -3 8 -3 4 2 -7 7 8 35 18
35 2 0 4 -15 4 -34z m-1543 8 c-3 -3 -12 -4 -19 -1 -8 3 -5 6 6 6 11 1 17 -2
13 -5z m1253 -23 c0 -22 -41 -36 -52 -18 -5 8 -8 6 -8 -6 0 -15 5 -17 29 -12
23 5 29 2 34 -14 4 -17 0 -21 -21 -22 l-27 -1 25 -7 c26 -7 36 -31 26 -58 -6
-14 -11 -12 -36 12 -16 15 -26 33 -23 39 3 6 3 8 -2 4 -12 -12 -35 12 -35 36
1 13 15 31 38 47 40 28 52 28 52 0z m378 -1 c-22 -31 -42 -37 -68 -20 -11 7
-5 13 30 29 60 27 64 26 38 -9z m-1604 -6 c8 -21 9 -20 -36 -27 -29 -4 -38 -2
-38 9 0 14 31 32 56 33 7 1 15 -6 18 -15z m-264 -45 c0 -33 -14 -32 145 -8 92
14 138 11 199 -12 31 -12 55 -24 52 -26 -2 -2 -27 5 -56 16 -49 19 -57 19
-173 6 -67 -8 -137 -17 -154 -19 l-33 -5 0 45 c0 28 4 43 10 39 6 -3 10 -19
10 -36z m1020 31 c0 -6 -27 -10 -62 -9 -47 1 -57 3 -38 9 36 12 100 12 100 0z
m139 -6 c2 -2 -23 -4 -57 -4 -35 0 -62 4 -62 10 0 9 108 3 119 -6z m-1135 -19
c3 -8 1 -15 -4 -15 -6 0 -10 7 -10 15 0 8 2 15 4 15 2 0 6 -7 10 -15z m1526
-22 c0 -20 -7 -45 -17 -55 -15 -17 -15 -18 -1 -13 11 4 20 -1 27 -14 16 -30
13 -41 -11 -42 l-23 -2 23 -4 c21 -4 52 -56 52 -89 0 -27 -38 -14 -60 21 -18
28 -22 52 -23 135 -2 89 0 100 16 100 13 0 17 -8 17 -37z m30 2 c0 -13 -4 -27
-10 -30 -6 -4 -10 8 -10 30 0 22 4 34 10 30 6 -3 10 -17 10 -30z m130 20 c0
-2 -10 -10 -22 -16 -21 -11 -22 -11 -9 4 13 16 31 23 31 12z m108 -25 c-26
-36 -38 -38 -38 -6 0 23 12 32 48 35 8 1 4 -10 -10 -29z m-50 -8 c1 -19 -6
-35 -22 -49 l-24 -21 -37 26 -37 27 28 11 c22 9 31 9 36 1 6 -9 8 -8 8 1 0 7
10 17 23 22 12 5 22 9 22 9 1 1 2 -12 3 -27z m-408 -48 c0 -53 -11 -71 -24
-37 -9 22 4 104 15 97 5 -3 9 -30 9 -60z m-342 39 c2 -9 -9 -13 -35 -13 -21 0
-49 -3 -62 -7 -18 -4 -22 -2 -19 8 8 25 108 35 116 12z m-366 -68 l-4 -75 -31
0 c-18 0 -49 -3 -69 -6 l-38 -7 0 76 c0 51 4 77 13 80 6 3 39 6 72 6 l60 1 -3
-75z m734 -23 c-13 -13 -17 9 -9 55 l8 48 3 -49 c2 -26 1 -51 -2 -54z m-709
66 c-3 -8 -6 -5 -6 6 -1 11 2 17 5 13 3 -3 4 -12 1 -19z m30 -10 c-3 -7 -5 -2
-5 12 0 14 2 19 5 13 2 -7 2 -19 0 -25z m441 -60 c2 -77 1 -88 -14 -88 -13 0
-14 -3 -4 -15 10 -12 9 -15 -6 -15 -51 1 -64 11 -64 53 0 32 3 38 12 29 22
-22 38 -13 38 19 0 28 -3 31 -25 27 -24 -5 -25 -3 -25 39 l0 44 43 -3 42 -3 3
-87z m309 28 c-2 -5 -15 -13 -30 -17 -26 -7 -27 -6 -27 39 l0 46 30 -29 c17
-16 29 -34 27 -39z m131 2 l-3 -23 -13 23 c-11 19 -11 26 0 39 12 15 13 15 16
0 2 -9 2 -27 0 -39z m53 -53 c4 -3 3 14 -2 37 -15 77 -12 79 51 28 l25 -20
-42 -41 c-24 -22 -43 -45 -43 -50 0 -5 30 22 66 61 37 38 71 70 77 70 6 0 -11
-24 -39 -52 -94 -100 -108 -123 -30 -48 l79 75 -47 -61 c-65 -85 -92 -109
-102 -92 -9 14 -9 12 -17 123 -6 79 -6 79 6 28 7 -28 15 -54 18 -58z m-1401
75 c0 -11 -7 -23 -15 -26 -8 -4 -15 -10 -15 -15 0 -4 7 -6 17 -2 14 6 15 0 10
-48 -4 -30 -8 -169 -8 -309 -2 -286 -6 -292 -14 -20 -3 102 -8 242 -11 313 -5
123 -5 127 15 127 14 0 21 -6 21 -20z m21 -430 c-13 -294 -13 -302 -30 -308
-11 -4 -12 2 -7 24 4 16 12 177 16 358 5 181 12 341 17 355 13 41 15 -173 4
-429z m759 366 c0 -94 -1 -96 -76 -96 l-45 0 3 82 3 83 30 6 c17 4 42 7 58 8
l27 1 0 -84z m-661 -334 c2 -229 7 -372 13 -379 11 -14 0 -17 -18 -5 -9 5 -12
116 -11 402 0 217 3 385 6 372 3 -13 8 -188 10 -390z m-199 331 l0 -68 -25 53
c-32 68 -32 82 0 82 24 0 25 -2 25 -67z m-80 7 c0 -52 -28 -327 -35 -345 -2
-5 -4 81 -4 193 -1 196 0 202 19 202 17 0 20 -7 20 -50z m368 -109 c1 -68 -1
-121 -6 -121 -5 0 -24 3 -41 6 l-31 7 0 96 c1 90 2 95 16 71 l15 -25 -6 25
c-4 14 -9 40 -12 57 l-5 33 33 -14 34 -14 3 -121z m1021 105 c-13 -6 -28 -16
-32 -23 -12 -19 -37 -16 -37 5 0 13 11 21 38 28 44 12 66 5 31 -10z m-1319
-105 c0 -4 -13 -17 -30 -29 -16 -13 -30 -28 -30 -34 0 -7 13 0 28 15 15 15 33
27 39 27 12 0 30 -127 19 -137 -3 -3 -29 -8 -57 -11 l-52 -5 6 39 c4 21 9 73
12 114 3 41 8 88 11 105 7 29 7 29 30 -24 13 -29 24 -57 24 -60z m1209 21 c1
-51 -2 -83 -9 -87 -8 -5 -11 19 -9 84 1 50 5 89 8 86 4 -2 8 -39 10 -83z m18
66 c-3 -8 -6 -5 -6 6 -1 11 2 17 5 13 3 -3 4 -12 1 -19z m-590 -8 c-3 -11 -1
-20 4 -20 5 0 9 9 9 20 0 11 5 20 10 20 6 0 10 -14 10 -30 0 -34 -26 -52 -41
-29 -12 20 -11 59 2 59 6 0 9 -9 6 -20z m77 14 c25 -10 19 -34 -9 -34 -18 0
-25 5 -25 20 0 21 8 24 34 14z m733 -16 c-3 -8 -6 -5 -6 6 -1 11 2 17 5 13 3
-3 4 -12 1 -19z m-1274 5 c-7 -2 -19 -2 -25 0 -7 3 -2 5 12 5 14 0 19 -2 13
-5z m2236 -17 c-12 -11 -137 -69 -195 -91 -52 -20 -83 -41 -143 -97 l-76 -73
-6 42 c-11 82 -22 57 -15 -34 l7 -93 -216 0 c-124 0 -215 4 -215 9 0 5 -2 16
-5 24 -5 10 1 13 26 9 32 -5 32 -4 26 30 -5 33 -3 37 35 58 21 12 37 24 35 27
-3 2 -30 -10 -61 -27 -50 -28 -56 -30 -56 -13 0 10 16 34 34 54 l33 36 146 7
c113 5 156 11 189 26 49 23 98 26 118 8 12 -11 12 -10 2 3 -11 14 4 20 126 49
75 18 153 38 172 45 31 11 51 12 39 1z m-2229 -21 c0 -20 -5 -25 -22 -24 -17
1 -19 2 -5 6 9 2 17 13 17 24 0 10 2 19 5 19 3 0 5 -11 5 -25z m860 -11 c0
-21 -4 -33 -10 -29 -17 10 -11 65 7 65 2 0 3 -16 3 -36z m308 19 c2 -8 -7 -14
-25 -14 l-28 -2 28 -4 c23 -4 27 -9 27 -39 0 -34 0 -34 -24 -18 -23 14 -91 94
-70 82 5 -3 18 -2 29 3 27 11 58 7 63 -8z m-121 -85 c-2 -18 -4 -4 -4 32 0 36
2 50 4 33 2 -18 2 -48 0 -65z m-723 -5 c-4 -49 -7 -89 -8 -89 0 -1 -31 -4 -68
-6 l-68 -4 0 93 0 93 76 0 75 0 -7 -87z m45 8 c-1 -36 -4 -55 -6 -41 -3 14 -9
29 -14 35 -5 5 -9 26 -9 47 0 29 3 36 15 32 11 -5 15 -22 14 -73z m181 53 c0
-9 -7 -14 -17 -12 -25 5 -28 28 -4 28 12 0 21 -6 21 -16z m666 -39 c19 -51 15
-62 -15 -45 -16 8 -21 20 -21 50 0 53 14 51 36 -5z m976 25 c-12 -11 -26 -20
-32 -20 -6 0 -8 -5 -4 -12 4 -7 3 -8 -4 -4 -19 12 -14 24 16 40 38 21 49 19
24 -4z m-1077 -30 l39 -40 -47 0 c-43 0 -47 2 -47 24 0 21 9 56 14 56 1 0 20
-18 41 -40z m-1116 -12 c-1 -24 -3 -27 -6 -10 -2 12 -12 22 -21 23 -14 0 -13
2 3 9 11 5 21 9 23 9 1 1 1 -14 1 -31z m691 -98 l0 -130 -60 0 -60 0 0 124 c0
140 -5 131 83 135 l37 1 0 -130z m1080 120 c0 -5 -2 -10 -4 -10 -3 0 -8 5 -11
10 -3 6 -1 10 4 10 6 0 11 -4 11 -10z m-1231 -121 c0 -118 0 -120 -22 -117
-20 3 -22 9 -23 68 l-1 65 6 -65 6 -65 8 64 c4 35 7 88 7 117 0 30 4 54 10 54
5 0 9 -50 9 -121z m271 -7 c0 -71 3 -184 7 -250 6 -118 5 -122 -14 -122 -12 0
-23 -7 -27 -15 -3 -8 -12 -12 -20 -9 -12 4 -14 0 -10 -20 2 -14 0 -26 -6 -26
-5 0 -10 14 -10 31 0 26 3 31 20 26 11 -3 20 -1 20 4 0 5 -9 9 -20 9 -19 0
-20 7 -20 250 l0 250 40 0 40 0 0 -128z m1317 112 c3 -9 -3 -25 -16 -37 l-21
-21 0 30 c0 44 24 62 37 28z m-47 -33 c0 -16 -7 -34 -15 -41 -13 -11 -15 -7
-15 29 0 30 4 41 15 41 10 0 15 -10 15 -29z m-50 -5 c0 -8 3 -22 7 -32 5 -13
2 -16 -8 -12 -8 3 -25 8 -39 12 -20 5 -18 3 8 -12 l33 -18 -23 -21 c-30 -27
-48 -19 -48 20 0 37 7 49 35 65 27 15 35 15 35 -2z m-2037 -23 c-7 -2 -19 -2
-25 0 -7 3 -2 5 12 5 14 0 19 -2 13 -5z m1037 -8 c0 -8 -4 -15 -10 -15 -5 0
-10 7 -10 15 0 8 5 15 10 15 6 0 10 -7 10 -15z m138 -2 c-2 -14 -15 -19 -56
-21 -47 -3 -52 -1 -52 17 0 19 6 21 56 21 47 0 55 -3 52 -17z m50 -4 c-20 -13
-28 -11 -22 5 3 8 12 12 21 9 12 -5 12 -7 1 -14z m-171 -11 c-3 -8 -6 -5 -6 6
-1 11 2 17 5 13 3 -3 4 -12 1 -19z m-2366 -11 c-13 -13 -26 -3 -16 12 3 6 11
8 17 5 6 -4 6 -10 -1 -17z m1689 8 c0 -8 -7 -15 -15 -15 -13 0 -14 3 -3 15 16
18 18 18 18 0z m888 -53 l-4 -37 -10 45 c-11 48 -7 73 8 46 5 -9 8 -33 6 -54z
m688 20 c-4 -3 -11 -1 -18 6 -8 8 -8 15 3 28 13 16 14 16 17 -5 2 -13 1 -25
-2 -29z m-3210 3 c19 -18 24 -29 17 -36 -13 -13 -62 30 -56 49 6 16 8 16 39
-13z m2494 -11 c0 -25 -4 -33 -12 -29 -7 4 -5 0 5 -9 15 -11 17 -22 12 -47 -7
-29 -9 -31 -20 -16 -6 9 -15 14 -18 10 -4 -3 -7 3 -7 15 0 12 6 22 13 23 10 0
10 2 0 6 -16 6 -17 55 -1 71 20 20 28 14 28 -24z m-1253 20 c-3 -3 -12 -4 -19
-1 -8 3 -5 6 6 6 11 1 17 -2 13 -5z m131 -4 c9 0 12 -37 12 -150 0 -147 -1
-150 -20 -140 -37 20 -55 86 -53 195 1 55 2 102 2 104 1 2 11 1 24 -3 12 -3
28 -6 35 -6z m916 -74 c1 -42 -2 -76 -6 -76 -4 0 -8 37 -8 82 0 101 11 97 14
-6z m-697 -8 l2 -78 -59 0 c-32 0 -65 -3 -74 -6 -14 -5 -16 5 -16 74 l0 81 33
4 c17 2 50 4 72 3 l40 -1 2 -77z m720 -25 c-2 -21 -4 -4 -4 37 0 41 2 58 4 38
2 -21 2 -55 0 -75z m103 97 c0 -5 -9 -14 -19 -19 -14 -8 -22 -7 -30 3 -10 11
-8 15 6 19 31 8 43 7 43 -3z m-1450 -45 c0 -56 -24 -63 -34 -10 -8 39 -2 55
20 55 10 0 14 -12 14 -45z m669 18 c-1 -18 -3 -21 -6 -10 -2 9 -9 15 -14 12
-5 -4 -9 1 -9 9 0 9 7 16 15 16 10 0 15 -9 14 -27z m1584 -1 c9 -5 -21 -42
-35 -42 -4 0 -8 13 -8 30 0 29 9 31 43 12z m-2093 -167 l0 -175 -57 -2 -58 -1
50 -6 c36 -4 45 -8 32 -13 -33 -14 -84 -9 -91 8 -8 20 -8 302 0 331 5 18 15
23 58 26 28 2 54 4 59 5 4 1 7 -77 7 -173z m1230 144 c0 -5 -7 -9 -15 -9 -9 0
-15 9 -15 21 0 18 2 19 15 9 8 -7 15 -16 15 -21z m76 -4 c-4 -14 -11 -23 -16
-20 -6 3 -5 16 2 30 14 31 23 25 14 -10z m-2372 -15 c-14 -14 -39 14 -29 31 5
8 12 6 23 -5 11 -11 13 -19 6 -26z m2606 20 c0 -5 -7 -10 -15 -10 -8 0 -15 5
-15 10 0 6 7 10 15 10 8 0 15 -4 15 -10z m-2610 -58 c0 -12 -4 -11 -21 4 -11
10 -25 27 -31 37 -8 16 -5 15 21 -4 17 -12 31 -29 31 -37z m65 48 c3 -5 2 -10
-4 -10 -5 0 -13 5 -16 10 -3 6 -2 10 4 10 5 0 13 -4 16 -10z m166 -42 c61 -32
99 -58 99 -68 0 -9 -14 -24 -30 -33 -35 -21 -37 -20 -137 69 -49 45 -61 60
-52 71 6 7 14 13 17 13 2 0 49 -23 103 -52z m2796 -10 c-2 -13 -4 -3 -4 22 0
25 2 35 4 23 2 -13 2 -33 0 -45z m-2973 11 c-9 -15 -44 10 -37 27 5 13 8 13
24 -2 10 -9 16 -21 13 -25z m2296 5 c0 4 5 4 12 0 8 -5 2 -11 -17 -16 -39 -10
-66 12 -45 38 13 15 16 14 32 -6 10 -12 18 -19 18 -16z m116 -10 c-4 -14 -9
-24 -12 -21 -3 2 -2 17 2 31 3 15 9 25 11 22 3 -3 2 -17 -1 -32z m-2355 5 c19
-16 20 -18 4 -10 -34 17 -51 31 -39 31 7 0 22 -9 35 -21z m1099 11 c0 -5 -7
-7 -15 -4 -8 4 -15 8 -15 10 0 2 7 4 15 4 8 0 15 -4 15 -10z m370 -30 c0 -20
-5 -30 -15 -30 -29 0 -18 50 13 59 1 1 2 -12 2 -29z m68 -154 c-4 -6 -7 35 -6
90 l1 99 7 -90 c3 -49 2 -94 -2 -99z m42 88 c0 -49 -4 -84 -10 -84 -6 0 -10
37 -10 91 0 57 4 88 10 84 6 -3 10 -44 10 -91z m-1660 67 c0 -4 11 -6 25 -3
24 4 25 2 25 -44 l0 -48 -35 34 c-33 32 -47 70 -25 70 6 0 10 -4 10 -9z m2040
-36 c0 -11 -5 -27 -10 -35 -7 -11 -10 -1 -10 35 0 36 3 46 10 35 5 -8 10 -24
10 -35z m230 24 c0 -5 -7 -9 -15 -9 -15 0 -20 12 -9 23 8 8 24 -1 24 -14z
m-1430 -4 c0 -8 -4 -15 -10 -15 -5 0 -7 7 -4 15 4 8 8 15 10 15 2 0 4 -7 4
-15z m60 0 c0 -9 -9 -15 -25 -15 -16 0 -25 6 -25 15 0 9 9 15 25 15 16 0 25
-6 25 -15z m970 -87 c0 -168 -7 -199 -47 -225 -19 -13 -39 -23 -44 -23 -13 0
-11 28 2 32 6 2 2 20 -10 48 -17 37 -21 66 -21 158 l0 112 60 0 60 0 0 -102z
m548 72 c43 0 68 -10 50 -21 -17 -11 -348 -12 -348 0 0 10 199 25 223 15 13
-5 17 -1 17 17 1 22 2 23 14 7 7 -10 26 -18 44 -18z m-2297 -6 c22 -20 24 -34
6 -34 -8 0 -19 12 -26 26 -6 15 -14 24 -17 21 -3 -3 2 -16 10 -29 15 -24 15
-25 -9 -36 -25 -11 -25 -11 -25 33 0 39 2 43 21 40 12 -3 30 -12 40 -21z
m1052 9 c-7 -2 -21 -2 -30 0 -10 3 -4 5 12 5 17 0 24 -2 18 -5z m557 -43 c0
-47 -2 -50 -25 -50 -23 0 -25 3 -25 50 0 47 2 50 25 50 23 0 25 -3 25 -50z
m-1286 -58 c12 -11 28 -22 36 -26 8 -4 4 2 -10 13 -33 28 -21 26 31 -3 l42
-25 -34 -9 c-22 -6 -36 -5 -41 2 -4 6 -9 4 -14 -7 -9 -25 -24 -21 -24 8 0 14
-5 25 -11 25 -5 0 -8 4 -5 9 3 4 -1 17 -9 27 -15 18 -15 18 -8 -1 6 -18 5 -19
-13 -5 -10 9 -7 1 9 -18 15 -19 27 -38 27 -43 0 -11 -72 24 -87 43 -14 19 -23
58 -12 58 5 0 9 -4 9 -9 0 -5 8 -12 17 -16 12 -4 9 3 -10 22 -15 16 -27 32
-27 35 0 8 107 -56 134 -80z m1069 82 c22 -4 37 -12 37 -20 0 -10 -17 -14 -62
-16 -50 -1 -54 -2 -20 -5 23 -2 42 -7 42 -10 0 -4 -9 -17 -21 -29 -16 -17 -17
-22 -6 -20 9 1 25 13 36 26 l20 25 1 -30 c0 -23 3 -27 10 -15 8 13 10 12 10
-2 0 -14 -9 -18 -43 -18 -24 0 -50 6 -59 13 -23 18 -68 89 -62 99 6 9 63 10
117 2z m-623 -18 c0 -16 -21 -26 -56 -26 -17 0 -24 6 -24 20 0 17 7 20 40 20
28 0 40 -4 40 -14z m522 -46 c34 -55 35 -59 19 -74 -10 -9 -30 -16 -44 -16
-27 0 -27 0 -27 75 0 41 3 75 8 75 4 -1 24 -27 44 -60z m-239 43 c-7 -2 -21
-2 -30 0 -10 3 -4 5 12 5 17 0 24 -2 18 -5z m1409 -28 c-3 -21 0 -35 7 -35 6
0 11 14 11 30 0 36 25 41 34 8 10 -38 7 -48 -14 -48 -15 0 -20 -7 -20 -25 0
-21 5 -25 28 -25 l28 0 -4 60 c-4 59 -4 60 22 60 25 0 26 -2 26 -60 l0 -60 31
0 32 0 -6 60 c-6 49 -4 60 8 60 9 0 15 -9 15 -24 0 -14 5 -28 10 -31 6 -4 10
7 10 24 0 43 35 44 44 1 3 -18 12 -30 21 -30 10 0 15 10 15 30 0 20 5 30 15
30 10 0 15 -10 15 -29 0 -16 7 -34 15 -41 13 -11 15 -7 15 29 0 22 5 41 10 41
6 0 10 -21 10 -47 0 -27 3 -58 6 -71 l7 -23 -212 2 -211 1 0 74 c0 65 2 74 18
74 15 0 17 -6 14 -35z m-2406 14 c10 -16 -18 -30 -34 -17 -11 9 -11 13 0 19
18 12 26 11 34 -2z m612 -14 c0 -14 -4 -25 -9 -25 -5 0 -9 11 -9 25 0 14 4 25
9 25 5 0 9 -11 9 -25z m1477 -79 c11 -4 12 0 5 19 -9 24 -8 25 30 25 33 0 40
-3 40 -20 0 -15 -7 -20 -25 -20 -22 0 -25 -4 -25 -37 0 -51 -10 -83 -24 -83
-7 0 -13 6 -13 13 0 6 -2 55 -5 107 -3 52 -3 74 -1 48 2 -27 10 -48 18 -52z
m-1955 63 c0 -22 -4 -23 -32 -8 -21 11 -21 12 -3 25 22 16 35 10 35 -17z m870
-90 c0 -74 -4 -118 -10 -114 -5 3 -6 13 -3 22 4 9 -1 21 -12 29 -17 13 -17 14
-2 14 27 0 22 40 -5 41 l-23 2 23 4 c16 3 22 11 22 32 0 19 -7 32 -22 40 l-23
11 23 -6 c18 -4 22 -1 22 20 0 14 2 26 5 26 3 0 5 -54 5 -121z m1160 106 c0
-10 -11 -15 -35 -15 -24 0 -35 5 -35 15 0 10 11 15 35 15 24 0 35 -5 35 -15z
m48 3 c-6 -18 -28 -21 -28 -4 0 9 7 16 16 16 9 0 14 -5 12 -12z m-2263 -46
c-21 -10 -30 -11 -41 -1 -20 16 -18 24 9 36 17 8 26 7 40 -5 17 -15 17 -17 -8
-30z m2396 -85 c-16 -16 -21 -5 -28 53 -5 45 -3 55 13 67 18 13 19 11 22 -48
2 -34 -2 -67 -7 -72z m466 51 c-2 -18 -4 -6 -4 27 0 33 2 48 4 33 2 -15 2 -42
0 -60z m-2787 63 c0 -14 -18 -23 -31 -15 -8 4 -7 9 2 15 18 11 29 11 29 0z
m640 -21 c-12 -16 -25 -30 -29 -30 -4 0 -6 14 -3 30 3 24 9 30 29 30 l24 0
-21 -30z m47 -27 c-3 -2 -15 -3 -27 -1 l-22 3 24 30 23 30 3 -29 c2 -15 1 -30
-1 -33z m353 36 c0 -6 -4 -7 -10 -4 -5 3 -10 11 -10 16 0 6 5 7 10 4 6 -3 10
-11 10 -16z m1800 1 c0 -5 -4 -10 -10 -10 -5 0 -10 5 -10 10 0 6 5 10 10 10 6
0 10 -4 10 -10z m-2875 -31 c-10 -15 7 -10 26 7 12 11 23 13 34 6 14 -7 12
-11 -14 -22 -17 -7 -37 -10 -45 -7 -7 3 -18 1 -24 -5 -6 -6 -16 -7 -22 -3 -9
6 -6 13 11 26 23 17 45 16 34 -2z m184 -16 c65 -36 65 -37 37 -46 -26 -9 -33
-5 -75 37 -25 25 -42 46 -37 46 5 0 39 -17 75 -37z m438 -20 c1 -32 -2 -52 -6
-45 -10 17 -13 102 -4 102 5 0 9 -26 10 -57z m1298 47 c3 -6 -1 -7 -9 -4 -18
7 -21 14 -7 14 6 0 13 -4 16 -10z m378 -4 c4 -10 0 -12 -14 -9 -22 6 -26 23
-5 23 8 0 16 -6 19 -14z m-737 -12 c-3 -9 -6 -18 -6 -21 0 -3 -7 0 -15 7 -13
11 -13 15 -3 21 21 13 31 10 24 -7z m447 -4 c5 -19 0 -20 -65 -20 -43 0 -67 4
-63 10 3 6 28 10 56 10 27 0 49 5 49 10 0 18 18 10 23 -10z m867 5 c0 -8 -4
-15 -10 -15 -5 0 -10 7 -10 15 0 8 5 15 10 15 6 0 10 -7 10 -15z m-2435 -5 c3
-5 -1 -10 -9 -10 -9 0 -16 5 -16 10 0 6 4 10 9 10 6 0 13 -4 16 -10z m676 -33
c-15 -15 -43 -4 -52 20 -8 22 -8 22 27 6 20 -10 31 -20 25 -26z m1139 37 c0
-13 -21 -44 -30 -44 -14 0 -12 24 2 38 13 13 28 16 28 6z m-2131 -30 c17 -14
31 -29 31 -33 0 -8 -86 -30 -112 -29 -10 1 -29 14 -44 29 l-27 28 29 6 c16 4
37 9 47 12 12 3 17 -1 17 -14 0 -13 -3 -15 -8 -5 -6 8 -9 2 -9 -19 0 -31 0
-31 13 -7 7 12 13 31 14 41 0 24 13 21 49 -9z m2179 4 c-5 -15 -48 -24 -48
-10 0 14 12 22 33 22 10 0 17 -5 15 -12z m-1918 -11 c0 -7 -6 -22 -14 -32 -8
-11 -12 -25 -9 -31 2 -7 -1 -15 -8 -20 -7 -4 -10 -3 -6 3 4 6 0 16 -7 22 -12
10 -13 8 -9 -8 3 -11 -1 -21 -9 -24 -7 -2 -5 -3 5 -2 20 4 22 -8 4 -24 -11 -8
-27 -1 -71 33 -31 25 -53 47 -49 49 24 15 85 18 101 6 15 -11 15 -11 4 1 -11
12 -7 17 20 27 44 15 48 15 48 0z m340 3 c0 -5 -16 -10 -35 -10 -19 0 -35 5
-35 10 0 6 16 10 35 10 19 0 35 -4 35 -10z m651 0 c23 -13 25 -53 3 -74 -9 -9
-32 -16 -55 -16 -42 0 -44 -4 -29 -44 9 -25 12 -26 102 -27 100 -1 82 -16 -23
-18 -69 -1 -90 17 -97 88 -4 43 -1 53 21 75 28 28 47 32 78 16z m141 -16 c16
-34 0 -58 -39 -62 -42 -4 -70 29 -55 63 9 20 19 25 47 25 28 0 38 -5 47 -26z
m1358 10 c0 -17 -22 -14 -28 4 -2 7 3 12 12 12 9 0 16 -7 16 -16z m-2474 -42
c-11 -10 -15 4 -8 28 l7 25 3 -23 c2 -13 1 -26 -2 -30z m21 16 c-3 -7 -5 -2
-5 12 0 14 2 19 5 13 2 -7 2 -19 0 -25z m84 5 c7 -21 5 -23 -21 -23 -26 0 -30
4 -30 26 0 20 4 25 21 22 12 -2 26 -13 30 -25z m1569 14 c0 -6 -26 -8 -69 -4
-38 3 -80 3 -92 -1 -17 -5 -2 -9 46 -13 l70 -5 -77 -2 c-72 -2 -78 0 -78 18 0
19 6 20 100 19 59 -1 100 -6 100 -12z m93 6 c-7 -2 -19 -2 -25 0 -7 3 -2 5 12
5 14 0 19 -2 13 -5z m-1443 -27 c0 -17 -22 -26 -61 -26 -22 0 -29 5 -29 20 0
17 7 20 45 20 32 0 45 -4 45 -14z m1501 -3 c1 -17 2 -17 6 0 3 13 15 17 49 17
l44 0 0 -49 c0 -42 3 -50 23 -56 16 -6 1 -10 -53 -15 -55 -5 -81 -3 -98 7 -18
11 -20 16 -10 27 11 12 13 12 16 0 3 -10 19 -14 58 -14 l55 0 -3 43 c-2 34 -7
42 -23 43 -15 1 -16 0 -2 -3 35 -9 15 -23 -33 -23 -43 0 -50 3 -50 20 0 25 20
27 21 3z m-1137 -5 c-4 -7 -11 -28 -15 -48 l-7 -35 -1 42 c-1 36 5 46 27 52 2
1 0 -4 -4 -11z m146 2 c0 -5 -9 -10 -20 -10 -11 0 -20 5 -20 10 0 6 9 10 20
10 11 0 20 -4 20 -10z m-1052 -18 c2 -8 -12 -12 -45 -11 l-48 1 35 13 c39 15
52 14 58 -3z m1890 -11 c2 -13 -1 -28 -6 -33 -6 -6 -11 3 -14 26 -4 40 15 46
20 7z m89 15 c-3 -8 -1 -16 5 -18 15 -5 1 -28 -17 -28 -10 0 -13 10 -12 30 1
18 8 30 16 30 7 0 11 -6 8 -14z m-245 -26 c-5 -38 -21 -39 -23 -2 l-2 27 -4
-27 c-3 -22 -10 -28 -29 -28 -20 0 -24 5 -24 30 0 29 2 30 43 30 43 0 43 -1
39 -30z m48 0 c0 -22 -5 -30 -17 -30 -12 0 -14 3 -6 8 8 5 9 13 3 22 -14 21
-12 30 5 30 10 0 15 -10 15 -30z m70 19 c0 -6 -9 -8 -20 -4 -16 5 -20 2 -20
-19 0 -14 -4 -26 -8 -26 -6 0 -9 47 -3 58 4 8 51 0 51 -9z m-1622 -28 c11 -32
7 -42 -13 -35 -8 3 -17 -6 -22 -21 -8 -26 -9 -26 -25 -8 -17 18 -16 21 9 56
14 20 30 37 34 37 4 0 12 -13 17 -29z m1320 -1 c-1 -16 -5 -30 -10 -30 -4 0
-8 14 -8 30 0 17 4 30 9 30 5 0 9 -13 9 -30z m92 20 c0 -5 -4 -10 -10 -10 -5
0 -10 5 -10 10 0 6 5 10 10 10 6 0 10 -4 10 -10z m-1640 -35 c0 -26 -15 -34
-23 -12 -3 7 -6 5 -6 -5 -1 -26 -19 -22 -58 12 l-34 30 61 0 c57 0 60 -1 60
-25z m70 -5 c29 -25 33 -31 20 -40 -25 -17 -37 -11 -48 23 l-12 32 5 -32 c3
-25 1 -33 -10 -33 -16 0 -20 35 -9 64 8 22 15 20 54 -14z m298 12 c2 -8 -11
-12 -42 -12 -27 0 -46 5 -46 11 0 7 12 10 30 7 17 -3 30 0 30 5 0 12 23 3 28
-11z m48 -9 c-10 -10 -19 5 -10 18 6 11 8 11 12 0 2 -7 1 -15 -2 -18z m1434
12 c0 -8 -4 -15 -10 -15 -5 0 -10 7 -10 15 0 8 5 15 10 15 6 0 10 -7 10 -15z
m614 -16 c3 -17 6 -46 6 -63 l-1 -31 -13 24 c-13 23 -14 23 -19 5 -3 -12 -5
-7 -6 14 -1 30 -3 32 -36 32 -32 0 -35 -2 -35 -31 0 -38 -24 -35 -28 4 -5 38
-32 35 -32 -3 0 -20 -5 -30 -15 -30 -10 0 -15 10 -15 30 0 17 -4 30 -10 30 -5
0 -10 -13 -10 -30 0 -20 -5 -30 -15 -30 -11 0 -15 11 -15 39 0 22 -3 46 -6 55
-5 14 9 16 119 16 l125 0 6 -31z m-1934 -39 c0 -53 -2 -60 -20 -60 -11 0 -20
-4 -20 -10 0 -5 9 -10 20 -10 27 0 25 -18 -2 -30 l-23 -9 23 0 c30 -1 24 -23
-9 -32 -24 -7 -24 -7 4 -8 15 -1 27 -5 27 -11 0 -5 -4 -10 -9 -10 -5 0 -23 -3
-40 -6 l-31 -6 0 120 c0 128 1 130 53 131 27 1 27 0 27 -59z m538 23 c1 -33
-10 -52 -30 -53 -3 0 -5 16 -4 35 3 32 1 35 -23 34 -15 -1 -19 -3 -9 -6 21 -5
32 -33 18 -47 -7 -7 -17 -7 -32 3 -18 11 -20 11 -15 -3 4 -9 4 -16 1 -16 -2 0
-9 10 -14 23 -8 20 -9 20 -10 2 0 -17 -2 -17 -10 -5 -8 12 -10 11 -10 -7 0
-12 6 -24 13 -26 6 -3 2 -6 -10 -6 -20 -1 -23 4 -23 34 0 32 2 35 33 37 l32 1
-32 4 c-33 4 -43 17 -20 26 6 3 42 6 78 6 l66 1 1 -37z m572 27 c0 -4 -11 -10
-25 -12 -16 -3 -25 -1 -25 7 0 7 11 13 25 13 14 0 25 -4 25 -8z m-960 -129 l0
-129 -41 -4 c-22 -2 -42 -2 -45 1 -2 2 -4 62 -4 133 l0 128 45 0 45 0 0 -129z
m1197 85 c4 -3 4 -8 2 -10 -2 -2 -98 -6 -214 -9 l-210 -6 25 21 c24 19 34 20
208 15 100 -2 186 -7 189 -11z m-1877 -5 c0 -5 -6 -11 -12 -14 -7 -2 2 -7 20
-11 25 -6 32 -13 32 -32 0 -17 6 -24 19 -24 23 0 44 -24 39 -45 -2 -11 -22 3
-67 49 -35 36 -60 69 -57 75 9 13 26 15 26 2z m755 -11 c7 -21 0 -40 -16 -40
-5 0 -9 5 -9 11 0 5 6 7 13 3 10 -6 10 -4 0 7 -15 15 -17 39 -4 39 5 0 12 -9
16 -20z m1162 14 c-3 -3 -12 -4 -19 -1 -8 3 -5 6 6 6 11 1 17 -2 13 -5z
m-1811 -81 c-3 -8 -11 -11 -17 -8 -5 4 -8 9 -5 12 3 3 -1 15 -9 26 -14 19 -13
22 8 33 20 12 22 10 25 -18 2 -16 1 -37 -2 -45z m49 30 c32 -48 32 -53 -5 -53
-29 0 -30 2 -30 45 0 25 2 45 5 45 2 0 16 -17 30 -37z m412 -96 c-2 -23 -3 -1
-3 48 0 50 1 68 3 42 2 -26 2 -67 0 -90z m-497 82 c0 -5 -4 -9 -10 -9 -5 0
-10 7 -10 16 0 8 5 12 10 9 6 -3 10 -10 10 -16z m345 2 c-6 -5 -52 -12 -102
-16 -82 -6 -93 -5 -93 9 0 14 15 16 102 16 61 0 98 -4 93 -9z m1293 -41 l-3
-50 85 2 c47 0 69 3 50 5 -38 5 -50 16 -50 51 0 21 4 22 80 22 l80 0 0 -35 c0
-19 5 -35 10 -35 6 0 10 16 10 35 0 24 5 35 15 35 10 0 15 -11 15 -35 0 -19 5
-35 10 -35 6 0 10 16 10 35 0 34 1 35 40 35 39 0 40 -1 40 -35 0 -19 5 -35 10
-35 6 0 10 16 10 35 0 24 5 35 15 35 10 0 15 -11 15 -35 0 -19 5 -35 10 -35 6
0 10 16 10 35 0 24 5 35 15 35 10 0 15 -11 15 -35 0 -19 5 -35 10 -35 6 0 10
18 10 40 l0 40 40 0 40 0 0 -40 c0 -22 4 -40 8 -40 4 0 6 16 4 35 -4 30 -1 35
16 35 17 0 22 -8 25 -37 l4 -38 1 43 2 42 44 0 c25 0 48 -5 52 -11 5 -8 -6
-10 -35 -7 -41 3 -41 3 -41 -29 0 -18 5 -33 10 -33 6 0 10 11 10 25 0 21 5 25
30 25 25 0 30 -4 30 -25 0 -16 6 -25 15 -25 10 0 15 11 15 35 0 32 2 35 31 35
30 0 31 -2 27 -35 -4 -33 -2 -35 24 -35 15 0 28 -4 28 -10 0 -6 -101 -10 -282
-11 -374 -1 -1389 -18 -1504 -25 -89 -6 -91 -5 -97 18 -13 47 -8 68 19 78 46
18 54 13 54 -30 0 -22 -4 -40 -10 -40 -5 0 -10 7 -10 15 0 21 -13 19 -29 -7
l-13 -21 83 7 c46 3 134 9 194 12 164 8 175 10 175 39 0 22 -4 25 -40 25 -36
0 -40 -2 -40 -25 0 -14 -5 -25 -11 -25 -6 0 -9 16 -7 38 l3 37 58 3 57 3 0
-41 c0 -38 19 -59 21 -22 1 16 2 16 6 0 3 -11 14 -18 29 -18 21 0 24 5 24 35
0 19 5 35 11 35 5 0 9 -8 8 -17 -3 -34 1 -53 11 -53 6 0 10 16 10 35 0 24 5
35 15 35 10 0 15 -11 15 -35 0 -19 5 -35 10 -35 6 0 10 16 10 35 0 24 5 35 15
35 10 0 15 -11 15 -35 0 -19 5 -35 10 -35 6 0 10 16 10 35 0 24 5 35 15 35 10
0 15 -11 15 -35 0 -24 5 -35 15 -35 10 0 15 11 15 35 0 27 4 35 18 35 15 0 17
-6 14 -35 -3 -21 0 -35 7 -35 6 0 11 16 11 35 0 28 4 35 20 35 16 0 20 -7 20
-35 0 -28 4 -36 24 -41 13 -3 37 -4 52 -1 22 3 19 4 -13 6 l-43 1 0 45 0 45
61 0 61 0 -4 -50z m-705 13 c3 -15 3 -33 0 -40 -9 -24 -23 -14 -23 17 0 20 -5
30 -15 30 -10 0 -15 -10 -15 -30 0 -16 -4 -30 -10 -30 -15 0 -12 67 3 73 33
14 55 7 60 -20z m-111 -23 c-2 -22 -8 -40 -13 -40 -5 0 -9 18 -9 40 0 26 5 40
13 40 9 0 11 -12 9 -40z m166 8 c-2 -18 -7 -33 -13 -33 -5 0 -11 15 -13 33 -3
24 1 32 13 32 12 0 16 -8 13 -32z m1532 2 c0 -20 -5 -30 -15 -30 -10 0 -15 10
-15 30 0 20 5 30 15 30 10 0 15 -10 15 -30z m-1750 -15 c0 -19 -4 -35 -10 -35
-5 0 -10 16 -10 35 0 19 5 35 10 35 6 0 10 -16 10 -35z m330 0 c0 -9 -9 -15
-25 -15 -16 0 -25 6 -25 15 0 9 9 15 25 15 16 0 25 -6 25 -15z m-990 -10 c0
-10 -10 -15 -30 -15 -29 0 -38 9 -23 23 13 13 53 7 53 -8z m238 -34 c-4 -50
-22 -45 -26 6 -3 36 -1 42 13 37 12 -5 15 -17 13 -43z m1362 28 c0 -5 -7 -9
-15 -9 -8 0 -15 7 -15 15 0 9 6 12 15 9 8 -4 15 -10 15 -15z m-1563 -56 c-2
-16 -4 -5 -4 22 0 28 2 40 4 28 2 -13 2 -35 0 -50z m53 22 c0 -25 -4 -45 -10
-45 -11 0 -14 73 -3 83 11 12 13 8 13 -38z m87 -17 c-2 -13 -4 -3 -4 22 0 25
2 35 4 23 2 -13 2 -33 0 -45z m-181 6 c-3 -9 -6 -22 -6 -30 0 -8 -10 -14 -25
-14 -21 0 -25 5 -25 30 0 27 3 30 31 30 24 0 30 -3 25 -16z m21 -21 c-3 -10
-5 -4 -5 12 0 17 2 24 5 18 2 -7 2 -21 0 -30z m2752 -88 c1 -78 -2 -95 -14
-95 -9 0 -15 10 -15 26 0 26 21 164 25 164 1 0 3 -43 4 -95z m-1719 -90 l0
-136 -152 3 -153 3 0 120 0 120 55 -1 c30 0 75 -5 100 -10 l45 -9 6 -75 5 -75
2 92 c2 100 1 97 70 102 22 1 22 0 22 -134z m430 -10 l0 -125 -134 0 -134 0
-4 93 c-2 50 -2 107 1 125 l3 32 134 0 134 0 0 -125z m-810 -22 c0 -7 -5 -13
-11 -13 -5 0 -8 4 -5 8 3 5 -22 35 -54 67 -33 33 -60 64 -60 69 0 6 29 -19 65
-54 36 -35 65 -70 65 -77z m466 51 c3 -12 1 -40 -5 -63 -6 -22 -16 -59 -22
-82 -10 -40 -11 -40 -30 -23 -16 14 -19 29 -17 93 1 56 3 63 5 28 l4 -48 20
24 c24 32 24 53 -1 102 -11 22 -20 44 -20 49 0 16 59 -56 66 -80z m774 71 c0
-8 -7 -15 -15 -15 -16 0 -20 12 -8 23 11 12 23 8 23 -8z m-1880 -60 c14 -15
35 -31 48 -36 17 -6 22 -16 22 -41 l-1 -33 -45 50 c-25 28 -55 63 -66 79 -19
26 -20 28 -2 18 10 -6 30 -22 44 -37z m345 -54 c-7 -6 -74 58 -87 84 -6 11 13
-2 41 -29 28 -28 48 -52 46 -55z m2455 68 c0 -5 -9 -9 -20 -9 -11 0 -20 6 -20
14 0 9 7 12 20 9 11 -3 20 -9 20 -14z m-2669 -56 c17 -24 26 -43 22 -43 -7 0
-55 61 -77 99 -20 33 25 -12 55 -56z m2224 57 c4 -7 -130 -10 -379 -10 -242 0
-386 4 -386 10 0 13 757 13 765 0z m45 -60 c0 -40 -4 -70 -10 -70 -11 0 -14
123 -3 133 12 13 13 7 13 -63z m470 50 c0 -5 -4 -10 -10 -10 -5 0 -10 5 -10
10 0 6 5 10 10 10 6 0 10 -4 10 -10z m-2380 -10 c-20 -13 -50 -13 -50 0 0 6
15 10 33 10 24 0 28 -3 17 -10z m99 -51 c26 -1 26 -1 -3 -10 -17 -4 -31 -7
-32 -6 -1 1 -5 20 -8 42 l-6 40 12 -32 c8 -26 17 -33 37 -34z m941 -24 c0 -83
-1 -85 -20 -75 -16 8 -20 21 -20 58 0 47 18 102 33 102 4 0 7 -38 7 -85z m830
1 l0 -73 -202 -6 c-112 -4 -285 -7 -385 -7 l-183 0 0 75 0 75 196 0 197 0 64
-55 65 -55 96 2 97 2 -90 5 c-83 5 -95 9 -130 37 -90 72 -95 69 101 71 l174 3
0 -74z m440 54 c0 -5 -6 -10 -14 -10 -8 0 -18 5 -21 10 -3 6 3 10 14 10 12 0
21 -4 21 -10z m-2570 -25 c0 -22 -4 -25 -32 -25 l-33 1 28 24 c35 31 37 31 37
0z m57 3 c-3 -8 -6 -5 -6 6 -1 11 2 17 5 13 3 -3 4 -12 1 -19z m243 -8 c0 -6
-35 -10 -85 -10 -50 0 -85 4 -85 10 0 6 35 10 85 10 50 0 85 -4 85 -10z m2260
-10 c0 -5 -11 -10 -25 -10 -49 0 -24 -19 34 -26 55 -6 60 -9 64 -33 3 -23 4
-22 6 7 0 18 6 32 14 32 6 0 22 3 35 6 21 6 22 4 22 -55 l0 -61 -95 0 -95 0 0
-55 c0 -52 -1 -55 -25 -55 l-25 0 0 130 0 130 45 0 c25 0 45 -4 45 -10z m130
0 c0 -5 -4 -10 -10 -10 -5 0 -10 5 -10 10 0 6 5 10 10 10 6 0 10 -4 10 -10z
m100 -39 c0 -11 3 -26 6 -34 3 -10 -5 -18 -27 -26 -18 -6 -34 -11 -35 -11 -2
0 -4 20 -4 45 0 43 1 45 30 45 23 0 30 -5 30 -19z m118 7 c-5 -14 -77 -40 -89
-32 -5 3 -9 14 -9 25 0 16 7 19 51 19 34 0 49 -4 47 -12z m-3164 -43 c4 -10
-1 -15 -14 -15 -11 0 -20 7 -20 15 0 8 6 15 14 15 8 0 16 -7 20 -15z m47 -7
l2 -23 4 23 c6 31 39 29 45 -3 3 -14 1 -25 -3 -25 -5 0 -9 5 -9 10 0 6 -5 10
-11 10 -5 0 -7 -4 -4 -10 4 -6 -7 -10 -27 -10 -25 0 -29 3 -18 10 10 6 11 10
3 10 -7 0 -13 7 -13 15 0 24 30 17 31 -7z m2474 12 c3 -5 -1 -10 -9 -10 -9 0
-16 5 -16 10 0 6 4 10 9 10 6 0 13 -4 16 -10z m65 0 c0 -5 -11 -10 -25 -10
-14 0 -25 5 -25 10 0 6 11 10 25 10 14 0 25 -4 25 -10z m115 -45 c0 -18 -8
-20 -62 -23 l-63 -3 0 -34 c0 -33 -2 -35 -34 -35 -31 0 -35 4 -41 33 -10 43
-16 52 -26 36 -6 -10 -9 -6 -9 13 l0 27 88 4 c140 5 147 5 147 -18z m360 -9
c-21 -17 -32 -21 -37 -13 -4 7 5 18 25 29 42 22 49 13 12 -16z m-3055 14 c0
-5 -9 -10 -20 -10 -11 0 -20 5 -20 10 0 6 9 10 20 10 11 0 20 -4 20 -10z m660
-10 c-102 -14 -240 -20 -240 -10 0 10 73 16 210 17 79 1 81 0 30 -7z m1748 3
c-26 -6 -22 -23 5 -24 17 -1 18 -2 4 -6 -10 -3 -25 -2 -32 1 -22 8 -6 36 19
35 16 -1 17 -2 4 -6z m463 -82 c-12 -16 -21 -34 -21 -40 0 -6 -13 -11 -30 -11
-28 0 -30 2 -30 40 l0 40 51 0 50 0 -20 -29z m177 7 c-8 -23 -45 -28 -64 -7
-17 18 -16 19 25 19 28 0 41 -4 39 -12z m-568 -8 c0 -6 -28 -10 -64 -10 -36 0
-68 5 -71 10 -4 6 20 10 64 10 41 0 71 -4 71 -10z m-1949 -47 c2 -49 2 -137 1
-181 l-2 -44 -26 31 c-23 27 -31 31 -60 25 -21 -4 -34 -2 -34 4 0 13 -69 -7
-88 -25 -9 -9 3 -15 60 -27 40 -9 91 -17 113 -18 l40 -3 3 -92 3 -93 -121 0
-120 0 0 225 0 225 115 0 115 0 1 -27z m1319 -8 l0 -35 -55 0 -55 0 0 35 0 35
55 0 55 0 0 -35z m306 26 c-3 -5 -26 -14 -50 -20 -45 -11 -96 -48 -100 -73 -1
-7 -6 -20 -11 -28 -5 -8 -11 -26 -13 -40 -7 -54 -12 -28 -12 68 l0 102 96 0
c52 0 93 -4 90 -9z m74 -211 l0 -220 -135 0 -135 0 0 96 0 95 105 116 c58 64
105 120 105 125 0 4 14 8 30 8 l30 0 0 -220z m300 208 c0 6 9 12 20 12 11 0
20 -7 20 -16 0 -20 -52 -15 -57 6 -4 13 -3 13 6 0 7 -10 11 -11 11 -2z m-1760
-28 l0 -30 -75 0 -75 0 0 30 0 30 75 0 75 0 0 -30z m166 15 c18 -13 16 -14
-23 -15 -32 0 -43 4 -43 15 0 19 40 20 66 0z m318 -1 c12 -30 7 -42 -15 -37
-26 7 -36 32 -18 44 20 12 26 11 33 -7z m82 -61 c12 -43 47 -170 78 -282 31
-113 56 -213 56 -223 0 -10 -7 -18 -16 -18 -26 0 -43 -31 -44 -77 l0 -43 -95
0 c-52 0 -95 3 -95 7 0 4 5 21 12 39 10 29 9 36 -7 54 -18 20 -52 29 -40 10 3
-5 0 -10 -8 -10 -11 0 -14 45 -16 256 -3 291 -2 294 71 294 39 0 42 4 38 48
-1 17 4 22 22 22 20 0 26 -9 44 -77z m77 -53 c38 -133 102 -385 111 -435 4
-23 3 -25 -3 -10 -18 39 -24 60 -22 73 1 6 -2 12 -8 12 -5 0 -7 10 -3 22 3 15
2 19 -7 14 -9 -6 -10 0 -5 20 4 17 3 25 -3 21 -6 -4 -8 4 -6 21 4 22 2 24 -7
12 -9 -12 -10 -11 -5 7 4 14 -10 81 -34 165 -22 79 -43 159 -46 178 -14 69 4
23 38 -100z m98 -12 c53 -135 57 -149 61 -248 5 -108 2 -140 -11 -140 -4 0
-15 26 -25 58 -34 117 -126 454 -126 463 0 5 10 9 23 9 19 0 29 -18 78 -142z
m59 112 c0 -28 -2 -30 -40 -30 -22 0 -40 3 -40 8 0 4 -3 17 -6 30 -6 20 -3 22
40 22 44 0 46 -1 46 -30z m1360 20 c0 -5 -11 -10 -25 -10 -14 0 -25 5 -25 10
0 6 11 10 25 10 14 0 25 -4 25 -10z m200 -5 c0 -6 -9 -11 -20 -12 -11 -1 -20
4 -20 12 0 8 9 13 20 12 11 -1 20 -6 20 -12z m30 0 c0 -8 -4 -15 -10 -15 -5 0
-10 7 -10 15 0 8 5 15 10 15 6 0 10 -7 10 -15z m-2898 -28 c11 -17 10 -65 -1
-71 -8 -5 -91 76 -91 90 0 11 84 -6 92 -19z m676 -14 c-10 -2 -26 -2 -35 0
-10 3 -2 5 17 5 19 0 27 -2 18 -5z m429 -15 c-3 -8 -6 -5 -6 6 -1 11 2 17 5
13 3 -3 4 -12 1 -19z m-433 -8 c25 -9 26 -12 26 -102 l0 -92 -45 44 c-43 42
-45 47 -45 102 0 63 8 70 64 48z m636 -77 c0 -47 -2 -84 -4 -82 -5 5 -66 157
-66 164 0 3 16 5 35 5 l35 0 0 -87z m758 4 l3 -77 74 0 75 0 0 -177 c0 -98 -3
-208 -7 -245 l-6 -68 -93 0 -94 0 0 318 c0 175 3 322 7 326 4 4 14 5 23 4 12
-3 16 -20 18 -81z m-1558 -147 l0 -220 -44 0 c-25 0 -48 -6 -55 -14 -14 -16
-4 -46 21 -64 14 -10 18 -26 18 -68 l0 -54 -45 0 -45 0 0 320 0 320 75 0 75 0
0 -220z m1082 52 c2 -92 2 -236 0 -320 l-3 -152 -25 0 c-22 0 -24 4 -24 50 0
28 -4 50 -10 50 -5 0 -10 -22 -10 -50 0 -47 -2 -50 -25 -50 -25 0 -26 2 -23
58 3 56 3 57 34 57 29 0 30 2 29 35 -2 23 -8 36 -19 38 -9 2 -16 10 -16 18 0
8 -4 14 -10 14 -6 0 -10 77 -10 210 l0 210 54 0 55 0 3 -168z m854 72 c-3 -9
-6 -19 -6 -23 0 -4 -13 -15 -30 -24 -35 -21 -39 -11 -7 18 12 11 18 17 13 13
-15 -12 -26 -9 -26 6 0 13 12 18 54 25 4 0 5 -6 2 -15z m-67 -6 c0 -7 -4 -22
-8 -32 -7 -18 -8 -18 -24 5 -23 32 -21 39 8 39 14 0 25 -6 24 -12z m-174 -18
c4 -6 -17 -10 -54 -10 -34 0 -61 4 -61 10 0 6 24 10 54 10 30 0 58 -4 61 -10z
m248 -30 c-3 -11 -9 -20 -14 -20 -5 0 -9 -8 -9 -17 0 -15 -55 -63 -71 -63 -3
0 -3 15 -1 34 3 29 11 38 50 59 26 14 48 26 49 26 0 1 -1 -8 -4 -19z m-1783
-35 c23 -24 25 -35 29 -141 l3 -114 -46 0 -46 0 0 150 c0 166 1 168 60 105z
m1680 -22 c-5 -19 -6 -42 -3 -49 3 -8 0 -14 -6 -14 -7 0 -11 25 -11 68 1 58 2
65 14 49 10 -12 11 -28 6 -54z m68 -62 c-10 -38 -11 -39 -41 -30 -38 11 -46 4
-22 -19 10 -9 15 -11 11 -4 -8 14 3 16 23 3 11 -7 8 -15 -16 -37 -16 -16 -19
-21 -8 -11 30 24 38 21 30 -10 -9 -36 -8 -35 -39 -24 -23 9 -26 16 -26 59 0
50 15 73 65 100 31 18 34 15 23 -27z m-1668 -93 c0 -63 -3 -78 -15 -78 -12 0
-15 17 -15 98 1 87 2 95 15 78 10 -14 15 -45 15 -98z m-620 -163 l0 -115 -45
0 -45 0 0 115 0 115 45 0 45 0 0 -115z m150 0 l0 -115 -50 0 -50 0 0 115 0
115 50 0 50 0 0 -115z m1480 0 l0 -115 -30 0 -30 0 0 115 0 115 30 0 30 0 0
-115z m210 0 l0 -115 -40 0 -40 0 0 99 c0 55 -3 106 -6 115 -5 13 2 16 40 16
l46 0 0 -115z m415 73 c-10 -44 -12 -47 -35 -41 -15 4 -20 14 -20 39 0 31 2
34 31 34 29 0 30 -1 24 -32z m-925 2 c0 -5 -25 -10 -55 -10 -30 0 -55 5 -55
10 0 6 25 10 55 10 30 0 55 -4 55 -10z m-1010 -38 c0 -24 -1 -25 -16 -10 -10
9 -14 24 -10 33 9 23 26 9 26 -23z m415 28 c-3 -5 -22 -10 -41 -10 -19 0 -34
5 -34 10 0 6 18 10 41 10 24 0 38 -4 34 -10z m-129 -56 c-6 -15 1 -16 63 -10
l69 7 4 -56 3 -55 -77 0 -78 0 0 58 c0 53 5 72 18 72 2 0 1 -7 -2 -16z m1628
-9 c4 -10 -1 -15 -14 -15 -11 0 -20 7 -20 15 0 8 6 15 14 15 8 0 16 -7 20 -15z
m-1674 -30 c0 -31 -3 -35 -25 -35 -20 0 -25 5 -25 26 0 14 -4 23 -10 19 -5 -3
-10 -17 -10 -31 0 -14 -4 -23 -8 -20 -4 3 -6 21 -4 40 4 34 6 36 43 36 38 0
39 -1 39 -35z m-180 -30 c0 -47 -3 -55 -19 -55 -16 0 -20 9 -23 55 -3 51 -2
55 20 55 20 0 22 -5 22 -55z m748 48 c-16 -2 -40 -2 -55 0 -16 2 -3 4 27 4 30
0 43 -2 28 -4z m-298 -33 c0 -11 -4 -20 -10 -20 -5 0 -10 9 -10 20 0 11 5 20
10 20 6 0 10 -9 10 -20z m233 -50 c-3 -11 -9 -20 -14 -20 -5 0 -9 9 -9 20 0
11 6 20 14 20 9 0 12 -7 9 -20z m1147 0 c0 -17 -6 -20 -42 -18 l-43 1 38 4
c24 3 37 9 37 19 0 8 2 14 5 14 3 0 5 -9 5 -20z m73 0 c4 -17 0 -20 -31 -19
-21 0 -31 3 -24 6 6 2 12 11 12 19 0 22 37 17 43 -6z m67 0 c0 -15 -7 -20 -25
-20 -18 0 -25 5 -25 20 0 15 7 20 25 20 18 0 25 -5 25 -20z m-1782 -7 c-10 -2
-28 -2 -40 0 -13 2 -5 4 17 4 22 1 32 -1 23 -4z m229 1 c-3 -3 -12 -4 -19 -1
-8 3 -5 6 6 6 11 1 17 -2 13 -5z m-834 -61 c-7 -2 -19 -2 -25 0 -7 3 -2 5 12
5 14 0 19 -2 13 -5z m2422 -3 c3 -5 20 -14 38 -19 26 -7 15 -9 -53 -9 -47 0
-76 3 -66 5 11 3 26 11 34 19 16 16 38 18 47 4z m-132 -27 c-7 -2 -19 -2 -25
0 -7 3 -2 5 12 5 14 0 19 -2 13 -5z"/>
<path d="M2145 4250 c10 -11 20 -20 23 -20 3 0 -3 9 -13 20 -10 11 -20 20 -23
20 -3 0 3 -9 13 -20z"/>
<path d="M1658 4213 c7 -3 16 -2 19 1 4 3 -2 6 -13 5 -11 0 -14 -3 -6 -6z"/>
<path d="M1622 4050 c-18 -4 -36 -11 -40 -15 -10 -10 71 6 83 16 11 10 4 10
-43 -1z"/>
<path d="M3020 4080 c-9 -16 -8 -18 5 -14 8 4 15 12 15 20 0 20 -7 17 -20 -6z"/>
<path d="M1642 3800 c-48 -11 -54 -23 -7 -15 43 8 83 25 55 24 -8 -1 -30 -5
-48 -9z"/>
<path d="M1962 3685 c0 -16 2 -22 5 -12 2 9 2 23 0 30 -3 6 -5 -1 -5 -18z"/>
<path d="M3104 3044 c-18 -14 -18 -15 4 -4 12 6 22 13 22 15 0 8 -5 6 -26 -11z"/>
<path d="M3453 2843 c31 -2 57 -9 57 -14 0 -7 -20 -10 -50 -7 l-50 3 0 -52 0
-53 123 0 122 0 0 65 0 65 -130 -2 c-71 -1 -104 -3 -72 -5z m187 -58 l0 -55
-60 0 -60 0 2 43 c1 36 2 38 5 10 4 -32 6 -33 49 -33 44 0 44 0 44 35 0 35 0
35 -44 35 -25 0 -48 5 -51 10 -4 6 17 10 54 10 l61 0 0 -55z m-169 -35 c21 0
39 -4 39 -10 0 -5 -20 -10 -45 -10 l-45 0 2 43 c1 36 2 38 5 10 4 -31 7 -33
44 -33z m129 40 c0 -16 -7 -20 -30 -20 -23 0 -30 4 -30 20 0 16 7 20 30 20 23
0 30 -4 30 -20z"/>
<path d="M1658 2713 c12 -2 30 -2 40 0 9 3 -1 5 -23 4 -22 0 -30 -2 -17 -4z"/>
<path d="M1660 2610 c-13 -9 -13 -10 0 -9 8 1 26 5 40 9 l25 8 -25 1 c-14 0
-32 -4 -40 -9z"/>
<path d="M820 2746 c0 -6 171 -99 175 -94 2 2 -37 25 -86 51 -49 27 -89 46
-89 43z"/>
<path d="M880 2486 c0 -2 8 -10 18 -17 15 -13 16 -12 3 4 -13 16 -21 21 -21
13z"/>
<path d="M3090 2250 c0 -23 4 -30 20 -30 16 0 20 7 20 30 0 23 -4 30 -20 30
-16 0 -20 -7 -20 -30z"/>
<path d="M3320 2250 c0 -16 4 -30 9 -30 5 0 7 9 4 21 -4 12 0 25 8 30 11 7 10
9 -3 9 -13 0 -18 -8 -18 -30z"/>
<path d="M2690 2254 c0 -12 6 -15 23 -10 12 3 28 6 35 6 7 0 10 5 7 10 -11 17
-65 12 -65 -6z"/>
<path d="M1800 2250 c0 -5 7 -10 15 -10 8 0 15 5 15 10 0 6 -7 10 -15 10 -8 0
-15 -4 -15 -10z"/>
<path d="M2004 2071 c11 -11 23 -21 28 -21 14 0 -1 19 -25 31 -22 12 -22 12
-3 -10z"/>
<path d="M3890 1452 c0 -12 19 -26 26 -19 2 2 -2 10 -11 17 -9 8 -15 8 -15 2z"/>
<path d="M2830 4500 c20 -13 33 -13 25 0 -3 6 -14 10 -23 10 -15 0 -15 -2 -2
-10z"/>
<path d="M4636 2129 c2 -4 -4 -10 -13 -12 -10 -3 36 -5 102 -5 66 0 116 1 110
4 -19 8 -203 20 -199 13z"/>
<path d="M4400 2120 c-58 -6 -53 -7 45 -8 69 0 103 3 90 8 -22 10 -40 10 -135
0z"/>
<path d="M4908 2063 c7 -3 16 -2 19 1 4 3 -2 6 -13 5 -11 0 -14 -3 -6 -6z"/>
<path d="M4998 2053 c7 -3 16 -2 19 1 4 3 -2 6 -13 5 -11 0 -14 -3 -6 -6z"/>
<path d="M5030 2056 c0 -2 7 -7 16 -10 8 -3 12 -2 9 4 -6 10 -25 14 -25 6z"/>
<path d="M4668 1973 c12 -2 30 -2 40 0 9 3 -1 5 -23 4 -22 0 -30 -2 -17 -4z"/>
<path d="M4507 1963 c18 -2 50 -2 70 0 21 2 7 4 -32 4 -38 0 -55 -2 -38 -4z"/>
<path d="M0 1940 c0 -5 13 -10 30 -10 17 0 30 5 30 10 0 6 -13 10 -30 10 -17
0 -30 -4 -30 -10z"/>
<path d="M890 1900 c0 -5 7 -7 15 -4 8 4 15 8 15 10 0 2 -7 4 -15 4 -8 0 -15
-4 -15 -10z"/>
<path d="M948 1903 c6 -2 18 -2 25 0 6 3 1 5 -13 5 -14 0 -19 -2 -12 -5z"/>
<path d="M468 1823 c12 -2 30 -2 40 0 9 3 -1 5 -23 4 -22 0 -30 -2 -17 -4z"/>
<path d="M538 1823 c7 -3 16 -2 19 1 4 3 -2 6 -13 5 -11 0 -14 -3 -6 -6z"/>
<path d="M928 1823 c7 -3 16 -2 19 1 4 3 -2 6 -13 5 -11 0 -14 -3 -6 -6z"/>
<path d="M988 1723 c28 -2 76 -2 105 0 28 2 5 3 -53 3 -58 0 -81 -1 -52 -3z"/>
<path d="M4868 1613 c23 -2 61 -2 85 0 23 2 4 4 -43 4 -47 0 -66 -2 -42 -4z"/>
<path d="M1168 1573 c12 -2 30 -2 40 0 9 3 -1 5 -23 4 -22 0 -30 -2 -17 -4z"/>
<path d="M1183 1523 c26 -2 67 -2 90 0 23 2 2 3 -48 3 -49 0 -68 -1 -42 -3z"/>
<path d="M4628 1413 c17 -2 47 -2 65 0 17 2 3 4 -33 4 -36 0 -50 -2 -32 -4z"/>
<path d="M4208 1303 c5 -137 9 -151 10 -35 1 61 -1 112 -5 112 -5 0 -7 -35 -5
-77z"/>
<path d="M4963 1373 c15 -2 39 -2 55 0 15 2 2 4 -28 4 -30 0 -43 -2 -27 -4z"/>
<path d="M4683 1353 c32 -2 81 -2 110 0 29 2 3 3 -58 3 -60 0 -84 -1 -52 -3z"/>
<path d="M4818 1333 c7 -3 16 -2 19 1 4 3 -2 6 -13 5 -11 0 -14 -3 -6 -6z"/>
<path d="M1168 953 c12 -2 30 -2 40 0 9 3 -1 5 -23 4 -22 0 -30 -2 -17 -4z"/>
<path d="M4398 943 c-35 -4 -64 -33 -33 -33 8 0 15 5 15 11 0 8 24 10 78 5 44
-3 66 -2 52 3 -43 13 -74 17 -112 14z"/>
<path d="M380 931 c-12 -9 -10 -11 11 -11 14 0 48 -3 75 -6 27 -4 45 -3 41 2
-16 17 -108 27 -127 15z"/>
<path d="M2900 929 c-19 -4 -60 -8 -91 -7 -32 0 -65 -4 -75 -10 -34 -19 37
-23 119 -7 43 8 97 12 120 9 39 -5 41 -4 23 10 -22 17 -42 18 -96 5z"/>
<path d="M933 923 c9 -2 23 -2 30 0 6 3 -1 5 -18 5 -16 0 -22 -2 -12 -5z"/>
<path d="M4738 923 c12 -2 30 -2 40 0 9 3 -1 5 -23 4 -22 0 -30 -2 -17 -4z"/>
<path d="M1855 910 c-26 -7 -23 -8 25 -10 30 -1 69 -6 85 -10 23 -6 17 -7 -30
-7 -33 0 -148 -6 -255 -12 -411 -25 -434 -25 -508 -2 l-67 22 -85 -20 -85 -21
80 5 c44 2 96 1 115 -4 l35 -8 -27 -13 c-16 -7 -28 -17 -28 -21 0 -4 -10 -11
-21 -14 -17 -6 -18 -9 -8 -16 11 -6 10 -9 -4 -15 -9 -3 -14 -10 -11 -15 10
-16 72 -10 149 16 61 20 89 23 138 19 34 -3 69 -8 77 -11 8 -2 42 -6 74 -9 56
-3 87 -16 73 -30 -7 -7 -123 -33 -150 -34 -19 0 -20 29 -2 42 6 4 -1 8 -15 8
-14 0 -52 2 -85 5 -38 3 -79 -1 -114 -11 -54 -16 -191 -17 -191 -2 0 5 -12 6
-27 3 -27 -6 -27 -6 -9 9 15 12 23 13 33 4 11 -9 18 -8 29 4 13 13 11 14 -18
13 -18 -2 -48 -9 -66 -16 -28 -12 -34 -12 -41 0 -8 12 -23 12 -93 2 -45 -6
-96 -11 -111 -11 -33 0 -70 -17 -62 -30 5 -8 -15 -12 -112 -23 -18 -2 -30 0
-27 5 3 4 2 8 -3 9 -4 0 -17 2 -28 4 -20 4 -38 -13 -29 -27 3 -4 15 -8 27 -9
17 -1 15 -3 -8 -9 -16 -5 -64 -21 -105 -36 -63 -23 -93 -28 -185 -30 l-110 -2
100 8 c95 7 160 22 238 55 28 11 34 19 30 35 -4 14 -14 20 -34 20 -16 0 -29 5
-29 11 0 6 -6 9 -14 6 -7 -3 -18 -1 -24 5 -6 6 -12 6 -16 -1 -4 -6 -17 -11
-29 -11 -20 0 -20 0 -1 15 18 14 17 14 -8 5 -16 -5 -29 -7 -29 -5 -1 3 -2 9
-3 14 -2 19 -13 20 -66 6 -29 -8 -84 -17 -122 -21 l-68 -7 0 -36 c0 -31 4 -39
28 -48 l27 -11 -27 -1 -28 -1 0 -105 0 -105 71 0 c44 0 109 -10 172 -26 110
-29 241 -37 332 -20 l50 10 -80 12 -80 11 76 2 c41 0 124 10 184 21 60 11 131
20 159 20 48 0 212 -38 203 -47 -3 -2 -42 3 -88 13 -105 21 -189 14 -312 -27
-76 -25 -113 -32 -212 -36 -106 -5 -132 -2 -226 21 -102 25 -199 33 -233 20
-11 -4 -16 -19 -16 -53 l0 -46 112 0 c83 0 153 -8 263 -29 138 -26 162 -28
305 -23 166 6 243 20 440 80 63 19 138 38 165 42 28 4 59 12 70 17 20 9 20 9
0 -7 -11 -8 -38 -20 -60 -25 -22 -5 -105 -28 -185 -50 -222 -62 -273 -71 -435
-77 -131 -4 -169 -2 -305 21 -145 25 -297 33 -347 20 -22 -6 -23 -11 -23 -104
l0 -97 290 -8 c159 -4 326 -4 372 0 238 19 434 67 703 171 93 36 191 36 385 0
270 -50 279 -58 22 -20 -241 35 -290 31 -508 -40 -222 -73 -296 -92 -434 -116
-161 -27 -339 -40 -579 -41 -113 -1 -217 -5 -231 -9 -14 -5 220 -8 520 -6
l545 2 120 33 c66 18 145 39 175 48 93 24 226 21 405 -12 186 -35 169 -41 -74
-26 -185 11 -302 3 -396 -28 l-60 -19 1135 -1 c691 0 1180 3 1250 9 150 14
288 42 414 87 154 54 479 163 485 163 14 -1 -59 -34 -142 -65 -51 -18 -143
-54 -206 -80 -63 -26 -171 -62 -240 -80 l-126 -33 234 -1 c217 -1 242 1 349
25 64 14 199 55 301 90 175 61 287 94 374 108 l37 7 0 80 0 81 -32 -8 c-18 -5
-80 -6 -138 -4 -211 9 -288 4 -415 -28 -130 -33 -244 -52 -297 -51 -18 0 21
11 87 24 66 12 176 38 245 55 119 31 134 33 315 34 135 1 197 5 213 14 21 12
22 19 22 139 l0 125 -25 -4 c-32 -7 -32 0 0 12 19 7 25 17 25 40 0 16 -1 30
-2 30 -2 0 -32 -9 -67 -20 -89 -28 -189 -35 -311 -20 -139 16 -286 14 -390 -5
-47 -9 -103 -18 -125 -20 -38 -5 -38 -4 -10 5 58 20 273 60 319 60 25 0 88 -7
138 -16 116 -20 295 -15 386 11 57 17 62 20 62 47 0 16 -5 28 -12 28 -10 0
-10 2 0 9 19 12 -80 4 -187 -15 -66 -12 -113 -15 -165 -9 -97 10 -108 11 -128
20 -9 4 -21 4 -27 1 -5 -3 -11 -2 -13 4 -2 6 -27 13 -55 17 -40 4 -58 2 -77
-11 -14 -9 -37 -16 -51 -16 -14 0 -25 -3 -25 -8 0 -4 -39 -8 -86 -8 -57 -1
-89 -5 -94 -14 -5 -7 -9 -8 -11 -2 -3 9 -66 24 -106 25 -7 0 -13 4 -13 9 0 4
-17 7 -37 7 l-38 -2 35 -7 c35 -7 35 -7 5 -9 -16 -1 -41 -4 -55 -6 -22 -5 -22
-4 -5 4 14 7 -5 10 -70 10 -89 1 -114 4 -290 36 -150 27 -341 31 -488 10 -153
-21 -380 -16 -492 11 -92 22 -114 22 -215 -6 -96 -26 -206 -24 -314 5 -70 18
-208 27 -251 15z m188 -37 c-7 -2 -19 -2 -25 0 -7 3 -2 5 12 5 14 0 19 -2 13
-5z m54 -9 c-3 -3 -12 -4 -19 -1 -8 3 -5 6 6 6 11 1 17 -2 13 -5z m66 -11 c-7
-2 -21 -2 -30 0 -10 3 -4 5 12 5 17 0 24 -2 18 -5z m660 -30 c-23 -2 -64 -2
-90 0 -26 2 -7 3 42 3 50 0 71 -1 48 -3z m1084 -9 c-3 -3 -12 -4 -19 -1 -8 3
-5 6 6 6 11 1 17 -2 13 -5z m-1390 -11 c-20 -2 -52 -2 -70 0 -17 2 0 4 38 4
39 0 53 -2 32 -4z m576 0 c-7 -2 -19 -2 -25 0 -7 3 -2 5 12 5 14 0 19 -2 13
-5z m235 0 c-16 -2 -40 -2 -55 0 -16 2 -3 4 27 4 30 0 43 -2 28 -4z m512 3 c0
-2 -9 -6 -20 -9 -11 -3 -18 -1 -14 4 5 9 34 13 34 5z m-1525 -19 l40 1 -34
-10 c-38 -10 -81 -4 -81 13 0 7 7 8 18 3 9 -4 35 -7 57 -7z m732 7 c-3 -3 -12
-4 -19 -1 -8 3 -5 6 6 6 11 1 17 -2 13 -5z m411 -1 c-10 -2 -26 -2 -35 0 -10
3 -2 5 17 5 19 0 27 -2 18 -5z m322 3 c0 -2 -13 -6 -30 -8 -16 -3 -30 -1 -30
4 0 4 14 8 30 8 17 0 30 -2 30 -4z m-773 -12 c-3 -3 -12 -4 -19 -1 -8 3 -5 6
6 6 11 1 17 -2 13 -5z m703 -4 c0 -6 -12 -8 -27 -5 -23 4 -25 4 -8 -4 17 -8
17 -10 3 -10 -9 -1 -20 4 -23 9 -3 6 -11 10 -16 10 -6 0 -7 -4 -4 -10 4 -6 -6
-10 -22 -10 l-28 -1 25 -15 25 -15 -34 5 c-18 3 -44 6 -57 6 -31 0 -32 28 -1
35 70 15 167 18 167 5z m-1272 -7 c-16 -2 -40 -2 -55 0 -16 2 -3 4 27 4 30 0
43 -2 28 -4z m512 -3 c-14 -4 -34 -8 -45 -8 -16 0 -15 2 5 8 14 4 34 8 45 8
16 0 15 -2 -5 -8z m1309 6 c-11 -11 -197 -46 -239 -45 -37 1 -30 4 40 15 47 7
105 18 130 23 53 10 75 13 69 7z m-2486 -13 c-7 -2 -21 -2 -30 0 -10 3 -4 5
12 5 17 0 24 -2 18 -5z m70 -10 c-7 -2 -19 -2 -25 0 -7 3 -2 5 12 5 14 0 19
-2 13 -5z m1034 1 c-3 -3 -12 -4 -19 -1 -8 3 -5 6 6 6 11 1 17 -2 13 -5z
m-882 -14 c55 -6 56 -7 15 -8 -25 0 -70 3 -100 8 -47 6 -49 7 -15 8 22 0 67
-4 100 -8z m108 3 c-7 -2 -19 -2 -25 0 -7 3 -2 5 12 5 14 0 19 -2 13 -5z m234
-14 c42 -7 125 -10 220 -7 85 3 153 4 151 3 -2 -2 -55 -8 -118 -14 -125 -12
-270 -1 -325 25 -16 8 -22 12 -12 9 9 -2 47 -10 84 -16z m496 14 c-7 -2 -21
-2 -30 0 -10 3 -4 5 12 5 17 0 24 -2 18 -5z m991 -2 c4 -5 -3 -7 -14 -4 -23 6
-26 13 -6 13 8 0 17 -4 20 -9z m-1056 -8 c-10 -2 -26 -2 -35 0 -10 3 -2 5 17
5 19 0 27 -2 18 -5z m1177 -3 c-3 -5 -13 -10 -21 -10 -8 0 -12 5 -9 10 3 6 13
10 21 10 8 0 12 -4 9 -10z m-272 -7 c-7 -2 -19 -2 -25 0 -7 3 -2 5 12 5 14 0
19 -2 13 -5z m130 0 c-7 -2 -19 -2 -25 0 -7 3 -2 5 12 5 14 0 19 -2 13 -5z
m-1714 -19 c8 -7 -184 -2 -214 6 -16 4 24 5 90 2 66 -3 122 -6 124 -8z m-1774
-14 c-45 -11 -153 -11 -160 0 -4 6 29 10 92 9 67 -1 88 -4 68 -9z m748 -20
c38 -12 66 -24 63 -27 -3 -3 -58 3 -122 13 -121 19 -140 18 -369 -21 -34 -6
55 29 130 51 68 19 210 12 298 -16z m1250 23 c-7 -2 -21 -2 -30 0 -10 3 -4 5
12 5 17 0 24 -2 18 -5z m1416 3 c-2 -2 -51 -5 -109 -8 -58 -3 -91 -2 -75 2 31
8 192 13 184 6z m444 -3 c-7 -2 -19 -2 -25 0 -7 3 -2 5 12 5 14 0 19 -2 13 -5z
m-2688 -29 l40 -13 -40 7 c-22 4 -81 7 -132 7 -51 -1 -90 1 -88 3 2 2 28 7 57
12 58 8 102 4 163 -16z m903 19 c-10 -2 -26 -2 -35 0 -10 3 -2 5 17 5 19 0 27
-2 18 -5z m259 1 c-3 -3 -12 -4 -19 -1 -8 3 -5 6 6 6 11 1 17 -2 13 -5z m481
-1 c-10 -2 -26 -2 -35 0 -10 3 -2 5 17 5 19 0 27 -2 18 -5z m789 1 c-3 -3 -12
-4 -19 -1 -8 3 -5 6 6 6 11 1 17 -2 13 -5z m-1170 -30 c-9 -9 -28 6 -21 18 4
6 10 6 17 -1 6 -6 8 -13 4 -17z m316 19 c-7 -2 -21 -2 -30 0 -10 3 -4 5 12 5
17 0 24 -2 18 -5z m-539 -12 c3 -5 -31 -12 -77 -16 -45 -4 -111 -11 -147 -16
-36 -5 -78 -8 -95 -8 -16 1 44 12 135 24 91 12 168 23 172 24 4 0 9 -3 12 -8z
m469 2 c-7 -2 -19 -2 -25 0 -7 3 -2 5 12 5 14 0 19 -2 13 -5z m609 -18 c157 0
290 -3 294 -8 4 -4 -25 -4 -64 -1 -56 5 -72 4 -72 -6 0 -10 32 -12 158 -7 146
5 154 4 112 -9 -102 -33 -598 -14 -720 27 -30 10 -41 15 -25 11 17 -4 159 -7
317 -7z m465 9 c-3 -3 -12 -4 -19 -1 -8 3 -5 6 6 6 11 1 17 -2 13 -5z m-1359
-11 c-10 -2 -26 -2 -35 0 -10 3 -2 5 17 5 19 0 27 -2 18 -5z m1265 0 c-7 -2
-21 -2 -30 0 -10 3 -4 5 12 5 17 0 24 -2 18 -5z m826 -15 c33 -13 32 -14 -38
-10 -41 3 -91 -1 -117 -8 -58 -16 -66 -7 -17 19 43 24 113 23 172 -1z m-3109
-7 l55 -9 -56 -1 c-31 0 -72 -3 -90 -6 -19 -3 -29 -3 -22 1 7 3 9 12 6 20 -4
11 1 13 23 9 16 -3 54 -9 84 -14z m883 2 c-13 -2 -35 -2 -50 0 -16 2 -5 4 22
4 28 0 40 -2 28 -4z m-500 -10 c-56 -2 -151 -2 -210 0 -59 1 -13 3 102 3 116
0 164 -2 108 -3z m1112 -17 c28 -9 37 -14 20 -11 -148 23 -192 27 -275 22 -52
-4 -111 -9 -130 -13 -25 -5 -32 -3 -25 4 24 25 326 24 410 -2z m-1906 -10 c-2
-2 -42 -6 -89 -9 -52 -4 -75 -3 -60 3 24 8 158 14 149 6z m1988 -12 c-3 -3
-12 -4 -19 -1 -8 3 -5 6 6 6 11 1 17 -2 13 -5z m168 -25 l80 -8 -90 4 c-49 3
-103 9 -120 15 -27 9 -27 9 10 4 22 -4 76 -10 120 -15z m1115 16 c0 -11 -104
-56 -163 -72 -51 -13 -87 -14 -202 -8 -77 4 -166 7 -199 6 -76 -3 -201 -40
-351 -103 -129 -55 -235 -88 -275 -87 -16 0 -6 5 26 14 61 16 102 32 309 119
218 92 260 100 450 85 164 -12 251 -5 348 30 29 11 53 20 55 20 1 1 2 -1 2 -4z
m-2993 -11 c-3 -3 -12 -4 -19 -1 -8 3 -5 6 6 6 11 1 17 -2 13 -5z m3483 -4
c24 -8 24 -8 -5 -8 -16 0 -41 4 -55 8 -24 8 -24 8 5 8 17 0 41 -4 55 -8z
m-3365 -20 c33 -7 130 -28 215 -48 131 -30 173 -36 270 -35 63 0 144 5 179 12
34 7 65 10 68 8 10 -11 -150 -31 -247 -32 -85 0 -137 7 -275 37 -93 21 -203
42 -243 49 -40 6 -69 15 -66 20 3 6 13 8 22 5 10 -2 44 -10 77 -16z m-285 -11
c28 -6 50 -12 48 -14 -8 -7 -297 9 -292 16 7 13 184 11 244 -2z m2300 5 c-30
-2 -104 -10 -165 -18 -153 -21 -205 -25 -200 -16 3 5 -1 11 -7 14 -7 3 14 4
47 1 33 -3 87 1 120 8 33 8 105 14 160 14 55 0 75 -2 45 -3z m-2117 -11 c-7
-2 -21 -2 -30 0 -10 3 -4 5 12 5 17 0 24 -2 18 -5z m970 -20 c-13 -2 -33 -2
-45 0 -13 2 -3 4 22 4 25 0 35 -2 23 -4z m-1124 -78 c27 -13 69 -29 95 -36 50
-12 70 -29 36 -29 -28 0 -165 57 -181 76 -16 20 -6 18 50 -11z m1235 -4 c5 -8
-153 -22 -163 -15 -2 2 12 7 30 13 44 12 126 14 133 2z m-704 -30 c0 -17 -20
-23 -48 -16 -25 7 -25 8 -7 15 28 12 55 12 55 1z m1193 2 c-7 -2 -19 -2 -25 0
-7 3 -2 5 12 5 14 0 19 -2 13 -5z m127 -43 c-144 -8 -211 -25 -330 -85 -47
-23 -103 -50 -125 -59 -22 -9 -29 -14 -15 -11 229 55 302 57 514 15 85 -17
187 -35 227 -40 l74 -9 -75 4 c-41 3 -135 16 -208 30 -213 40 -267 41 -416 11
-70 -15 -137 -24 -148 -20 -11 3 -18 2 -15 -3 3 -5 -18 -9 -46 -10 -29 -1
-101 -6 -162 -12 -158 -16 -241 -13 -105 4 181 22 307 54 445 112 33 15 98 39
145 54 78 26 97 28 225 27 l140 -1 -125 -7z m520 -21 c-66 -30 -193 -59 -288
-66 -78 -6 -417 15 -407 25 3 3 85 -1 182 -7 199 -14 302 -5 458 42 98 30 114
32 55 6z m-1620 -9 c-23 -5 -27 -8 -12 -9 12 0 22 -6 22 -12 0 -7 -10 -9 -27
-5 -16 4 -48 10 -73 14 l-45 7 45 6 c25 3 63 6 85 6 l40 0 -35 -7z m560 -50
c-8 -5 -19 -10 -25 -10 -5 0 -3 5 5 10 8 5 20 10 25 10 6 0 3 -5 -5 -10z
m-116 -41 c-23 -10 -68 -21 -100 -24 -58 -5 -57 -5 31 19 109 29 122 30 69 5z
m-601 -36 c-7 -2 -21 -2 -30 0 -10 3 -4 5 12 5 17 0 24 -2 18 -5z m2112 -13
c-16 -4 -50 -8 -75 -7 l-45 0 40 7 c22 4 56 7 75 7 l35 1 -30 -8z m-285 -50
c-40 -9 -231 -22 -214 -14 15 6 158 21 209 22 l40 0 -35 -8z m-1833 -37 c-20
-2 -52 -2 -70 0 -17 2 0 4 38 4 39 0 53 -2 32 -4z m1088 -13 c55 -5 34 -7
-100 -8 -94 -1 -248 -11 -345 -22 -96 -11 -197 -22 -225 -25 -115 -11 24 14
190 34 243 30 352 34 480 21z"/>
<path d="M916 892 c-2 -4 11 -6 30 -4 19 2 34 6 34 8 0 8 -59 4 -64 -4z"/>
<path d="M358 883 c6 -2 18 -2 25 0 6 3 1 5 -13 5 -14 0 -19 -2 -12 -5z"/>
<path d="M568 883 c7 -3 16 -2 19 1 4 3 -2 6 -13 5 -11 0 -14 -3 -6 -6z"/>
<path d="M800 880 c-21 -7 -21 -8 -5 -9 11 0 27 4 35 9 18 11 5 11 -30 0z"/>
<path d="M863 863 c9 -2 25 -2 35 0 9 3 1 5 -18 5 -19 0 -27 -2 -17 -5z"/>
<path d="M198 853 c7 -3 16 -2 19 1 4 3 -2 6 -13 5 -11 0 -14 -3 -6 -6z"/>
<path d="M70 841 c-66 -5 -72 -7 -53 -18 34 -20 100 -16 123 7 11 11 17 19 13
18 -5 -1 -42 -4 -83 -7z"/>
<path d="M4838 843 c6 -2 18 -2 25 0 6 3 1 5 -13 5 -14 0 -19 -2 -12 -5z"/>
<path d="M358 803 c7 -3 16 -2 19 1 4 3 -2 6 -13 5 -11 0 -14 -3 -6 -6z"/>
<path d="M27 793 c-15 -2 -27 -11 -27 -19 0 -13 11 -14 64 -9 35 4 79 11 97
15 l34 8 -41 1 c-23 1 -54 3 -70 5 -16 2 -41 2 -57 -1z"/>
<path d="M208 793 c7 -3 16 -2 19 1 4 3 -2 6 -13 5 -11 0 -14 -3 -6 -6z"/>
<path d="M811 791 c-9 -6 8 -9 48 -9 33 0 61 4 61 9 0 12 -91 11 -109 0z"/>
<path d="M950 780 c-9 -6 -10 -10 -3 -10 6 0 15 5 18 10 8 12 4 12 -15 0z"/>
<path d="M758 773 c7 -3 16 -2 19 1 4 3 -2 6 -13 5 -11 0 -14 -3 -6 -6z"/>
<path d="M688 763 c6 -2 18 -2 25 0 6 3 1 5 -13 5 -14 0 -19 -2 -12 -5z"/>
<path d="M5005 164 c-38 -9 -122 -38 -187 -65 -64 -27 -147 -60 -185 -74 l-68
-24 221 0 c128 -1 244 4 277 10 l57 12 0 78 c0 91 6 88 -115 63z"/>
</g>
</svg>