<?xml version="1.0" standalone="no"?>
<!DOCTYPE svg PUBLIC "-//W3C//DTD SVG 20010904//EN"
 "http://www.w3.org/TR/2001/REC-SVG-20010904/DTD/svg10.dtd">
<svg version="1.0" xmlns="http://www.w3.org/2000/svg"
 width="512.000000pt" height="512.000000pt" viewBox="0 0 512.000000 512.000000"
 preserveAspectRatio="xMidYMid meet">
<metadata>
Created by potrace 1.16, written by Peter Selinger 2001-2019
</metadata>
<g transform="translate(0.000000,512.000000) scale(0.100000,-0.100000)"
fill="#000000" stroke="none">
<path d="M174 5112 c5 -9 -138 -72 -161 -72 -7 0 -13 -4 -13 -10 0 -14 1 -14
97 25 48 19 88 33 90 31 2 -2 8 -59 14 -127 5 -68 11 -132 13 -141 9 -39 -46
-11 -64 32 -7 16 -17 30 -23 30 -7 0 -7 -4 1 -12 21 -21 13 -47 -19 -63 -17
-9 -37 -14 -44 -12 -15 6 -26 54 -13 61 5 2 3 3 -4 2 -16 -3 -23 -53 -10 -69
8 -10 32 -172 32 -216 0 -7 -9 -7 -26 -1 -31 12 -44 13 -44 2 0 -5 18 -14 39
-21 38 -11 40 -14 51 -66 15 -71 18 -204 5 -205 -5 0 -15 42 -21 94 -17 142
-19 148 -49 134 -14 -6 -25 -18 -25 -27 0 -12 3 -12 12 -3 26 26 36 11 47 -76
17 -133 16 -136 -25 -156 -20 -9 -34 -19 -31 -22 2 -3 30 7 61 23 l56 27 0 54
0 53 40 -22 c69 -39 77 -53 89 -167 18 -168 26 -151 -87 -200 -103 -44 -130
-50 -136 -29 -3 6 -7 53 -10 103 l-6 90 80 39 c44 22 80 43 80 47 0 4 -38 -11
-85 -34 l-85 -42 0 -223 c0 -123 4 -223 9 -223 9 0 27 -109 36 -208 2 -29 6
-61 9 -70 3 -9 1 -42 -3 -72 -8 -51 -9 -52 -10 -15 0 23 -8 94 -17 159 -8 65
-13 125 -10 132 3 8 1 14 -5 14 -17 0 -10 -261 7 -281 13 -14 12 -18 -1 -29
-25 -21 -17 -37 27 -62 59 -32 60 -51 3 -73 -25 -9 -44 -19 -41 -22 3 -3 23 2
45 10 30 12 42 14 47 5 4 -7 10 -60 12 -118 l4 -107 -56 -23 c-31 -12 -55 -24
-53 -27 3 -2 35 8 72 23 64 26 68 26 101 11 19 -9 34 -22 34 -29 0 -7 7 -85
15 -173 8 -88 15 -194 16 -235 1 -41 3 -68 5 -60 3 9 18 21 35 27 42 16 69 -1
69 -44 0 -29 -5 -34 -50 -55 -50 -23 -50 -23 -45 -63 5 -39 25 -296 25 -322 0
-7 -16 -21 -36 -30 -34 -17 -35 -19 -30 -63 3 -25 8 -92 12 -148 6 -101 6
-104 -13 -93 -11 5 -34 26 -52 46 -28 32 -31 42 -31 103 0 74 -8 86 -87 141
-22 15 -33 31 -36 54 -2 17 -5 2 -5 -35 -2 -69 8 -84 35 -57 8 8 19 5 42 -12
28 -20 31 -28 31 -73 0 -28 3 -61 6 -73 5 -17 2 -23 -10 -23 -13 0 -16 11 -16
55 0 44 -3 55 -16 55 -19 0 -74 -31 -74 -42 0 -12 14 -10 36 7 30 23 34 19 34
-40 0 -53 -1 -55 -35 -69 -29 -13 -35 -20 -35 -45 0 -17 2 -31 5 -31 13 0 72
34 100 58 l29 24 23 -26 c12 -14 24 -26 27 -26 3 0 25 -13 49 -28 l44 -28 2
-89 2 -90 -40 -21 -39 -21 -6 47 c-4 26 -16 60 -27 74 -22 28 -18 46 9 46 15
1 94 39 82 40 -3 0 -40 -13 -83 -30 l-77 -30 -50 36 -50 36 0 -52 c0 -44 3
-51 16 -46 9 3 33 9 53 12 33 5 42 2 74 -29 45 -42 48 -71 9 -85 -44 -17 -125
-42 -134 -42 -5 0 -8 22 -7 50 2 27 0 53 -4 57 -4 3 -7 -308 -7 -692 0 -544 3
-696 12 -687 21 21 43 13 118 -43 63 -47 100 -66 100 -51 0 2 -17 15 -37 27
l-37 23 40 18 c51 23 102 20 121 -9 14 -20 12 -23 -24 -42 l-38 -20 144 -1
143 0 -6 24 c-5 22 0 27 68 55 90 37 96 38 96 7 0 -13 3 -38 6 -55 6 -27 11
-31 38 -31 l31 0 0 200 c0 159 3 202 14 209 7 5 40 12 73 15 57 7 61 6 108
-29 l50 -37 0 -179 0 -179 160 0 160 0 1 63 c1 34 4 75 8 90 l6 28 62 -46 c35
-26 64 -56 66 -68 4 -19 4 -18 6 5 0 16 8 28 19 31 13 4 12 5 -5 6 -12 0 -43
15 -68 33 l-45 32 52 18 c49 16 36 16 -38 -2 -31 -7 -65 2 -47 13 21 13 137
38 151 32 14 -5 14 -7 2 -15 -12 -7 -11 -9 5 -8 11 1 61 -25 110 -57 50 -32
100 -64 113 -72 29 -18 23 -26 -35 -48 -26 -10 -52 -21 -57 -26 -10 -9 29 1
77 20 39 15 47 14 47 -9 0 -17 7 -20 50 -20 43 0 50 3 50 20 0 25 5 25 42 -1
45 -33 44 -16 -2 21 -30 24 -40 39 -40 61 0 16 3 29 6 29 5 0 54 -38 150 -114
13 -11 26 -17 30 -14 3 4 -37 41 -90 83 -88 70 -96 79 -96 111 l0 34 98 -77
c127 -102 162 -127 162 -114 0 5 -57 54 -128 108 -126 97 -127 98 -124 136 l3
37 32 -21 c31 -20 31 -20 -3 9 -19 17 -33 32 -30 34 3 2 18 10 34 16 27 12 28
12 22 -11 -5 -22 6 -32 125 -106 72 -44 140 -81 153 -81 12 0 69 16 126 35 57
19 105 33 107 31 2 -2 0 -34 -3 -73 l-7 -70 -84 -27 c-47 -15 -83 -30 -80 -32
2 -2 37 7 77 21 40 14 78 25 83 25 5 0 7 -16 5 -35 l-4 -35 57 0 c54 0 57 1
53 23 l-5 22 12 -22 c13 -25 29 -31 29 -11 0 9 3 9 12 0 16 -16 35 -15 35 3 0
8 -4 12 -8 9 -14 -8 -65 45 -76 80 l-11 35 54 -46 c29 -25 55 -55 57 -67 2
-12 4 22 4 74 1 90 0 92 -8 41 -5 -30 -11 -57 -14 -59 -7 -8 -115 106 -115
122 0 27 17 18 70 -34 28 -28 50 -44 50 -36 0 8 -27 39 -60 69 -46 41 -60 60
-60 82 l0 28 44 -39 c24 -22 43 -43 43 -49 -2 -18 14 -55 24 -55 5 0 9 12 9
27 0 21 -15 42 -60 84 -33 31 -60 63 -60 72 0 9 19 -3 53 -34 28 -27 55 -49
60 -49 4 0 7 -7 7 -15 0 -8 5 -15 10 -15 6 0 10 16 10 36 0 31 -2 35 -15 24
-12 -10 -18 -10 -30 0 -8 7 -12 16 -10 21 3 4 -7 15 -23 23 -16 8 -34 22 -42
31 -26 31 -2 24 54 -16 83 -60 81 -40 -3 22 -39 30 -71 56 -71 60 0 4 7 12 15
19 12 10 25 3 72 -40 l58 -53 6 44 c4 30 2 46 -6 51 -6 4 -23 16 -36 27 -20
17 -21 20 -7 21 15 0 18 13 21 83 l3 82 1 -88 0 -89 43 -25 c56 -33 60 -26 60
109 l0 107 38 6 c20 3 64 15 96 25 33 11 61 18 62 17 1 -1 -2 -42 -7 -92 -4
-49 -8 -131 -8 -181 -1 -117 -10 -184 -26 -184 -8 0 -14 -28 -18 -82 -10 -120
-8 -198 3 -198 6 0 10 37 10 90 0 50 3 90 8 90 4 0 33 -23 65 -50 32 -28 63
-50 68 -50 5 0 9 11 9 24 0 16 7 26 23 30 38 10 40 8 35 -64 -5 -62 -3 -70 12
-70 19 0 19 -1 41 425 8 141 17 233 23 237 8 5 7 8 -1 8 -7 0 -20 11 -29 26
-22 32 -10 45 57 60 47 11 52 10 97 -19 26 -16 50 -34 53 -39 3 -5 9 -9 13 -8
23 6 24 -29 8 -348 l-17 -342 26 0 25 0 2 128 c3 229 33 1205 40 1291 l7 83
43 -38 44 -39 -12 -518 c-6 -285 -10 -521 -7 -523 2 -2 6 78 10 178 3 101 15
351 28 557 22 354 25 374 44 381 41 16 225 53 231 47 6 -6 -50 -792 -62 -874
-4 -28 -9 -32 -45 -38 -45 -8 -79 -35 -79 -64 0 -14 -11 -22 -44 -30 l-43 -11
-11 -167 c-6 -93 -14 -212 -17 -265 l-6 -98 74 0 74 0 7 108 c4 59 11 154 16
212 5 58 9 137 10 176 0 45 5 75 13 82 6 5 59 20 116 32 92 20 105 21 112 7 5
-9 23 -18 39 -22 50 -11 44 -23 -19 -36 -84 -18 -68 -24 19 -8 102 18 102 18
90 -150 -10 -136 -19 -180 -21 -100 -1 38 -3 33 -15 -34 -20 -124 -24 -113
-20 61 4 146 2 162 -12 162 -24 0 -132 -26 -139 -34 -3 -3 -12 -94 -19 -203
-15 -228 -16 -258 -8 -251 3 4 12 104 20 223 8 119 16 221 19 225 3 4 22 11
42 15 21 3 48 9 61 12 22 5 22 5 21 -108 -1 -63 -4 -159 -8 -214 l-6 -99 -65
-28 c-36 -15 -57 -28 -47 -28 10 0 61 18 113 40 115 49 146 57 162 37 10 -12
-1 -19 -66 -45 l-77 -31 43 0 c24 -1 62 8 84 19 52 25 59 25 91 0 19 -15 40
-20 90 -20 60 0 66 2 69 22 3 20 19 27 118 55 63 18 118 33 123 33 4 0 7 -25
7 -55 0 -54 0 -55 30 -55 23 0 31 5 34 23 4 20 18 174 50 576 9 110 17 166 26
171 10 6 10 9 -1 13 -8 2 -5 3 6 1 11 -2 30 -4 42 -4 12 0 38 -14 56 -30 19
-17 42 -30 51 -30 13 0 16 -7 12 -33 -11 -63 -38 -376 -34 -394 2 -10 16 101
31 247 25 236 26 266 12 276 -8 6 -15 16 -15 23 0 20 30 12 76 -20 l44 -30 -6
-62 c-3 -34 -14 -159 -23 -277 l-16 -214 -35 -11 c-19 -6 -45 -16 -57 -23 -20
-11 -23 -10 -23 3 0 19 -4 19 -46 -1 l-34 -16 0 -78 c0 -43 -3 -85 -6 -94 -5
-13 1 -16 29 -16 34 0 36 2 41 43 4 23 7 62 9 86 l2 44 70 24 c39 13 72 28 73
33 2 6 10 10 18 10 13 0 15 -19 12 -120 l-3 -120 28 0 27 0 0 382 c0 341 -2
383 -17 400 -15 17 -15 18 0 18 15 0 17 22 17 216 l0 216 -43 40 c-23 22 -31
33 -17 24 64 -41 60 -44 60 39 0 75 -3 81 -35 69 -13 -5 -14 -8 -3 -15 10 -7
11 -12 1 -28 -11 -17 -10 -19 2 -15 8 4 15 1 15 -5 0 -6 -13 -10 -28 -9 -35 2
-52 -8 -52 -33 0 -11 -7 -19 -16 -19 -13 0 -15 7 -10 31 3 17 6 53 6 79 0 44
2 48 33 58 32 10 32 10 5 11 -25 1 -28 5 -28 35 0 29 3 33 20 29 26 -7 26 13
1 27 -15 7 -43 4 -110 -12 -50 -12 -91 -26 -91 -30 0 -10 3 -10 88 6 l72 14 0
-27 c1 -69 -55 -627 -63 -632 -12 -9 -177 -43 -182 -38 -2 2 5 112 16 244 10
132 18 256 17 275 -1 46 -12 -66 -38 -380 -12 -140 -24 -258 -28 -262 -4 -3
-66 -25 -139 -48 -150 -47 -135 -30 -148 -173 l-7 -67 -48 37 c-48 37 -49 39
-44 83 2 25 18 205 34 400 30 350 45 498 52 505 1 2 89 17 193 35 105 18 201
38 215 46 34 18 22 17 -100 -6 -58 -11 -121 -18 -140 -16 -19 3 -53 2 -75 -2
-35 -7 -46 -4 -83 23 l-44 30 59 12 c32 6 114 23 183 37 69 13 134 27 145 31
15 4 34 -7 73 -41 29 -25 55 -44 58 -41 3 3 -20 25 -51 48 -75 56 -54 62 27 9
35 -23 55 -34 46 -23 -15 16 -18 38 -18 113 0 90 1 92 18 77 27 -25 45 -21 60
13 20 45 46 47 94 6 23 -20 44 -33 47 -30 3 3 -16 25 -44 49 -39 35 -52 41
-58 29 -4 -8 -17 -14 -28 -14 -30 0 -61 -19 -53 -33 4 -7 -2 -3 -14 7 -30 27
-28 32 21 44 93 24 105 25 137 2 36 -26 52 -19 25 10 -17 19 -17 24 0 122 9
57 15 120 13 141 l-3 39 -35 -24 -35 -24 -7 -108 c-6 -108 -13 -125 -47 -126
-11 0 -12 15 -8 77 6 68 11 247 8 279 -1 6 -25 28 -53 48 l-53 36 10 262 10
263 109 44 c60 25 105 46 99 48 -6 2 -57 -14 -114 -37 -57 -22 -107 -40 -112
-40 -4 0 -4 60 -1 134 7 128 6 134 -14 145 -11 6 -19 18 -17 28 2 10 6 32 9
50 l5 31 -62 -20 c-34 -12 -63 -22 -65 -23 -2 -2 -7 -34 -11 -72 l-8 -68 -2
85 -1 85 133 48 c72 26 140 47 150 47 34 0 16 -18 -40 -40 -102 -40 -80 -41
38 -1 l114 38 3 50 c3 49 2 50 -40 78 l-43 28 43 15 42 14 0 265 c0 241 -2
267 -17 279 -17 13 -17 14 0 8 23 -8 21 5 -5 34 l-23 25 23 -12 c21 -11 22
-10 22 28 l0 40 -37 -16 c-47 -19 -53 -28 -53 -78 0 -22 -5 -47 -10 -55 -7
-11 -10 -3 -10 28 0 29 -4 41 -11 36 -6 -3 -9 -22 -7 -40 4 -35 -8 -44 -30
-22 -9 9 -12 8 -12 -5 0 -9 5 -17 10 -17 6 0 10 -16 10 -36 l0 -36 -39 33
c-25 22 -37 39 -33 49 5 15 19 169 21 243 1 26 6 39 19 44 36 12 182 82 182
87 0 2 -46 -15 -102 -40 -113 -49 -114 -49 -181 4 l-38 31 98 46 c163 78 167
79 197 60 23 -15 26 -15 26 -2 0 9 -4 18 -9 21 -5 4 -7 78 -5 171 4 164 4 166
-16 155 -19 -10 -20 -21 -20 -160 0 -137 -2 -150 -19 -160 -11 -5 -23 -10 -27
-10 -3 0 -3 79 1 176 l7 176 -27 28 -27 28 24 7 c12 4 44 16 70 27 l48 20 -2
77 -2 76 -3 -72 -4 -72 -77 -30 -77 -29 -7 -49 c-3 -26 -9 -109 -13 -184 l-7
-136 -54 -26 c-54 -27 -54 -27 -52 -69 3 -36 -1 -44 -24 -57 -23 -13 -28 -13
-43 -1 -15 13 -17 26 -11 101 6 83 6 86 -17 96 -17 8 -24 8 -25 0 -1 -7 -5
-39 -10 -72 l-9 -60 -2 53 c0 29 6 69 15 90 11 23 23 112 35 242 25 282 25
270 -10 270 -33 0 -30 16 -50 -259 -6 -85 -15 -139 -23 -147 -7 -7 -37 -22
-65 -33 l-53 -21 0 30 c0 20 -8 35 -25 46 -14 9 -25 24 -25 33 0 9 -7 30 -16
46 -13 25 -14 52 -8 168 l7 137 -146 0 -145 0 -17 -97 c-51 -286 -128 -695
-155 -818 -17 -77 -34 -155 -37 -172 -6 -38 -17 -49 -57 -59 -24 -6 -28 -4
-23 12 20 71 218 1115 214 1128 -2 6 -28 -113 -57 -264 -132 -689 -170 -873
-180 -885 -6 -7 -31 -20 -57 -30 -66 -26 -83 -43 -83 -87 0 -24 -5 -38 -12
-38 -10 0 -9 -3 1 -9 15 -10 7 -81 -9 -81 -9 0 -21 27 -19 43 1 5 -11 22 -26
37 l-27 28 37 294 c65 510 84 672 85 700 0 28 -4 32 -135 103 l-70 39 64 28
c35 16 70 27 78 24 7 -3 28 -28 45 -56 17 -28 32 -49 33 -48 1 2 5 49 8 106
l5 102 -139 -1 -139 0 0 -52 c0 -82 -18 -229 -29 -240 -6 -6 -22 -2 -46 13
-35 22 -38 22 -71 7 l-34 -17 7 145 c4 97 3 145 -4 145 -7 0 -12 -55 -15 -146
-3 -110 -8 -148 -18 -154 -8 -5 -18 -6 -22 -4 -4 3 -8 1 -8 -4 0 -6 -7 -13
-15 -16 -14 -5 -15 13 -9 159 5 122 4 165 -4 165 -9 0 -12 -49 -12 -170 0
-144 -2 -170 -15 -170 -13 0 -15 -24 -15 -153 l0 -153 -46 -23 -47 -22 7 128
c7 143 16 587 11 533 -2 -19 -9 -178 -16 -352 l-12 -317 -44 -16 c-47 -18 -51
-26 -56 -115 -2 -30 -5 53 -7 185 -4 208 -5 220 -7 88 -3 -145 -5 -153 -23
-153 -11 0 -20 7 -20 16 0 8 -4 12 -10 9 -6 -4 -7 88 -3 262 5 244 1 374 -14
359 -3 -3 -24 10 -46 29 l-41 35 -113 0 c-99 0 -120 -3 -178 -27 -84 -34 -77
-41 10 -9 l68 25 110 -87 c60 -48 119 -94 130 -103 20 -16 18 -18 -74 -64 -90
-46 -218 -95 -246 -95 -12 0 -267 204 -291 233 -9 11 -1 18 40 38 93 43 130
89 72 89 -20 0 -24 -4 -19 -18 4 -15 -8 -27 -53 -55 -33 -20 -65 -43 -72 -52
-28 -34 -40 -18 -40 55 0 54 -3 70 -14 70 -11 0 -13 -9 -9 -35 3 -21 1 -41 -7
-50 -12 -14 -15 -14 -31 1 -10 9 -16 21 -13 26 3 5 3 20 0 34 -6 21 -12 24
-52 24 -29 0 -51 -6 -62 -17 -16 -16 -17 -16 -20 0 -3 14 -16 17 -83 17 l-79
0 0 -59 c0 -59 0 -60 -40 -82 l-39 -22 5 -146 c2 -80 6 -181 9 -223 2 -43 2
-78 -1 -78 -3 0 -18 8 -32 18 -42 29 -56 36 -49 25 6 -10 -82 -58 -90 -49 -3
3 -9 137 -14 298 -4 161 -8 299 -8 306 -1 6 -6 12 -13 12 -8 0 -9 -32 -4 -122
16 -260 23 -503 15 -512 -16 -18 -22 4 -30 116 -4 62 -13 169 -18 238 -6 69
-11 160 -11 203 l0 77 -145 0 -145 0 5 -67 c2 -38 7 -104 10 -148 l5 -80 -40
-22 c-22 -12 -41 -21 -41 -20 -1 1 -5 79 -9 172 l-6 170 -2 -148 -2 -148 -59
40 c-66 45 -71 57 -71 177 0 68 -2 74 -21 74 -18 0 -20 -5 -18 -47 3 -39 0
-48 -14 -51 -14 -3 -17 5 -17 47 0 28 -3 51 -7 50 -12 0 -179 -88 -170 -88 4
-1 43 17 87 39 l80 40 0 -32 c0 -18 3 -49 6 -68 l5 -35 -98 -50 c-53 -27 -101
-51 -105 -53 -5 -2 -8 19 -8 46 0 27 -3 83 -6 125 l-7 77 -54 0 -55 0 7 -107
c4 -60 11 -157 16 -218 15 -188 15 -190 -28 -208 -21 -8 -39 -14 -40 -13 0 0
-13 87 -27 191 -15 105 -31 201 -37 215 -5 14 -26 35 -47 45 -45 24 -52 32
-52 68 l0 27 -96 0 c-52 0 -93 -4 -90 -8z m2694 -66 c23 -25 42 -51 42 -57 0
-13 -63 39 -97 79 -55 64 -7 45 55 -22z m1389 -8 c-2 -13 -4 -3 -4 22 0 25 2
35 4 23 2 -13 2 -33 0 -45z m70 10 c-2 -13 -4 -5 -4 17 -1 22 1 32 4 23 2 -10
2 -28 0 -40z m-2244 -34 c36 -27 66 -52 67 -56 0 -4 -10 -10 -22 -13 -13 -4
-69 -29 -125 -57 l-102 -49 -4 -132 -3 -132 -1 140 -1 140 -73 48 c-41 27 -75
50 -77 51 -6 7 244 115 259 112 9 -2 46 -25 82 -52z m816 -74 c2 -10 -7 -7
-25 10 -39 33 -83 83 -84 94 0 13 105 -87 109 -104z m851 45 l0 -29 -29 34
c-29 34 -29 35 -8 41 26 7 37 -6 37 -46z m-3346 36 c8 -12 -50 -35 -64 -26 -8
5 -5 11 7 21 21 15 49 18 57 5z m546 -23 c0 -28 -13 -58 -24 -58 -15 0 -178
-87 -229 -122 l-39 -26 57 -43 58 -43 57 32 57 31 7 -57 c4 -31 9 -117 12
-190 5 -128 0 -169 -16 -142 -17 28 -29 -5 -35 -100 -5 -66 -12 -104 -22 -111
-25 -21 -34 4 -44 135 -11 126 -11 128 12 152 28 30 34 30 64 0 14 -14 27 -21
30 -16 5 8 -72 70 -88 70 -5 0 -7 -6 -4 -14 3 -8 -5 -19 -18 -26 -21 -11 -33
-7 -114 39 -50 29 -93 56 -95 60 -3 5 6 13 21 20 21 9 29 9 42 -2 27 -25 134
-90 127 -78 -4 6 -34 29 -67 51 -55 38 -59 44 -59 79 0 21 -3 65 -6 98 l-7 61
49 36 c27 20 97 61 156 90 62 32 101 57 92 60 -21 8 -17 26 6 26 11 0 20 -6
20 -12z m-518 -13 c0 -5 -20 -21 -45 -34 -45 -22 -48 -23 -72 -7 -36 23 -27
42 18 38 20 -2 44 1 54 7 21 12 44 10 45 -4z m3948 -24 c0 -4 -11 -13 -25 -19
-19 -9 -23 -8 -19 2 3 7 -2 20 -10 29 -8 8 -12 17 -9 20 7 8 63 -21 63 -32z
m-3922 -113 c7 -62 17 -185 24 -272 l11 -159 -29 -25 c-27 -23 -27 -24 -3 -9
l27 16 6 -62 c3 -34 9 -95 12 -136 l7 -73 -24 7 c-13 4 -25 8 -27 10 -1 1 -7
37 -12 81 -5 43 -17 113 -25 154 -17 87 -45 309 -45 358 0 24 -7 40 -25 54
-21 16 -25 28 -25 71 l0 52 48 22 c26 11 52 22 58 22 7 1 15 -42 22 -111z
m3813 69 c-7 -7 -22 -4 -45 8 -29 16 -37 17 -50 6 -9 -8 -16 -9 -16 -4 0 6 10
14 22 20 28 12 105 -14 89 -30z m139 -25 l0 -59 -40 -18 c-23 -10 -43 -22 -46
-27 -7 -11 67 19 81 33 13 13 45 11 45 -3 0 -14 -189 -89 -202 -81 -10 5 -9
98 1 132 5 17 24 30 76 52 39 15 73 28 78 28 4 1 7 -25 7 -57z m-2033 -90 c59
-46 104 -76 106 -69 3 8 8 9 15 2 12 -11 22 -1355 11 -1355 -4 0 -12 7 -19 15
-9 11 -9 30 0 82 12 74 11 153 -2 153 -4 0 -9 -39 -10 -87 0 -49 -5 13 -9 136
-5 140 -13 228 -20 237 -6 8 -58 43 -114 79 l-103 66 -6 112 c-3 62 -7 259 -9
440 l-3 327 30 -28 c17 -16 77 -65 133 -110z m-1351 58 c65 -47 80 -61 82 -86
2 -19 -3 -36 -12 -44 -9 -7 -16 -21 -16 -32 0 -14 -20 -28 -75 -54 -68 -33
-74 -38 -70 -62 11 -75 13 -139 5 -152 -5 -8 -10 -10 -10 -5 0 6 -7 89 -15
185 -13 162 -15 176 -36 190 -68 45 -68 45 -11 74 29 14 52 29 52 31 0 3 -27
-8 -60 -25 -33 -17 -60 -27 -60 -22 0 12 102 61 126 59 12 -1 57 -26 100 -57z
m3144 -11 c0 -53 -2 -60 -15 -49 -9 7 -13 22 -10 36 3 13 7 35 10 49 9 42 15
28 15 -36z m23 14 c1 -22 9 -45 19 -54 11 -10 16 -23 12 -33 -6 -16 -8 -16
-25 0 -15 13 -19 31 -19 77 0 65 11 74 13 10z m-1306 -400 c-4 -223 -7 -533
-7 -687 l0 -281 -103 -40 c-98 -39 -102 -41 -105 -72 -2 -19 -9 -33 -16 -33
-10 0 -14 86 -20 408 -5 331 -9 923 -7 980 1 11 230 129 255 131 6 1 7 -162 3
-406z m-2009 322 c6 -5 -95 -55 -110 -55 -14 0 -88 50 -88 59 0 4 23 21 51 38
l51 31 47 -35 c25 -19 48 -37 49 -38z m489 42 c18 -12 33 -24 33 -27 -1 -3
-39 -23 -85 -44 l-84 -39 -41 28 c-22 15 -40 31 -40 34 0 4 30 20 68 35 37 16
71 33 77 38 11 10 29 4 72 -25z m490 -119 c-2 -29 -3 -6 -3 52 0 58 1 81 3 53
2 -29 2 -77 0 -105z m1615 86 c99 -58 101 -75 14 -117 -46 -22 -65 -26 -81
-19 -44 20 -166 104 -160 110 13 13 120 70 134 71 8 0 50 -20 93 -45z m-1483
22 c8 -9 11 -86 9 -257 l-3 -244 -8 240 c-4 132 -12 248 -17 258 -12 20 3 23
19 3z m-52 -43 c-3 -10 -5 -4 -5 12 0 17 2 24 5 18 2 -7 2 -21 0 -30z m-1747
17 c17 -11 17 -11 -35 -39 -25 -14 -31 -20 -15 -16 63 16 64 16 98 -31 29 -40
34 -57 42 -137 7 -79 8 -73 3 48 -4 104 -9 142 -19 148 -16 9 -19 37 -5 37 5
0 17 -7 26 -16 8 -9 24 -14 34 -11 10 2 23 2 29 -2 6 -3 20 -98 32 -209 24
-225 25 -219 -41 -252 -30 -16 -36 -23 -32 -43 4 -18 0 -26 -16 -30 -24 -6
-28 11 -8 32 10 11 10 13 0 7 -8 -5 -13 -1 -13 11 0 32 -21 298 -26 331 -4 27
-16 40 -59 67 -30 19 -57 35 -60 35 -3 0 -4 -30 -1 -67 17 -217 18 -267 3
-255 -15 13 -17 28 -36 207 -6 55 -13 115 -15 133 -4 25 -1 32 12 32 9 1 28 7
42 15 30 17 40 18 60 5z m4021 -43 l57 -40 82 32 c45 17 85 31 90 31 5 0 22
-14 39 -31 49 -48 36 -71 -57 -104 -42 -15 -92 -35 -110 -46 -40 -23 -50 -24
-74 -3 -19 18 -23 14 -30 -29 -2 -14 -12 -10 -52 26 l-50 43 13 87 c9 60 17
85 25 80 6 -4 36 -24 67 -46z m-2790 30 c-1 -4 -1 -16 -1 -28 0 -15 -17 -28
-72 -55 -82 -39 -74 -39 24 1 38 15 65 32 62 37 -4 6 2 8 12 6 21 -4 31 -59
33 -185 1 -58 -2 -74 -16 -83 -15 -9 -13 -10 10 -5 19 4 27 1 27 -9 0 -15 148
-131 157 -123 2 3 -29 32 -71 65 l-76 60 69 36 c38 20 73 36 77 36 5 0 42 -25
82 -55 l74 -54 -54 -34 c-29 -19 -62 -39 -73 -45 -11 -6 -15 -12 -8 -12 6 0
40 16 75 36 75 43 91 38 98 -30 7 -55 3 -60 -87 -105 l-63 -31 2 -113 2 -112
3 108 4 107 88 45 89 44 6 -31 c3 -17 6 -81 6 -144 l0 -113 50 -28 c47 -26 50
-30 50 -68 0 -36 -3 -42 -30 -52 l-30 -11 0 52 c0 29 -6 61 -14 72 -13 17 -14
14 -6 -26 8 -44 30 -671 30 -856 l0 -92 -92 -39 c-90 -39 -93 -40 -96 -19 -1
11 -7 71 -11 131 l-9 110 1 -135 c2 -118 0 -135 -14 -138 -15 -3 -18 18 -24
185 -4 103 -11 211 -15 238 -19 119 -56 285 -63 285 -5 0 -6 -3 -4 -7 3 -5 7
-86 8 -182 l4 -173 -50 -26 c-27 -14 -65 -31 -82 -39 -31 -12 -33 -12 -33 7 0
15 19 29 71 56 51 25 68 39 61 46 -8 8 -30 2 -79 -19 -37 -17 -73 -28 -80 -26
-9 4 -13 35 -13 113 l0 108 -80 58 c-44 31 -80 60 -80 64 0 3 27 19 59 35 l59
28 32 -23 c21 -15 28 -25 20 -30 -7 -5 9 -21 46 -43 83 -53 88 -34 6 23 -20
14 -22 26 -31 269 -6 140 -9 257 -6 259 2 2 41 -27 87 -65 46 -38 101 -83 124
-101 l41 -31 12 -363 c7 -200 15 -365 18 -368 3 -3 3 72 -1 165 -3 94 -9 276
-13 405 -4 129 -9 222 -11 207 -3 -28 -4 -28 -23 -11 -17 15 -19 34 -21 198
l-2 181 -3 -173 c-2 -102 -7 -172 -13 -170 -5 2 -41 31 -80 66 l-70 63 -1 127
c0 70 -4 147 -8 172 -8 44 -9 43 -10 -24 -1 -66 -2 -68 -19 -53 -24 22 -25 22
-111 -13 -88 -36 -91 -36 -92 -7 0 17 -2 19 -7 5 -6 -14 -19 -9 -89 35 -70 44
-83 56 -83 79 l0 27 78 -49 c42 -28 82 -50 87 -50 6 0 9 20 7 48 l-4 48 -89
54 c-74 45 -89 58 -89 80 0 14 -3 35 -6 48 -9 32 10 28 55 -13 42 -38 57 -44
47 -19 -4 10 5 6 25 -10 38 -32 57 -33 53 -3 -2 12 -5 44 -7 70 l-5 48 87 44
c82 42 103 49 102 32z m396 -124 c-2 -27 -3 -5 -3 47 0 52 1 74 3 48 2 -27 2
-69 0 -95z m387 -244 l6 -335 -25 -22 c-14 -12 -27 -22 -29 -22 -2 0 -7 89
-10 198 -3 108 -9 268 -12 354 l-5 157 28 14 c21 11 30 12 34 4 4 -7 9 -163
13 -348z m-1029 267 c18 -14 38 -26 44 -26 6 0 11 -14 11 -30 l0 -30 -35 22
c-19 13 -35 28 -35 35 0 6 -14 23 -31 36 l-32 25 19 25 19 25 3 -28 c2 -18 15
-38 37 -54z m2472 2 c-2 -13 -4 -5 -4 17 -1 22 1 32 4 23 2 -10 2 -28 0 -40z
m-1700 -160 c-1 -40 -3 -10 -3 67 0 77 1 110 3 73 2 -37 2 -100 0 -140z m1374
155 l91 -48 -7 -224 c-4 -123 -9 -230 -12 -237 -3 -7 -29 -24 -58 -38 l-54
-24 -41 39 -42 40 11 232 c6 128 11 249 11 270 0 20 2 37 6 37 3 0 46 -21 95
-47z m200 -229 c-27 -309 -27 -365 -1 -389 33 -29 24 -41 -47 -62 l-68 -20
-35 28 c-19 15 -48 39 -64 52 l-30 24 65 34 64 34 11 240 c7 132 12 243 13
248 1 7 103 56 109 52 2 -2 -6 -110 -17 -241z m1133 169 c-2 -43 -7 -88 -10
-101 -5 -23 -5 -23 -57 14 -70 50 -72 52 -51 51 10 -1 20 6 22 15 3 13 -1 16
-15 12 -10 -3 -2 4 17 16 30 18 23 20 -17 3 -7 -3 -13 1 -13 8 0 13 87 56 117
58 9 1 11 -19 7 -76z m-1017 -35 c-2 -13 -4 -5 -4 17 -1 22 1 32 4 23 2 -10 2
-28 0 -40z m-1770 -110 c-2 -29 -3 -6 -3 52 0 58 1 81 3 53 2 -29 2 -77 0
-105z m2620 42 l-14 -55 -84 -37 c-46 -20 -86 -37 -90 -37 -3 -1 -2 29 2 67 5
37 8 75 8 84 1 12 26 24 94 45 90 28 92 28 95 8 2 -11 -3 -45 -11 -75z m-324
54 c26 -20 47 -42 47 -48 0 -6 -13 -22 -30 -36 -27 -22 -31 -34 -39 -100 -7
-66 -9 -70 -12 -30 -1 25 -3 56 -4 70 0 16 -9 29 -23 35 -13 6 -20 16 -17 23
3 8 8 38 11 68 4 30 10 54 14 54 4 0 28 -16 53 -36z m-3514 -84 c55 -34 102
-68 105 -78 2 -9 7 -66 11 -127 3 -60 8 -126 11 -145 2 -19 1 -28 -2 -20 -3 8
-8 22 -11 30 -3 8 -5 22 -4 30 1 9 -7 16 -19 17 -11 1 -27 9 -36 17 -8 9 -22
16 -30 16 -8 0 -12 5 -9 10 3 6 1 10 -4 10 -6 0 -11 -4 -11 -9 0 -17 -39 -19
-44 -2 -5 15 -8 119 -5 185 1 18 -5 32 -17 39 -35 20 -64 56 -58 71 3 9 10 16
15 16 4 0 53 -27 108 -60z m2978 -2 c-2 -13 -4 -3 -4 22 0 25 2 35 4 23 2 -13
2 -33 0 -45z m-2467 5 c73 -44 79 -51 80 -81 0 -38 0 -37 -100 27 -30 19 -55
35 -56 36 -4 1 -12 65 -8 65 3 0 41 -21 84 -47z m667 0 c-3 -10 -5 -2 -5 17 0
19 2 27 5 18 2 -10 2 -26 0 -35z m-784 -101 c9 -18 8 -25 -3 -32 -19 -12 -28
17 -28 90 l0 55 10 -45 c5 -25 15 -55 21 -68z m3555 73 c2 -17 -20 -30 -140
-82 -142 -62 -143 -63 -162 -43 -11 11 -18 22 -15 25 15 14 277 123 294 122
12 -1 21 -10 23 -22z m-4019 -38 c0 -21 -1 -21 -9 -2 -12 28 -12 37 0 30 6 -3
10 -16 9 -28z m3038 -29 c-2 -13 -4 -3 -4 22 0 25 2 35 4 23 2 -13 2 -33 0
-45z m-2636 -18 c29 0 23 -33 -9 -57 -25 -19 -31 -19 -55 -7 -32 17 -35 44 -7
62 11 7 20 20 21 30 0 14 3 13 16 -5 8 -13 24 -23 34 -23z m3609 24 c0 -9 -27
-27 -70 -46 -39 -17 -69 -33 -67 -35 2 -2 34 10 71 26 58 27 66 28 66 13 0
-13 -33 -33 -115 -71 -64 -30 -114 -56 -111 -58 3 -3 192 78 219 94 4 2 7 -2
7 -9 0 -8 -24 -25 -52 -40 l-53 -25 3 -52 c3 -41 1 -51 -11 -51 -9 0 -50 -16
-92 -35 l-77 -35 6 73 c4 39 8 91 9 114 l2 41 125 56 c69 30 128 55 133 56 4
0 7 -7 7 -16z m-3346 -124 c4 -4 7 -13 5 -19 -6 -18 -139 69 -139 90 0 16 10
12 63 -22 34 -22 66 -44 71 -49z m2363 18 c-2 -13 -4 -3 -4 22 0 25 2 35 4 23
2 -13 2 -33 0 -45z m-2537 28 c0 -13 3 -44 6 -69 6 -40 4 -46 -16 -52 -15 -5
-26 -2 -31 6 -13 21 -11 113 3 127 19 19 38 14 38 -12z m-665 -225 c-3 -8 -13
-11 -25 -8 -11 3 -18 1 -14 -4 3 -5 1 -9 -4 -9 -5 0 -12 28 -16 63 -4 34 -9
83 -12 108 -6 43 -5 47 27 67 l34 21 7 -112 c4 -62 6 -118 3 -126z m1552 207
c-3 -7 -5 -2 -5 12 0 14 2 19 5 13 2 -7 2 -19 0 -25z m-740 -59 c41 -23 43
-26 43 -72 0 -35 -4 -47 -12 -44 -7 2 -13 17 -14 33 -1 41 -5 47 -79 90 -39
24 -65 46 -65 56 0 15 7 13 43 -11 23 -16 61 -39 84 -52z m244 71 c11 -6 19
-21 19 -36 0 -20 -9 -29 -45 -45 l-45 -20 -49 28 -50 27 62 27 c71 31 81 33
108 19z m3179 6 c0 -2 -7 -9 -15 -16 -12 -10 -15 -10 -15 4 0 9 7 16 15 16 8
0 15 -2 15 -4z m50 -6 c8 -5 11 -10 5 -10 -5 0 -4 -4 4 -9 10 -7 11 -13 2 -30
-8 -14 -8 -21 -1 -21 5 0 10 7 10 15 0 21 15 19 45 -7 l25 -23 -10 -129 c-5
-72 -13 -133 -17 -137 -5 -4 -48 -20 -98 -35 -49 -15 -85 -29 -79 -31 5 -2 49
10 97 26 80 26 87 27 87 11 0 -14 -18 -23 -72 -40 -40 -12 -90 -25 -110 -27
-33 -5 -38 -9 -37 -32 0 -22 2 -23 8 -7 5 14 35 27 107 47 54 16 100 28 102
29 2 0 2 -7 0 -17 -2 -11 -35 -27 -98 -49 -52 -18 -85 -33 -72 -33 12 -1 50
10 84 24 72 29 78 30 78 10 0 -9 -9 -15 -23 -15 -13 0 -39 -12 -58 -26 -19
-14 -48 -32 -65 -40 -31 -13 -32 -17 -43 -101 -18 -132 -20 -130 -14 17 6 159
-7 168 -31 20 -15 -92 -15 -93 -11 -25 2 39 7 104 11 146 5 64 4 77 -10 82
-14 5 -16 -3 -16 -59 l0 -66 -39 33 -38 34 5 65 c2 36 6 67 8 69 2 2 28 -15
58 -38 30 -22 59 -41 64 -41 5 0 14 55 20 122 10 103 15 125 31 138 20 14 18
16 -34 49 -59 37 -65 46 -37 54 9 3 35 12 57 20 27 10 44 12 52 5 8 -6 18 -6
30 2 14 9 15 10 1 6 -22 -6 -30 4 -17 21 13 15 19 16 39 3z m-3680 -73 c0 -60
-3 -74 -19 -84 -17 -11 -19 -7 -25 60 -6 61 -4 74 11 84 29 22 33 15 33 -60z
m-74 35 c14 -9 27 -129 15 -136 -16 -10 -28 19 -34 82 -7 61 -3 69 19 54z
m214 -50 l22 -18 -91 -42 c-51 -23 -97 -42 -104 -42 -20 0 16 29 74 59 36 19
53 33 51 45 -4 21 20 20 48 -2z m222 -106 c2 -45 2 -83 1 -85 -1 -1 -20 7 -41
19 -44 25 -52 45 -52 136 l0 54 44 -22 45 -21 3 -81z m2225 77 c-3 -10 -5 -2
-5 17 0 19 2 27 5 18 2 -10 2 -26 0 -35z m-2119 -10 c-2 -28 -7 -37 -18 -34
-50 12 -49 16 -37 -129 7 -80 7 -84 -9 -68 -14 14 -18 41 -22 127 l-5 110 34
15 c54 23 61 21 57 -21z m-268 -42 c0 -25 9 -156 19 -291 11 -135 23 -301 26
-370 l7 -125 -90 -41 -90 -42 -6 72 c-4 39 -7 87 -9 106 -2 28 -10 39 -42 61
-39 27 -40 28 -46 101 l-5 73 -2 -73 -2 -73 -29 20 c-23 17 -29 30 -34 73 -3
29 -15 150 -27 268 -12 118 -26 223 -31 233 -10 18 -5 37 10 37 5 0 31 -18 58
-39 l49 -40 110 53 c60 29 115 51 122 48 7 -2 12 -23 12 -51z m2011 0 c31 -26
34 -33 31 -68 -3 -33 -8 -40 -35 -49 -18 -6 -40 -14 -49 -18 -13 -6 -32 6 -73
45 -30 28 -55 55 -55 59 0 8 109 58 130 59 9 1 31 -12 51 -28z m366 -28 c-3
-10 -5 -4 -5 12 0 17 2 24 5 18 2 -7 2 -21 0 -30z m893 -14 c0 -27 -6 -33 -53
-54 -47 -22 -57 -23 -85 -13 -18 7 -32 16 -32 20 0 9 137 76 158 77 7 1 12
-11 12 -30z m-3876 -71 c-3 -5 2 -8 10 -8 8 0 19 -7 24 -16 5 -9 12 -15 16
-13 10 3 126 -53 126 -61 0 -3 -58 -37 -129 -73 -71 -37 -131 -72 -133 -77 -3
-10 -161 81 -195 112 -24 23 -23 32 8 49 18 9 20 8 17 -12 -2 -18 8 -28 57
-55 32 -18 60 -32 62 -30 1 1 -1 25 -6 53 l-8 51 68 33 c38 18 67 34 65 37 -2
2 -31 -10 -65 -27 -33 -17 -65 -31 -71 -31 -6 0 -26 10 -45 23 l-34 23 82 35
82 35 37 -20 c20 -12 34 -24 32 -28z m2529 -23 c26 -17 30 -17 65 -2 20 9 44
18 52 19 8 2 17 9 20 16 5 11 11 10 29 -5 l23 -19 -77 -33 c-76 -34 -77 -34
-112 -17 -20 9 -38 15 -40 12 -6 -6 57 -46 72 -46 6 0 46 18 90 40 l80 39 43
-43 43 -42 -101 -44 c-56 -24 -104 -48 -107 -53 -9 -14 -9 -97 0 -97 4 0 7
-18 7 -40 0 -34 -4 -42 -26 -50 -41 -16 -86 -11 -129 13 -39 22 -40 24 -43 85
-3 62 5 75 28 47 7 -8 17 -15 22 -15 6 0 -2 13 -18 28 -16 15 -32 25 -36 22
-4 -3 -10 -40 -14 -82 l-7 -76 51 -26 c28 -14 66 -26 84 -26 39 0 238 60 238
72 0 10 6 11 -73 -11 l-67 -20 0 88 0 88 88 34 c48 19 95 33 104 32 24 -3 34
34 15 55 -14 16 -11 19 44 36 33 10 62 16 65 14 2 -3 2 -31 -2 -62 l-7 -56
-53 -16 -54 -15 0 -84 0 -84 53 16 c46 13 105 35 159 58 15 6 17 -11 17 -212
0 -120 -3 -249 -7 -287 l-7 -69 -73 -25 c-69 -25 -75 -25 -100 -10 -34 21 -36
32 -27 256 l7 183 64 29 c85 38 82 46 -3 11 l-68 -27 -7 -85 c-4 -46 -11 -144
-15 -218 l-8 -133 -138 -45 c-119 -38 -138 -47 -131 -61 4 -9 10 -41 12 -71
l4 -54 -33 20 -34 19 1 305 2 304 -14 -285 c-7 -157 -11 -291 -8 -299 2 -8
-10 -3 -28 11 -17 14 -34 31 -36 39 -3 11 -1 11 10 -1 7 -8 19 -16 26 -18 19
-3 13 127 -7 151 -13 16 -13 17 1 12 12 -5 15 1 13 27 -2 39 -14 70 -24 63 -5
-2 -13 11 -19 30 l-10 35 28 -20 c16 -11 31 -16 34 -11 3 4 5 36 3 69 -2 54
-5 62 -29 77 -19 11 -28 25 -28 41 0 28 2 29 38 8 23 -14 22 -12 -6 12 -18 16
-32 37 -32 46 0 22 31 28 53 10 9 -8 17 -10 17 -5 0 16 -49 45 -63 37 -7 -4
-9 -3 -4 1 4 5 -3 19 -15 33 -13 13 -23 33 -23 45 0 13 -9 26 -23 32 -22 10
-23 13 -21 147 l1 137 51 20 c48 17 52 18 56 2 2 -9 8 -22 13 -28 7 -9 6 -18
-3 -30 -13 -15 -12 -15 8 -5 20 11 21 14 7 40 -7 15 -14 36 -14 46 0 18 2 17
28 -6 15 -14 40 -33 55 -43z m444 18 c-3 -10 -5 -4 -5 12 0 17 2 24 5 18 2 -7
2 -21 0 -30z m903 22 c0 -20 -75 -54 -102 -47 -17 4 -9 11 38 33 32 15 60 28
62 28 1 1 2 -6 2 -14z m-2180 -60 c39 -25 70 -49 67 -52 -6 -6 -123 62 -132
77 -6 10 -103 -12 -164 -36 -65 -26 -44 -25 34 2 39 13 80 24 92 24 21 0 142
-68 143 -81 0 -4 -35 -25 -77 -48 -43 -22 -72 -41 -65 -41 15 0 126 55 163 81
23 16 29 17 38 5 14 -17 16 -15 -87 -71 l-74 -40 2 -80 c1 -44 4 -121 7 -171
3 -70 1 -93 -10 -102 -15 -13 -15 -17 -33 261 l-7 98 -79 62 c-44 34 -89 67
-100 73 -17 10 -11 15 54 39 40 15 87 34 103 41 37 15 37 16 125 -41z m-2022
-10 c0 -24 3 -57 6 -72 3 -16 17 -143 31 -283 13 -140 27 -267 29 -281 5 -24
-2 -29 -110 -79 -63 -29 -116 -51 -118 -49 -4 4 -13 96 -47 449 -27 293 -35
259 69 305 48 21 91 42 97 47 5 4 17 8 26 8 14 0 17 -9 17 -45z m3876 16 c11
-11 46 -42 76 -68 30 -26 86 -78 123 -114 l68 -65 -61 -18 c-68 -18 -74 -16
-103 33 l-18 30 36 15 c49 21 44 28 -6 11 -58 -21 -59 -20 -59 25 0 38 1 40
21 29 18 -9 17 -5 -7 25 l-29 36 -3 -71 -3 -71 -55 -24 c-30 -13 -59 -24 -64
-24 -6 0 -10 24 -10 53 0 48 -3 54 -37 84 l-38 31 50 22 c28 12 61 26 74 31
13 5 22 12 19 15 -3 2 -54 -13 -114 -35 -60 -21 -128 -42 -151 -46 -24 -4 -46
-12 -50 -17 -4 -8 2 -9 18 -4 13 4 43 11 67 15 37 7 42 6 42 -10 0 -13 -13
-22 -40 -30 -22 -7 -40 -15 -40 -19 0 -6 134 -132 179 -168 l24 -19 -17 -189
c-9 -104 -15 -218 -14 -254 1 -72 1 -77 24 216 l17 211 161 47 c89 26 169 49
179 52 14 5 17 -1 17 -39 l0 -44 -106 -31 c-59 -17 -109 -34 -112 -36 -2 -3
-11 -69 -18 -148 -8 -79 -16 -148 -18 -154 -3 -7 -29 -19 -59 -29 l-55 -17 -8
-97 c-7 -76 -9 -88 -14 -56 -3 22 -9 -59 -13 -180 -10 -282 -35 -627 -48 -639
-12 -13 -11 306 1 599 5 121 21 327 35 459 14 131 25 253 25 271 0 28 -11 44
-72 102 -40 37 -106 100 -148 140 l-75 72 30 11 c43 17 327 99 344 100 7 0 23
-9 35 -19z m-3782 -26 c3 -14 1 -28 -3 -31 -5 -3 -9 9 -9 25 0 38 6 40 12 6z
m415 3 c-3 -8 -6 -5 -6 6 -1 11 2 17 5 13 3 -3 4 -12 1 -19z m533 2 c0 -5 -2
-10 -4 -10 -3 0 -8 5 -11 10 -3 6 -1 10 4 10 6 0 11 -4 11 -10z m60 -66 c0
-19 -2 -34 -5 -34 -10 0 -65 30 -65 36 0 2 14 -3 31 -12 l31 -16 -4 35 c-2 20
0 33 4 31 4 -3 8 -21 8 -40z m-581 -36 c0 -29 3 -64 6 -78 4 -23 -3 -29 -120
-84 -69 -33 -123 -61 -121 -63 2 -2 56 21 120 52 64 30 119 55 122 55 3 0 4
-9 2 -20 -2 -15 -33 -35 -118 -75 -63 -30 -122 -55 -131 -55 -13 0 -17 17 -23
91 -4 50 -6 92 -4 93 5 2 263 134 264 135 1 1 2 -23 3 -51z m1645 -125 c12
-304 12 -366 -1 -370 -10 -4 -13 16 -15 74 l-2 78 -5 -80 -6 -80 -70 -16 -70
-16 -6 106 c-4 58 -8 164 -9 236 l-2 130 83 46 c46 26 87 47 90 48 4 1 10 -70
13 -156z m2421 115 c-12 -55 -45 -66 -45 -15 0 39 6 47 32 47 17 0 19 -5 13
-32z m-3451 7 c3 -8 1 -15 -4 -15 -6 0 -10 7 -10 15 0 8 2 15 4 15 2 0 6 -7
10 -15z m2196 -50 c24 -25 42 -45 39 -45 -3 0 -43 -13 -87 -29 l-82 -30 0 69
c0 73 2 76 60 79 18 1 39 -12 70 -44z m-160 -109 c-7 -7 -10 11 -10 60 0 92
14 106 18 18 2 -38 -2 -72 -8 -78z m297 112 c-3 -7 -5 -2 -5 12 0 14 2 19 5
13 2 -7 2 -19 0 -25z m1161 18 c15 -8 37 -25 49 -38 l22 -23 -119 -34 -120
-33 -35 26 c-43 33 -44 51 -4 65 50 17 58 11 14 -9 -55 -26 -25 -36 46 -16 30
8 66 17 82 20 20 5 27 12 27 31 0 29 2 30 38 11z m-4498 -26 c25 -17 60 -37
78 -45 17 -8 32 -19 32 -24 0 -6 -2 -11 -5 -11 -7 0 -165 101 -165 106 0 10
18 2 60 -26z m1588 -51 c-1 -72 -3 -82 -22 -89 -28 -10 -34 9 -10 28 15 12 15
13 2 9 -20 -7 -28 11 -28 67 0 35 4 45 23 54 12 6 25 11 29 11 4 1 7 -35 6
-80z m2482 -52 c0 -26 -4 -47 -9 -47 -10 0 -21 35 -21 68 0 13 -9 35 -20 49
-31 40 -24 44 15 9 30 -28 35 -39 35 -79z m-4105 73 c3 -6 -1 -7 -9 -4 -18 7
-21 14 -7 14 6 0 13 -4 16 -10z m3483 -29 c15 -11 50 -36 77 -55 28 -19 61
-46 74 -60 l23 -24 -31 -229 c-18 -125 -37 -312 -43 -415 -7 -118 -15 -185
-21 -181 -12 7 -2 488 13 623 l9 85 -47 42 -47 42 -7 -102 c-4 -56 -12 -138
-17 -182 l-10 -80 5 80 c2 44 7 126 11 183 l6 103 -39 42 c-83 89 -86 94 -80
125 7 27 10 29 52 27 29 -2 56 -10 72 -24z m-1690 -48 c46 -36 19 -35 -40 2
-67 42 -90 78 -28 43 22 -13 53 -33 68 -45z m2049 43 c-5 -17 -156 -67 -174
-58 -21 12 -2 25 77 55 64 24 104 25 97 3z m780 -108 c-4 -132 -22 -277 -34
-289 -4 -4 -50 -24 -101 -45 l-94 -37 -28 29 -29 29 12 180 12 179 100 28 c55
15 111 32 125 37 14 5 29 9 33 10 5 1 6 -54 4 -121z m-4612 100 c14 -6 25 -15
25 -20 0 -7 -31 8 -59 29 -10 7 10 2 34 -9z m75 -10 c0 -13 -23 -5 -28 10 -2
7 2 10 12 6 9 -3 16 -11 16 -16z m4177 -25 c-3 -10 -5 -4 -5 12 0 17 2 24 5
18 2 -7 2 -21 0 -30z m-4124 -1 c28 -24 20 -35 -13 -15 -16 9 -30 23 -30 31 0
14 13 9 43 -16z m-93 -17 c0 -10 -16 -4 -40 16 l-25 20 33 -16 c17 -8 32 -18
32 -20z m1713 -15 c31 -19 57 -41 57 -48 0 -13 -112 58 -126 79 -9 15 0 11 69
-31z m-1313 -23 c0 -41 -2 -43 -48 -61 -26 -11 -53 -26 -60 -33 -7 -6 -39 -22
-72 -34 -33 -12 -60 -25 -60 -30 0 -9 14 -4 93 30 40 17 47 18 47 5 0 -19
-141 -87 -154 -73 -5 5 -12 36 -14 69 l-4 60 32 11 c18 7 76 33 129 59 53 26
99 45 104 43 4 -2 7 -23 7 -46z m-290 -12 c0 -13 -5 -12 -34 2 -21 9 -32 21
-29 29 4 11 10 11 34 -2 16 -8 29 -21 29 -29z m4097 -37 c-2 -18 -4 -6 -4 27
0 33 2 48 4 33 2 -15 2 -42 0 -60z m-4217 40 c0 -10 -36 7 -45 22 -4 6 5 5 19
-2 14 -6 26 -15 26 -20z m1590 -26 c0 -48 -12 -72 -37 -72 -18 0 -18 106 0
113 31 13 37 6 37 -41z m176 -28 c16 -13 24 -23 18 -24 -15 0 -124 72 -124 83
0 10 67 -27 106 -59z m812 -261 c-1 -238 -3 -289 -8 -203 -12 185 -11 520 0
520 6 0 9 -111 8 -317z m1477 179 c-4 -71 -10 -135 -14 -141 -4 -6 -62 -28
-130 -50 l-122 -39 7 81 c3 45 9 111 13 146 l6 64 114 33 c62 18 116 36 119
39 12 12 14 -10 7 -133z m-4045 93 c0 -11 -19 -4 -41 15 l-24 21 33 -16 c17
-8 32 -18 32 -20z m31 18 c13 -15 12 -15 -8 -4 -24 12 -29 21 -14 21 5 0 15
-7 22 -17z m74 -17 c11 -8 15 -16 8 -16 -7 0 -25 12 -40 26 -29 26 -6 20 32
-10z m3262 12 c-3 -8 -6 -5 -6 6 -1 11 2 17 5 13 3 -3 4 -12 1 -19z m-3272
-44 l30 -26 -32 16 c-17 9 -35 20 -38 26 -11 18 9 10 40 -16z m363 7 c15 -10
57 -35 94 -55 l66 -36 6 -97 c4 -54 9 -120 12 -146 3 -32 1 -47 -5 -42 -6 3
-24 -1 -40 -10 -17 -8 -32 -15 -35 -15 -3 0 -7 44 -9 98 l-3 97 -1 -105 c0
-122 -2 -124 -85 -87 l-55 25 -6 83 c-4 46 -7 115 -7 152 0 67 0 68 23 57 20
-10 20 -10 5 3 -14 11 -15 17 -5 28 10 11 10 12 -2 2 -10 -9 -21 -8 -47 5 -19
8 -34 18 -34 22 0 5 73 36 93 39 4 0 20 -7 35 -18z m1265 -21 c52 -31 70 -50
49 -50 -15 0 -122 72 -122 82 0 12 2 11 73 -32z m1674 -37 c-2 -16 -4 -3 -4
27 0 30 2 43 4 28 2 -16 2 -40 0 -55z m-40 -35 c-2 -18 -4 -4 -4 32 0 36 2 50
4 33 2 -18 2 -48 0 -65z m-3327 30 c0 -3 -18 3 -40 13 -22 11 -40 24 -40 30 0
5 18 -1 40 -13 22 -13 40 -26 40 -30z m90 2 c0 -6 -18 -1 -40 10 -22 11 -40
25 -40 30 0 6 18 1 40 -10 22 -11 40 -25 40 -30z m4077 -37 c-2 -16 -4 -5 -4
22 0 28 2 40 4 28 2 -13 2 -35 0 -50z m-3837 44 c12 -9 16 -43 19 -155 3 -136
2 -144 -15 -140 -20 3 -20 4 -37 241 -5 69 2 80 33 54z m1360 -24 c55 -35 73
-53 52 -53 -14 0 -122 71 -122 81 0 14 6 12 70 -28z m-1725 -19 c0 -5 4 -15 8
-22 7 -10 3 -10 -18 0 -14 6 -24 17 -21 24 2 6 -1 17 -7 25 -7 8 -2 7 13 -3
14 -8 25 -19 25 -24z m127 -8 c4 -6 5 -12 3 -14 -5 -5 -75 42 -75 51 0 10 63
-22 72 -37z m186 3 c2 -9 -25 -28 -72 -51 -74 -37 -75 -37 -82 -16 -4 12 -3
23 2 25 5 2 36 16 69 32 64 31 78 33 83 10z m671 -25 c27 -25 3 -27 -40 -3
-56 32 -65 54 -12 33 21 -9 44 -22 52 -30z m3679 -2 c42 -32 46 -83 6 -100
-18 -9 -31 -9 -45 -2 -16 9 -19 22 -19 76 0 71 -1 70 58 26z m-2194 12 c3 -9
6 -30 6 -48 0 -29 -5 -34 -54 -58 l-53 -26 -44 44 c-23 24 -41 45 -38 47 6 6
152 55 165 56 7 1 15 -6 18 -15z m923 -51 c-2 -16 -4 -5 -4 22 0 28 2 40 4 28
2 -13 2 -35 0 -50z m-783 42 c-4 -8 -8 -15 -10 -15 -2 0 -4 7 -4 15 0 8 4 15
10 15 5 0 7 -7 4 -15z m1577 -75 l106 -89 -4 -98 c-5 -101 -11 -116 -51 -128
l-24 -7 7 121 c5 73 4 121 -2 121 -12 0 -17 -228 -5 -243 6 -8 5 -128 -3 -337
-7 -179 -13 -326 -14 -327 -1 -2 -8 -3 -16 -3 -8 0 -15 -6 -15 -14 0 -8 8 -13
18 -12 14 1 18 -9 20 -54 3 -45 8 -60 33 -86 17 -18 27 -34 22 -37 -4 -3 -37
-13 -73 -22 -36 -10 -77 -24 -91 -31 -14 -7 -35 -11 -46 -8 -19 5 -20 -1 -27
-148 -3 -84 -9 -199 -13 -255 l-6 -103 24 -1 c21 -1 21 -2 -6 -10 -16 -4 -41
-10 -55 -13 -37 -8 -37 -56 1 -82 15 -10 26 -22 23 -26 -5 -7 -62 23 -104 55
l-25 20 26 -5 26 -5 6 106 c4 58 10 186 13 284 6 160 5 177 -10 177 -9 0 -16
-7 -16 -15 0 -24 -13 -18 -52 23 -48 50 -61 77 -45 90 15 13 228 74 235 68 10
-11 -11 -24 -55 -35 -84 -21 -155 -43 -151 -46 2 -2 46 7 98 20 52 14 96 25
98 25 1 0 2 -18 2 -41 0 -65 24 -43 30 28 5 61 18 88 49 98 13 4 16 14 13 42
-3 27 0 40 14 50 20 15 6 17 -33 7 -18 -5 -23 -14 -23 -40 0 -27 -6 -36 -30
-49 -47 -24 -50 -21 -50 67 0 45 -3 78 -6 75 -4 -4 -6 -37 -5 -74 0 -38 -2
-73 -7 -80 -4 -6 -49 -21 -100 -33 -77 -18 -92 -25 -92 -41 0 -11 -6 -22 -14
-25 -20 -8 -28 -48 -16 -80 7 -17 8 -96 4 -223 l-7 -196 -120 -32 c-66 -18
-133 -40 -150 -48 -17 -8 -32 -13 -34 -11 -2 2 1 57 6 122 6 66 11 142 11 171
l0 52 -98 83 c-55 46 -131 109 -171 142 -40 32 -71 60 -69 61 2 2 55 17 118
33 l115 30 24 -21 24 -22 -17 32 -16 31 -62 -14 c-35 -8 -71 -17 -81 -20 -18
-6 -19 4 -12 243 4 136 10 251 14 255 11 12 201 69 211 63 6 -3 10 -14 10 -24
0 -13 -19 -23 -80 -40 l-80 -24 1 -141 c1 -104 4 -129 10 -96 4 25 8 86 8 136
1 88 2 92 25 98 13 3 32 9 41 12 16 7 17 -3 12 -127 -4 -88 -3 -117 3 -84 4
28 9 87 9 133 1 79 2 83 27 92 14 6 27 10 30 10 3 0 2 -60 0 -132 -3 -81 -2
-121 3 -103 5 17 9 70 10 120 1 76 3 87 15 75 11 -12 11 -60 4 -265 -4 -137
-7 -258 -4 -267 2 -9 -3 -19 -12 -23 -13 -5 -11 -9 7 -29 l23 -24 -29 -16
c-35 -19 -22 -21 15 -2 26 14 30 13 67 -19 l40 -33 -25 -10 c-65 -25 -86 -24
-119 4 -25 21 -29 29 -19 36 10 8 9 9 -3 5 -9 -3 -22 0 -28 6 -8 8 -11 8 -11
0 0 -6 18 -27 41 -48 44 -40 45 -40 145 -14 l51 13 -50 39 c-37 30 -46 41 -36
48 10 6 6 9 -12 9 -24 0 -64 29 -43 30 5 1 29 5 54 10 52 10 77 0 82 -32 2
-17 9 -22 26 -21 13 2 32 -2 43 -7 18 -10 19 -6 20 82 0 51 4 102 8 112 5 12
2 31 -7 49 -8 16 -10 32 -6 37 5 4 62 20 127 36 l117 28 0 46 c0 25 7 95 14
155 8 61 22 201 32 312 16 184 20 203 38 212 19 10 19 11 -4 5 -14 -4 -26 -7
-27 -8 -5 -4 -26 -186 -38 -339 -21 -265 -24 -278 -45 -265 -14 9 -37 7 -94
-5 -42 -9 -82 -17 -89 -17 -9 0 -10 63 -4 287 5 159 10 289 10 290 1 1 14 4
28 8 l26 6 -3 -98 c-4 -114 2 -105 11 18 l7 86 121 39 c96 31 123 43 126 59 3
15 0 17 -10 9 -8 -6 -84 -35 -170 -63 l-156 -52 -7 -187 c-3 -103 -7 -237 -7
-299 l-1 -111 -43 -11 c-39 -10 -43 -14 -49 -48 -3 -21 -6 -67 -7 -103 0 -36
-4 -90 -9 -120 l-7 -55 -2 60 c-3 149 43 824 60 872 7 18 37 31 171 73 236 74
215 62 223 131 4 32 10 59 13 59 4 0 55 -41 113 -90z m-4065 66 c10 -8 16 -17
12 -21 -8 -8 -48 13 -48 25 0 14 13 12 36 -4z m194 -24 c0 -24 -8 -32 -65 -60
-36 -18 -68 -32 -70 -32 -3 0 -5 11 -5 24 0 19 13 30 68 58 37 19 68 36 70 36
1 1 2 -11 2 -26z m-207 -7 c20 -14 37 -28 37 -31 0 -7 -78 35 -85 46 -11 17 9
11 48 -15z m854 -11 c-7 -7 -57 18 -57 28 0 5 14 1 31 -7 17 -9 29 -19 26 -21z
m2390 -46 c-2 -18 -4 -6 -4 27 0 33 2 48 4 33 2 -15 2 -42 0 -60z m-1567 36
c0 -2 -9 0 -20 6 -11 6 -20 13 -20 16 0 2 9 0 20 -6 11 -6 20 -13 20 -16z m0
-37 c0 -5 -8 -6 -17 -3 -10 3 -31 -1 -47 -9 -15 -8 -32 -15 -36 -15 -12 0 -19
39 -9 46 5 3 10 -3 10 -13 1 -17 2 -17 6 0 2 9 11 17 20 17 12 0 13 3 3 15 -7
9 4 6 29 -8 22 -12 41 -26 41 -30z m833 38 c8 -8 16 -12 18 -10 2 2 5 -9 5
-23 1 -15 -1 -21 -3 -14 -3 6 -9 10 -13 7 -5 -3 -16 8 -25 25 -16 32 -7 40 18
15z m-2473 -57 c0 -12 -10 -10 -46 13 -48 29 -42 45 6 18 22 -13 40 -26 40
-31z m-140 32 c0 -5 -4 -10 -9 -10 -6 0 -13 5 -16 10 -3 6 1 10 9 10 9 0 16
-4 16 -10z m320 -14 c0 -24 -49 -61 -114 -86 -24 -9 -26 -7 -26 18 0 24 9 32
63 59 76 39 77 39 77 9z m-285 4 c3 -5 2 -10 -4 -10 -5 0 -13 5 -16 10 -3 6
-2 10 4 10 5 0 13 -4 16 -10z m2052 -21 c8 -15 13 -72 13 -160 0 -116 -2 -138
-16 -143 -25 -10 -32 -7 -37 12 -4 13 -5 13 -6 -4 -1 -13 -9 -24 -21 -27 -19
-5 -20 0 -22 116 l-2 122 -3 -120 c-3 -112 -9 -134 -35 -135 -4 0 -9 39 -11
88 l-3 87 -2 -92 c-2 -76 -5 -93 -17 -93 -37 0 -23 -30 42 -91 121 -114 129
-123 143 -168 13 -39 12 -45 -2 -55 -10 -7 -20 -34 -24 -64 -4 -33 -11 -52
-20 -52 -7 0 -32 26 -55 58 -23 31 -54 68 -69 82 -28 25 -29 28 -43 205 -8 99
-11 210 -8 248 4 37 3 67 -1 67 -10 0 -14 -93 -9 -212 3 -73 0 -89 -13 -94 -9
-3 -16 -14 -16 -24 0 -29 -11 -50 -27 -50 -8 0 -13 8 -12 18 1 9 0 24 -4 32
-3 8 -8 100 -11 203 -4 103 -7 193 -9 199 -2 12 255 80 278 74 6 -1 16 -13 22
-27z m1290 -46 c-2 -16 -4 -5 -4 22 0 28 2 40 4 28 2 -13 2 -35 0 -50z m-3342
14 c46 -34 38 -33 -22 3 -24 14 -43 29 -43 33 0 10 11 4 65 -36z m100 -1 c11
-8 16 -16 12 -16 -14 0 -63 28 -78 46 -13 16 -12 16 16 1 17 -8 39 -22 50 -31z
m794 -14 c76 -42 85 -51 96 -87 l12 -40 -53 -24 -53 -23 -116 76 c-64 42 -113
81 -110 86 3 5 15 15 27 21 14 8 18 8 14 0 -5 -7 -1 -9 8 -5 9 3 13 10 10 15
-3 5 3 6 12 2 13 -5 15 -3 9 7 -5 9 -4 11 3 6 7 -4 20 -2 29 3 25 14 19 16
112 -37z m1421 -43 c0 -14 -3 -12 -55 43 l-50 52 53 -43 c28 -24 52 -47 52
-52z m-51 -8 c-7 -21 -69 32 -69 59 0 24 1 24 36 -12 20 -19 35 -41 33 -47z
m-2302 48 c19 -12 31 -25 26 -30 -5 -5 -53 -29 -108 -53 l-99 -45 -38 21 c-21
12 -38 24 -38 28 0 4 205 98 219 100 2 0 19 -10 38 -21z m323 -14 c0 -32 -4
-37 -59 -65 -50 -25 -60 -27 -65 -14 -14 37 -5 52 52 81 31 17 60 31 65 32 4
0 7 -15 7 -34z m3017 -27 c-2 -13 -4 -5 -4 17 -1 22 1 32 4 23 2 -10 2 -28 0
-40z m-1139 28 c-10 -7 -18 -18 -18 -25 0 -14 -17 -14 -26 1 -8 13 22 38 45
38 14 -1 13 -3 -1 -14z m-2050 -45 c3 -9 -5 -7 -22 4 -14 10 -26 22 -26 27 0
13 43 -15 48 -31z m2322 19 c0 -12 -40 -33 -48 -25 -4 4 2 13 12 21 23 16 36
18 36 4z m-1648 -82 l108 -67 122 55 c172 78 168 77 168 55 0 -23 -283 -154
-318 -147 -47 10 -202 100 -202 118 0 15 9 12 53 -16 69 -44 157 -88 157 -79
-1 5 -49 35 -108 69 -63 36 -108 68 -110 79 -3 12 0 15 10 9 7 -4 61 -38 120
-76z m2545 -5 c-2 -16 -4 -3 -4 27 0 30 2 43 4 28 2 -16 2 -40 0 -55z m-3037
37 c0 -15 -14 -28 -52 -45 -50 -23 -54 -24 -66 -8 -11 15 -6 21 40 45 64 33
78 34 78 8z m2132 -92 c-3 -81 -7 -108 -18 -112 -12 -4 -14 13 -14 104 0 95 2
109 18 112 9 3 17 4 17 4 0 -1 -1 -49 -3 -108z m945 35 c-2 -16 -4 -3 -4 27 0
30 2 43 4 28 2 -16 2 -40 0 -55z m-77 43 c0 -13 -6 -27 -12 -29 -9 -4 -8 -6 3
-6 10 -1 22 -26 38 -79 12 -44 33 -97 46 -120 l23 -41 -51 -19 c-29 -10 -74
-25 -100 -32 -26 -7 -54 -21 -61 -31 -16 -24 -26 -14 -26 25 -1 17 -16 71 -35
120 -18 50 -32 93 -30 96 2 4 43 22 90 40 47 18 84 35 82 37 -2 2 -46 -13 -98
-32 -87 -32 -95 -34 -106 -18 -7 9 -13 20 -13 24 0 6 219 86 243 88 4 1 7 -10
7 -23z m-3412 -41 l22 -16 -25 -38 c-30 -44 -65 -139 -66 -178 l-1 -28 -7 25
c-5 14 -11 71 -15 126 -7 98 -7 101 16 111 32 16 50 15 76 -2z m1316 6 c5 -8
20 -196 30 -382 l5 -96 -39 -16 -39 -15 -4 37 -4 36 -1 -41 c-1 -27 -7 -44
-17 -48 -9 -3 -44 9 -79 26 l-64 31 -7 146 c-4 80 -8 168 -8 195 l-2 49 100
43 c105 45 120 50 129 35z m1832 -22 c4 -8 1 -8 -14 0 -12 6 -24 16 -28 22 -4
8 -1 8 14 0 12 -6 24 -16 28 -22z m-2165 -91 c3 -5 22 -2 42 7 l37 15 0 -29
c0 -23 -6 -31 -30 -40 -27 -9 -30 -8 -30 11 0 12 -3 19 -6 15 -13 -12 -214
100 -214 120 0 12 188 -81 201 -99z m2114 98 c18 -13 19 -23 7 -292 -21 -469
-25 -524 -35 -524 -7 0 -8 85 -4 249 l6 248 -45 44 c-63 61 -188 209 -182 215
8 7 201 72 219 73 8 1 24 -5 34 -13z m-2862 -44 c-32 -17 -55 -22 -77 -18
l-31 6 30 -24 c21 -17 27 -28 19 -35 -16 -17 -42 8 -47 44 -4 29 -1 31 57 50
44 15 66 18 78 10 15 -8 11 -13 -29 -33z m174 -9 c40 -21 73 -40 73 -43 0 -3
-45 -29 -99 -58 l-100 -53 -40 28 c-55 38 -51 59 17 89 l54 24 -4 -49 c-2 -36
0 -47 10 -44 23 9 5 123 -20 123 -5 0 -6 -5 -3 -10 4 -6 -17 -21 -46 -35 -39
-18 -55 -21 -61 -12 -4 7 0 16 10 21 18 11 124 55 132 56 3 0 38 -17 77 -37z
m523 -59 c30 -16 56 -37 58 -47 3 -15 -13 -9 -88 28 -51 25 -94 44 -97 41 -3
-3 38 -26 91 -53 l96 -48 0 -62 c0 -35 -3 -63 -8 -63 -4 0 -39 18 -77 41 -39
22 -79 45 -90 51 -18 9 -19 9 -5 -6 8 -8 51 -35 95 -58 71 -38 80 -47 86 -78
4 -19 6 -36 4 -38 -3 -3 -117 60 -192 105 -22 13 -23 19 -23 143 l0 129 48
-28 c26 -16 72 -42 102 -57z m2242 54 c18 -26 24 -49 27 -112 l3 -79 -36 28
-36 27 0 84 c0 46 4 84 9 84 5 0 20 -15 33 -32z m-2652 -67 c0 -19 15 -262 25
-399 l5 -72 -76 -38 -76 -37 4 -65 3 -65 -55 -26 -55 -27 -6 67 -5 66 -2 -72
c-1 -40 -6 -73 -12 -73 -5 0 -24 -13 -42 -29 l-33 -29 -4 122 c-2 66 -7 153
-12 191 -5 46 -6 2 -3 -130 3 -137 0 -236 -10 -315 -7 -63 -11 -132 -9 -152 3
-24 1 -38 -6 -38 -13 0 -17 16 -36 170 -8 69 -19 159 -24 200 -5 41 -12 126
-15 187 -5 92 -4 112 7 107 11 -4 13 7 9 52 -4 48 -2 56 10 51 9 -3 20 -1 25
4 7 7 21 1 41 -16 29 -24 33 -25 48 -11 12 12 12 16 2 16 -7 0 -38 19 -68 41
-30 23 -64 45 -75 49 -19 7 -18 9 7 20 l28 13 -7 114 c-3 62 -2 113 2 113 5 0
45 -19 89 -41 l81 -42 110 56 c61 30 116 56 123 56 6 1 12 -8 12 -18z m1752
-28 c59 -51 68 -69 41 -77 -16 -4 -15 -5 2 -4 36 1 39 -2 19 -17 -18 -14 -18
-15 0 -8 13 4 17 2 14 -7 -2 -7 -42 -26 -87 -42 l-84 -30 -84 83 c-45 46 -83
86 -83 90 0 6 164 56 192 58 10 0 41 -20 70 -46z m651 -220 c-5 -150 -8 -183
-21 -188 -24 -9 -32 14 -32 103 0 46 -4 91 -9 100 -5 9 -12 71 -15 137 l-7
120 45 -45 44 -45 -5 -182z m-189 211 c26 -15 46 -28 44 -29 -2 -2 -72 -24
-157 -49 -167 -51 -153 -51 -220 2 l-24 19 79 21 c44 12 113 30 154 41 41 10
76 20 76 20 1 1 23 -11 48 -25z m1671 -3 c14 -15 48 -45 77 -65 l53 -36 -7
-83 c-3 -45 -7 -143 -8 -217 -1 -74 -5 -162 -9 -194 l-6 -59 -27 24 -26 24 6
233 c6 181 4 239 -6 258 -7 13 -14 24 -15 24 -1 0 -2 -19 -2 -42 -1 -24 -5
-141 -9 -260 -9 -208 -10 -218 -29 -218 -19 0 -20 5 -13 173 3 94 7 218 7 275
2 103 2 103 -30 136 l-32 33 23 11 c13 6 24 11 26 11 2 1 14 -12 27 -28z
m-2673 -3 c65 -21 68 -23 68 -53 0 -18 3 -79 6 -136 l7 -104 -31 -11 -30 -11
-7 -162 c-4 -89 -11 -164 -16 -167 -5 -3 -9 19 -9 48 0 64 -2 67 -62 101 -42
24 -61 49 -57 73 3 21 -2 35 -11 29 -5 -3 -10 -17 -10 -30 l0 -24 -34 20 c-27
16 -34 27 -39 61 -4 32 -14 49 -39 70 -19 17 -40 26 -50 23 -10 -3 -27 -8 -38
-11 -19 -6 -20 -2 -20 91 l0 97 35 -21 c38 -22 49 -12 13 13 -12 9 -20 17 -17
19 8 6 254 105 263 106 5 0 40 -9 78 -21z m1529 -137 c6 -42 9 -102 6 -133 -3
-32 -1 -60 3 -63 5 -3 11 16 13 42 2 27 4 0 5 -59 2 -80 -1 -108 -10 -109 -10
0 -10 -2 0 -6 19 -8 17 -179 -3 -187 -12 -4 -15 6 -15 59 0 57 -3 66 -25 81
l-24 16 0 261 -1 262 21 -44 c11 -25 25 -79 30 -120z m-2188 67 c4 -46 7 -109
7 -142 0 -51 -2 -57 -17 -51 -10 4 -26 10 -35 12 -13 4 -18 16 -18 42 0 20 -3
73 -7 118 -6 80 -5 83 18 92 43 17 46 14 52 -71z m1761 -70 c3 -57 9 -235 12
-396 6 -247 5 -295 -7 -303 -22 -13 -29 -11 -22 9 6 16 5 16 -14 -1 -32 -28
-195 -78 -210 -65 -8 6 -14 9 -16 7 -34 -59 -38 -58 84 -23 50 14 93 23 96 21
13 -13 -14 -27 -107 -57 -66 -20 -100 -36 -100 -45 0 -8 1 -15 3 -15 1 0 24 7
51 15 63 19 66 19 66 -5 0 -24 -23 -29 -77 -16 -21 4 -28 -3 -24 -26 0 -5 -3
-8 -8 -8 -5 0 -14 -13 -21 -30 -7 -16 -16 -30 -21 -30 -4 0 -10 -42 -12 -92
-1 -51 -3 117 -2 374 l0 467 -25 -6 c-21 -5 -23 -3 -12 8 8 9 12 48 12 121 l0
108 43 11 c23 6 89 25 147 44 58 18 117 33 131 34 l26 1 7 -102z m366 -97 l0
-135 -37 35 -36 34 22 -40 c13 -22 29 -44 37 -48 14 -8 20 -47 7 -47 -4 0 -20
12 -35 27 -15 15 -28 22 -28 17 0 -6 14 -23 30 -39 17 -16 30 -33 30 -39 0 -6
-16 7 -35 27 l-35 37 0 163 c0 89 3 172 6 185 7 23 7 23 40 -9 l34 -33 0 -135z
m-844 85 c3 -13 4 -38 2 -56 -3 -30 -8 -34 -65 -55 l-62 -22 -15 32 c-32 66
-27 77 39 102 78 28 93 28 101 -1z m-1468 -48 c39 -23 72 -44 72 -47 0 -3 -52
-32 -115 -64 l-115 -58 -77 43 c-42 24 -78 48 -80 53 -4 14 208 126 227 119 8
-3 48 -24 88 -46z m2719 -75 c-2 -16 -4 -3 -4 27 0 30 2 43 4 28 2 -16 2 -40
0 -55z m-3511 16 c34 -21 37 -39 7 -39 -20 0 -83 39 -83 51 0 16 42 10 76 -12z
m1008 -43 c124 -68 121 -62 135 -216 22 -239 25 -334 13 -326 -7 4 -12 3 -12
-2 0 -5 -8 -12 -17 -16 -10 -3 -24 -9 -30 -12 -9 -4 -13 3 -13 20 0 14 -4 26
-8 26 -5 0 -7 -13 -4 -29 3 -25 -1 -32 -26 -45 -17 -9 -33 -12 -36 -7 -3 5
-13 98 -22 207 -9 110 -18 201 -21 204 -5 5 -3 -43 14 -301 l6 -102 -51 29
c-29 16 -52 35 -52 42 0 7 -4 54 -9 105 -6 51 -13 126 -16 168 l-6 75 -57 32
c-31 18 -70 43 -86 56 l-29 24 109 56 c60 30 115 55 123 55 8 1 50 -19 95 -43z
m889 28 c9 -4 17 -9 17 -13 0 -3 -41 -20 -90 -37 -87 -29 -91 -30 -107 -12 -9
10 -14 20 -12 22 11 9 155 54 164 50 6 -2 18 -7 28 -10z m367 3 c0 -22 -23
-44 -59 -56 -50 -16 -63 -14 -59 11 2 16 16 26 53 39 62 22 65 22 65 6z
m-2289 -48 c4 -13 7 -37 7 -54 l0 -30 -9 31 c-5 17 -18 39 -29 49 -11 10 -20
27 -20 38 0 18 2 18 22 5 13 -9 26 -26 29 -39z m2377 -214 l-2 -180 -6 181 -5
181 -32 37 c-18 20 -33 40 -33 44 0 4 18 -13 40 -38 l39 -45 -1 -180z m-981
212 c11 -13 23 -41 27 -62 6 -32 36 -81 36 -59 0 3 7 1 15 -6 8 -7 12 -16 9
-21 -3 -5 1 -6 9 -4 7 3 22 -3 32 -15 10 -11 16 -20 14 -20 -21 -1 -219 -89
-211 -94 5 -3 61 14 122 39 105 41 130 46 130 26 0 -12 -221 -93 -236 -87 -11
4 -14 -23 -16 -127 l-3 -132 -9 150 c-7 137 -10 153 -33 183 -15 20 -20 32
-12 30 15 -3 132 42 126 49 -2 2 -24 -5 -49 -16 -82 -35 -137 -13 -138 56 0
23 -20 43 -21 21 0 -7 -4 -4 -9 7 -11 24 -12 41 -3 32 3 -4 11 0 17 8 13 16
131 63 162 64 11 1 30 -10 41 -22z m595 -24 c19 -27 37 -53 41 -59 4 -7 -26
-25 -82 -48 -88 -37 -111 -57 -91 -81 5 -6 6 -16 2 -20 -4 -5 -2 -5 4 -2 7 4
18 0 25 -9 30 -36 55 -35 162 5 56 21 105 37 110 34 4 -2 7 -85 7 -183 l0
-178 -50 -11 c-73 -16 -120 -38 -120 -56 0 -19 36 -52 102 -96 44 -29 50 -30
85 -19 21 7 54 21 74 31 l36 18 7 -67 c3 -37 6 -168 6 -292 0 -124 4 -231 9
-239 9 -13 15 -13 86 5 16 4 17 3 5 -5 -8 -5 -46 -16 -85 -24 -38 -9 -110 -27
-160 -40 -49 -14 -105 -28 -122 -32 -33 -6 -33 -6 -34 32 l-2 38 -6 -40 c-5
-32 -11 -41 -29 -43 l-23 -3 1 295 1 296 -29 25 c-31 26 -48 33 -37 15 11 -18
-1 -11 -21 12 -15 19 -16 20 -1 9 24 -19 21 -8 -4 15 -11 10 -20 14 -19 9 2
-6 2 -17 1 -25 -1 -13 -2 -13 -11 0 -6 10 -4 20 6 31 8 8 11 20 7 24 -5 5 3 2
17 -8 14 -9 44 -29 68 -44 37 -24 43 -32 39 -56 -2 -15 0 -30 4 -32 4 -3 9 11
11 31 4 33 1 37 -64 85 -85 63 -87 79 -13 79 52 0 55 -1 55 -24 0 -30 14 -40
37 -27 17 10 17 10 0 11 -15 0 -17 6 -11 35 6 34 6 35 -24 29 l-30 -6 -9 173
-10 174 -1 -175 -2 -175 -30 -1 c-17 -1 -30 2 -30 5 -1 3 -2 44 -4 91 -4 115
-5 120 -14 118 -5 -2 -21 12 -36 30 -15 17 -32 32 -37 32 -6 0 1 -15 14 -32
14 -18 22 -39 20 -46 -3 -7 5 -24 17 -37 16 -17 24 -41 27 -77 l5 -53 -31 48
c-17 26 -31 57 -31 68 0 12 -14 39 -32 62 -31 38 -33 46 -39 156 -12 198 -11
261 6 261 8 0 22 -11 32 -25 10 -14 26 -36 36 -48 17 -22 17 -21 2 8 -8 16
-13 31 -11 32 4 4 168 61 178 62 3 1 21 -20 40 -46z m-1435 -14 l28 -11 -40
-19 c-40 -18 -40 -18 -47 4 -3 12 -6 30 -7 40 -1 14 3 16 18 7 11 -5 32 -15
48 -21z m3385 21 c0 -5 1 -15 2 -21 1 -7 -51 -26 -114 -44 -108 -30 -117 -31
-142 -17 -15 9 -24 20 -20 24 6 6 234 64 265 67 4 1 8 -3 9 -9z m-3957 -131
c3 -52 8 -129 10 -172 3 -44 2 -76 -3 -73 -5 3 -12 52 -15 108 -4 57 -9 139
-13 183 -4 56 -2 75 5 64 5 -8 13 -58 16 -110z m2267 97 c12 -18 10 -21 -25
-34 -46 -16 -47 -16 -47 19 0 26 3 29 21 24 14 -5 19 -4 15 4 -9 14 26 2 36
-13z m1275 -258 c-1 -51 -3 -10 -3 92 0 102 2 143 3 93 2 -51 2 -135 0 -185z
m-624 177 c29 -25 55 -45 59 -45 5 0 8 -35 8 -78 0 -81 -9 -102 -42 -102 -15
0 -18 -9 -18 -60 0 -46 -5 -65 -19 -79 -19 -19 -19 -19 14 -25 l33 -7 4 -79
c3 -69 1 -81 -14 -86 -15 -4 -18 -16 -16 -77 l2 -72 3 68 c4 62 6 69 29 77 59
23 64 17 64 -70 l0 -80 40 16 c23 9 44 14 47 10 3 -3 0 -8 -8 -10 -8 -3 -27
-10 -43 -16 l-29 -11 5 -89 5 -89 -36 -8 c-32 -8 -36 -12 -37 -43 -1 -21 4
-40 14 -47 21 -17 26 -205 15 -545 l-8 -247 -39 32 -38 33 7 317 c6 250 10
321 21 332 9 9 10 16 4 20 -5 3 -10 26 -10 51 0 50 3 46 -116 151 -62 56 -85
71 -102 66 -22 -5 -22 -3 -22 101 l0 106 34 0 c34 0 34 0 38 53 4 44 1 56 -19
78 l-24 26 75 18 c42 10 76 20 76 23 0 2 -11 2 -25 -1 -37 -7 -25 15 13 25
l32 9 0 146 0 147 -44 41 c-39 36 -43 42 -28 52 28 19 42 15 95 -32z m-775
-14 l31 -39 -96 -36 c-52 -20 -103 -36 -112 -36 -18 0 -88 66 -79 75 12 12
204 82 214 78 7 -2 25 -21 42 -42z m120 25 c9 -20 8 -25 -6 -29 -9 -3 -24 -8
-33 -11 -12 -5 -18 0 -21 19 -4 20 -1 29 16 35 31 13 32 12 44 -14z m799 -33
c-3 -10 -5 -2 -5 17 0 19 2 27 5 18 2 -10 2 -26 0 -35z m-790 -28 c-7 -13 -24
-29 -39 -34 -24 -9 -28 -7 -28 9 0 13 12 25 33 34 45 20 47 19 34 -9z m923
-74 c0 -50 -9 -79 -27 -86 -9 -3 -18 -3 -20 -1 -3 2 -2 39 2 81 7 73 8 75 26
59 12 -11 19 -30 19 -53z m-3240 9 c0 -13 -14 -27 -40 -40 -36 -18 -41 -19
-46 -5 -4 9 -5 17 -3 19 4 4 82 45 87 46 1 0 2 -9 2 -20z m1670 -14 c0 -25 -1
-26 -115 -67 -33 -12 -55 -24 -49 -26 6 -2 45 9 85 25 l74 30 10 -39 c7 -28
23 -48 58 -75 27 -20 45 -39 40 -43 -4 -4 -36 -16 -71 -26 -34 -10 -60 -20
-58 -22 2 -3 35 5 74 16 38 12 72 21 76 21 3 0 6 -43 6 -95 l0 -94 -81 -26
c-44 -14 -82 -25 -85 -25 -2 0 -4 45 -4 100 l0 99 -61 65 -61 65 -29 -30 c-28
-29 -29 -33 -29 -127 0 -98 0 -98 30 -120 17 -13 30 -28 30 -35 0 -7 -59 -36
-131 -65 l-132 -52 -81 45 c-88 48 -145 85 -133 85 4 0 52 -23 107 -50 55 -28
100 -46 100 -42 0 5 -43 31 -95 58 -52 27 -95 52 -95 56 0 4 11 15 26 24 24
17 27 16 117 -30 97 -50 93 -37 -5 17 -32 17 -58 34 -58 37 0 3 32 21 71 40
l70 35 32 -19 c18 -10 56 -32 86 -49 l53 -30 -5 39 c-4 21 -8 90 -9 153 l-3
114 110 42 c61 24 116 43 123 44 6 0 12 -10 12 -23z m-1005 -52 c96 -51 104
-58 107 -87 3 -30 12 -37 143 -109 77 -43 147 -78 155 -78 8 0 -7 -13 -35 -28
l-50 -27 -8 -200 c-7 -153 -12 -201 -23 -210 -12 -8 -33 -147 -34 -227 0 -11
-12 -21 -32 -26 -29 -7 -34 -6 -40 12 -5 18 -6 18 -7 -5 -1 -24 -17 -39 -42
-39 -16 0 -10 72 26 275 19 110 35 206 35 214 0 24 -12 4 -19 -31 -4 -18 -11
-31 -16 -30 -4 2 -12 -3 -17 -11 -4 -9 -19 -14 -33 -12 -14 1 -28 -2 -31 -7
-3 -5 -12 -4 -20 3 -8 6 -14 8 -14 4 0 -4 -11 4 -24 18 -19 21 -35 26 -81 29
-55 3 -59 5 -87 46 -16 23 -33 42 -38 42 -6 0 -10 -22 -10 -48 l0 -48 -62 -33
-63 -34 -132 67 c-73 36 -133 68 -133 71 0 2 44 27 97 54 90 46 99 49 119 36
12 -8 25 -28 29 -45 10 -44 95 -126 95 -92 0 5 -11 14 -25 20 -25 11 -48 47
-58 93 -10 39 -55 55 -95 35 -17 -9 -36 -16 -42 -16 -14 0 -14 286 0 295 6 4
41 -8 79 -25 l68 -32 34 -86 c18 -48 41 -127 50 -177 l17 -90 1 64 c1 53 -5
79 -40 159 -22 53 -42 107 -43 120 -2 16 -21 38 -56 65 l-53 40 144 73 c79 40
148 73 152 73 4 1 55 -24 112 -55z m3840 -56 c33 -26 66 -46 72 -43 7 2 20 2
28 -1 17 -7 18 -85 6 -263 l-6 -94 -42 -15 -43 -14 0 -53 c0 -52 -9 -65 -42
-65 -7 0 -8 68 -3 204 5 131 4 205 -2 209 -11 7 -28 -108 -38 -248 -13 -180
-16 -196 -39 -206 -21 -9 -21 -10 2 -5 14 3 22 -1 22 -10 0 -10 -13 -14 -45
-14 l-44 0 5 78 c3 42 9 139 12 215 l7 138 -25 -6 c-88 -21 -98 -26 -103 -48
-3 -12 -11 -107 -18 -211 -13 -183 -14 -188 -37 -197 -46 -18 -48 -14 -41 66
4 41 11 152 15 245 l7 170 56 16 c31 9 76 22 101 28 40 12 45 16 48 45 2 22
-2 37 -14 45 -16 12 -15 13 5 19 37 9 23 26 -21 24 -66 -3 -56 23 17 43 70 19
74 18 160 -52z m-4495 22 c0 -5 -4 -10 -8 -10 -5 0 -17 -7 -28 -16 -18 -14
-18 -15 4 -4 29 14 40 5 25 -18 -8 -14 -7 -23 3 -37 8 -10 13 -37 12 -59 -1
-40 -1 -40 -5 -6 -3 26 -15 45 -46 73 -26 24 -37 40 -30 43 7 3 23 14 35 24
26 22 38 25 38 10z m2326 -7 c-1 -19 81 -86 95 -77 5 3 8 -18 7 -48 -1 -50 -2
-51 -5 -10 -2 23 -8 42 -13 42 -4 0 -32 19 -60 41 -29 23 -55 37 -59 33 -3 -5
-16 -15 -28 -22 -19 -10 -23 -10 -23 1 0 7 19 22 43 33 23 12 43 22 43 22 1 1
1 -5 0 -15z m728 -40 c23 -21 56 -51 75 -66 18 -15 31 -30 28 -33 -5 -6 -150
112 -155 127 -7 18 12 8 52 -28z m-1444 -209 c0 -70 -3 -93 -14 -97 -23 -9
-44 15 -54 63 l-10 45 -1 -67 c-1 -39 -5 -68 -11 -68 -6 0 -8 10 -5 23 4 15
-1 32 -14 49 -18 23 -21 40 -21 135 0 61 3 113 7 117 4 3 33 -19 65 -51 l58
-57 0 -92z m1469 143 c60 -48 84 -78 64 -77 -12 1 -149 130 -138 130 6 0 39
-24 74 -53z m-1198 0 c12 -22 12 -22 -10 -3 -11 11 -21 23 -21 28 0 14 19 -1
31 -25z m1514 -186 c-11 -152 -16 -179 -36 -202 -19 -22 -19 -22 -14 87 3 60
8 138 11 174 l6 65 19 -24 c17 -21 19 -35 14 -100z m-3328 72 c-3 -10 -5 -4
-5 12 0 17 2 24 5 18 2 -7 2 -21 0 -30z m-44 -113 c3 -81 2 -109 -3 -80 -8 44
-13 217 -6 209 2 -2 6 -60 9 -129z m2258 64 c32 -26 59 -51 59 -55 0 -10 -47
-35 -101 -54 l-39 -14 -63 48 c-34 26 -63 55 -65 63 -3 13 57 37 146 57 2 1
30 -20 63 -45z m2045 -36 c-3 -46 -8 -140 -12 -210 l-6 -126 -45 -7 c-25 -3
-46 -5 -48 -3 -2 2 21 394 24 405 1 4 64 21 79 22 11 1 13 -16 8 -81z m381
-60 c-2 -18 -4 -4 -4 32 0 36 2 50 4 33 2 -18 2 -48 0 -65z m-2877 22 c16 -22
19 -62 24 -358 l5 -334 -39 -15 c-37 -15 -40 -19 -40 -55 0 -34 -3 -38 -25
-38 -25 0 -25 1 -25 81 l0 81 -25 -6 -25 -6 -1 262 0 263 -55 44 c-31 23 -54
45 -52 46 2 2 35 10 73 18 39 8 86 22 105 30 45 20 59 18 80 -13z m-639 -123
c1 -18 2 -19 6 -4 3 11 10 16 20 13 8 -3 19 -6 23 -6 5 0 10 -19 12 -42 4 -56
22 -55 28 1 l5 43 75 28 c41 15 90 34 108 44 28 15 32 15 32 1 0 -9 7 -18 15
-21 35 -14 9 -34 -90 -69 -58 -20 -108 -41 -111 -46 -7 -13 -9 -13 104 30
l102 38 0 -98 c0 -84 -2 -98 -17 -103 -153 -44 -260 -81 -270 -94 -7 -9 -13
-28 -13 -44 0 -33 2 -34 -140 34 l-105 49 3 142 c1 78 5 161 8 185 l5 42 100
-51 c77 -40 99 -56 100 -72z m1449 68 c0 -2 -18 -9 -41 -15 -22 -6 -48 -14
-57 -17 -15 -6 -15 -4 -4 10 8 8 23 18 35 20 33 6 67 8 67 2z m-193 -117 c-2
-13 -4 -3 -4 22 0 25 2 35 4 23 2 -13 2 -33 0 -45z m-847 -49 c0 -44 -3 -50
-30 -64 -16 -8 -31 -15 -35 -15 -3 0 -5 38 -5 85 l0 84 35 -20 c32 -19 35 -25
35 -70z m1005 66 c-16 -8 -39 -14 -50 -14 -11 1 -2 7 20 14 52 17 68 17 30 0z
m-2427 -55 c68 -33 127 -60 132 -60 14 0 12 -12 -5 -34 -20 -27 -19 -35 4 -29
11 3 22 16 25 29 5 19 25 33 83 59 41 19 78 35 81 35 6 0 -5 -415 -15 -557 -4
-69 -9 -93 -19 -93 -17 0 -18 39 -5 195 15 177 24 381 16 373 -13 -12 -85
-526 -85 -605 l0 -43 -41 21 -41 20 6 52 c3 29 11 115 17 192 l11 139 -24 18
c-12 10 -29 23 -35 28 -9 7 -13 7 -13 1 0 -6 14 -17 30 -26 17 -9 30 -17 30
-20 0 -23 -32 -360 -34 -363 -2 -1 -25 10 -52 26 -27 15 -56 31 -65 34 -14 5
-15 14 -9 50 5 24 8 43 7 44 -1 0 -25 17 -53 37 -37 26 -62 37 -88 37 l-35 0
6 163 c3 89 10 167 15 174 5 7 5 13 0 17 -7 4 -9 119 -3 144 3 12 56 -7 159
-58z m345 5 c-3 -9 -8 -14 -10 -11 -3 3 -2 9 2 15 9 16 15 13 8 -4z m2333
-115 c55 -47 86 -80 90 -98 3 -15 7 -33 10 -40 8 -27 -16 -62 -47 -69 -41 -8
-52 -35 -41 -103 l10 -55 1 66 c1 68 8 79 48 79 14 0 15 -21 9 -192 -5 -133
-10 -195 -19 -200 -7 -4 -36 -15 -64 -23 -41 -12 -54 -21 -59 -40 -3 -14 -9
-25 -12 -25 -3 0 -29 11 -58 25 l-53 25 5 57 c3 32 6 68 8 80 2 12 0 20 -4 18
-4 -3 -10 -36 -14 -75 -4 -38 -10 -70 -14 -70 -4 0 -25 11 -47 23 l-40 23 0
264 0 265 28 3 c26 3 27 5 27 62 0 66 0 66 99 69 53 1 55 0 137 -69z m1014 23
c58 -45 74 -75 46 -86 -13 -5 -17 -21 -32 -129 -6 -46 -7 -47 -29 -35 -13 6
-44 32 -70 55 l-47 44 11 81 c6 44 11 84 11 89 0 7 27 22 47 27 2 1 30 -20 63
-46z m-1300 17 c-27 -18 -139 -52 -157 -48 -10 2 16 16 57 30 78 28 129 37
100 18z m-940 -18 c0 -5 -18 -17 -40 -27 -52 -24 -46 -28 17 -11 l51 14 -4
-222 c-3 -121 -6 -233 -8 -248 l-3 -28 91 0 c94 0 136 -7 136 -20 0 -5 -8 -11
-17 -13 -11 -3 -7 -5 10 -6 26 -1 27 0 27 54 0 30 3 55 6 55 3 0 64 11 134 25
l129 26 80 -47 c45 -26 81 -51 81 -55 0 -5 -1 -9 -2 -9 -2 -1 -57 -11 -124
-23 l-120 -23 -69 43 c-38 24 -76 43 -85 43 -16 0 52 -49 114 -82 l39 -20 111
21 c61 12 122 23 136 25 23 3 26 9 22 34 -1 4 -31 25 -67 46 -73 43 -83 53
-58 59 242 66 260 69 292 53 l31 -17 0 -88 0 -88 -72 -12 c-40 -7 -88 -15
-105 -18 -32 -5 -33 -7 -35 -57 0 -28 -1 -58 0 -68 2 -17 -32 -27 -161 -49
-37 -6 -70 -15 -73 -21 -4 -5 7 -7 28 -4 18 4 87 15 153 25 131 21 145 19 210
-33 l30 -24 -40 -11 c-22 -6 -67 -16 -100 -22 -59 -11 -61 -11 -110 20 -57 36
-65 38 -65 11 0 -15 -7 -20 -27 -21 l-28 -2 28 -4 c22 -4 27 -9 27 -34 0 -16
-5 -29 -11 -29 -8 0 -8 -4 -2 -12 5 -7 8 -65 5 -130 -4 -112 -5 -118 -26 -119
-18 -1 -19 -2 -2 -6 15 -4 12 -9 -20 -27 l-39 -22 -3 -86 c-2 -72 -5 -86 -17
-81 -12 4 -15 26 -15 103 l0 97 -40 27 c-22 14 -44 26 -50 26 -5 0 -10 5 -10
11 0 6 20 -1 44 -15 25 -14 47 -26 50 -26 3 0 6 25 6 56 0 52 1 55 23 50 21
-6 21 -5 -2 6 l-24 12 6 208 c4 163 3 208 -7 208 -7 0 -44 20 -82 45 l-69 44
-6 -27 c-4 -15 -7 -101 -8 -192 -1 -91 -6 -183 -10 -205 -6 -27 -9 25 -10 158
-1 190 -2 197 -21 197 -11 0 -20 -4 -20 -10 0 -5 6 -10 14 -10 11 0 14 -18 7
-51 0 -4 -36 -12 -78 -18 -43 -6 -82 -17 -88 -23 -7 -7 -3 -9 15 -5 14 3 54 9
89 13 52 6 63 4 59 -7 -5 -15 -59 -27 -121 -28 -25 -1 -36 -5 -31 -12 6 -10
51 -8 127 7 20 4 27 2 27 -10 0 -13 -8 -15 -42 -11 -42 6 -42 6 -18 -9 14 -8
33 -15 43 -16 39 0 13 -19 -35 -25 -29 -3 -72 -9 -94 -12 l-42 -5 -1 105 c-1
91 1 107 16 116 17 10 16 10 -2 11 -11 0 -29 6 -40 14 -11 7 -30 16 -42 20
-23 7 -23 6 -23 -78 0 -47 -3 -86 -7 -86 -5 0 -7 -31 -5 -70 4 -68 3 -70 -21
-70 -23 0 -23 2 -19 58 3 31 10 60 16 64 7 5 4 8 -8 8 -17 0 -18 6 -12 58 3
31 11 120 16 197 l11 140 42 43 c22 23 36 42 30 42 -6 0 -34 -25 -62 -56 -69
-76 -128 -197 -146 -303 -16 -90 -31 -281 -23 -281 3 0 11 57 18 128 15 156
39 254 82 335 l33 61 3 -93 c1 -52 -2 -108 -8 -124 -5 -17 -11 -84 -11 -151
-1 -130 -8 -180 -24 -180 -5 -1 -15 19 -22 44 -10 39 -11 30 -6 -71 7 -149 3
-166 -41 -171 l-35 -4 4 46 c12 132 13 160 4 160 -5 0 -9 -26 -9 -59 0 -90
-11 -149 -28 -156 -13 -5 -14 10 -9 117 8 144 -7 143 -18 -1 -8 -127 -9 -128
-55 -136 -49 -8 -56 -17 -63 -83 -8 -65 -12 -72 -43 -72 l-26 0 4 123 c6 183
67 749 83 767 11 13 35 192 35 266 0 18 16 26 108 54 59 18 139 45 177 61 77
31 85 33 85 21z m1795 -34 c19 -13 35 -26 35 -29 0 -3 -62 -21 -137 -40 -123
-30 -138 -36 -141 -56 -2 -13 -5 -23 -7 -23 -10 0 -135 93 -135 100 0 5 24 13
53 19 28 6 93 20 142 30 120 25 149 25 190 -1z m-2364 -98 c59 -27 119 -54
133 -60 29 -11 30 -19 20 -132 l-7 -67 -44 -17 -44 -17 -39 38 c-22 22 -40 35
-40 29 0 -5 17 -27 38 -47 36 -35 41 -37 65 -26 15 7 29 10 32 8 2 -3 -9 -142
-25 -310 -17 -167 -30 -321 -30 -342 0 -43 -7 -42 -72 15 l-37 33 24 225 c13
124 26 255 29 292 l6 67 -39 21 c-22 11 -42 20 -44 20 -3 0 -8 -34 -12 -75 -4
-41 -9 -75 -11 -75 -3 0 -19 7 -35 16 l-31 16 7 91 c4 51 9 95 12 99 2 5 17 1
33 -7 16 -8 33 -15 37 -15 4 1 -9 10 -31 21 l-38 21 6 66 c11 117 18 162 24
162 3 0 54 -22 113 -50z m2921 -43 l27 -22 -15 -165 c-8 -91 -25 -308 -38
-483 -13 -174 -25 -320 -28 -322 -2 -3 -19 -8 -36 -11 -32 -6 -32 -6 -32 32 1
75 69 957 76 982 5 17 15 15 46 -11z m-274 -23 c-6 -5 -206 -63 -220 -64 -19
0 -5 19 20 29 62 25 217 53 200 35z m-3759 -74 l-1 -25 -8 25 c-4 14 -8 32 -9
40 -1 13 0 13 9 0 5 -8 9 -26 9 -40z m3845 26 l39 -23 -59 -16 c-33 -9 -45
-14 -29 -12 108 17 128 18 123 5 -2 -8 -29 -22 -59 -32 -54 -18 -56 -20 -68
-68 -7 -28 -16 -50 -20 -50 -4 0 -16 -7 -27 -15 -18 -15 -18 -15 6 -10 21 5
26 2 26 -14 0 -14 -7 -21 -18 -21 -12 0 -18 -8 -18 -24 0 -29 -97 -179 -110
-171 -6 3 -10 37 -10 75 0 51 4 71 15 78 17 9 35 98 35 169 0 42 0 43 45 54
25 6 44 14 41 17 -3 2 -28 -3 -56 -12 l-50 -16 -41 27 -42 27 104 27 c130 34
126 34 173 5z m-3889 -77 c0 -62 -1 -64 -27 -67 l-28 -3 0 65 c0 53 3 65 18
69 32 8 37 0 37 -64z m-75 54 c0 -5 9 -163 19 -353 11 -190 22 -421 26 -515 3
-93 8 -184 11 -201 4 -31 4 -32 -63 -48 -38 -9 -76 -19 -85 -22 -21 -6 -22 3
-48 496 -11 217 -23 443 -26 502 l-7 106 64 20 c68 21 109 27 109 15z m1066
-130 c-5 -19 -10 -22 -23 -14 -23 12 -78 -15 -92 -45 -6 -13 -15 -24 -19 -24
-17 0 -59 39 -65 59 -5 21 37 44 143 80 l55 18 3 -25 c2 -13 1 -35 -2 -49z
m-788 -1 l44 -37 -109 -32 -108 -32 -34 28 c-19 15 -36 32 -38 37 -2 7 156 66
197 73 3 0 24 -16 48 -37z m1793 -9 c13 -16 12 -17 -3 -4 -17 13 -22 21 -14
21 2 0 10 -8 17 -17z m2791 -56 l26 -22 -9 -164 c-5 -91 -11 -166 -13 -169 -6
-6 -54 27 -59 41 -6 17 15 337 22 337 3 -1 18 -11 33 -23z m-4542 -39 c0 -29
4 -48 8 -41 5 8 36 -5 104 -45 53 -31 97 -59 98 -62 0 -3 -63 -18 -140 -34
l-140 -28 -39 31 c-50 40 -64 23 -15 -17 35 -29 35 -30 14 -37 -18 -6 -31 2
-66 36 l-44 43 0 -46 c0 -40 -3 -46 -24 -50 -24 -5 -24 -5 -30 111 -4 64 -8
131 -11 149 l-4 32 35 -26 c32 -25 34 -31 36 -88 l2 -61 3 62 4 63 92 29 c51
16 98 30 105 30 8 1 12 -16 12 -51z m727 -40 c-3 -8 -6 -5 -6 6 -1 11 2 17 5
13 3 -3 4 -12 1 -19z m-218 -34 c18 -15 36 -22 43 -18 9 5 10 4 3 -3 -5 -6
-52 -19 -102 -30 -90 -19 -94 -19 -109 -2 -9 10 -25 21 -35 24 -34 11 -20 21
54 37 100 22 111 21 146 -8z m31 -57 c0 -15 -252 -73 -270 -62 -21 13 -8 24
38 30 26 4 83 15 127 25 100 23 105 23 105 7z m1987 -63 c87 -47 113 -64 113
-74 0 -4 -25 -12 -57 -19 -53 -10 -59 -9 -102 15 -64 35 -130 87 -131 101 0
17 51 31 82 22 15 -4 57 -24 95 -45z m-1810 14 c-3 -8 -6 -5 -6 6 -1 11 2 17
5 13 3 -3 4 -12 1 -19z m-485 -13 c-2 -14 -7 -25 -11 -26 -3 0 -77 -15 -163
-32 l-158 -33 0 24 c0 27 -12 22 165 60 177 38 173 38 167 7z m328 11 c6 -8
52 -43 102 -77 74 -51 88 -64 72 -69 -10 -4 -69 -20 -130 -36 l-112 -28 -96
72 c-53 40 -96 77 -96 82 0 14 16 21 104 46 95 27 139 29 156 10z m1788 -35
c39 -36 59 -72 29 -54 -60 36 -106 78 -95 85 19 11 19 11 66 -31z m-2483 -69
c4 -23 3 -48 -2 -56 -7 -13 -14 -10 -41 15 -27 26 -32 37 -32 78 0 26 3 51 7
55 14 13 61 -51 68 -92z m355 40 c0 -15 -24 -23 -148 -50 -171 -37 -172 -37
-172 -18 0 18 5 20 176 55 76 16 140 30 142 30 1 1 2 -7 2 -17z m487 -14 c-3
-8 -6 -5 -6 6 -1 11 2 17 5 13 3 -3 4 -12 1 -19z m-927 -8 c0 -5 -4 -10 -9
-10 -6 0 -13 5 -16 10 -3 6 1 10 9 10 9 0 16 -4 16 -10z m-17 -51 c-30 -12
-33 -10 -33 23 l0 31 25 -23 c24 -22 24 -25 8 -31z m610 -19 l104 -71 134 35
c74 19 142 37 151 41 21 8 36 -21 20 -37 -10 -10 -223 -67 -257 -69 -17 0 -17
-1 -3 -7 15 -6 15 -9 -2 -29 -25 -31 -30 -29 -30 11 0 31 -3 34 -37 40 -52 8
-234 156 -194 156 6 0 57 -32 114 -70z m-155 38 c-2 -18 -11 -24 -35 -26 -18
-2 -33 -7 -33 -11 0 -5 -12 -6 -27 -4 -23 4 -25 2 -13 -7 12 -9 9 -10 -15 -5
-17 3 -60 -1 -95 -9 -81 -20 -100 -20 -100 -2 0 18 5 19 166 56 160 35 156 35
152 8z m2268 6 c19 -13 35 -15 72 -9 70 11 192 13 198 3 3 -5 -8 -13 -25 -19
-17 -6 -31 -17 -31 -24 0 -18 -23 -25 -83 -25 -45 0 -60 6 -110 41 -31 22 -57
42 -57 45 0 8 11 4 36 -12z m-66 -39 c30 -31 22 -40 -55 -59 -101 -27 -175
-19 -241 26 -41 28 -45 44 -5 24 26 -14 38 -13 132 9 132 30 141 30 169 0z
m2008 13 c15 -15 16 -68 2 -68 -6 0 -34 13 -62 30 -53 30 -52 35 7 43 17 2 32
5 36 6 3 0 10 -4 17 -11z m-2733 -35 c-4 -20 -6 -111 -5 -200 l1 -164 -31 16
c-24 13 -38 14 -68 5 -67 -18 -83 -13 -139 42 -58 58 -87 59 -32 1 l34 -36
-45 26 -45 27 -3 108 c-3 105 -2 109 20 119 18 8 30 6 53 -8 17 -11 24 -19 17
-19 -10 0 -9 -4 3 -16 21 -22 10 -32 -12 -11 -10 8 -31 18 -48 22 -24 5 -20 1
22 -24 29 -17 55 -31 58 -31 3 0 5 17 5 38 -1 33 -5 39 -42 57 -63 31 -58 42
19 50 54 5 81 2 131 -13 34 -11 64 -16 67 -12 3 5 -9 12 -27 15 -18 4 -44 12
-58 18 -24 10 -23 11 20 17 25 4 60 8 79 8 33 2 33 2 26 -35z m-1862 -6 l38
-32 19 -259 c11 -143 17 -263 14 -268 -3 -4 -11 -8 -18 -8 -15 0 -28 87 -46
310 -6 69 -12 142 -14 162 -3 30 0 38 16 44 11 3 18 8 15 10 -2 2 -26 -3 -53
-11 -27 -8 -52 -15 -56 -15 -5 0 -8 20 -8 44 0 38 3 45 23 49 12 2 24 5 27 5
3 1 22 -13 43 -31z m3554 -14 c-3 -10 -5 -2 -5 17 0 19 2 27 5 18 2 -10 2 -26
0 -35z m-3310 -16 c-3 -8 -35 -19 -79 -27 -40 -7 -79 -15 -86 -18 -10 -3 -13
2 -10 19 3 21 12 25 83 40 80 16 102 13 92 -14z m2471 -50 c-2 -45 -7 -72 -15
-75 -10 -3 -13 17 -13 77 0 68 2 79 15 74 13 -4 15 -20 13 -76z m-1768 11 c0
-32 -2 -33 -68 -49 l-67 -17 -28 26 -28 27 78 22 c108 30 113 30 113 -9z
m2597 -15 c-3 -10 -5 -4 -5 12 0 17 2 24 5 18 2 -7 2 -21 0 -30z m-3297 7 c0
-14 -11 -22 -42 -31 -67 -18 -132 -17 -135 1 -3 12 14 20 69 32 101 21 108 21
108 -2z m329 -25 c39 -20 71 -40 71 -45 0 -6 -2 -10 -5 -10 -9 0 -135 72 -141
81 -8 14 1 11 75 -26z m-119 5 c8 -5 11 -12 7 -16 -4 -4 -15 0 -24 9 -18 18
-8 23 17 7z m285 -1 c11 -16 1 -19 -13 -3 -7 8 -8 14 -3 14 5 0 13 -5 16 -11z
m2913 0 c-4 -11 -253 -78 -292 -79 -39 0 -6 11 123 44 73 18 135 36 138 40 11
10 35 7 31 -5z m-2879 -23 c9 -11 9 -16 -1 -22 -7 -4 -10 -4 -6 1 4 4 3 14 -3
22 -6 7 -9 13 -6 13 2 0 10 -6 16 -14z m2964 -17 c-5 -5 -27 -12 -49 -16 -33
-5 -37 -3 -26 8 18 19 76 38 81 27 2 -6 -1 -14 -6 -19z m-3493 2 c0 -15 -14
-22 -67 -35 -38 -9 -76 -19 -86 -22 -15 -5 -18 -1 -15 17 3 21 13 26 83 40 44
9 81 17 83 18 1 1 2 -7 2 -18z m760 -38 c38 -31 67 -60 62 -64 -4 -4 -42 -15
-85 -24 -42 -9 -79 -21 -82 -25 -13 -21 23 -20 111 1 123 30 129 26 126 -93
-5 -151 0 -142 -111 -178 -53 -16 -102 -30 -109 -30 -13 0 -12 58 3 190 4 34
2 36 -88 96 l-92 61 0 44 c0 38 3 44 20 42 11 -2 52 6 90 16 39 11 73 20 78
20 4 1 39 -25 77 -56z m-392 4 c17 -10 32 -23 32 -27 0 -10 -87 37 -95 51 -8
11 21 1 63 -24z m-368 -37 c0 -12 -8 -22 -22 -25 -138 -31 -148 -31 -148 -5 0
12 9 22 23 25 132 31 147 31 147 5z m236 -11 c3 -5 2 -9 -1 -9 -9 0 -65 30
-65 35 0 7 60 -16 66 -26z m164 -21 c0 -15 -16 -8 -50 23 l-35 30 43 -22 c23
-13 42 -26 42 -31z m-195 -14 c20 -8 35 -17 32 -20 -6 -6 -77 22 -77 30 0 8 4
8 45 -10z m-471 -16 c8 -40 26 -312 22 -333 -3 -11 -5 -23 -5 -27 -1 -5 -7 -8
-15 -8 -8 0 -16 17 -20 46 -10 75 -7 102 12 114 15 9 14 10 -5 5 -21 -6 -23
-3 -23 33 0 21 -3 73 -6 115 -7 74 -6 77 14 77 14 0 23 -8 26 -22z m266 -1 c0
-21 -7 -25 -80 -38 l-80 -16 0 24 c0 12 6 23 13 24 6 0 39 6 72 14 33 7 63 14
68 14 4 1 7 -9 7 -22z m381 2 c19 -16 20 -18 4 -10 -34 17 -51 31 -39 31 7 0
22 -9 35 -21z m906 -29 c48 -28 93 -48 100 -46 6 3 14 -1 17 -9 3 -10 -14 -20
-58 -35 -35 -11 -72 -27 -82 -34 -16 -12 -24 -12 -50 -1 -56 23 -199 124 -183
129 10 4 110 31 166 45 2 1 42 -22 90 -49z m470 -82 c-2 -24 -4 -5 -4 42 0 47
2 66 4 43 2 -24 2 -62 0 -85z m-1292 60 c-3 -29 -8 -66 -11 -81 -5 -26 -7 -27
-19 -10 -9 12 -10 23 -4 35 5 9 9 28 9 42 0 23 19 66 28 66 2 0 1 -24 -3 -52z
m2632 -111 c-2 -23 -3 -1 -3 48 0 50 1 68 3 42 2 -26 2 -67 0 -90z m697 70
c45 -38 42 -53 -12 -63 -20 -4 -55 -13 -76 -21 -39 -13 -40 -13 -92 27 -30 22
-54 45 -54 50 0 5 26 17 58 25 31 9 68 20 82 24 29 10 40 4 94 -42z m-3794
-56 l0 -99 -71 -17 c-39 -9 -73 -14 -75 -12 -2 2 -7 48 -10 103 l-7 100 54 10
c30 6 66 12 82 12 l27 2 0 -99z m660 8 c0 -11 -4 -19 -8 -19 -15 0 -54 48 -48
59 10 16 56 -17 56 -40z m1032 -16 c65 -31 115 -60 111 -64 -9 -8 -197 -69
-214 -69 -13 0 -193 116 -209 135 -10 12 -6 15 17 21 15 3 48 12 73 19 76 22
98 18 222 -42z m-1060 -20 c27 -24 22 -36 -7 -17 -14 9 -25 20 -25 25 0 14 11
11 32 -8z m3186 0 c-5 -24 -88 -44 -118 -28 -21 11 -19 13 36 28 78 20 86 20
82 0z m-3187 -53 c31 -25 12 -26 -21 0 -14 11 -20 20 -14 20 7 0 22 -9 35 -20z
m3070 -5 c5 4 9 -15 8 -42 l-1 -48 -13 30 c-8 17 -14 44 -13 60 0 17 2 22 5
12 2 -9 9 -15 14 -12z m304 -67 c-4 -51 -8 -94 -9 -95 -1 -2 -48 -15 -103 -29
-64 -17 -111 -24 -128 -20 -38 10 -26 18 68 43 86 24 74 25 -30 2 -60 -12 -64
-12 -86 9 -32 30 -37 28 -39 -15 -1 -31 -2 -28 -7 16 -9 81 -29 77 -34 -6 l-3
-68 -2 73 c-1 50 -8 81 -19 100 -12 17 11 3 62 -40 l80 -68 3 75 3 74 52 10
c29 6 72 14 97 19 25 6 58 10 74 11 l29 1 -8 -92z m-2172 31 c-12 -10 -165
-59 -186 -59 -12 0 -17 6 -15 16 2 10 36 28 93 49 80 29 91 31 103 17 6 -9 9
-19 5 -23z m599 -30 l67 -57 -29 -11 c-27 -9 -34 -6 -84 40 -32 29 -57 45 -61
39 -10 -16 -25 -1 -25 25 0 17 4 23 14 19 8 -3 17 0 21 5 8 14 15 10 97 -60z
m-2778 -1 c3 -13 6 -41 6 -64 0 -40 0 -41 -54 -59 l-53 -18 -37 28 c-30 23
-36 34 -36 64 0 36 0 36 63 52 90 23 104 23 111 -3z m386 -21 c30 -18 56 -40
58 -48 2 -10 -20 -24 -65 -43 -104 -43 -101 -43 -181 15 -67 49 -85 69 -63 69
5 0 18 3 28 6 15 5 15 4 3 -5 -8 -6 -10 -11 -4 -11 5 0 14 4 20 9 11 11 102
39 129 40 11 1 45 -14 75 -32z m611 -3 c63 -43 87 -64 73 -64 -14 0 -129 74
-138 89 -13 21 12 11 65 -25z m1763 -43 c16 -17 27 -34 23 -37 -8 -9 -117 87
-111 98 6 10 48 -18 88 -61z m1323 -118 c-3 -10 -5 -5 -5 12 0 17 2 24 5 18 2
-7 2 -21 0 -30z"/>
<path d="M771 4609 c1 -35 5 -77 9 -94 4 -16 5 11 2 60 -6 105 -13 127 -11 34z"/>
<path d="M2471 4232 c1 -260 5 -442 11 -442 8 0 0 870 -9 880 -2 2 -3 -195 -2
-438z"/>
<path d="M2480 3766 c0 -8 5 -18 10 -21 6 -3 10 1 10 9 0 8 -4 18 -10 21 -5 3
-10 -1 -10 -9z"/>
<path d="M2753 4750 c-46 -22 -83 -41 -83 -44 0 -6 84 30 145 62 67 36 25 23
-62 -18z"/>
<path d="M2761 4710 c-41 -21 -79 -45 -85 -51 -12 -13 143 67 159 82 15 15 3
10 -74 -31z"/>
<path d="M2758 4644 c-49 -24 -88 -46 -88 -49 0 -3 41 15 90 40 50 25 90 47
90 50 0 7 5 9 -92 -41z"/>
<path d="M2757 4593 c-48 -25 -86 -48 -83 -50 5 -5 176 85 176 93 0 6 2 7 -93
-43z"/>
<path d="M2758 4533 c-48 -26 -86 -48 -84 -50 5 -5 134 60 161 81 33 25 15 18
-77 -31z"/>
<path d="M2748 4470 c-31 -16 -60 -34 -63 -40 -4 -6 25 5 64 25 64 32 84 46
64 45 -5 -1 -34 -14 -65 -30z"/>
<path d="M2746 4409 c-43 -22 -76 -43 -73 -45 5 -5 157 74 157 82 0 6 3 7 -84
-37z"/>
<path d="M2757 4358 c-43 -22 -75 -43 -73 -46 5 -4 133 62 151 79 16 15 3 10
-78 -33z"/>
<path d="M2758 4299 c-43 -21 -78 -41 -78 -44 0 -3 36 13 80 35 44 22 80 42
80 45 0 7 4 8 -82 -36z"/>
<path d="M2758 4238 c-43 -23 -76 -43 -74 -46 2 -2 42 17 87 42 46 25 80 46
74 46 -5 0 -45 -19 -87 -42z"/>
<path d="M2767 4181 c-38 -21 -74 -44 -80 -51 -7 -7 4 -4 23 7 19 11 56 33 83
48 26 15 47 29 47 31 0 6 0 6 -73 -35z"/>
<path d="M2758 4109 c-43 -21 -78 -41 -78 -44 0 -3 36 13 80 35 44 22 80 42
80 45 0 7 4 8 -82 -36z"/>
<path d="M2738 4039 c-32 -16 -58 -32 -58 -34 0 -3 27 8 60 25 33 17 60 32 60
35 0 7 2 8 -62 -26z"/>
<path d="M2758 3994 c-38 -19 -68 -37 -68 -39 0 -3 32 11 70 30 39 19 70 37
70 40 0 7 3 8 -72 -31z"/>
<path d="M2770 3945 c-36 -19 -61 -34 -57 -35 10 0 127 59 127 65 0 7 2 8 -70
-30z"/>
<path d="M293 4415 c0 -33 2 -45 4 -27 2 18 2 45 0 60 -2 15 -4 0 -4 -33z"/>
<path d="M4305 4635 c-38 -18 -65 -33 -60 -33 6 -1 42 14 80 33 39 18 66 33
60 33 -5 1 -41 -14 -80 -33z"/>
<path d="M1241 4484 c0 -11 3 -14 6 -6 3 7 2 16 -1 19 -3 4 -6 -2 -5 -13z"/>
<path d="M1348 3582 c-21 -10 -38 -20 -38 -24 0 -6 87 28 99 38 11 10 -28 0
-61 -14z"/>
<path d="M1498 3479 c-34 -18 -52 -49 -28 -49 25 0 80 35 80 52 0 22 -6 22
-52 -3z"/>
<path d="M1508 3427 c-31 -14 -48 -28 -48 -40 0 -14 5 -17 23 -11 48 14 77 35
77 54 0 11 -1 20 -2 19 -2 0 -24 -11 -50 -22z"/>
<path d="M1498 3362 c-23 -10 -38 -24 -38 -34 0 -19 18 -15 80 17 62 32 25 46
-42 17z"/>
<path d="M1518 3312 c-32 -14 -58 -31 -58 -39 0 -7 4 -13 10 -13 19 0 120 49
120 59 0 19 -16 18 -72 -7z"/>
<path d="M4610 4650 c-8 -5 -10 -10 -5 -10 6 0 17 5 25 10 8 5 11 10 5 10 -5
0 -17 -5 -25 -10z"/>
<path d="M4390 4290 c-19 -11 -30 -19 -25 -19 6 0 26 8 45 19 19 11 31 19 25
19 -5 0 -26 -8 -45 -19z"/>
<path d="M4398 4199 c-21 -11 -38 -22 -38 -24 0 -5 79 32 89 41 12 11 -18 1
-51 -17z"/>
<path d="M4415 4164 c-27 -14 -54 -30 -60 -36 -5 -5 18 4 53 21 34 17 62 33
62 36 0 7 0 7 -55 -21z"/>
<path d="M4590 4252 c0 -5 10 -14 23 -20 l22 -11 -23 0 c-32 -1 -23 -24 14
-34 22 -6 42 -3 79 13 28 13 45 24 38 27 -9 3 -41 -8 -97 -35 -5 -3 -7 5 -4
16 4 15 -1 26 -18 37 -27 17 -34 19 -34 7z"/>
<path d="M4440 3936 c0 -2 8 -10 18 -17 15 -13 16 -12 3 4 -13 16 -21 21 -21
13z"/>
<path d="M4445 3890 c-3 -5 -1 -18 4 -27 9 -16 10 -14 11 10 0 28 -5 34 -15
17z"/>
<path d="M953 3980 c0 -36 2 -50 4 -32 2 17 2 47 0 65 -2 17 -4 3 -4 -33z"/>
<path d="M963 3795 c0 -38 2 -53 4 -32 2 20 2 52 0 70 -2 17 -4 1 -4 -38z"/>
<path d="M4403 4076 c-56 -23 -83 -43 -43 -31 31 9 119 54 105 54 -5 -1 -33
-11 -62 -23z"/>
<path d="M543 3937 c-40 -17 -73 -35 -73 -40 0 -11 26 -3 113 38 90 43 58 44
-40 2z"/>
<path d="M2940 3976 c0 -3 40 -39 90 -81 72 -61 90 -82 96 -110 8 -47 24 -55
24 -13 0 29 -11 42 -75 97 -41 35 -71 69 -68 74 3 6 1 7 -4 4 -6 -4 -18 2 -28
13 -16 18 -35 26 -35 16z"/>
<path d="M3610 3710 c-8 -5 -10 -10 -5 -10 6 0 17 5 25 10 8 5 11 10 5 10 -5
0 -17 -5 -25 -10z"/>
<path d="M3513 3673 c-35 -15 -63 -30 -63 -34 0 -7 127 46 139 57 11 10 -19 1
-76 -23z"/>
<path d="M650 3800 c-30 -16 -51 -29 -47 -30 10 0 107 49 107 55 0 7 1 7 -60
-25z"/>
<path d="M675 3764 c-96 -44 -130 -64 -109 -64 13 0 231 108 219 109 -5 0 -55
-20 -110 -45z"/>
<path d="M3835 3685 c33 -31 69 -61 80 -67 24 -11 -67 73 -110 103 -16 11 -3
-5 30 -36z"/>
<path d="M909 3510 l64 -30 -19 -22 c-17 -20 -16 -19 14 2 17 13 32 26 32 29
0 2 -3 2 -6 -2 -3 -3 -30 7 -58 24 -29 16 -61 29 -72 29 -10 0 10 -14 45 -30z"/>
<path d="M875 3466 c11 -9 25 -20 32 -26 7 -5 14 -6 17 -2 3 5 -12 16 -32 26
-27 12 -32 13 -17 2z"/>
<path d="M1033 3250 c0 -25 2 -35 4 -22 2 12 2 32 0 45 -2 12 -4 2 -4 -23z"/>
<path d="M4212 2980 c0 -14 2 -19 5 -12 2 6 2 18 0 25 -3 6 -5 1 -5 -13z"/>
<path d="M4178 2393 c6 -2 18 -2 25 0 6 3 1 5 -13 5 -14 0 -19 -2 -12 -5z"/>
<path d="M3710 2274 c26 -30 46 -34 99 -18 31 9 49 19 45 26 -4 6 -9 7 -13 0
-11 -17 -82 -32 -102 -21 -11 5 -19 14 -19 19 0 6 -5 10 -11 10 -8 0 -7 -5 1
-16z"/>
<path d="M4008 2193 c6 -2 18 -2 25 0 6 3 1 5 -13 5 -14 0 -19 -2 -12 -5z"/>
<path d="M4095 2109 c-19 -9 -19 -9 1 -6 12 3 30 0 40 -6 17 -9 18 -9 5 6 -15
19 -18 19 -46 6z"/>
<path d="M3780 2105 c0 -6 121 -87 125 -83 2 1 -26 22 -61 46 -35 23 -64 40
-64 37z"/>
<path d="M4065 2070 c-13 -5 -14 -9 -5 -9 8 0 24 4 35 9 13 5 14 9 5 9 -8 0
-24 -4 -35 -9z"/>
<path d="M2463 3175 c0 -44 2 -61 4 -37 2 23 2 59 0 80 -2 20 -4 1 -4 -43z"/>
<path d="M2338 3213 c7 -3 16 -2 19 1 4 3 -2 6 -13 5 -11 0 -14 -3 -6 -6z"/>
<path d="M1583 3045 c0 -22 2 -30 4 -17 2 12 2 30 0 40 -3 9 -5 -1 -4 -23z"/>
<path d="M1542 3045 c0 -16 2 -22 5 -12 2 9 2 23 0 30 -3 6 -5 -1 -5 -18z"/>
<path d="M1523 2985 c0 -44 2 -61 4 -37 2 23 2 59 0 80 -2 20 -4 1 -4 -43z"/>
<path d="M1461 3024 c0 -11 3 -14 6 -6 3 7 2 16 -1 19 -3 4 -6 -2 -5 -13z"/>
<path d="M1553 2940 c0 -36 2 -50 4 -32 2 17 2 47 0 65 -2 17 -4 3 -4 -33z"/>
<path d="M1473 2945 c0 -27 2 -38 4 -22 2 15 2 37 0 50 -2 12 -4 0 -4 -28z"/>
<path d="M1582 2970 c0 -14 2 -19 5 -12 2 6 2 18 0 25 -3 6 -5 1 -5 -13z"/>
<path d="M1563 2820 c0 -25 2 -35 4 -22 2 12 2 32 0 45 -2 12 -4 2 -4 -23z"/>
<path d="M1593 2770 c0 -30 2 -43 4 -27 2 15 2 39 0 55 -2 15 -4 2 -4 -28z"/>
<path d="M1573 2710 c0 -36 2 -50 4 -32 2 17 2 47 0 65 -2 17 -4 3 -4 -33z"/>
<path d="M1140 2986 c0 -5 138 -80 163 -89 36 -13 14 3 -55 40 -75 40 -108 55
-108 49z"/>
<path d="M574 2859 c3 -17 6 -35 6 -40 0 -5 5 -9 10 -9 17 0 12 67 -6 74 -14
5 -16 1 -10 -25z"/>
<path d="M475 2770 c-11 -5 -14 -9 -7 -9 7 -1 42 -22 78 -47 l64 -46 -2 49
c-1 36 -2 40 -5 16 -2 -18 -7 -33 -11 -33 -17 0 -82 52 -82 65 0 17 -6 17 -35
5z"/>
<path d="M585 2650 c-4 -7 -2 -16 6 -21 18 -11 23 -4 11 17 -7 12 -11 13 -17
4z"/>
<path d="M466 2575 c3 -27 9 -162 13 -300 l8 -250 1 281 c2 232 -1 284 -13
300 -13 17 -14 14 -9 -31z"/>
<path d="M613 2535 c0 -44 2 -61 4 -37 2 23 2 59 0 80 -2 20 -4 1 -4 -43z"/>
<path d="M2590 2875 c-14 -8 -20 -14 -15 -14 6 0 21 6 35 14 14 8 21 14 15 14
-5 0 -21 -6 -35 -14z"/>
<path d="M2530 2850 c-8 -5 -10 -10 -5 -10 6 0 17 5 25 10 8 5 11 10 5 10 -5
0 -17 -5 -25 -10z"/>
<path d="M3060 2843 c-47 -14 -115 -33 -152 -44 l-68 -20 0 -65 c0 -49 3 -65
13 -61 23 8 212 66 255 77 l42 11 0 64 c0 36 -1 65 -2 64 -2 -1 -41 -12 -88
-26z"/>
<path d="M3011 2599 c-123 -39 -138 -45 -130 -53 5 -5 238 67 264 82 36 21 -6
12 -134 -29z"/>
<path d="M3022 2536 c-131 -44 -136 -45 -129 -52 5 -6 184 47 239 71 62 27 -4
15 -110 -19z"/>
<path d="M3026 2470 c-103 -34 -160 -60 -131 -60 21 0 265 85 265 92 0 12 -5
11 -134 -32z"/>
<path d="M3008 2398 c-65 -22 -118 -44 -118 -49 0 -4 6 -7 13 -4 104 32 235
77 247 85 32 21 -27 8 -142 -32z"/>
<path d="M3030 2339 c-149 -50 -144 -49 -137 -55 7 -8 267 78 267 88 0 11 -3
11 -130 -33z"/>
<path d="M3013 2268 c-68 -22 -123 -45 -123 -50 0 -6 6 -8 13 -5 6 2 65 22
130 43 64 21 117 42 117 46 0 11 0 11 -137 -34z"/>
<path d="M3105 2236 c-16 -7 -71 -28 -122 -46 -50 -19 -90 -37 -87 -41 2 -4
55 10 117 31 141 48 147 50 147 61 0 12 -18 10 -55 -5z"/>
<path d="M3023 2145 c-66 -24 -123 -42 -125 -40 -2 2 -9 -5 -16 -15 -17 -27
-9 -26 119 20 62 22 117 40 123 39 27 -3 36 2 36 21 0 11 -3 20 -7 19 -5 0
-63 -20 -130 -44z"/>
<path d="M1266 2618 c-54 -27 -96 -52 -93 -55 3 -3 48 17 99 44 l94 49 77 -42
c42 -23 77 -39 77 -34 0 4 -35 26 -77 48 l-78 40 -99 -50z"/>
<path d="M1532 2480 c0 -14 2 -19 5 -12 2 6 2 18 0 25 -3 6 -5 1 -5 -13z"/>
<path d="M1493 2385 c0 -44 2 -61 4 -37 2 23 2 59 0 80 -2 20 -4 1 -4 -43z"/>
<path d="M1573 2290 c0 -36 2 -50 4 -32 2 17 2 47 0 65 -2 17 -4 3 -4 -33z"/>
<path d="M1503 2225 c0 -44 2 -61 4 -37 2 23 2 59 0 80 -2 20 -4 1 -4 -43z"/>
<path d="M1755 2601 c-22 -11 -37 -20 -34 -20 10 -1 79 29 79 34 0 7 0 7 -45
-14z"/>
<path d="M1775 2556 c-16 -12 -17 -16 -6 -30 25 -29 64 -14 54 22 -6 25 -21
28 -48 8z"/>
<path d="M1707 2519 c-13 -8 -15 -14 -7 -23 14 -18 63 -8 56 11 -3 8 -6 17 -6
19 0 8 -25 4 -43 -7z"/>
<path d="M1650 2500 c-9 -6 -10 -10 -3 -10 6 0 19 -3 27 -6 12 -5 15 -2 10 10
-7 18 -13 20 -34 6z"/>
<path d="M1805 2450 c-22 -11 -29 -17 -15 -14 29 8 80 33 65 33 -5 0 -28 -8
-50 -19z"/>
<path d="M1725 2420 c-13 -6 -15 -9 -5 -9 8 0 22 4 30 9 18 12 2 12 -25 0z"/>
<path d="M2160 2394 c0 -6 20 -32 45 -58 25 -27 45 -42 45 -34 0 7 -20 34 -45
58 -25 24 -45 40 -45 34z"/>
<path d="M2170 2334 c0 -5 18 -31 40 -58 29 -35 40 -43 40 -29 0 10 -18 37
-40 58 -22 21 -40 35 -40 29z"/>
<path d="M2408 2333 c7 -3 16 -2 19 1 4 3 -2 6 -13 5 -11 0 -14 -3 -6 -6z"/>
<path d="M2490 2230 c-18 -12 -2 -12 25 0 13 6 15 9 5 9 -8 0 -22 -4 -30 -9z"/>
<path d="M2468 2172 c-43 -14 -78 -29 -78 -32 0 -9 142 38 154 50 12 12 16 13
-76 -18z"/>
<path d="M2674 1650 c0 -129 2 -182 3 -117 2 64 2 170 0 235 -1 64 -3 11 -3
-118z"/>
<path d="M2605 1840 c-11 -4 -44 -18 -73 -30 l-53 -21 -35 20 c-19 11 -34 17
-34 13 0 -5 16 -16 35 -25 l35 -16 3 -193 2 -193 3 193 2 192 38 16 c76 33
117 53 107 53 -5 0 -19 -4 -30 -9z"/>
<path d="M2414 1555 c0 -132 2 -185 3 -117 2 68 2 176 0 240 -1 64 -3 9 -3
-123z"/>
<path d="M2573 1710 c0 -30 2 -43 4 -27 2 15 2 39 0 55 -2 15 -4 2 -4 -28z"/>
<path d="M2622 1635 c0 -16 2 -22 5 -12 2 9 2 23 0 30 -3 6 -5 -1 -5 -18z"/>
<path d="M2584 1485 c0 -71 1 -99 3 -62 2 37 2 96 0 130 -2 34 -3 4 -3 -68z"/>
<path d="M2634 1400 c0 -58 1 -81 3 -52 2 28 2 76 0 105 -2 28 -3 5 -3 -53z"/>
<path d="M2483 1315 c0 -27 2 -38 4 -22 2 15 2 37 0 50 -2 12 -4 0 -4 -28z"/>
<path d="M3214 1870 c0 -58 1 -81 3 -52 2 28 2 76 0 105 -2 28 -3 5 -3 -53z"/>
<path d="M3260 1870 c0 -53 4 -90 10 -90 6 0 10 37 10 90 0 53 -4 90 -10 90
-6 0 -10 -37 -10 -90z"/>
<path d="M3143 1845 c0 -38 2 -53 4 -32 2 20 2 52 0 70 -2 17 -4 1 -4 -38z"/>
<path d="M793 2294 c-57 -30 -103 -58 -103 -60 0 -3 48 20 106 51 l107 57 33
-16 c19 -8 34 -14 34 -11 0 6 -56 35 -67 35 -4 0 -54 -25 -110 -56z"/>
<path d="M930 2095 c-10 -12 -9 -15 7 -15 10 0 39 -13 64 -28 65 -41 77 -46
45 -18 -16 13 -47 32 -67 42 -21 9 -36 21 -33 25 9 15 -3 10 -16 -6z"/>
<path d="M895 2060 c-3 -6 1 -7 9 -4 18 7 21 14 7 14 -6 0 -13 -4 -16 -10z"/>
<path d="M970 2026 c0 -2 8 -10 18 -17 15 -13 16 -12 3 4 -13 16 -21 21 -21
13z"/>
<path d="M1106 1961 c-3 -4 0 -8 7 -8 7 0 36 -14 65 -31 38 -23 52 -28 52 -17
0 23 -113 74 -124 56z"/>
<path d="M830 1926 c-6 -20 -10 -46 -8 -58 3 -16 8 -5 16 31 14 62 9 79 -8 27z"/>
<path d="M1212 1845 c0 -16 2 -22 5 -12 2 9 2 23 0 30 -3 6 -5 -1 -5 -18z"/>
<path d="M4698 1663 c7 -3 16 -2 19 1 4 3 -2 6 -13 5 -11 0 -14 -3 -6 -6z"/>
<path d="M2158 1073 c7 -3 16 -2 19 1 4 3 -2 6 -13 5 -11 0 -14 -3 -6 -6z"/>
<path d="M2083 1063 c9 -2 25 -2 35 0 9 3 1 5 -18 5 -19 0 -27 -2 -17 -5z"/>
<path d="M1824 935 c0 -60 1 -84 3 -52 2 32 2 81 0 110 -2 29 -3 3 -3 -58z"/>
<path d="M2598 1033 c7 -3 16 -2 19 1 4 3 -2 6 -13 5 -11 0 -14 -3 -6 -6z"/>
<path d="M2523 1023 c9 -2 23 -2 30 0 6 3 -1 5 -18 5 -16 0 -22 -2 -12 -5z"/>
<path d="M2153 1013 c9 -2 23 -2 30 0 6 3 -1 5 -18 5 -16 0 -22 -2 -12 -5z"/>
<path d="M2060 1000 c-10 -6 -2 -7 25 -3 49 7 58 13 19 13 -16 0 -36 -5 -44
-10z"/>
<path d="M2638 963 c6 -2 18 -2 25 0 6 3 1 5 -13 5 -14 0 -19 -2 -12 -5z"/>
<path d="M2588 953 c7 -3 16 -2 19 1 4 3 -2 6 -13 5 -11 0 -14 -3 -6 -6z"/>
<path d="M2528 943 c6 -2 18 -2 25 0 6 3 1 5 -13 5 -14 0 -19 -2 -12 -5z"/>
<path d="M2478 933 c7 -3 16 -2 19 1 4 3 -2 6 -13 5 -11 0 -14 -3 -6 -6z"/>
<path d="M2458 813 c6 -2 18 -2 25 0 6 3 1 5 -13 5 -14 0 -19 -2 -12 -5z"/>
<path d="M2478 743 c7 -3 16 -2 19 1 4 3 -2 6 -13 5 -11 0 -14 -3 -6 -6z"/>
<path d="M121 684 c0 -11 3 -14 6 -6 3 7 2 16 -1 19 -3 4 -6 -2 -5 -13z"/>
<path d="M133 545 c0 -38 2 -53 4 -32 2 20 2 52 0 70 -2 17 -4 1 -4 -38z"/>
<path d="M143 400 c0 -36 2 -50 4 -32 2 17 2 47 0 65 -2 17 -4 3 -4 -33z"/>
<path d="M2160 667 c0 -19 -9 -24 -62 -37 -47 -11 -64 -20 -66 -34 -4 -18 -3
-18 12 -4 9 9 41 22 71 29 51 11 55 14 55 41 0 15 -2 28 -5 28 -3 0 -5 -10 -5
-23z"/>
<path d="M1920 655 c0 -15 21 -43 45 -59 38 -25 31 3 -11 37 -19 16 -34 26
-34 22z"/>
<path d="M1900 586 c0 -15 80 -89 88 -81 6 6 -68 95 -79 95 -5 0 -9 -6 -9 -14z"/>
<path d="M2150 584 c0 -8 5 -12 10 -9 6 3 10 10 10 16 0 5 -4 9 -10 9 -5 0
-10 -7 -10 -16z"/>
<path d="M2048 573 c-10 -2 -18 -11 -18 -20 0 -10 6 -13 16 -9 9 3 22 6 30 6
8 0 14 7 14 15 0 15 -9 17 -42 8z"/>
<path d="M2120 525 c-19 -7 -47 -16 -62 -19 -16 -4 -28 -13 -28 -22 0 -9 6
-14 13 -11 6 2 36 13 65 23 28 10 52 24 52 31 0 7 -1 13 -2 12 -2 0 -19 -6
-38 -14z"/>
<path d="M4518 133 c7 -3 16 -2 19 1 4 3 -2 6 -13 5 -11 0 -14 -3 -6 -6z"/>
<path d="M2890 5090 c21 -17 37 -24 39 -17 2 6 -1 13 -7 15 -6 2 -8 11 -5 20
4 13 3 14 -5 3 -7 -9 -12 -10 -16 -2 -4 6 -15 11 -24 11 -12 0 -7 -9 18 -30z"/>
<path d="M3815 5023 c-4 -54 -13 -150 -20 -213 -64 -542 -87 -722 -105 -830
-11 -69 -20 -138 -19 -155 1 -16 12 33 25 110 22 131 35 235 99 765 14 113 28
220 31 239 l5 34 21 -21 c20 -20 20 -24 8 -151 -7 -73 -10 -134 -8 -136 3 -3
12 57 20 132 l16 138 -30 28 c-27 25 -29 34 -27 80 2 29 7 58 12 65 7 8 5 12
-6 12 -11 0 -16 -21 -22 -97z"/>
<path d="M3957 5060 c-10 -96 -87 -583 -113 -720 -25 -128 -29 -168 -13 -115
32 106 154 895 139 895 -4 0 -10 -27 -13 -60z"/>
<path d="M4912 5095 c0 -16 2 -22 5 -12 2 9 2 23 0 30 -3 6 -5 -1 -5 -18z"/>
<path d="M2090 5056 c0 -2 8 -10 18 -17 15 -13 16 -12 3 4 -13 16 -21 21 -21
13z"/>
<path d="M4903 5020 c0 -25 2 -35 4 -22 2 12 2 32 0 45 -2 12 -4 2 -4 -23z"/>
<path d="M5080 4914 l-25 -15 25 7 c14 3 29 10 35 15 15 14 -7 10 -35 -7z"/>
<path d="M1672 4680 c0 -19 2 -27 5 -17 2 9 2 25 0 35 -3 9 -5 1 -5 -18z"/>
<path d="M3842 4620 c0 -19 2 -27 5 -17 2 9 2 25 0 35 -3 9 -5 1 -5 -18z"/>
<path d="M2922 4470 c0 -14 2 -19 5 -12 2 6 2 18 0 25 -3 6 -5 1 -5 -13z"/>
<path d="M3811 4174 c0 -11 3 -14 6 -6 3 7 2 16 -1 19 -3 4 -6 -2 -5 -13z"/>
<path d="M5041 3145 c-40 -13 -78 -28 -84 -34 -6 -6 25 0 68 14 43 13 82 28
88 34 14 14 15 14 -72 -14z"/>
<path d="M20 3135 c-14 -8 -21 -14 -15 -14 6 0 21 6 35 14 14 8 21 14 15 14
-5 0 -21 -6 -35 -14z"/>
<path d="M5025 3073 c-38 -14 -74 -29 -80 -35 -5 -5 28 4 74 21 79 29 106 42
85 40 -5 0 -40 -12 -79 -26z"/>
<path d="M76 2899 c-71 -30 -100 -47 -57 -34 35 11 148 64 136 63 -5 0 -41
-13 -79 -29z"/>
<path d="M5107 1551 c-2 -10 -1 -25 4 -32 6 -10 9 -4 9 19 0 36 -5 42 -13 13z"/>
<path d="M5085 1470 c-18 -8 -18 -9 -2 -9 10 -1 22 -11 27 -23 8 -21 9 -20 9
10 1 34 -2 36 -34 22z"/>
<path d="M5023 1383 c9 -2 23 -2 30 0 6 3 -1 5 -18 5 -16 0 -22 -2 -12 -5z"/>
<path d="M4456 1149 c-19 -235 -17 -302 3 -118 14 130 26 339 20 339 -3 0 -13
-99 -23 -221z"/>
<path d="M4552 1240 c-19 -206 -25 -306 -20 -300 8 8 40 371 36 405 -1 17 -9
-31 -16 -105z"/>
<path d="M4666 1349 c-8 -37 -26 -323 -24 -382 2 -69 6 -32 22 203 13 186 13
231 2 179z"/>
<path d="M4633 865 c0 -27 2 -38 4 -22 2 15 2 37 0 50 -2 12 -4 0 -4 -28z"/>
<path d="M3280 508 c0 -57 -2 -195 -5 -308 -2 -133 -1 -180 4 -135 15 126 24
545 12 545 -7 0 -11 -36 -11 -102z"/>
<path d="M3740 491 c0 -53 -26 -391 -35 -453 -4 -29 -2 -38 10 -38 8 0 17 10
20 22 5 24 19 204 31 391 3 59 10 107 14 107 32 0 33 -42 6 -455 -3 -48 -2
-60 3 -38 5 18 14 136 21 262 11 196 15 231 29 234 9 2 0 4 -19 3 -19 0 -45 3
-57 7 -22 8 -23 6 -23 -42z"/>
<path d="M3868 533 c6 -2 18 -2 25 0 6 3 1 5 -13 5 -14 0 -19 -2 -12 -5z"/>
<path d="M827 360 c23 -24 44 -42 47 -40 2 3 -17 23 -42 44 l-47 39 42 -43z"/>
<path d="M877 163 c6 -191 10 -197 12 -15 0 83 -3 152 -7 152 -5 0 -7 -62 -5
-137z"/>
<path d="M3509 155 c-3 -82 -4 -152 -2 -154 11 -14 13 23 11 155 l-3 149 -6
-150z"/>
<path d="M1975 255 c17 -14 65 -51 107 -81 79 -56 85 -65 91 -139 3 -28 4 -21
5 22 2 59 1 63 -30 86 -74 54 -201 136 -173 112z"/>
<path d="M1568 123 c7 -3 16 -2 19 1 4 3 -2 6 -13 5 -11 0 -14 -3 -6 -6z"/>
<path d="M2301 108 c-34 -10 -61 -21 -59 -23 2 -3 38 6 79 19 40 13 67 24 59
24 -8 0 -44 -9 -79 -20z"/>
<path d="M4178 3 c7 -3 16 -2 19 1 4 3 -2 6 -13 5 -11 0 -14 -3 -6 -6z"/>
</g>
</svg>