<?xml version="1.0" standalone="no"?>
<!DOCTYPE svg PUBLIC "-//W3C//DTD SVG 20010904//EN"
 "http://www.w3.org/TR/2001/REC-SVG-20010904/DTD/svg10.dtd">
<svg version="1.0" xmlns="http://www.w3.org/2000/svg"
 width="512.000000pt" height="512.000000pt" viewBox="0 0 512.000000 512.000000"
 preserveAspectRatio="xMidYMid meet">
<metadata>
Created by potrace 1.16, written by Peter Selinger 2001-2019
</metadata>
<g transform="translate(0.000000,512.000000) scale(0.100000,-0.100000)"
fill="#000000" stroke="none">
<path d="M0 5007 l0 -113 29 -22 c16 -12 32 -35 36 -51 9 -44 49 -66 112 -63
45 3 57 -1 77 -22 14 -13 38 -27 55 -31 42 -9 64 -39 67 -88 l2 -42 56 -3 56
-3 0 79 c0 44 5 83 11 89 7 7 13 38 14 70 1 32 6 106 10 165 l8 108 31 4 c17
3 70 7 118 10 166 11 129 22 -81 24 l-210 2 -4 -67 -3 -68 -2 68 -2 67 -190 0
-190 0 0 -113z m204 82 c8 -9 5 -10 -14 -5 -14 3 -58 6 -97 6 -48 0 -73 4 -73
11 0 16 169 4 184 -12z m364 14 c-15 -2 -42 -2 -60 0 -18 2 -6 4 27 4 33 0 48
-2 33 -4z m-335 -111 c73 -14 188 -49 202 -63 5 -6 -10 -3 -35 6 -78 28 -202
54 -292 61 -49 4 -88 11 -88 16 0 5 29 6 70 2 l70 -7 2 39 1 39 4 -41 4 -41
62 -11z m-95 -19 c-10 -2 -26 -2 -35 0 -10 3 -2 5 17 5 19 0 27 -2 18 -5z
m154 -22 c85 -22 154 -49 145 -57 -3 -3 -20 2 -37 11 -18 9 -78 27 -134 40
-55 13 -89 24 -75 24 14 1 60 -8 101 -18z"/>
<path d="M1730 5109 c0 -24 -53 -74 -83 -79 -41 -7 -68 -50 -49 -80 18 -29 -1
-60 -36 -60 -31 0 -72 -32 -72 -55 0 -9 -10 -15 -25 -15 -38 0 -78 -44 -73
-79 4 -28 3 -28 -33 -24 -28 4 -41 1 -58 -16 -11 -11 -32 -21 -45 -21 -74 0
-122 -47 -113 -111 l5 -39 -111 0 c-101 0 -113 2 -135 23 -20 19 -35 22 -95
22 -59 0 -78 -4 -104 -22 -29 -21 -42 -23 -172 -23 -87 0 -141 -4 -141 -10 0
-5 18 -10 39 -10 22 0 43 -4 46 -10 4 -6 75 -10 181 -10 109 0 174 4 174 10 0
6 -31 10 -72 10 -71 0 -71 0 -53 20 36 39 136 48 180 16 9 -6 17 -21 18 -34
l1 -22 223 0 c137 0 224 4 228 10 4 6 -22 10 -70 10 -72 0 -78 2 -106 30 -35
34 -33 61 7 98 18 15 38 22 67 22 31 0 45 5 55 20 20 32 96 28 127 -6 33 -35
32 -14 0 24 -27 32 -32 71 -13 90 16 16 58 15 58 0 1 -7 11 7 23 32 20 40 26
45 60 48 30 3 40 9 47 28 5 13 15 24 21 24 8 0 6 7 -4 18 -33 36 -10 79 37 70
19 -4 26 0 30 18 4 13 17 31 31 40 24 16 35 54 15 54 -5 0 -10 -5 -10 -11z"/>
<path d="M1805 5110 c3 -5 8 -10 11 -10 2 0 4 5 4 10 0 6 -5 10 -11 10 -5 0
-7 -4 -4 -10z"/>
<path d="M1827 5102 c-10 -10 -17 -26 -17 -36 0 -9 -7 -31 -16 -48 -10 -20
-15 -48 -12 -81 2 -42 -1 -55 -19 -74 -26 -25 -30 -60 -10 -86 10 -15 12 -11
9 27 -3 36 0 46 16 55 33 18 44 -6 30 -66 l-12 -51 -50 -7 c-39 -5 -57 -14
-88 -44 -31 -32 -38 -46 -38 -78 0 -45 28 -89 66 -103 21 -8 22 -12 12 -46
-13 -48 3 -107 38 -139 21 -19 23 -27 14 -49 -17 -46 -12 -76 19 -105 33 -31
42 -70 23 -94 -10 -12 -11 -21 -3 -36 7 -12 11 -93 10 -216 l-1 -196 -62 7
c-154 19 -296 5 -352 -32 -26 -18 -35 -21 -31 -10 10 25 -21 19 -38 -8 -14
-21 -14 -26 0 -52 8 -16 15 -39 15 -51 0 -13 4 -23 8 -23 8 0 -28 -254 -86
-600 l-30 -175 -2 135 c-1 74 -4 245 -6 380 -3 184 -1 251 8 269 11 20 10 25
-6 36 -18 13 -18 15 2 40 26 32 38 98 22 122 -10 15 -10 14 -5 -10 3 -17 0
-36 -10 -50 -8 -12 -15 -28 -15 -37 -1 -8 -9 -25 -19 -36 -14 -18 -29 -22 -84
-23 -64 -1 -67 0 -82 29 -19 36 -19 54 0 70 11 9 12 16 2 30 -9 15 -8 23 7 39
11 12 25 21 32 21 7 0 26 14 42 30 36 36 37 36 81 9 25 -15 32 -25 28 -41 -5
-19 -4 -20 9 -6 13 13 14 19 3 36 -30 48 -90 54 -128 13 -14 -15 -36 -31 -49
-35 -29 -10 -39 -29 -47 -98 -6 -48 -4 -63 11 -85 10 -16 17 -32 16 -37 -2 -6
-3 -231 -2 -501 0 -430 -1 -494 -15 -505 -12 -10 -15 -43 -15 -186 0 -171 0
-173 -22 -176 -13 -2 -27 -13 -33 -25 -7 -16 -18 -23 -36 -23 -15 0 -41 -3
-58 -6 l-31 -7 2 209 3 208 35 9 c58 15 67 29 66 105 -2 66 -2 67 -36 84 -19
9 -45 27 -57 39 -18 18 -33 22 -97 23 l-76 1 0 308 c0 169 4 307 9 307 5 0 11
14 15 32 7 38 -25 113 -57 129 -23 13 -101 16 -134 5 -19 -6 -23 -2 -32 31
-22 77 -9 116 42 138 20 9 25 14 14 15 -74 1 -108 -106 -60 -191 14 -23 13
-28 -6 -60 -21 -34 -28 -89 -14 -103 4 -4 8 -176 8 -382 l0 -374 -23 0 c-12 0
-31 -9 -42 -20 -11 -11 -33 -20 -51 -20 -38 0 -89 -48 -89 -83 0 -23 -3 -24
-91 -30 -50 -4 -103 -13 -118 -20 -24 -11 -26 -18 -29 -79 l-3 -66 60 5 c71 7
191 -14 191 -32 0 -10 -9 -11 -35 -5 l-35 8 0 -263 c0 -224 2 -264 15 -269 22
-8 18 -26 -5 -26 -19 0 -20 7 -20 263 0 272 -3 302 -26 311 -22 8 -144 -6
-144 -17 0 -6 25 -7 65 -2 60 6 65 5 65 -13 0 -23 -25 -32 -87 -32 -32 0 -43
-4 -43 -16 0 -8 4 -12 10 -9 6 4 10 -18 10 -60 0 -42 -4 -64 -10 -60 -5 3 -10
-3 -10 -14 0 -12 6 -21 13 -21 8 0 7 -4 -3 -10 -12 -8 -13 -13 -2 -30 16 -26
16 -97 0 -104 -11 -5 -10 -7 0 -12 16 -7 16 -41 0 -47 -10 -4 -10 -6 0 -6 15
-1 17 -121 2 -121 -5 0 -10 -7 -10 -16 0 -8 4 -12 10 -9 5 3 10 0 10 -9 0 -8
-6 -17 -12 -20 -11 -5 -10 -7 0 -12 7 -4 12 -27 12 -65 0 -38 -4 -58 -10 -54
-6 4 -10 -19 -10 -62 0 -50 3 -64 11 -53 7 11 8 2 4 -30 -4 -25 -7 -107 -9
-183 -2 -160 -19 -142 144 -156 95 -9 107 -12 128 -36 19 -23 22 -37 22 -108
0 -57 -3 -77 -10 -67 -5 8 -10 42 -10 76 0 89 -5 93 -151 114 -68 10 -126 16
-128 14 -11 -10 15 -18 78 -25 83 -9 125 -29 146 -69 19 -37 19 -70 0 -70 -9
0 -15 9 -15 24 0 13 -3 31 -6 40 -11 28 -71 56 -138 64 l-66 8 0 -107 c0 -72
4 -109 11 -111 9 -3 9 -9 0 -25 -6 -12 -11 -38 -11 -57 l0 -36 50 0 c61 0 70
-13 70 -100 0 -45 -3 -61 -12 -57 -8 2 -13 24 -14 54 -2 75 -7 83 -54 83 -22
0 -40 -4 -40 -10 0 -5 16 -10 35 -10 24 0 35 -5 35 -15 0 -10 -11 -15 -35 -15
l-35 0 0 -69 c0 -65 2 -70 23 -73 20 -3 22 -9 25 -75 3 -72 3 -73 -23 -73 -14
0 -25 -5 -25 -11 0 -11 91 -9 363 8 93 5 99 5 95 -13 -3 -18 -18 -19 -223 -24
-121 -4 -221 -7 -222 -8 -2 -1 -3 -56 -3 -122 l0 -120 39 0 c33 0 40 4 44 22
l4 23 2 -22 c0 -14 7 -23 17 -23 13 0 15 13 13 80 -2 43 0 82 4 86 4 4 7 -32
7 -79 0 -80 2 -87 20 -87 17 0 20 8 23 88 l3 87 2 -87 2 -88 95 0 95 0 0 120
c0 73 4 120 10 120 6 0 10 -47 10 -120 l0 -120 200 0 c110 0 200 3 200 6 0 4
-18 46 -40 95 l-40 89 0 145 0 144 33 5 c17 3 84 8 147 11 63 3 129 8 146 11
27 5 38 -1 77 -38 25 -23 79 -72 121 -106 42 -35 76 -64 76 -65 0 -1 -35 0
-77 1 -43 2 -133 1 -200 -3 l-123 -7 0 -68 c0 -70 -6 -80 -50 -80 -21 0 -30
-27 -30 -92 l0 -48 45 0 45 0 0 140 0 140 79 0 c43 0 99 3 125 6 l46 7 0 -147
c0 -91 4 -146 10 -146 6 0 10 53 10 140 l0 140 65 0 65 0 0 -140 0 -140 95 0
95 0 0 284 0 283 53 7 c91 11 380 19 438 12 31 -4 65 -14 75 -22 17 -13 17
-14 -11 -7 -40 11 -371 6 -465 -6 l-75 -9 93 1 92 2 0 -272 0 -273 24 0 c13 0
30 7 37 16 12 15 32 16 159 11 80 -3 161 -10 180 -16 45 -14 250 -15 250 -1 0
6 9 10 20 10 11 0 20 -4 20 -10 0 -15 51 -12 64 3 9 11 43 12 181 6 94 -4 191
-11 218 -15 l47 -7 0 46 c0 25 5 49 10 52 6 4 10 -13 10 -44 0 -39 4 -51 15
-51 11 0 15 12 15 50 0 28 5 50 10 50 6 0 10 -22 10 -50 0 -27 5 -50 10 -50 6
0 10 42 10 105 l0 105 -55 0 -55 0 0 -100 c0 -84 -2 -98 -15 -94 -10 4 -15 20
-15 50 0 42 -1 44 -29 44 -28 0 -30 -3 -34 -43 -2 -23 -4 6 -5 66 -2 130 -21
147 -23 20 -1 -49 -1 -94 0 -100 3 -22 -16 -14 -23 10 -11 43 -7 204 7 214 6
6 95 14 197 17 102 4 195 10 208 13 22 5 22 3 22 -82 0 -81 -2 -90 -25 -111
-20 -18 -25 -33 -25 -69 0 -25 5 -45 10 -45 6 0 10 18 10 40 0 39 0 39 33 33
48 -9 66 -21 73 -48 3 -14 12 -25 20 -25 10 0 14 14 14 50 0 46 -3 53 -30 68
-30 17 -30 18 -30 105 l0 87 33 1 c17 0 123 6 235 12 112 7 206 10 208 8 2 -2
4 -78 4 -168 l0 -163 135 0 135 0 0 105 c0 87 3 105 15 105 12 0 15 -18 15
-105 0 -98 1 -105 20 -105 16 0 20 7 20 34 0 65 3 66 104 64 65 -1 74 -3 31
-5 -33 -2 -75 -5 -92 -8 -31 -6 -33 -9 -33 -45 0 -22 5 -40 10 -40 6 0 10 16
10 35 l0 35 105 0 c90 0 107 3 112 17 4 9 2 18 -4 20 -8 3 -12 93 -13 291 0
202 -4 290 -13 300 -8 10 -11 76 -12 211 l0 196 80 0 80 0 3 -135 3 -135 -33
-64 -33 -65 -2 -352 -1 -352 39 0 c34 -1 39 2 39 23 0 13 3 30 6 39 11 29 24
16 24 -24 l0 -40 75 0 75 0 0 80 c0 44 4 80 9 80 13 0 21 -38 21 -102 l0 -58
35 0 35 0 0 80 c0 47 4 80 10 80 9 0 12 -23 15 -120 1 -24 6 -36 18 -38 15 -3
17 7 17 76 0 71 2 80 20 85 18 5 19 -1 23 -82 l3 -86 2 88 2 87 65 0 65 0 0
-29 c0 -28 -2 -30 -47 -33 l-48 -3 -3 -52 c-3 -44 0 -53 13 -53 14 0 16 8 13
45 -2 27 1 44 7 42 5 -2 10 -23 10 -45 0 -28 4 -42 13 -42 10 0 12 8 8 27 -3
16 -2 35 4 43 7 11 10 4 10 -27 l0 -43 49 0 c48 0 72 12 51 25 -5 3 -10 19
-10 36 0 22 -5 29 -20 29 -17 0 -20 7 -20 39 0 38 1 39 38 42 80 8 81 8 85
-89 3 -82 3 -81 4 23 1 61 -1 104 -4 98 -3 -9 -30 -13 -86 -13 -45 0 -167 -7
-272 -15 -104 -8 -220 -15 -257 -15 -60 0 -68 2 -68 18 0 17 12 20 113 25 61
4 166 7 232 7 66 0 171 3 233 7 l112 6 0 79 c0 48 -4 78 -11 78 -6 0 -8 -15
-4 -44 6 -39 5 -44 -17 -49 -12 -4 -38 -7 -55 -7 l-33 0 0 185 0 185 55 0 54
0 4 -133 c2 -87 3 -55 5 96 l2 227 -77 -1 c-43 0 -183 -6 -310 -13 -257 -13
-266 -15 -308 -87 -19 -32 -20 -57 -25 -364 l-5 -330 -8 300 c-5 165 -6 318
-2 340 10 57 50 122 87 141 24 13 88 18 317 26 157 5 296 11 309 14 l22 4 0
386 0 385 -47 -6 c-106 -12 -337 -35 -350 -35 -12 0 -14 30 -12 190 1 105 -1
193 -4 197 -4 3 -7 64 -7 135 l0 128 41 26 c27 17 39 30 35 40 -3 9 -6 35 -6
59 0 43 -1 45 -39 56 l-38 11 -6 127 c-12 232 -11 258 18 277 34 22 33 59 -2
79 -24 14 -25 16 -5 12 30 -7 28 11 -3 19 -22 5 -25 11 -25 53 0 26 5 52 12
59 9 9 9 15 0 24 -8 8 -12 52 -12 131 l0 119 -34 34 c-39 39 -86 45 -136 19
-50 -26 -61 -62 -60 -188 1 -62 -1 -120 -5 -130 -4 -9 -2 -23 4 -30 18 -22 2
-83 -25 -96 -20 -9 -24 -18 -24 -55 0 -36 5 -49 25 -64 l25 -20 0 -199 0 -200
-41 -16 -40 -16 3 -53 c3 -50 5 -54 40 -73 l38 -20 0 -302 0 -301 -31 -7 c-41
-9 -57 -44 -41 -89 7 -18 12 -86 12 -158 l0 -126 -26 -6 c-15 -4 -28 -5 -30
-3 -5 5 -44 1047 -44 1181 0 90 2 101 25 128 21 25 25 40 25 94 0 64 -14 94
-51 106 -11 4 -15 47 -19 204 l-6 199 29 26 c23 20 28 32 26 60 -3 37 -24 69
-45 69 -16 0 -25 295 -9 311 6 6 5 17 -3 30 -11 18 -11 24 3 39 23 25 15 52
-18 68 -23 11 -27 19 -27 58 0 38 5 49 30 70 29 25 29 27 28 112 -1 64 -6 96
-19 120 -11 18 -19 35 -19 37 0 2 15 19 34 37 35 33 39 46 37 106 -1 24 -10
42 -31 62 -24 23 -30 36 -30 70 0 35 3 41 16 36 27 -10 84 5 95 26 10 19 9 19
-22 2 -23 -12 -45 -15 -78 -10 -35 5 -43 4 -33 -6 7 -7 12 -32 12 -57 0 -35 6
-51 26 -72 15 -16 28 -43 31 -66 4 -32 1 -45 -21 -69 l-25 -29 -1 31 c0 30
-17 52 -65 83 -11 7 -2 -2 19 -22 38 -33 39 -36 33 -81 -5 -33 -2 -56 8 -76 8
-16 15 -38 15 -49 l0 -21 -32 20 c-24 14 -50 20 -93 19 -80 -1 -107 -10 -122
-39 l-12 -24 -6 27 c-4 15 -4 40 0 55 3 15 7 38 7 52 0 14 4 32 9 41 6 12 4
21 -6 29 -22 19 -18 39 15 77 17 18 30 38 30 44 0 6 -17 -9 -38 -33 l-38 -44
-39 20 c-35 18 -40 26 -43 59 -3 32 2 43 30 69 24 22 32 37 30 58 -2 20 4 33
23 48 15 12 21 23 15 27 -29 18 18 65 105 103 28 12 29 14 12 27 -14 10 -17
21 -12 49 6 29 3 39 -19 60 -14 15 -32 26 -41 26 -8 0 -15 5 -15 10 0 6 55 10
145 10 143 0 145 0 145 -22 0 -16 3 -19 11 -11 6 6 8 20 4 32 -6 20 -13 21
-159 21 -163 0 -246 -7 -246 -21 0 -5 15 -9 33 -9 37 0 116 -34 122 -53 2 -7
5 -33 8 -59 4 -39 1 -48 -17 -57 -76 -41 -96 -58 -96 -82 0 -10 -9 -34 -21
-53 -12 -21 -18 -43 -14 -55 4 -14 0 -23 -14 -31 -24 -13 -51 -60 -51 -90 0
-12 13 -34 28 -50 22 -22 26 -32 19 -48 -15 -33 0 -67 38 -88 25 -13 33 -23
29 -34 -15 -34 -15 -69 -1 -97 10 -19 12 -34 6 -44 -11 -18 -12 -72 0 -84 14
-16 -4 -142 -23 -160 -20 -20 -20 -39 -1 -58 8 -8 11 -17 8 -20 -3 -4 -5 -85
-4 -180 l2 -174 -29 -12 c-25 -10 -31 -19 -34 -52 -5 -51 6 -77 37 -91 25 -11
25 -13 25 -128 0 -64 -3 -151 -6 -192 -6 -71 -8 -75 -35 -85 -28 -11 -29 -13
-29 -89 0 -76 1 -77 36 -108 l35 -31 -11 -290 c-6 -159 -15 -351 -20 -425 -5
-74 -12 -219 -16 -322 -4 -104 -8 -188 -9 -188 -1 0 -28 9 -61 21 -39 14 -81
20 -125 20 l-66 -2 -7 523 c-5 356 -11 529 -19 543 -6 11 -12 65 -13 120 -2
198 0 185 -34 185 l-30 0 4 -517 c3 -337 1 -455 -4 -338 -4 99 -9 288 -10 420
-4 344 -11 460 -30 460 -10 0 -16 12 -18 33 -3 29 0 33 26 38 38 8 39 17 32
287 -6 221 -7 227 -77 227 l-33 0 0 103 c0 101 1 104 25 115 24 11 25 16 25
92 l0 80 -40 20 c-22 11 -40 21 -41 23 0 1 -4 96 -9 211 -7 175 -6 212 6 223
20 21 17 76 -6 106 -29 36 -28 127 2 167 19 26 20 34 11 72 -6 24 -17 58 -24
76 -12 30 -12 37 7 70 33 57 36 90 15 152 -11 30 -17 57 -14 60 2 3 109 4 236
3 214 -1 233 0 255 18 29 23 84 26 76 5 -3 -8 -1 -17 5 -21 6 -3 11 0 11 8 0
28 79 47 191 47 153 0 197 -7 201 -34 3 -21 8 -21 205 -24 187 -2 202 -4 196
-20 -3 -9 -18 -27 -32 -39 -23 -20 -38 -22 -136 -24 -165 -2 -186 -17 -25 -18
108 -1 140 2 158 15 21 14 22 14 22 -9 0 -18 8 -28 29 -37 35 -14 73 -10 79 9
3 10 0 11 -13 3 -33 -18 -85 6 -85 40 0 31 39 98 58 98 9 1 80 1 157 2 l140 1
-155 6 c-85 4 -161 10 -167 14 -7 5 -13 24 -13 44 l0 35 -97 -6 c-136 -9 -161
-14 -176 -36 -7 -10 -24 -21 -38 -25 -25 -6 -26 -4 -33 41 -15 111 -12 115 92
113 l67 -1 -65 -12 -65 -11 -3 -60 -3 -60 33 32 c31 30 39 33 143 43 61 5 116
10 123 10 7 0 12 15 12 40 0 33 -3 40 -20 40 -15 0 -20 -7 -20 -29 0 -17 -4
-33 -10 -36 -6 -4 -10 7 -10 27 0 32 -1 33 -40 33 -40 0 -40 0 -40 -38 0 -23
-4 -36 -10 -32 -5 3 -10 22 -10 41 l0 34 -100 0 -100 0 0 -105 c0 -87 -3 -105
-15 -105 -12 0 -15 18 -15 105 0 90 -2 105 -16 105 -14 0 -16 -11 -13 -77 l4
-78 -27 -3 -28 -3 0 80 0 81 -65 0 -65 0 0 -80 0 -80 -50 0 -49 0 -4 83 -3 82
-2 -82 c-3 -108 -22 -110 -22 -3 0 79 0 80 -25 80 -24 0 -25 -2 -26 -67 -2
-111 -17 -132 -18 -25 l-1 92 -97 0 -98 0 0 -102 0 -103 -193 -3 -193 -2 25
37 c22 31 26 49 26 105 l0 68 -70 0 c-62 0 -70 -2 -70 -19 0 -11 9 -21 22 -24
12 -4 20 -9 17 -12 -3 -3 -22 2 -42 10 -51 21 -143 19 -196 -5 -24 -11 -45
-20 -47 -20 -2 0 -4 17 -4 38 0 24 -3 32 -9 23 -11 -17 3 -83 31 -144 l22 -47
-23 -41 c-20 -34 -21 -45 -12 -66 13 -28 7 -82 -16 -131 -8 -18 -20 -72 -27
-120 -13 -82 -12 -88 6 -109 17 -18 19 -29 12 -80 -4 -32 -7 -61 -6 -64 1 -4
-8 -15 -18 -24 -24 -22 -26 -72 -4 -96 15 -17 15 -38 4 -236 -7 -120 -15 -219
-19 -221 -3 -1 -21 -11 -38 -22 -33 -20 -33 -20 -33 -100 0 -77 1 -81 35 -118
l34 -39 -9 -154 c-5 -85 -10 -192 -10 -239 0 -82 -1 -86 -29 -110 -29 -24 -35
-46 -32 -108 1 -13 13 -29 31 -41 16 -10 28 -20 26 -22 -3 -3 -12 -119 -21
-259 -9 -140 -24 -383 -34 -539 l-18 -285 -39 -32 -39 -33 -8 386 c-7 301 -6
392 4 410 9 17 10 29 2 46 -6 12 -11 39 -11 59 0 45 -40 121 -67 127 -10 2
-31 16 -46 32 -15 16 -41 32 -58 35 -18 4 -36 15 -42 26 -24 46 -86 41 -133
-11 -26 -29 -10 -26 26 5 42 34 78 29 98 -14 9 -18 19 -30 22 -26 14 14 69 -8
78 -32 6 -14 21 -26 42 -32 21 -5 34 -15 37 -28 1 -10 10 -26 18 -36 8 -9 13
-30 11 -49 -3 -31 -5 -33 -43 -33 -32 -1 -46 5 -67 29 -16 16 -28 24 -28 18 0
-7 10 -19 22 -27 19 -13 20 -19 10 -41 -9 -19 -9 -32 -1 -47 11 -21 6 -817 -7
-1045 -5 -92 -8 -102 -22 -94 -32 17 -111 24 -127 11 -23 -19 -84 -4 -90 23
-3 12 -4 78 -3 147 3 113 5 125 23 135 68 35 85 68 85 166 0 63 -10 78 -63 88
-31 7 -32 8 -38 71 -8 81 -11 680 -4 680 4 0 19 -7 36 -15 17 -9 49 -15 77
-13 26 1 56 -2 67 -6 l20 -8 -20 17 c-12 10 -35 15 -60 14 -62 -3 -68 -1 -103
31 l-32 29 6 114 c6 130 4 135 -74 148 -52 8 -135 -6 -151 -25 -7 -8 -11 -145
-11 -402 -1 -427 -9 -690 -21 -677 -22 22 -82 434 -95 643 -6 109 -5 116 15
134 14 13 21 31 21 58 0 33 -5 42 -29 56 -27 15 -31 23 -36 77 -9 98 -24 536
-31 880 -3 176 -8 323 -10 327 -3 4 3 19 12 34 16 24 16 27 0 55 -17 29 -17
29 17 59 40 35 60 76 55 116 -2 19 3 34 16 45 27 22 14 63 -33 111 -37 37 -38
38 -14 38 30 0 60 15 96 48 20 19 27 35 27 64 0 34 4 40 39 58 22 11 47 30 55
42 22 30 21 121 0 139 -15 12 -14 15 3 29 57 46 68 106 29 155 -24 30 -24 30
-6 60 22 38 34 75 23 75 -5 0 -17 -22 -28 -50 -11 -27 -21 -50 -24 -50 -2 0
-13 8 -23 17 -15 13 -12 2 11 -47 44 -93 41 -124 -18 -163 -17 -11 -28 -13
-37 -6 -8 7 -13 2 -16 -16 -6 -29 -6 -29 32 -10 27 14 30 14 40 -4 5 -11 10
-42 10 -69 0 -87 -57 -109 -120 -47 l-36 36 -20 -22 c-19 -21 -19 -22 2 -15
47 14 91 -88 62 -143 -17 -32 -55 -58 -96 -66 -32 -7 -33 -6 -22 15 18 33 7
33 -15 0 -11 -16 -30 -30 -44 -32 -13 -2 -26 -9 -29 -16 -3 -9 3 -11 21 -7 29
8 60 -6 100 -43 32 -31 35 -55 6 -73 -18 -12 -19 -18 -10 -42 19 -50 -36 -135
-79 -124 -16 4 -20 2 -15 -12 5 -16 -2 -18 -57 -17 -35 1 -75 -2 -89 -6 -26
-7 -27 -6 -33 44 -5 34 -10 47 -16 39 -6 -10 -12 -8 -24 12 -19 27 -18 31 36
130 11 21 17 41 14 44 -4 4 -12 -8 -18 -25 -15 -38 -19 -39 -53 -9 -30 26 -43
89 -27 135 9 27 8 30 -24 45 -86 42 -81 138 11 185 11 5 43 10 72 9 33 0 64 6
87 18 34 19 36 19 55 0 12 -10 21 -14 21 -9 0 33 -72 47 -88 18 -5 -9 -14 -14
-21 -10 -19 12 -13 68 11 93 18 19 19 23 5 23 -22 0 -45 37 -52 85 -8 56 19
104 76 132 38 19 40 22 19 23 -15 0 -31 -5 -38 -12 -7 -7 -12 -8 -12 -2 0 20
23 32 54 28 17 -3 51 -1 76 4 42 9 39 10 -41 11 -71 1 -89 -2 -102 -17z m501
-183 c-2 -20 -6 -17 -21 21 l-17 45 21 -21 c12 -13 19 -31 17 -45z m2248 45
c-3 -9 -6 -27 -6 -40 0 -13 -4 -24 -10 -24 -5 0 -10 18 -10 40 0 30 4 40 16
40 11 0 14 -5 10 -16z m-1301 -8 c19 -8 35 -16 35 -18 0 -2 -38 -3 -85 -4 -81
0 -97 8 -51 26 32 13 63 12 101 -4z m1493 -12 c12 -24 11 -25 -15 -22 -20 2
-29 9 -31 26 -5 32 31 29 46 -4z m-298 -30 c0 -2 -7 -4 -15 -4 -8 0 -15 4 -15
10 0 5 7 7 15 4 8 -4 15 -8 15 -10z m-1140 -28 c57 -30 83 -75 77 -135 -3 -23
-12 -50 -22 -60 -15 -15 -16 -14 -10 21 10 52 0 82 -30 96 -41 19 -82 14 -105
-10 l-21 -23 48 -15 c41 -13 50 -21 75 -69 22 -42 38 -112 26 -111 -2 0 -21 7
-43 15 -83 29 -216 14 -266 -31 -15 -13 -16 -12 -14 20 4 44 14 77 30 96 16
20 25 103 13 124 -45 81 132 141 242 82z m-54 -387 c17 -6 22 -19 28 -74 4
-37 4 -70 0 -74 -3 -3 -41 -5 -84 -4 -48 2 -94 -3 -119 -12 l-41 -14 0 68 c0
38 5 75 13 84 29 41 130 54 203 26z m690 -255 c26 -27 29 -41 14 -64 -7 -12
-12 -12 -34 0 -20 10 -26 21 -26 45 0 51 12 56 46 19z m-682 -5 c3 -2 8 -108
12 -235 l7 -230 -84 -1 c-46 -1 -106 -9 -134 -17 -27 -8 -51 -13 -53 -11 -3 3
0 105 7 227 12 242 12 242 74 265 30 12 160 13 171 2z m-1369 -156 c-62 -15
-95 -20 -95 -17 0 10 47 23 80 22 20 0 26 -2 15 -5z m25 -107 c0 -40 3 -100 6
-133 l7 -60 -49 -6 c-27 -3 -60 -9 -73 -13 l-24 -7 7 139 c4 91 11 141 19 146
7 4 33 8 60 8 l47 0 0 -74z m2205 64 c27 -6 50 -21 72 -47 38 -44 41 -72 13
-98 -28 -26 -38 -10 -12 18 22 23 22 24 4 40 -33 30 -89 15 -64 -16 8 -9 -2
-11 -43 -9 -35 3 -63 -2 -84 -12 -31 -16 -31 -16 -41 10 -13 34 -6 55 30 93
30 33 55 37 125 21z m-6 -159 c29 -25 32 -33 26 -60 -6 -30 8 -45 18 -18 3 7
6 5 6 -5 1 -16 -9 -18 -67 -18 -37 0 -82 -4 -100 -9 l-32 -10 0 42 c0 94 80
136 149 78z m-2191 -177 c3 -49 2 -51 -20 -47 -13 2 -44 -3 -70 -11 l-48 -14
0 49 c0 47 2 51 33 64 17 8 48 14 67 12 35 -2 35 -2 38 -53z m1351 46 c14 -1
14 -2 -1 -11 -19 -11 -65 -3 -75 14 -4 7 5 8 27 4 18 -4 40 -7 49 -7z m-104
-10 c-3 -5 -22 -10 -41 -10 -19 0 -34 5 -34 10 0 6 18 10 41 10 24 0 38 -4 34
-10z m954 -3 c54 -19 48 -32 -13 -29 -30 2 -78 -3 -106 -11 -38 -11 -50 -12
-50 -2 0 44 96 68 169 42z m-1059 -7 c0 -5 -6 -10 -14 -10 -8 0 -23 -3 -33 -6
-16 -5 -16 -4 1 10 22 18 46 21 46 6z m380 -39 c0 -5 -13 -3 -30 5 -16 9 -30
20 -30 25 0 5 14 3 30 -6 17 -9 30 -20 30 -24z m-103 11 c12 -7 -14 -9 -84 -5
-91 5 -184 -4 -242 -24 -13 -5 -14 -3 -4 7 32 35 278 51 330 22z m-357 4 c0
-2 -17 -14 -37 -26 l-38 -22 24 26 c21 22 51 35 51 22z m440 -31 c16 -9 19
-14 9 -15 -8 0 -24 7 -35 15 -24 18 -7 19 26 0z m-190 -10 c0 -11 -13 -15 -54
-15 -60 0 -164 -29 -213 -60 -24 -14 -33 -16 -33 -7 0 21 41 53 90 70 81 29
210 36 210 12z m79 -11 c3 -3 -9 -4 -28 -2 -19 2 -36 8 -38 15 -3 9 4 10 28 3
17 -5 34 -12 38 -16z m-354 -8 c-16 -13 -32 -22 -35 -19 -7 6 39 43 54 43 6 0
-2 -11 -19 -24z m1158 13 l37 -10 0 -78 c0 -43 -3 -112 -6 -153 l-7 -75 -71
-7 c-39 -3 -81 -9 -93 -12 l-23 -6 0 161 0 162 33 14 c39 17 79 18 130 4z
m-2185 -336 l2 -303 -67 0 c-38 0 -77 -3 -88 -6 -19 -5 -20 -1 -17 103 2 61
-4 175 -14 261 -9 84 -15 155 -12 157 3 3 13 3 22 -1 17 -6 21 -105 16 -390
-1 -64 3 -104 9 -109 8 -4 11 62 11 222 0 279 7 360 29 367 9 2 36 3 61 3 l45
-2 3 -302z m-175 283 c28 -13 20 -27 -10 -19 -16 4 -86 7 -158 7 -136 -1 -187
-12 -245 -54 l-28 -20 -10 30 c-6 16 -7 32 -2 35 13 8 21 -11 14 -32 -4 -12 2
-8 17 10 41 48 86 58 254 54 83 -2 158 -7 168 -11z m1227 -29 c0 -2 -12 -14
-27 -28 l-28 -24 24 28 c23 25 31 32 31 24z m-1279 -29 c13 -20 21 -164 23
-391 0 -119 4 -217 9 -217 4 0 7 -49 7 -109 0 -105 -1 -110 -22 -117 -33 -9
-58 -34 -58 -56 0 -14 -8 -18 -34 -18 -19 0 -37 -4 -40 -9 -4 -5 10 -105 29
-223 40 -245 60 -406 52 -415 -10 -9 -106 18 -130 37 -13 10 -36 22 -50 25
l-27 7 0 134 c0 83 -4 134 -10 134 -5 0 -10 -7 -10 -15 0 -10 -15 -15 -57 -17
l-58 -3 -3 -37 c-2 -29 -8 -37 -27 -42 -14 -4 -32 -19 -42 -34 -36 -58 -48
-63 -186 -82 -122 -17 -148 -18 -135 -5 3 3 56 12 119 20 63 9 124 18 135 20
21 5 22 11 26 152 4 114 1 154 -9 173 -12 22 -9 60 33 325 26 165 61 397 78
514 l31 215 32 18 c17 10 51 23 75 28 59 13 239 4 249 -12z m1719 7 c-7 -9
-15 -13 -19 -10 -3 3 1 10 9 15 21 14 24 12 10 -5z m-143 -49 l30 -15 6 -122
c4 -67 7 -178 7 -246 l0 -123 -102 0 c-57 0 -134 -7 -173 -15 -38 -8 -72 -15
-74 -15 -5 0 8 425 15 476 5 36 11 44 42 57 21 9 46 18 57 21 37 9 163 -2 192
-18z m-2151 -32 c18 -5 24 -13 24 -34 0 -28 -1 -28 -65 -32 l-66 -3 3 35 c2
27 8 36 28 41 14 4 31 5 38 3 8 -2 25 -7 38 -10z m-555 -20 c64 -19 70 -23 63
-49 -4 -18 -14 -20 -82 -20 -42 0 -90 -4 -105 -9 -28 -8 -28 -8 -25 25 2 27
10 37 38 51 43 22 43 22 111 2z m574 -76 c2 -7 5 -210 7 -450 l3 -437 -68 0
-67 0 0 447 1 447 60 3 c42 2 60 -1 64 -10z m3446 -17 c28 -28 29 -33 29 -124
0 -53 3 -102 6 -110 5 -13 1 -14 -29 -5 -33 10 -117 2 -157 -16 -14 -6 -16 9
-15 110 l0 116 33 29 c44 40 93 40 133 0z m-4010 -1 c18 -10 19 -25 19 -384 0
-320 -2 -375 -15 -386 -24 -20 -18 -41 15 -53 l30 -11 0 -178 0 -178 -55 0
c-43 0 -56 -4 -65 -19 -6 -12 -10 -107 -10 -240 0 -122 -2 -221 -4 -221 -2 0
-11 -3 -19 -6 -17 -6 -23 194 -33 1108 l-7 558 24 9 c32 13 96 13 120 1z
m3499 -49 c0 -6 -21 -13 -47 -16 -27 -4 -56 -9 -65 -12 -10 -2 -18 0 -18 6 0
6 12 13 28 17 15 3 32 7 37 9 22 7 65 4 65 -4z m55 -11 c8 -13 -5 -13 -25 0
-13 8 -13 10 2 10 9 0 20 -4 23 -10z m-641 -26 c3 -9 6 -92 6 -185 l0 -170
-29 15 c-25 13 -29 22 -35 77 -3 34 -6 93 -6 130 0 55 3 69 15 69 20 0 19 19
-1 41 -9 10 -13 23 -9 28 10 17 52 13 59 -5z m417 -5 c-12 -12 -25 -18 -29
-14 -4 4 2 13 12 21 30 22 43 17 17 -7z m334 11 c3 -5 -1 -10 -9 -10 -9 0 -16
5 -16 10 0 6 4 10 9 10 6 0 13 -4 16 -10z m-87 -15 c1 -1 -35 -5 -80 -9 -46
-4 -94 -10 -107 -13 -17 -4 -22 -2 -19 8 6 18 68 28 143 21 33 -2 61 -6 63 -7z
m-242 -41 c-11 -7 -22 -11 -25 -8 -3 3 3 12 13 20 11 7 22 11 25 8 3 -3 -3
-12 -13 -20z m339 6 c8 -13 -5 -13 -25 0 -13 8 -13 10 2 10 9 0 20 -4 23 -10z
m-142 -46 l37 -7 0 -198 0 -199 -44 0 c-23 0 -71 -3 -105 -6 l-61 -7 0 110 c0
60 3 151 7 202 l6 91 31 9 c38 11 79 13 129 5z m387 -147 c0 -53 -1 -54 -35
-64 -34 -11 -35 -11 -35 17 0 35 17 82 33 92 28 18 37 8 37 -45z m-2566 -163
c4 -69 6 -127 4 -129 -2 -1 -36 -6 -75 -10 l-73 -7 0 136 0 136 69 0 68 0 7
-126z m-169 -152 c-13 -13 -15 14 -8 139 l8 134 3 -134 c1 -73 0 -136 -3 -139z
m1485 259 c0 -4 -44 -11 -97 -14 -54 -3 -119 -12 -145 -20 -53 -17 -67 -5 -15
12 71 24 257 40 257 22z m110 -11 c24 -8 24 -8 -5 -8 -16 0 -43 4 -60 8 l-30
8 35 0 c19 0 46 -4 60 -8z m2 -37 c17 -5 -37 -8 -135 -9 -123 0 -174 -4 -212
-17 -27 -9 -51 -14 -54 -11 -11 10 19 25 80 39 67 15 266 14 321 -2z m-412 -1
c0 -5 -11 -14 -25 -20 -29 -13 -31 -10 -9 12 17 17 34 21 34 8z m1455 -2 c-3
-5 -11 -10 -16 -10 -6 0 -7 5 -4 10 3 6 11 10 16 10 6 0 7 -4 4 -10z m-931
-33 c3 -12 3 -23 1 -25 -9 -9 -35 21 -35 39 0 25 26 14 34 -14z m1147 6 c5 -5
-36 -8 -89 -8 -71 0 -106 -4 -129 -17 -32 -16 -45 -10 -20 9 29 24 76 33 151
28 44 -3 83 -8 87 -12z m-1676 -22 c-3 -6 -14 -11 -23 -11 -15 1 -15 2 2 15
21 16 32 13 21 -4z m1725 9 c8 -5 12 -11 9 -14 -3 -3 -14 1 -25 9 -21 16 -8
20 16 5z m-2349 -17 c30 -7 25 -9 -36 -14 -38 -3 -78 -9 -89 -14 -14 -6 -18
-5 -14 6 8 24 77 35 139 22z m2217 -19 c22 -6 22 -7 22 -210 l0 -204 -37 1
c-21 1 -50 -4 -65 -10 l-28 -11 0 214 c0 162 3 216 13 219 17 8 68 8 95 1z
m-1083 -14 c-3 -5 -11 -10 -16 -10 -6 0 -7 5 -4 10 3 6 11 10 16 10 6 0 7 -4
4 -10z m-1075 -10 c10 -6 -3 -7 -40 -3 -38 4 -52 2 -45 -5 6 -6 21 -12 35 -14
22 -3 25 -7 22 -38 -2 -19 -5 -36 -5 -36 -1 -1 -37 -4 -79 -6 l-78 -5 0 53 c0
32 5 54 13 57 22 9 162 7 177 -3z m910 -733 c8 -381 15 -824 17 -985 l4 -294
-53 8 c-114 16 -187 19 -291 11 -60 -5 -111 -6 -114 -3 -6 6 10 324 32 656 8
118 22 328 30 465 8 138 22 362 30 500 8 137 15 257 15 267 0 39 134 76 254
70 l62 -4 14 -691z m102 657 c15 -8 30 -24 32 -37 2 -12 10 -137 16 -277 18
-404 40 -781 55 -955 8 -88 15 -163 15 -168 0 -4 17 -5 38 -2 20 2 72 7 115
10 l77 6 -2 -243 -3 -243 -37 -3 -38 -3 0 105 c0 88 -3 106 -15 106 -8 0 -15
4 -15 9 0 5 10 7 22 3 17 -4 20 -2 15 12 -4 10 -7 49 -7 87 0 67 -1 69 -25 69
l-25 0 -2 -198 -3 -197 -119 -8 c-65 -4 -120 -6 -121 -5 -7 7 -45 1107 -50
1418 -3 184 -8 382 -11 438 l-5 104 33 -7 c18 -4 45 -14 60 -21z m708 -18 c0
-21 -5 -24 -61 -30 -96 -10 -99 -9 -99 18 0 27 14 31 113 34 43 2 47 0 47 -22z
m77 8 c-3 -3 -12 -4 -19 -1 -8 3 -5 6 6 6 11 1 17 -2 13 -5z m-257 -14 c0 -5
-7 -10 -15 -10 -8 0 -15 5 -15 10 0 6 7 10 15 10 8 0 15 -4 15 -10z m-3240
-71 c0 -33 -4 -59 -10 -59 -6 0 -10 29 -10 66 0 41 4 63 10 59 6 -3 10 -33 10
-66z m3197 34 c-3 -10 -5 -4 -5 12 0 17 2 24 5 18 2 -7 2 -21 0 -30z m391 25
c16 -16 15 -33 -1 -19 -8 6 -17 8 -20 4 -4 -3 -7 1 -7 10 0 20 11 22 28 5z
m-3558 -53 c0 -30 -4 -55 -10 -55 -11 0 -14 93 -3 103 12 12 13 8 13 -48z
m1245 45 c13 -6 -13 -9 -75 -9 -62 0 -88 3 -75 9 11 5 45 9 75 9 30 0 64 -4
75 -9z m2188 3 c-7 -2 -19 -2 -25 0 -7 3 -2 5 12 5 14 0 19 -2 13 -5z m-3504
-60 c0 -42 -3 -52 -9 -38 -12 28 -12 95 0 95 6 0 10 -25 9 -57z m98 -20 c-2
-16 -4 -3 -4 27 0 30 2 43 4 28 2 -16 2 -40 0 -55z m40 0 c-2 -16 -4 -3 -4 27
0 30 2 43 4 28 2 -16 2 -40 0 -55z m1003 72 c0 -2 -15 -8 -32 -13 -18 -6 -42
-13 -52 -18 -13 -5 -17 -4 -12 4 10 16 96 41 96 27z m2407 -1 c-3 -3 -12 -4
-19 -1 -8 3 -5 6 6 6 11 1 17 -2 13 -5z m-1917 -269 l0 -255 -22 0 c-13 0 -33
-3 -45 -6 l-23 -6 0 238 c0 132 3 249 6 262 5 18 13 22 45 22 l39 0 0 -255z
m60 55 c0 -171 -2 -200 -15 -200 -13 0 -15 29 -15 200 0 171 2 200 15 200 13
0 15 -29 15 -200z m1230 190 c0 -5 -4 -10 -10 -10 -5 0 -10 5 -10 10 0 6 5 10
10 10 6 0 10 -4 10 -10z m544 2 c3 -5 -33 -12 -80 -18 -63 -7 -84 -6 -84 3 0
6 10 14 23 16 41 8 136 7 141 -1z m-3226 -40 c3 -11 -45 -25 -58 -17 -6 4 -10
17 -10 30 0 23 1 24 32 11 18 -8 34 -18 36 -24z m1122 28 c14 -4 -10 -5 -52
-2 -81 5 -183 -10 -230 -34 -25 -13 -28 -13 -28 1 0 8 1 15 3 15 1 0 20 7 42
15 43 15 221 19 265 5z m1907 -15 c-4 -8 -11 -15 -17 -15 -14 0 -13 27 3 33
16 6 21 1 14 -18z m368 15 c3 -6 -1 -7 -9 -4 -18 7 -21 14 -7 14 6 0 13 -4 16
-10z m-2215 -20 c8 -5 11 -10 5 -10 -5 0 -17 5 -25 10 -8 5 -10 10 -5 10 6 0
17 -5 25 -10z m2048 -17 c2 -9 -11 -13 -45 -13 -70 -1 -126 -16 -145 -41 l-18
-21 0 26 c0 15 8 30 19 36 54 28 180 37 189 13z m-2198 -8 c0 -11 -12 -15 -50
-15 -28 0 -66 -7 -85 -14 -30 -13 -35 -13 -35 -1 0 25 50 42 128 44 31 1 42
-3 42 -14z m1650 -90 c0 -57 -4 -95 -10 -95 -6 0 -10 38 -10 95 0 57 4 95 10
95 6 0 10 -38 10 -95z m-2680 54 c0 -15 -4 -16 -35 -7 -40 13 -38 27 5 26 22
-1 30 -6 30 -19z m804 -10 c24 -19 26 -27 26 -90 l0 -69 -40 0 c-37 0 -39 2
-45 38 -4 20 -11 59 -16 85 -5 26 -9 50 -9 52 0 14 61 2 84 -16z m-870 -9 c36
-12 66 -26 66 -31 0 -7 -7 -8 -17 -4 -62 27 -123 36 -198 29 -54 -4 -77 -3
-70 4 27 27 134 28 219 2z m1133 -14 c8 -7 16 -85 23 -236 12 -261 36 -607 50
-712 5 -43 5 -77 0 -82 -5 -5 -55 1 -122 16 l-113 25 0 146 c0 81 1 306 3 501
2 402 -7 367 92 358 30 -2 60 -10 67 -16z m-1527 -430 c0 -396 -2 -445 -16
-450 -46 -17 -44 -33 -44 437 0 244 3 447 7 450 3 4 17 7 30 7 l23 0 0 -444z
m1356 87 c-10 -551 -15 -641 -34 -637 -80 15 -75 10 -68 67 6 51 22 262 51
687 9 118 17 221 20 228 2 6 12 12 21 12 14 0 15 -32 10 -357z m-1436 312 c0
-10 -10 -15 -28 -15 -15 0 -38 -7 -50 -16 -20 -14 -22 -21 -16 -65 5 -35 3
-49 -5 -49 -8 0 -11 20 -9 63 3 60 4 63 38 79 43 22 70 23 70 3z m388 -53 l22
-3 0 -230 0 -229 -24 -6 c-13 -3 -35 -4 -47 -2 l-24 3 -3 223 c-1 122 1 222 6
222 4 0 6 16 4 36 -6 50 18 65 33 21 7 -22 17 -33 33 -35z m117 48 c3 -6 -6
-15 -20 -20 -35 -13 -35 -13 -35 10 0 15 7 20 24 20 14 0 28 -5 31 -10z m3299
-9 l26 -11 0 -187 0 -188 -115 3 -115 3 1 162 c2 195 6 219 39 229 31 9 127 2
164 -11z m-3804 -87 l0 -66 -32 7 c-47 10 -48 11 -48 65 0 42 3 49 23 53 58
11 57 12 57 -59z m2425 35 c5 -5 -3 -9 -20 -9 -17 0 -40 -3 -52 -6 -17 -5 -23
-2 -23 9 0 26 68 30 95 6z m-1696 -158 l-4 -169 -37 -4 -38 -4 0 167 c0 179
-1 177 54 178 l28 1 -3 -169z m101 149 c10 -18 8 -19 -20 -13 l-31 6 3 -152
c3 -151 3 -151 -19 -151 -23 0 -23 1 -23 165 l0 165 40 0 c29 0 42 -5 50 -20z
m-960 -46 c0 -19 -4 -24 -17 -20 -10 3 -40 8 -68 11 -39 5 -46 4 -32 -5 30
-19 21 -40 -18 -40 -24 0 -35 5 -35 15 0 8 -4 15 -10 15 -5 0 -10 -4 -10 -9 0
-5 -9 -11 -20 -14 -21 -5 -26 8 -11 32 5 7 45 19 92 26 126 20 129 19 129 -11z
m2534 20 c14 -5 16 -50 16 -404 l0 -398 -31 -11 c-18 -6 -36 -11 -42 -11 -10
0 0 806 10 823 5 9 26 9 47 1z m1814 -1 c-10 -2 -26 -2 -35 0 -10 3 -2 5 17 5
19 0 27 -2 18 -5z m-58 -18 c0 -16 -5 -19 -52 -29 -21 -5 -28 -3 -28 9 0 8 5
16 10 16 6 1 14 2 19 3 5 0 13 4 17 9 13 12 34 8 34 -8z m185 5 c3 -5 -1 -10
-9 -10 -9 0 -16 5 -16 10 0 6 4 10 9 10 6 0 13 -4 16 -10z m-1107 -12 c9 -9
12 -143 12 -542 0 -291 -2 -527 -4 -525 -2 2 -5 222 -6 489 -3 519 -5 560 -26
560 -8 0 -14 7 -14 15 0 18 21 20 38 3z m1143 -1 c-1 -12 -15 -9 -19 4 -3 6 1
10 8 8 6 -3 11 -8 11 -12z m-151 -7 c0 -5 -11 -10 -24 -10 -14 0 -28 5 -31 10
-4 6 7 10 24 10 17 0 31 -4 31 -10z m-4362 -26 c6 -2 12 -13 12 -25 0 -15 -4
-19 -16 -15 -9 3 -27 6 -40 6 -19 0 -24 5 -24 25 0 26 10 27 68 9z m229 -511
c-1 -98 -2 -20 -2 172 -1 193 1 273 2 178 2 -94 2 -252 0 -350z m3958 507 c3
-5 -3 -10 -14 -10 -12 0 -21 5 -21 10 0 6 6 10 14 10 8 0 18 -4 21 -10z m105
-5 c0 -8 -7 -15 -15 -15 -16 0 -20 12 -8 23 11 12 23 8 23 -8z m60 -1 c0 -2
-9 -4 -20 -4 -11 0 -20 4 -20 9 0 5 9 7 20 4 11 -3 20 -7 20 -9z m157 -3 c0
-11 -5 -18 -9 -15 -4 3 -5 11 -1 19 7 21 12 19 10 -4z m-4473 -6 c-4 -8 -8
-15 -10 -15 -2 0 -4 7 -4 15 0 8 4 15 10 15 5 0 7 -7 4 -15z m4198 -7 c-6 -6
-15 -8 -19 -4 -4 4 -1 11 7 16 19 12 27 3 12 -12z m-4124 6 c12 -4 22 -14 22
-24 0 -14 -6 -16 -37 -11 -25 4 -39 12 -41 24 -4 18 15 22 56 11z m-280 -16
c-7 -19 -38 -22 -38 -4 0 10 9 16 21 16 12 0 19 -5 17 -12z m82 -8 c0 -16 -7
-20 -30 -20 -23 0 -30 4 -30 20 0 16 7 20 30 20 23 0 30 -4 30 -20z m-133 -22
c-3 -8 -6 -5 -6 6 -1 11 2 17 5 13 3 -3 4 -12 1 -19z m4502 18 c-2 -2 -24 -6
-49 -9 -30 -4 -38 -3 -25 3 19 8 83 14 74 6z m-4279 -16 c25 -15 7 -18 -35 -5
-38 12 -39 13 -10 14 17 0 37 -3 45 -9z m108 -15 c35 -10 27 -28 -10 -20 -40
9 -48 13 -48 26 0 6 8 8 18 5 9 -2 27 -7 40 -11z m-71 -47 c-2 -13 -4 -5 -4
17 -1 22 1 32 4 23 2 -10 2 -28 0 -40z m1163 35 c-1 -35 -14 -53 -41 -53 -26
0 -29 4 -29 30 0 28 3 30 35 30 19 0 35 -3 35 -7z m17 -160 c-2 -32 -3 -6 -3
57 0 63 1 89 3 58 2 -32 2 -84 0 -115z m3130 145 c9 -7 13 -48 13 -144 l0
-134 -39 0 c-21 0 -53 -3 -70 -6 l-32 -7 3 149 3 149 30 6 c36 7 75 2 92 -13z
m-2227 -33 c0 -25 -4 -45 -10 -45 -5 0 -10 20 -10 45 0 25 5 45 10 45 6 0 10
-20 10 -45z m-2014 9 c13 -3 24 -13 24 -21 0 -10 -6 -13 -16 -9 -9 3 -27 9
-40 12 -13 3 -24 13 -24 21 0 10 6 13 16 9 9 -3 27 -9 40 -12z m1092 -97 c3
-62 1 -68 -15 -63 -10 2 -36 10 -58 16 -38 11 -40 14 -39 48 1 26 0 28 -3 9
-5 -32 -31 -47 -44 -26 -6 10 1 24 23 46 32 34 53 42 103 39 30 -1 30 -1 33
-69z m-1320 -9 c-2 -38 -8 -63 -15 -66 -10 -3 -13 14 -13 62 0 53 3 66 15 66
13 0 15 -11 13 -62z m-58 -7 c0 -52 -9 -79 -21 -67 -8 8 3 126 12 126 5 0 9
-27 9 -59z m307 -78 c-2 -27 -3 -5 -3 47 0 52 1 74 3 48 2 -27 2 -69 0 -95z
m1932 113 c-9 -8 -89 -13 -89 -6 0 5 19 10 43 12 41 3 54 1 46 -6z m59 -3
c-10 -2 -26 -2 -35 0 -10 3 -2 5 17 5 19 0 27 -2 18 -5z m-1770 -48 c3 -35 -8
-54 -30 -55 -10 0 -10 84 -1 94 15 14 28 -2 31 -39z m42 -5 c0 -22 -4 -40 -10
-40 -5 0 -10 18 -10 40 0 22 5 40 10 40 6 0 10 -18 10 -40z m1670 -137 c0 -93
-3 -184 -6 -204 -6 -35 -8 -37 -45 -37 l-39 -1 0 198 c0 109 3 201 7 204 3 4
24 7 45 7 l38 0 0 -167z m70 -25 c0 -135 -3 -189 -11 -181 -6 6 -13 86 -16
192 -6 164 -5 181 10 181 15 0 17 -20 17 -192z m-2064 142 c13 0 24 -5 24 -10
0 -11 -45 -3 -70 12 -12 8 -11 8 3 4 10 -3 30 -6 43 -6z m969 -1 c-41 -12
-456 -61 -463 -54 -3 3 -3 7 -1 9 6 6 409 54 454 54 39 0 39 0 10 -9z m2918
-9 c5 -4 12 -194 17 -421 5 -228 14 -511 21 -630 6 -119 10 -221 8 -226 -2 -6
-38 0 -90 14 l-86 25 -7 306 c-4 169 -4 400 -1 513 4 125 3 214 -2 224 -9 16
-23 -525 -23 -892 0 -154 0 -155 -54 -134 -17 7 -18 21 -17 224 2 190 0 217
-13 217 -13 0 -16 13 -16 66 0 91 21 508 26 513 2 2 10 -2 19 -9 12 -10 15
-58 18 -299 l2 -286 3 297 c2 295 2 297 -19 309 -20 10 -21 16 -16 92 4 44 11
85 17 91 22 22 190 27 213 6z m-2738 -30 c50 -16 76 -27 58 -24 -44 7 -181 52
-163 53 8 0 56 -13 105 -29z m-1335 0 c0 -5 -7 -10 -15 -10 -8 0 -15 5 -15 10
0 6 7 10 15 10 8 0 15 -4 15 -10z m205 -12 c7 -7 -1 -8 -25 -3 -53 11 -74 28
-25 20 22 -4 45 -11 50 -17z m955 -2 c0 -28 18 -25 -270 -56 -102 -12 -191
-23 -197 -25 -8 -3 -13 5 -13 21 0 13 6 27 13 29 16 6 392 53 435 54 28 1 32
-2 32 -23z m-660 4 c-25 -4 -54 -11 -65 -15 -18 -8 -19 -7 -6 8 10 12 28 17
65 16 l51 -2 -45 -7z m-552 -66 c3 -64 -4 -83 -30 -84 -5 0 -8 34 -8 75 0 65
2 75 18 75 15 0 18 -11 20 -66z m1410 30 c56 -15 100 -29 98 -31 -5 -5 -195
43 -227 57 l-24 11 25 -5 c14 -3 71 -18 128 -32z m-1358 6 c0 -11 -7 -20 -15
-20 -8 0 -15 9 -15 20 0 11 7 20 15 20 8 0 15 -9 15 -20z m147 -37 c-3 -10 -5
-2 -5 17 0 19 2 27 5 18 2 -10 2 -26 0 -35z m30 0 c-3 -10 -5 -2 -5 17 0 19 2
27 5 18 2 -10 2 -26 0 -35z m361 30 c-2 -11 -14 -19 -31 -21 -22 -3 -27 1 -27
17 0 17 6 21 31 21 24 0 30 -4 27 -17z m-78 -153 c0 -127 -2 -150 -15 -150
-13 0 -15 23 -15 150 0 127 2 150 15 150 13 0 15 -23 15 -150z m196 141 c-7
-11 -86 -20 -86 -9 0 7 29 14 68 17 13 0 21 -3 18 -8z m502 -176 c-2 -2 -86
-10 -188 -19 -102 -9 -213 -19 -247 -22 l-63 -6 0 -44 c0 -24 -4 -44 -10 -44
-5 0 -10 23 -10 50 0 43 3 50 20 50 18 0 20 7 20 80 l0 79 33 5 c26 5 342 41
422 49 18 2 20 -5 23 -87 1 -49 1 -90 0 -91z m-908 70 c0 -63 -4 -105 -10
-105 -6 0 -10 42 -10 105 0 63 4 105 10 105 6 0 10 -42 10 -105z m-242 58 c-2
-27 -8 -39 -20 -41 -15 -3 -18 4 -18 37 0 35 3 41 21 41 17 0 20 -5 17 -37z
m530 -160 l-3 -188 -25 0 -25 0 -3 188 -2 187 30 0 30 0 -2 -187z m3942 27 l0
-160 -70 0 -70 0 0 154 c0 175 -6 163 88 165 l52 1 0 -160z m-4300 118 c0 -13
-32 -6 -37 9 -3 7 3 9 16 6 12 -3 21 -10 21 -15z m465 -8 c-28 -12 -57 -12
-50 0 3 6 21 10 38 9 27 0 29 -2 12 -9z m723 -19 c132 -31 212 -57 142 -46
-64 9 -265 58 -274 67 -15 12 -6 11 132 -21z m-1178 -11 c12 -8 11 -10 -5 -9
-11 1 -31 5 -45 9 -24 8 -24 8 5 9 17 0 37 -4 45 -9z m1057 -232 c-1 -46 -3
-9 -3 82 0 91 2 128 3 83 2 -46 2 -120 0 -165z m-1247 207 c0 -16 -6 -25 -15
-25 -15 0 -21 31 -8 43 13 14 23 6 23 -18z m-50 -5 c0 -11 -7 -20 -15 -20 -8
0 -15 9 -15 20 0 11 7 20 15 20 8 0 15 -9 15 -20z m1341 -41 c-5 -30 -9 -42
-10 -28 -1 30 10 92 15 86 3 -2 0 -28 -5 -58z m66 29 c-3 -8 -6 -5 -6 6 -1 11
2 17 5 13 3 -3 4 -12 1 -19z m50 -60 c-2 -13 -4 -3 -4 22 0 25 2 35 4 23 2
-13 2 -33 0 -45z m47 5 c4 -34 3 -53 -4 -53 -6 0 -10 24 -10 57 0 68 5 66 14
-4z m930 47 c23 -9 26 -15 26 -63 l0 -53 -40 -2 -40 -3 0 43 c0 24 -3 53 -6
66 -5 17 -2 22 14 22 11 0 32 -4 46 -10z m-1018 -48 c-4 -3 -12 0 -19 7 -9 9
-9 14 3 21 11 7 16 5 18 -6 2 -9 1 -18 -2 -22z m154 -53 c0 -57 -4 -88 -10
-84 -5 3 -10 44 -10 91 0 49 4 84 10 84 6 0 10 -37 10 -91z m-1580 21 c0 -33
-4 -60 -10 -60 -6 0 -10 27 -10 60 0 33 4 60 10 60 6 0 10 -27 10 -60z m1230
11 l0 -28 -113 -12 c-152 -15 -147 -15 -147 14 0 14 1 25 3 26 4 2 212 26 235
28 18 1 22 -4 22 -28z m155 -1 c3 -5 1 -10 -4 -10 -6 0 -11 5 -11 10 0 6 2 10
4 10 3 0 8 -4 11 -10z m-435 -15 c0 -8 -6 -15 -12 -15 -7 -1 -37 -3 -65 -5
-41 -3 -53 -1 -53 10 0 9 15 15 48 18 26 2 55 4 65 5 9 1 17 -5 17 -13z m483
8 c-14 -5 -18 -79 -5 -86 4 -3 21 -8 39 -11 31 -7 32 -6 36 31 l4 38 1 -42 c2
-37 5 -43 24 -43 12 0 19 -3 16 -6 -8 -7 -178 28 -178 37 0 4 9 5 20 2 18 -5
20 0 20 41 0 37 3 46 18 45 10 0 12 -3 5 -6z m-633 -27 c0 -19 -6 -25 -30 -28
-26 -4 -30 -1 -30 18 0 23 11 32 43 33 11 1 17 -7 17 -23z m-711 -18 c0 -18
-3 -27 -6 -20 -2 6 -18 12 -34 12 -22 0 -29 5 -29 20 0 16 7 20 35 20 33 0 35
-2 34 -32z m211 -9 c19 -11 -96 0 -125 13 -12 5 4 6 45 2 35 -3 71 -10 80 -15z
m655 12 c3 -5 1 -12 -4 -15 -5 -3 -11 1 -15 9 -6 16 9 21 19 6z m265 -377 c0
-362 -1 -385 -17 -382 -17 3 -18 24 -21 256 -1 172 1 251 8 247 11 -7 -34 72
-75 133 l-25 37 0 -343 c0 -305 2 -343 16 -349 9 -3 121 2 250 11 129 10 279
17 334 17 l100 -1 0 125 c0 122 1 127 26 152 23 23 31 25 77 20 29 -3 148 1
266 8 211 14 311 11 311 -7 0 -6 -14 -7 -32 -3 -45 10 -576 -26 -596 -41 -14
-10 -15 -37 -13 -208 2 -192 2 -196 -18 -196 -18 0 -21 6 -21 49 0 33 -6 55
-17 67 -19 19 -29 19 -447 -11 -204 -15 -220 -15 -237 1 -18 16 -19 38 -19
356 0 325 -1 339 -20 358 -11 11 -31 20 -45 20 -25 0 -44 24 -30 38 5 5 150
25 228 31 16 1 17 -24 17 -385z m1016 367 c-3 -4 -41 -11 -84 -14 -44 -2 -89
-10 -102 -17 -12 -6 -24 -9 -27 -7 -8 8 34 28 80 37 57 11 139 12 133 1z
m-1326 -11 c0 -12 -25 -17 -107 -23 -35 -3 -63 -1 -63 3 0 7 70 19 158 29 6 0
12 -3 12 -9z m1534 4 c18 -7 22 -34 6 -34 -13 0 -70 29 -70 35 0 7 45 6 64 -1z
m-2266 -21 c-17 -4 -18 -28 -18 -324 0 -277 -2 -319 -15 -319 -13 0 -15 42
-15 315 0 288 1 315 18 324 9 6 24 10 32 10 11 -1 10 -3 -2 -6z m344 -45 c5
-41 3 -47 -18 -57 l-24 -11 0 -378 0 -379 -37 -7 c-21 -3 -59 -6 -85 -6 l-47
0 0 430 -1 429 33 6 c29 5 170 22 173 21 1 -1 4 -22 6 -48z m1803 43 c51 -6
37 -8 -85 -13 -80 -3 -153 -9 -162 -13 -11 -4 -18 -3 -18 3 0 25 140 37 265
23z m-2315 -11 c0 -5 -9 -10 -20 -10 -11 0 -20 5 -20 10 0 6 9 10 20 10 11 0
20 -4 20 -10z m293 3 c-7 -2 -21 -2 -30 0 -10 3 -4 5 12 5 17 0 24 -2 18 -5z
m-216 -470 c-1 -87 -3 -16 -3 157 0 173 2 244 3 158 2 -87 2 -229 0 -315z
m192 451 c2 -2 -10 -4 -27 -4 -17 0 -34 4 -37 10 -5 9 53 3 64 -6z m685 -3
c16 -18 13 -19 -106 -26 -161 -10 -161 -10 -176 -19 -16 -9 -18 -607 -2 -637
7 -12 21 -19 40 -19 l30 0 0 -215 c0 -192 -2 -215 -16 -215 -14 0 -15 7 -11
37 7 41 -15 98 -45 116 -14 9 -18 24 -18 64 0 46 3 53 19 53 28 0 37 20 13 27
-11 3 -24 12 -27 21 -10 25 -23 753 -15 777 16 44 18 44 246 53 39 2 55 -2 68
-17z m-954 -76 c0 -51 -3 -65 -15 -65 -28 0 -15 128 13 130 1 0 2 -29 2 -65z
m2210 26 c0 -33 -4 -40 -25 -45 -35 -9 -45 -1 -45 38 0 40 5 46 42 46 26 0 28
-3 28 -39z m50 -1 c0 -36 3 -40 25 -40 14 0 25 -4 25 -9 0 -4 -20 -4 -45 2
-44 10 -45 11 -45 49 0 31 3 38 20 38 17 0 20 -7 20 -40z m44 13 c-10 -40 -14
-41 -14 -5 0 18 5 32 10 32 6 0 8 -11 4 -27z m2279 21 c64 -9 48 -28 -17 -20
-70 8 -204 -8 -224 -27 -14 -14 -13 -18 2 -42 15 -23 17 -48 14 -185 -1 -87
-6 -161 -10 -165 -12 -13 -158 -19 -158 -6 0 25 40 51 80 51 29 0 42 5 50 20
12 22 8 250 -5 307 -6 26 -3 33 15 43 45 24 167 36 253 24z m-2463 -44 c0 -38
-2 -40 -30 -40 -27 0 -30 3 -30 34 0 34 9 44 43 45 13 1 17 -7 17 -39z m2918
8 c4 -31 7 -30 -208 -48 -69 -6 -137 -13 -152 -15 -25 -4 -28 -2 -28 25 0 17
3 30 8 31 4 0 84 9 177 19 94 10 177 17 185 16 8 0 16 -13 18 -28z m-4770 15
c-16 -2 -40 -2 -55 0 -16 2 -3 4 27 4 30 0 43 -2 28 -4z m741 -41 l31 -49 0
-491 0 -492 -40 0 -40 0 0 468 c0 551 10 506 -114 495 -46 -3 -83 -12 -92 -20
-11 -12 -14 -59 -14 -244 l0 -230 -27 3 -28 3 -3 287 -2 286 62 7 c51 5 162
17 224 24 7 0 26 -21 43 -47z m581 -211 l0 -229 -62 -6 c-169 -16 -248 -18
-248 -8 0 13 31 18 144 27 91 7 96 9 96 37 0 17 -3 18 -14 9 -8 -7 -32 -11
-53 -9 l-38 4 41 8 c39 8 41 9 30 32 -8 18 -19 24 -43 24 -23 0 -33 5 -33 15
0 10 10 15 33 15 75 0 78 4 76 90 -2 97 -7 105 -53 97 -36 -6 -36 -5 -36 30
l0 36 -46 -7 c-26 -3 -55 -6 -65 -6 -18 0 -19 -10 -19 -130 l0 -130 50 0 c28
0 50 -4 50 -10 0 -6 -27 -10 -60 -10 l-60 0 0 160 c0 88 1 160 3 161 8 3 229
27 265 28 l42 1 0 -229z m2912 84 c-3 -156 -2 -154 -58 -139 -20 5 -22 14 -26
137 -3 73 -3 135 -1 140 2 4 23 7 46 7 l42 0 -3 -145z m70 1 c6 -131 7 -141
30 -157 23 -18 23 -18 -17 -9 -22 5 -43 10 -47 10 -4 0 -8 68 -10 150 -3 146
-2 151 17 148 19 -3 20 -13 27 -142z m-3982 105 c0 -16 -7 -34 -15 -41 -13
-11 -15 -63 -15 -356 l0 -344 -35 0 -35 0 0 379 0 380 43 4 c23 2 45 4 50 5 4
1 7 -11 7 -27z m4450 -91 c0 -64 -4 -92 -12 -95 -16 -5 -362 -33 -366 -30 -2
2 -6 44 -9 94 -6 85 -5 91 13 92 10 0 71 6 134 13 63 8 143 14 178 15 l62 1 0
-90z m-2806 74 c80 -11 50 -24 -56 -24 -57 -1 -123 -5 -148 -10 -25 -4 -49 -6
-53 -3 -19 12 17 27 80 33 98 10 125 11 177 4z m-1632 -402 c2 -171 0 -312 -4
-312 -5 0 -7 156 -6 348 1 191 3 331 4 312 2 -19 5 -176 6 -348z m1558 283 c0
-84 0 -85 -25 -85 -25 0 -25 1 -25 78 0 84 3 92 32 92 16 0 18 -9 18 -85z
m-2150 60 c0 -9 -9 -15 -25 -15 -29 0 -34 16 -7 23 30 8 32 7 32 -8z m933 -44
c4 -29 6 -243 5 -475 l-3 -421 -42 -3 -43 -3 0 283 c0 320 -2 328 -66 328
l-34 0 2 168 3 167 50 6 c28 4 66 6 85 5 34 -1 35 -2 43 -55z m1157 -25 l0
-84 -55 -4 -56 -3 3 80 c3 80 3 80 33 86 76 17 75 18 75 -75z m-760 60 c0 -3
-4 -8 -10 -11 -5 -3 -10 -1 -10 4 0 6 5 11 10 11 6 0 10 -2 10 -4z m418 -17
c117 -24 135 -29 129 -35 -7 -7 -220 37 -231 48 -14 11 -8 11 102 -13z m509
-86 c-2 -21 -4 -4 -4 37 0 41 2 58 4 38 2 -21 2 -55 0 -75z m-2267 67 c0 -5
-9 -10 -20 -10 -11 0 -20 5 -20 10 0 6 9 10 20 10 11 0 20 -4 20 -10z m1500
-59 c0 -67 -6 -72 -95 -69 -29 0 -38 3 -22 5 37 6 34 23 -4 23 -22 0 -32 -5
-36 -20 -10 -37 -23 -9 -23 50 l0 59 43 4 c23 2 63 4 90 5 l47 2 0 -59z
m-1500 -26 c0 -58 -2 -65 -20 -65 -15 0 -20 7 -20 29 0 16 6 32 13 34 8 4 8 8
2 14 -5 4 -11 18 -13 31 -3 17 2 22 17 22 19 0 21 -6 21 -65z m1750 5 c0 -33
-4 -60 -10 -60 -6 0 -10 27 -10 60 0 33 4 60 10 60 6 0 10 -27 10 -60z m47
-42 c-2 -18 -4 -4 -4 32 0 36 2 50 4 33 2 -18 2 -48 0 -65z m1016 5 c-3 -49
-7 -90 -9 -91 -1 -2 -19 1 -38 8 -28 9 -36 17 -36 36 0 16 6 24 18 25 10 0 12
3 5 6 -14 5 -18 84 -6 96 3 4 21 7 39 7 l32 0 -5 -87z m-83 37 c0 -39 -1 -40
-35 -40 -34 0 -35 1 -35 40 0 39 1 40 35 40 34 0 35 -1 35 -40z m2308 -107
l-3 -108 -85 -7 c-47 -3 -116 -9 -155 -12 l-70 -6 -28 57 c-26 55 -38 152 -19
154 80 9 288 27 320 28 l43 1 -3 -107z m-2785 57 c-18 -4 -88 -11 -155 -14
-68 -4 -134 -10 -148 -12 -19 -4 -21 -3 -10 5 18 11 177 28 275 29 53 0 62 -2
38 -8z m322 -15 l40 -14 -49 5 c-27 3 -58 9 -70 14 -38 15 34 10 79 -5z m143
-12 c-4 -20 -36 -28 -57 -14 -21 13 -4 31 30 31 24 0 30 -4 27 -17z m1772 2
c36 -8 80 -14 98 -15 26 0 35 -5 43 -27 5 -15 18 -33 28 -40 17 -12 46 -73 35
-73 -2 0 -63 14 -135 31 l-131 31 6 29 c8 41 -2 59 -33 59 -20 0 -23 2 -11 10
19 12 22 12 100 -5z m-1860 -36 c63 -12 108 -25 101 -27 -17 -6 -243 39 -256
51 -6 6 -1 8 15 4 14 -3 77 -16 140 -28z m-2630 6 c0 -8 -9 -15 -20 -15 -11 0
-20 7 -20 15 0 8 9 15 20 15 11 0 20 -7 20 -15z m4414 -3 c12 -20 -7 -52 -30
-52 -26 0 -30 11 -14 41 11 19 35 26 44 11z m-2054 -196 c0 -216 3 -206 -71
-206 l-39 0 0 135 0 135 -42 0 c-24 0 -60 -3 -80 -6 l-38 -7 1 -125 c1 -140 0
-142 -68 -142 l-43 0 0 185 c0 183 0 185 23 190 12 3 94 11 182 19 88 7 163
14 168 15 4 0 7 -86 7 -193z m217 155 c246 -46 223 -38 223 -80 0 -68 -3 -68
-157 -35 -23 4 -23 4 -23 -125 0 -105 -3 -130 -15 -135 -13 -5 -15 14 -15 129
0 148 6 137 -75 149 -22 4 -52 9 -67 12 l-28 6 0 -141 c0 -134 -1 -141 -20
-141 -19 0 -20 7 -20 195 0 185 1 195 19 195 11 0 90 -13 178 -29z m-2577 -16
c0 -28 -4 -35 -19 -35 -15 0 -19 7 -19 35 0 28 4 35 19 35 15 0 19 -7 19 -35z
m3607 -67 c-2 -18 -4 -4 -4 32 0 36 2 50 4 33 2 -18 2 -48 0 -65z m-2207 63
c0 -11 -108 -27 -116 -18 -4 3 -3 10 1 16 8 13 115 15 115 2z m2910 -21 c0 -5
-12 -10 -27 -10 -16 0 -45 -3 -65 -6 -24 -4 -38 -3 -38 4 0 10 31 16 103 20
15 1 27 -2 27 -8z m-4310 -66 c0 -28 -3 -35 -17 -32 -12 2 -19 14 -21 36 -3
27 0 32 17 32 17 0 21 -6 21 -36z m803 29 c-7 -2 -21 -2 -30 0 -10 3 -4 5 12
5 17 0 24 -2 18 -5z m787 -67 c0 -58 -2 -64 -22 -70 -37 -10 -138 -7 -138 4 0
6 23 10 50 10 52 0 55 4 44 48 -6 19 -13 22 -60 22 -30 0 -54 4 -54 9 0 19 29
30 90 34 36 2 71 4 78 5 8 1 12 -16 12 -62z m3450 -5 c0 -82 3 -81 -147 -81
l-103 0 0 -45 0 -45 -39 0 -38 0 -7 89 c-10 126 -9 128 111 136 54 3 105 8
113 9 8 2 36 4 63 5 l47 1 0 -69z m-4197 -153 c11 -325 10 -368 -8 -368 -13 0
-15 40 -18 273 l-2 272 -3 -277 -2 -278 -25 0 -25 0 0 289 c0 316 -4 297 56
300 20 1 21 -4 27 -211z m3637 92 c0 -100 -2 -120 -15 -120 -12 0 -15 20 -15
120 0 100 3 120 15 120 13 0 15 -20 15 -120z m-3080 92 c0 -24 -55 -45 -70
-27 -6 7 -20 11 -31 8 -14 -4 -18 -2 -13 10 7 18 24 24 77 26 29 1 37 -3 37
-17z m830 -62 c0 -79 0 -80 -25 -80 -23 0 -25 4 -25 44 0 24 -3 57 -6 74 -5
24 -2 31 12 35 43 11 44 10 44 -73z m-70 -5 c0 -73 -1 -75 -25 -75 -24 0 -25
2 -25 75 0 73 1 75 25 75 24 0 25 -2 25 -75z m2470 -40 c0 -63 -4 -105 -10
-105 -6 0 -10 42 -10 105 0 63 4 105 10 105 6 0 10 -42 10 -105z m-1023 -82
c-2 -27 -3 -5 -3 47 0 52 1 74 3 48 2 -27 2 -69 0 -95z m-1877 117 c0 -5 -13
-10 -30 -10 -16 0 -30 5 -30 10 0 6 14 10 30 10 17 0 30 -4 30 -10z m-982 -28
c5 -16 -40 -16 -56 0 -7 7 -12 15 -12 19 0 11 63 -6 68 -19z m1019 22 c-3 -3
-12 -4 -19 -1 -8 3 -5 6 6 6 11 1 17 -2 13 -5z m3111 -66 c-2 -16 -11 -24 -30
-26 -19 -2 -25 -8 -21 -18 3 -8 -1 -14 -11 -14 -12 0 -16 9 -16 34 0 28 4 35
23 39 51 10 58 8 55 -15z m162 -13 c0 -33 -2 -35 -35 -35 -24 0 -35 5 -35 15
0 10 -11 15 -35 15 -24 0 -35 5 -35 14 0 15 27 21 103 24 36 2 37 1 37 -33z
m-3450 -60 c0 -64 0 -65 -28 -65 -24 0 -29 5 -39 43 -9 31 -20 47 -40 57 l-28
14 45 7 c96 13 90 17 90 -56z m641 58 c1 -5 2 -24 2 -43 l2 -35 -62 -3 -63 -3
0 40 c0 39 1 40 38 44 70 7 82 7 83 0z m2654 -33 c-3 -5 -10 -10 -16 -10 -5 0
-9 5 -9 10 0 6 7 10 16 10 8 0 12 -4 9 -10z m-3738 -137 c-2 -27 -3 -5 -3 47
0 52 1 74 3 48 2 -27 2 -69 0 -95z m53 47 c0 -53 -4 -90 -10 -90 -6 0 -10 37
-10 90 0 53 4 90 10 90 6 0 10 -37 10 -90z m2593 -76 l-48 -99 -52 3 -53 3 0
-49 0 -49 -52 -7 c-79 -9 -186 -7 -193 3 -3 5 -6 30 -7 55 l-2 46 -41 0 c-37
0 -42 4 -63 42 -12 23 -21 43 -19 45 2 1 107 10 233 19 126 9 238 19 248 23
21 8 10 8 -304 -14 -113 -7 -208 -10 -213 -6 -4 4 13 21 37 38 l44 31 263 18
c189 14 265 16 267 8 2 -6 -19 -56 -45 -110z m222 86 c66 -17 128 -33 138 -36
11 -3 17 -15 17 -33 0 -15 9 -36 19 -45 17 -16 19 -33 19 -192 0 -96 -2 -174
-3 -174 -1 0 -121 25 -265 55 -145 30 -272 53 -284 50 -12 -2 -165 -14 -341
-25 -176 -12 -378 -25 -450 -29 -121 -8 -145 -8 -134 3 2 3 137 12 299 20 162
9 342 21 400 26 214 21 277 17 513 -30 120 -23 220 -40 223 -37 12 12 -8 26
-46 32 -31 5 -40 11 -40 26 0 17 6 19 38 17 l37 -3 0 115 0 115 -44 0 c-55 0
-64 -19 -19 -40 l33 -15 -32 3 -33 4 0 -91 c0 -50 -4 -97 -9 -104 -7 -11 -19
-11 -70 -1 -33 6 -61 15 -61 19 0 4 16 11 35 14 l34 7 4 112 3 112 2 -117 c2
-111 3 -118 22 -118 19 0 20 7 20 124 0 93 -4 128 -14 138 -7 8 -40 20 -71 27
-48 11 -59 11 -66 0 -5 -8 -9 -78 -9 -156 0 -89 -4 -143 -10 -143 -6 0 -10 75
-10 206 0 191 1 205 18 200 9 -2 71 -19 137 -36z m-3885 -160 l0 -185 -60 3
c-33 2 -60 8 -60 14 0 6 19 9 45 6 l45 -3 0 167 c0 159 -1 168 -19 168 -11 0
-26 3 -35 6 -12 4 -15 -4 -18 -43 l-3 -48 -5 53 -5 52 57 -2 58 -3 0 -185z
m58 184 c36 -10 27 -34 -13 -34 -28 0 -35 4 -35 20 0 21 10 24 48 14z m2842
-57 l0 -54 -122 -6 c-114 -7 -123 -6 -140 13 -20 21 -43 18 -34 -5 5 -14 -35
-20 -183 -28 l-63 -3 5 39 c3 22 11 46 19 53 12 13 297 39 456 43 l62 1 0 -53z
m50 -152 c0 -176 -2 -205 -15 -205 -13 0 -15 29 -15 205 0 176 2 205 15 205
13 0 15 -29 15 -205z m-910 126 l0 -69 -57 -6 c-32 -3 -112 -8 -178 -11 -66
-4 -217 -13 -335 -21 -272 -18 -260 -10 -260 -182 l-1 -117 -24 28 c-25 28
-25 31 -25 207 l0 178 83 7 c213 16 726 53 760 54 l37 1 0 -69z m2755 56 c-25
-14 -164 -22 -150 -8 11 10 52 16 125 18 37 1 41 0 25 -10z m-4640 -7 c-3 -5
-15 -10 -26 -10 -11 0 -17 5 -14 10 3 6 15 10 26 10 11 0 17 -4 14 -10z m4445
1 c0 -9 -121 -21 -224 -21 -85 0 -79 17 9 23 125 7 215 7 215 -2z m-4160 -16
c0 -10 -10 -15 -27 -16 -16 0 -86 -6 -158 -13 -86 -9 -134 -10 -143 -3 -7 5
-10 12 -7 15 2 3 73 11 157 17 84 7 159 13 166 14 6 0 12 -6 12 -14z m40 -50
c0 -37 -4 -65 -10 -65 -11 0 -14 113 -3 123 12 13 13 7 13 -58z m-422 38 c-10
-2 -26 -2 -35 0 -10 3 -2 5 17 5 19 0 27 -2 18 -5z m4690 -49 l3 -51 -47 -7
c-76 -10 -74 -11 -74 44 0 57 16 71 80 67 35 -2 35 -2 38 -53z m-458 21 c-13
-14 -26 -22 -29 -19 -3 3 5 14 18 25 33 27 39 24 11 -6z m210 11 c0 -8 -4 -18
-10 -21 -5 -3 -10 3 -10 14 0 12 5 21 10 21 6 0 10 -6 10 -14z m410 -30 c0
-42 -1 -44 -37 -50 -71 -11 -73 -10 -73 38 l0 45 43 4 c23 2 48 4 55 5 8 1 12
-12 12 -42z m-4837 22 c-36 -17 -43 -60 -43 -253 0 -210 8 -195 -101 -195
l-69 0 0 59 c0 85 4 91 61 91 l49 0 0 -46 c0 -25 -5 -54 -11 -66 -13 -25 -11
-27 24 -21 l27 5 0 213 c0 230 -2 223 55 224 28 0 29 -1 8 -11z m357 -53 l0
-65 -35 0 -35 0 0 59 c0 54 2 60 23 64 47 9 47 10 47 -58z m1889 8 l-3 -57 77
-16 c42 -9 80 -20 84 -23 9 -10 -7 -9 -137 8 -83 11 -128 13 -160 6 -25 -5
-92 -12 -149 -15 -88 -5 -107 -4 -122 10 -14 13 -22 14 -32 5 -16 -12 -167 -4
-167 10 0 12 50 18 225 24 88 3 184 8 213 11 46 6 52 4 53 -12 1 -17 2 -17 6
-2 4 16 30 17 78 3 6 -1 11 17 12 41 1 41 8 64 19 64 3 0 4 -26 3 -57z m2041
37 c0 -16 -7 -20 -32 -20 -30 0 -31 0 -13 20 10 11 24 20 32 20 7 0 13 -9 13
-20z m17 -2 c-3 -8 -6 -5 -6 6 -1 11 2 17 5 13 3 -3 4 -12 1 -19z m243 12 c0
-5 -11 -10 -25 -10 -14 0 -25 5 -25 10 0 6 11 10 25 10 14 0 25 -4 25 -10z
m-2356 -21 c32 -25 27 -38 -6 -15 -12 9 -31 16 -41 16 -10 0 -15 5 -12 10 10
16 30 12 59 -11z m-1924 -40 c0 -44 -4 -55 -30 -79 -16 -15 -30 -37 -30 -49 0
-18 -6 -21 -49 -21 -57 0 -61 6 -61 88 0 105 4 108 113 111 l57 1 0 -51z
m4275 -209 c0 -211 -2 -245 -15 -245 -13 0 -15 32 -18 217 l-2 217 -103 -5
c-56 -3 -117 -7 -134 -10 l-33 -5 0 -209 c0 -180 -2 -210 -15 -210 -13 0 -15
30 -15 213 0 116 3 222 6 234 5 18 16 23 58 28 70 9 238 23 256 21 13 -1 15
-36 15 -246z m-1715 105 l0 -125 -55 0 -55 0 0 118 c0 65 3 122 7 125 3 4 28
7 55 7 l48 0 0 -125z m-120 -5 c0 -118 0 -120 -22 -120 -13 0 -40 -3 -60 -6
l-38 -7 0 127 0 126 60 0 60 0 0 -120z m-170 -24 c0 -106 -3 -136 -15 -146 -8
-7 -15 -19 -15 -26 0 -9 -12 -14 -35 -14 l-35 0 0 141 c0 93 -3 138 -10 134
-19 -12 -140 6 -140 21 0 14 39 19 173 22 l77 2 0 -134z m-2075 94 c3 -5 -1
-10 -9 -10 -8 0 -18 5 -21 10 -3 6 1 10 9 10 8 0 18 -4 21 -10z m4215 -200 l0
-210 -60 0 -60 0 0 204 0 205 53 4 c28 2 55 4 60 5 4 1 7 -92 7 -208z m-4270
190 c0 -5 -4 -10 -10 -10 -5 0 -10 5 -10 10 0 6 5 10 10 10 6 0 10 -4 10 -10z
m1120 -9 c0 -5 -18 -11 -40 -13 -28 -2 -40 0 -40 9 0 8 14 13 40 13 22 0 40
-4 40 -9z m43 2 c-7 -2 -19 -2 -25 0 -7 3 -2 5 12 5 14 0 19 -2 13 -5z m-148
-13 c4 -6 -6 -10 -22 -11 -90 -1 -186 -18 -195 -33 -10 -18 -34 -21 -44 -5
-14 23 26 44 99 50 120 10 156 9 162 -1z m-1065 -14 c0 -26 -16 -36 -61 -36
-27 0 -49 -4 -49 -10 0 -6 32 -10 75 -10 66 0 76 -2 86 -22 10 -18 9 -20 -5
-15 -8 3 -18 2 -20 -2 -3 -4 -76 -11 -163 -15 -86 -4 -161 -10 -165 -12 -4 -3
-8 -43 -8 -90 0 -77 -2 -84 -20 -84 -19 0 -20 7 -20 105 l0 105 93 1 c50 1
136 0 190 -1 65 -1 97 2 97 9 0 7 -29 11 -80 11 -77 0 -80 1 -80 23 0 35 19
47 77 47 29 0 53 -2 53 -4z m50 -6 c0 -5 -4 -10 -10 -10 -5 0 -10 5 -10 10 0
6 5 10 10 10 6 0 10 -4 10 -10z m2750 -32 c0 -47 -3 -47 -25 5 -15 36 -14 37
5 37 17 0 20 -7 20 -42z m310 8 c0 -19 -4 -38 -10 -41 -6 -4 -10 10 -10 34 0
23 5 41 10 41 6 0 10 -15 10 -34z m30 -1 c0 -19 -4 -35 -8 -35 -4 0 -6 16 -4
35 2 19 6 35 8 35 2 0 4 -16 4 -35z m60 0 c0 -24 -5 -35 -15 -35 -10 0 -15 11
-15 35 0 24 5 35 15 35 10 0 15 -11 15 -35z m-1322 19 c22 -6 22 -7 22 -205
l0 -199 -72 0 c-49 0 -68 3 -58 10 8 5 11 12 7 16 -4 4 -15 0 -25 -9 -10 -10
-23 -17 -29 -17 -6 0 -16 -7 -23 -15 -8 -9 -29 -15 -56 -15 -40 0 -74 -18 -74
-41 0 -5 -4 -9 -10 -9 -6 0 -10 74 -10 201 0 187 -2 204 -21 235 -16 26 -18
35 -7 39 30 10 322 18 356 9z m881 -51 c1 -13 -3 -23 -9 -23 -5 0 -10 19 -9
43 0 32 2 37 9 22 5 -11 9 -30 9 -42z m-1319 -1 c18 -7 -2 -9 -72 -5 l-98 6
-2 -234 -3 -234 -2 233 -3 232 -50 0 -50 0 -2 -232 -3 -233 -2 234 c-3 227 -4
233 -23 228 -11 -3 -22 -1 -25 3 -3 5 5 11 17 14 38 8 291 -1 318 -12z m547
-239 c-1 -49 -3 -9 -3 87 0 96 2 136 3 88 2 -49 2 -127 0 -175z m-590 -120
c-1 -65 -3 -14 -3 112 0 127 2 180 3 118 2 -62 2 -165 0 -230z m1543 301 c0
-17 -40 -34 -81 -34 -22 0 -29 5 -29 20 0 17 -7 20 -42 22 -24 1 -2 4 47 7
100 7 105 6 105 -15z m17 -11 c-3 -10 -5 -4 -5 12 0 17 2 24 5 18 2 -7 2 -21
0 -30z m123 12 c0 -22 -4 -25 -40 -25 -36 0 -40 3 -40 25 0 23 4 25 40 25 36
0 40 -2 40 -25z m38 3 c-2 -13 -7 -23 -13 -23 -5 0 -11 10 -13 23 -2 15 2 22
13 22 11 0 15 -7 13 -22z m79 -10 c-3 -7 -5 -2 -5 12 0 14 2 19 5 13 2 -7 2
-19 0 -25z m-210 -10 c-3 -7 -5 -2 -5 12 0 14 2 19 5 13 2 -7 2 -19 0 -25z
m-2969 -86 c2 -77 -1 -103 -10 -107 -7 -2 -46 -5 -85 -7 -70 -4 -73 -3 -73 19
0 22 -4 23 -70 23 l-70 0 0 85 0 84 93 4 c50 2 119 3 152 3 l60 -1 3 -103z
m36 -153 c-2 -9 -16 -21 -30 -27 -29 -14 -244 -16 -244 -3 0 10 84 21 172 21
56 0 69 3 78 19 5 11 11 73 12 138 l1 118 8 -125 c4 -69 6 -132 3 -141z m2659
254 c-7 -2 -21 -2 -30 0 -10 3 -4 5 12 5 17 0 24 -2 18 -5z m-1586 -320 c-1
-54 -3 -10 -3 97 0 107 2 151 3 98 2 -54 2 -142 0 -195z m1313 278 c0 -11 -25
-21 -56 -21 -23 0 -31 10 -17 23 10 10 73 8 73 -2z m-90 -11 c0 -6 -27 -10
-60 -10 -33 0 -60 4 -60 10 0 6 27 10 60 10 33 0 60 -4 60 -10z m754 -44 c-4
-18 -13 -26 -28 -27 -11 0 -232 -12 -491 -27 l-470 -27 -3 -107 c-2 -87 -6
-108 -17 -108 -12 0 -15 22 -15 125 0 92 3 127 13 130 6 2 199 16 427 30 228
15 453 30 500 34 47 4 86 6 88 5 2 -1 0 -13 -4 -28z m282 -26 c135 -27 248
-50 250 -50 2 0 4 -21 4 -46 0 -43 -2 -46 -22 -41 -13 3 -122 26 -243 51 -302
63 -276 53 -258 99 8 20 17 37 19 37 2 0 115 -22 250 -50z m-3829 -22 c-3 -8
-6 -5 -6 6 -1 11 2 17 5 13 3 -3 4 -12 1 -19z m4913 -78 c0 -17 -7 -20 -50
-20 -43 0 -50 3 -50 20 0 17 7 20 50 20 43 0 50 -3 50 -20z m-355 -9 c3 -5 1
-12 -5 -16 -5 -3 -10 1 -10 9 0 18 6 21 15 7z m-4145 -12 c-66 -11 -190 -11
-190 1 0 6 45 10 118 9 92 -1 107 -3 72 -10z m2390 -57 c0 -22 -6 -29 -35 -38
-33 -10 -34 -10 -40 17 -9 39 0 49 41 49 30 0 34 -3 34 -28z m1158 -16 c4 -32
-15 -35 -20 -3 -5 33 -33 28 -31 -6 1 -15 -2 -25 -8 -22 -13 9 -11 63 4 68 24
8 52 -10 55 -37z m-4048 -13 c0 -19 -3 -24 -10 -17 -6 6 -8 18 -4 27 9 24 14
21 14 -10z m2345 16 c26 -7 23 -8 -17 -6 -62 3 -62 -8 -1 -19 35 -7 49 -14 51
-28 3 -11 0 -16 -7 -11 -6 3 -9 11 -6 16 4 5 -6 9 -22 9 -15 0 -38 3 -50 6
-17 5 -23 2 -23 -9 0 -9 6 -17 13 -20 6 -2 5 -3 -4 -2 -26 4 -49 -14 -49 -39
0 -35 -19 -45 -72 -39 -47 5 -48 7 -48 39 l0 33 68 3 c67 3 67 3 64 31 -5 40
36 55 103 36z m159 -17 c2 -4 -11 -6 -30 -4 -19 2 -34 6 -34 8 0 8 59 4 64 -4z
m1996 -17 c0 -12 -13 -15 -55 -15 -42 0 -55 3 -55 15 0 12 13 15 55 15 42 0
55 -3 55 -15z m-3697 -2 c-7 -2 -19 -2 -25 0 -7 3 -2 5 12 5 14 0 19 -2 13 -5z
m1604 -30 c-3 -10 -5 -4 -5 12 0 17 2 24 5 18 2 -7 2 -21 0 -30z m-209 20
c-16 -2 -40 -2 -55 0 -16 2 -3 4 27 4 30 0 43 -2 28 -4z m-99 -45 c0 -13 -4
-32 -9 -43 -7 -15 -9 -10 -9 23 -1 23 4 42 9 42 6 0 10 -10 9 -22z m2815 -25
c-10 -40 -14 -41 -14 -5 0 18 5 32 10 32 6 0 8 -11 4 -27z m-2274 6 c0 -5 -75
-9 -172 -8 -109 0 -166 4 -153 9 27 12 325 11 325 -1z m110 -4 c0 -8 -7 -15
-15 -15 -8 0 -15 7 -15 15 0 8 7 15 15 15 8 0 15 -7 15 -15z m-1930 -15 c0 -5
-13 -10 -30 -10 -16 0 -30 5 -30 10 0 6 14 10 30 10 17 0 30 -4 30 -10z"/>
<path d="M3157 4795 c-20 -14 -37 -28 -37 -31 0 -8 56 24 69 40 19 22 12 20
-32 -9z"/>
<path d="M1093 3343 c9 -2 23 -2 30 0 6 3 -1 5 -18 5 -16 0 -22 -2 -12 -5z"/>
<path d="M535 3280 c-15 -6 -7 -9 30 -9 37 0 45 3 30 9 -11 5 -24 9 -30 9 -5
0 -19 -4 -30 -9z"/>
<path d="M1565 1230 c-3 -5 -2 -10 4 -10 5 0 13 5 16 10 3 6 2 10 -4 10 -5 0
-13 -4 -16 -10z"/>
<path d="M4510 1255 c0 -2 26 -12 58 -21 31 -9 63 -19 70 -21 6 -3 12 -1 12 5
0 5 -29 17 -65 26 -70 18 -75 18 -75 11z"/>
<path d="M4810 5080 c0 -22 5 -40 10 -40 6 0 10 18 10 40 0 22 -4 40 -10 40
-5 0 -10 -18 -10 -40z"/>
<path d="M4950 5045 l0 -75 85 0 85 0 0 59 c0 91 0 91 -91 91 l-79 0 0 -75z"/>
<path d="M1999 5060 c-19 -11 -45 -68 -36 -77 4 -3 10 3 13 13 21 57 70 70
109 29 14 -16 26 -22 30 -16 3 6 -5 22 -19 36 -26 26 -67 32 -97 15z"/>
<path d="M3608 4833 c34 -2 88 -2 120 0 31 2 3 3 -63 3 -66 0 -92 -1 -57 -3z"/>
<path d="M4326 4791 c-4 -5 0 -13 7 -18 41 -24 48 -94 14 -144 -27 -40 -77
-54 -77 -21 0 24 -30 52 -56 52 -15 -1 -14 -4 8 -16 30 -16 43 -50 35 -91 -5
-27 -5 -27 12 -6 9 12 29 25 44 29 52 12 91 107 67 163 -15 37 -46 66 -54 52z"/>
<path d="M5054 4735 c14 -13 26 -32 26 -42 1 -22 27 -59 36 -50 4 4 2 12 -3
19 -6 7 -14 24 -18 38 -10 32 -34 60 -53 60 -10 0 -6 -8 12 -25z"/>
<path d="M4665 4706 c-22 -9 -47 -24 -57 -36 -10 -13 -28 -20 -50 -20 -44 0
-75 -23 -83 -60 -7 -30 -7 -30 -77 -30 -61 0 -69 -2 -58 -15 10 -12 48 -15
221 -15 133 0 209 -4 209 -10 0 -6 -56 -10 -147 -11 -82 0 -166 -4 -188 -8
-26 -6 34 -9 177 -10 135 -1 219 3 223 9 3 6 27 11 53 12 40 1 37 2 -21 7 -82
7 -93 25 -17 29 30 2 59 7 65 13 5 5 17 9 26 9 9 0 20 7 23 16 5 13 2 14 -11
9 -47 -20 -172 -34 -310 -35 -145 0 -153 1 -153 19 0 35 29 53 77 49 26 -2 43
1 43 8 0 25 50 57 99 62 89 8 161 -35 161 -97 1 -23 2 -24 11 -8 13 21 -12 70
-51 99 -34 25 -115 32 -165 14z"/>
<path d="M1210 4570 c0 -6 60 -10 163 -9 113 1 150 4 122 10 -58 12 -285 11
-285 -1z"/>
<path d="M1 4516 c10 -8 89 -13 83 -5 -3 5 -24 9 -46 9 -23 0 -39 -2 -37 -4z"/>
<path d="M5096 4485 c-3 -8 -20 -24 -38 -35 -35 -21 -22 -28 15 -8 34 18 60
58 38 58 -5 0 -11 -7 -15 -15z"/>
<path d="M405 4480 c-3 -5 -30 -10 -60 -10 -30 0 -56 -4 -59 -9 -3 -4 -23 -11
-45 -15 -36 -5 -71 -34 -71 -58 0 -16 16 -7 25 15 7 15 20 23 44 25 19 2 45
10 57 19 16 10 35 13 58 9 20 -4 37 -2 41 4 3 5 20 10 36 10 23 0 34 -7 51
-35 11 -20 23 -34 25 -31 6 5 -14 45 -35 69 -16 19 -57 23 -67 7z"/>
<path d="M20 4373 c14 -18 19 -35 15 -50 -18 -75 72 -85 98 -10 6 15 25 17
211 17 175 0 206 -2 214 -16 7 -13 39 -14 278 -7 253 7 262 8 154 15 -63 4
-184 5 -267 1 -119 -4 -153 -3 -153 7 0 8 9 11 27 7 18 -3 37 2 54 14 24 17
59 19 410 27 l384 9 -391 1 c-367 2 -393 1 -415 -17 -22 -16 -47 -18 -259 -20
-231 -1 -235 -1 -252 -24 -53 -70 -78 -71 -78 -2 0 28 -6 47 -18 58 -29 26
-36 20 -12 -10z"/>
<path d="M5090 4345 c0 -11 -10 -13 -49 -8 -66 8 -106 -20 -123 -83 -9 -33
-17 -44 -32 -44 -11 0 -27 -6 -35 -14 -30 -25 -134 -36 -337 -36 -124 0 -205
-4 -209 -10 -4 -7 62 -10 190 -10 193 0 196 0 185 -20 -8 -15 -21 -20 -50 -20
-21 0 -41 -3 -43 -7 -7 -11 86 -3 100 9 6 5 28 8 49 6 33 -3 38 0 44 22 4 18
14 26 35 28 16 2 36 13 43 24 11 15 23 19 47 16 32 -4 33 -3 28 27 -4 24 1 39
21 62 33 39 64 47 110 28 34 -14 36 -14 36 3 0 10 5 23 12 30 9 9 8 12 -5 12
-9 0 -17 -7 -17 -15z m-320 -221 c0 -11 -5 -14 -16 -10 -9 3 -22 6 -30 6 -9 0
-12 5 -9 10 10 17 55 12 55 -6z"/>
<path d="M311 4280 c-13 -11 -34 -20 -47 -20 -12 0 -25 -3 -28 -8 -10 -16 74
1 90 19 9 10 27 19 39 19 23 0 55 -28 55 -48 0 -7 4 -12 10 -12 12 0 2 29 -18
53 -20 23 -71 21 -101 -3z"/>
<path d="M607 4222 c-9 -10 -17 -24 -17 -30 0 -15 -26 -16 -35 -2 -3 6 -39 9
-78 8 -65 -2 -67 -2 -17 -5 82 -5 85 -8 59 -44 -22 -31 -22 -36 10 -89 42 -72
52 -101 40 -116 -10 -12 -9 -13 5 -8 9 3 16 17 16 30 0 28 7 30 38 8 24 -17
30 -62 10 -82 -6 -6 -9 -15 -5 -19 4 -4 13 -1 19 5 33 33 87 -13 70 -59 -7
-19 -4 -27 14 -42 31 -24 31 -60 0 -85 -17 -13 -22 -23 -15 -33 27 -42 -1
-119 -44 -119 -9 0 -18 -4 -21 -9 -13 -21 51 1 71 24 24 28 29 59 14 97 -7 19
-4 29 15 47 30 29 30 41 2 76 -15 19 -21 39 -19 61 3 35 -26 74 -54 74 -8 0
-15 8 -15 19 0 32 -39 71 -70 71 -30 0 -51 24 -43 48 3 7 -6 21 -18 31 -20 16
-22 23 -14 47 8 21 19 30 40 34 20 3 34 14 43 33 15 31 37 34 71 11 17 -13 22
-24 19 -46 -3 -17 0 -27 6 -25 20 7 17 45 -6 70 -31 36 -69 43 -91 19z"/>
<path d="M5082 4174 c-12 -8 -22 -20 -22 -26 0 -6 8 -4 18 5 10 10 24 17 30
17 7 0 12 5 12 10 0 14 -12 12 -38 -6z"/>
<path d="M14 4148 c11 -18 30 -21 138 -22 37 -1 58 3 58 10 0 13 142 30 159
20 5 -4 13 -2 16 4 5 8 -52 10 -188 8 -182 -3 -193 -4 -183 -20z"/>
<path d="M82 4033 c49 -2 127 -2 175 0 49 1 9 3 -87 3 -96 0 -136 -2 -88 -3z"/>
<path d="M4668 4033 c83 -2 221 -2 305 0 83 1 15 3 -153 3 -168 0 -236 -2
-152 -3z"/>
<path d="M497 3872 c-22 -24 -22 -84 1 -112 l17 -22 19 21 c11 12 14 21 8 21
-6 0 -14 -5 -18 -12 -10 -16 -34 19 -34 51 0 13 7 33 17 43 9 10 14 20 11 23
-3 3 -12 -3 -21 -13z"/>
<path d="M770 320 c0 -17 7 -20 40 -20 33 0 40 3 40 20 0 17 -7 20 -40 20 -33
0 -40 -3 -40 -20z"/>
<path d="M1664 150 c0 -85 2 -120 3 -78 2 43 2 113 0 156 -1 42 -3 7 -3 -78z"/>
<path d="M3427 114 c-11 -11 -8 -114 3 -114 6 0 10 16 10 35 0 34 2 35 36 35
35 0 36 -1 32 -35 -2 -22 0 -34 6 -32 6 2 11 28 11 58 l0 54 -45 3 c-25 2 -49
0 -53 -4z"/>
<path d="M4197 53 c-4 -3 -7 -17 -7 -30 0 -22 4 -23 65 -23 l65 0 0 30 c0 30
0 30 -58 30 -32 0 -62 -3 -65 -7z"/>
<path d="M3460 20 c0 -11 7 -20 15 -20 8 0 15 9 15 20 0 11 -7 20 -15 20 -8 0
-15 -9 -15 -20z"/>
</g>
</svg>